solid OpenSCAD_Model
  facet normal -0 0 -1
    outer loop
      vertex -4 0 0
      vertex -3.69407 2.91076 0
      vertex -3.69407 -2.91076 0
    endloop
  endfacet
  facet normal 0 -0 -1
    outer loop
      vertex -3.69407 -2.91076 0
      vertex -3.69407 2.91076 0
      vertex -2.78964 5.69431 0
    endloop
  endfacet
  facet normal 0 0 -1
    outer loop
      vertex -3.69407 -2.91076 0
      vertex -2.78964 5.69431 0
      vertex -1.32624 8.22899 0
    endloop
  endfacet
  facet normal 0 0 -1
    outer loop
      vertex -3.69407 -2.91076 0
      vertex -1.32624 8.22899 0
      vertex 0 9.70193 0
    endloop
  endfacet
  facet normal 0 -0 -1
    outer loop
      vertex 1 31 0
      vertex 0 32 0
      vertex 2 32 0
    endloop
  endfacet
  facet normal 0 -0 -1
    outer loop
      vertex 0 9.70193 0
      vertex 0 32 0
      vertex 1 31 0
    endloop
  endfacet
  facet normal 0 0 -1
    outer loop
      vertex 1 10.6713 0
      vertex 0 9.70193 0
      vertex 1 31 0
    endloop
  endfacet
  facet normal 0 0 -1
    outer loop
      vertex 18 32 0
      vertex 19 31 0
      vertex 18 31 0
    endloop
  endfacet
  facet normal -0 0 -1
    outer loop
      vertex 0 9.70193 0
      vertex 1 10.6713 0
      vertex -3.69407 -2.91076 0
    endloop
  endfacet
  facet normal 0 0 -1
    outer loop
      vertex -3.69407 -2.91076 0
      vertex 1 10.6713 0
      vertex 3 12.1244 0
    endloop
  endfacet
  facet normal -0 0 -1
    outer loop
      vertex 3 12.1244 0
      vertex 5.67376 13.3148 0
      vertex -3.69407 -2.91076 0
    endloop
  endfacet
  facet normal 0 0 -1
    outer loop
      vertex 3.30869 7.43145 0
      vertex 5.67376 13.3148 0
      vertex 8.5366 13.9233 0
    endloop
  endfacet
  facet normal 0 0 -1
    outer loop
      vertex 6.90983 9.51056 0
      vertex 8.5366 13.9233 0
      vertex 11.4634 13.9233 0
    endloop
  endfacet
  facet normal 0 0 -1
    outer loop
      vertex 8.95471 9.94522 0
      vertex 11.4634 13.9233 0
      vertex 14.3262 13.3148 0
    endloop
  endfacet
  facet normal 0 0 -1
    outer loop
      vertex 13.0902 9.51056 0
      vertex 14.3262 13.3148 0
      vertex 17 12.1244 0
    endloop
  endfacet
  facet normal 0 0 -1
    outer loop
      vertex 15 8.66025 0
      vertex 17 12.1244 0
      vertex 19 10.6713 0
    endloop
  endfacet
  facet normal 0 0 -1
    outer loop
      vertex 3.30869 7.43145 0
      vertex 8.5366 13.9233 0
      vertex 5 8.66025 0
    endloop
  endfacet
  facet normal 0 -0 -1
    outer loop
      vertex 0 0 0
      vertex -3.69407 -2.91076 0
      vertex 0.218524 2.07912 0
    endloop
  endfacet
  facet normal 0 -0 -1
    outer loop
      vertex 19 31 0
      vertex 18 32 0
      vertex 20 32 0
    endloop
  endfacet
  facet normal -0 0 -1
    outer loop
      vertex 19 31 0
      vertex 20 32 0
      vertex 19 10.6713 0
    endloop
  endfacet
  facet normal -0 0 -1
    outer loop
      vertex 19 10.6713 0
      vertex 20 32 0
      vertex 20 9.70193 0
    endloop
  endfacet
  facet normal 0 0 -1
    outer loop
      vertex 20 0 0
      vertex 24 0 0
      vertex 19.7815 -2.07912 0
    endloop
  endfacet
  facet normal 0 0 -1
    outer loop
      vertex 16.6913 7.43145 0
      vertex 20 9.70193 0
      vertex 21.3262 8.22899 0
    endloop
  endfacet
  facet normal -0 0 -1
    outer loop
      vertex 18.0902 5.87785 0
      vertex 21.3262 8.22899 0
      vertex 22.7896 5.69431 0
    endloop
  endfacet
  facet normal -0 0 -1
    outer loop
      vertex 19.1355 4.06737 0
      vertex 22.7896 5.69431 0
      vertex 23.6941 2.91076 0
    endloop
  endfacet
  facet normal -0 0 -1
    outer loop
      vertex 20 0 0
      vertex 23.6941 2.91076 0
      vertex 24 0 0
    endloop
  endfacet
  facet normal -0 0 -1
    outer loop
      vertex 19.7815 -2.07912 0
      vertex 24 0 0
      vertex 23.6941 -2.91076 0
    endloop
  endfacet
  facet normal -0 0 -1
    outer loop
      vertex 19.1355 -4.06737 0
      vertex 23.6941 -2.91076 0
      vertex 22.7896 -5.69431 0
    endloop
  endfacet
  facet normal -0 0 -1
    outer loop
      vertex 18.0902 -5.87785 0
      vertex 22.7896 -5.69431 0
      vertex 21.3262 -8.22899 0
    endloop
  endfacet
  facet normal -0 0 -1
    outer loop
      vertex 15 -8.66025 0
      vertex 21.3262 -8.22899 0
      vertex 19.3678 -10.404 0
    endloop
  endfacet
  facet normal 0 0 -1
    outer loop
      vertex 13.0902 -9.51056 0
      vertex 19.3678 -10.404 0
      vertex 17 -12.1244 0
    endloop
  endfacet
  facet normal 0 0 -1
    outer loop
      vertex 8.95471 -9.94522 0
      vertex 17 -12.1244 0
      vertex 14.3262 -13.3148 0
    endloop
  endfacet
  facet normal 0 0 -1
    outer loop
      vertex 5 -8.66025 0
      vertex 14.3262 -13.3148 0
      vertex 11.4634 -13.9233 0
    endloop
  endfacet
  facet normal 0 0 -1
    outer loop
      vertex -3.69407 -2.91076 0
      vertex 11.4634 -13.9233 0
      vertex 8.5366 -13.9233 0
    endloop
  endfacet
  facet normal 0 0 -1
    outer loop
      vertex -3.69407 -2.91076 0
      vertex 8.5366 -13.9233 0
      vertex 5.67376 -13.3148 0
    endloop
  endfacet
  facet normal 0 0 -1
    outer loop
      vertex -3.69407 -2.91076 0
      vertex 5.67376 -13.3148 0
      vertex 3 -12.1244 0
    endloop
  endfacet
  facet normal 0 0 -1
    outer loop
      vertex -3.69407 -2.91076 0
      vertex 3 -12.1244 0
      vertex 0.632172 -10.404 0
    endloop
  endfacet
  facet normal 0 0 -1
    outer loop
      vertex -3.69407 -2.91076 0
      vertex 0.632172 -10.404 0
      vertex -1.32624 -8.22899 0
    endloop
  endfacet
  facet normal 0 0 -1
    outer loop
      vertex -3.69407 -2.91076 0
      vertex -1.32624 -8.22899 0
      vertex -2.78964 -5.69431 0
    endloop
  endfacet
  facet normal 0 0 -1
    outer loop
      vertex 0.218524 -2.07912 0
      vertex -3.69407 -2.91076 0
      vertex 0 0 0
    endloop
  endfacet
  facet normal 0 0 -1
    outer loop
      vertex 0.864545 -4.06737 0
      vertex -3.69407 -2.91076 0
      vertex 0.218524 -2.07912 0
    endloop
  endfacet
  facet normal 0 0 -1
    outer loop
      vertex 1.90983 -5.87785 0
      vertex -3.69407 -2.91076 0
      vertex 0.864545 -4.06737 0
    endloop
  endfacet
  facet normal 0 0 -1
    outer loop
      vertex 3.30869 -7.43145 0
      vertex -3.69407 -2.91076 0
      vertex 1.90983 -5.87785 0
    endloop
  endfacet
  facet normal 0 0 -1
    outer loop
      vertex 8.95471 -9.94522 0
      vertex 14.3262 -13.3148 0
      vertex 6.90983 -9.51056 0
    endloop
  endfacet
  facet normal 0 0 -1
    outer loop
      vertex -3.69407 -2.91076 0
      vertex 3.30869 -7.43145 0
      vertex 11.4634 -13.9233 0
    endloop
  endfacet
  facet normal 0 0 -1
    outer loop
      vertex 6.90983 -9.51056 0
      vertex 14.3262 -13.3148 0
      vertex 5 -8.66025 0
    endloop
  endfacet
  facet normal 0 0 -1
    outer loop
      vertex 3.30869 -7.43145 0
      vertex 5 -8.66025 0
      vertex 11.4634 -13.9233 0
    endloop
  endfacet
  facet normal 0 0 -1
    outer loop
      vertex 11.0453 -9.94522 0
      vertex 17 -12.1244 0
      vertex 8.95471 -9.94522 0
    endloop
  endfacet
  facet normal 0 0 -1
    outer loop
      vertex 13.0902 -9.51056 0
      vertex 17 -12.1244 0
      vertex 11.0453 -9.94522 0
    endloop
  endfacet
  facet normal 0 0 -1
    outer loop
      vertex 16.6913 -7.43145 0
      vertex 21.3262 -8.22899 0
      vertex 15 -8.66025 0
    endloop
  endfacet
  facet normal 0 0 -1
    outer loop
      vertex 18.0902 -5.87785 0
      vertex 21.3262 -8.22899 0
      vertex 16.6913 -7.43145 0
    endloop
  endfacet
  facet normal 0 0 -1
    outer loop
      vertex 15 -8.66025 0
      vertex 19.3678 -10.404 0
      vertex 13.0902 -9.51056 0
    endloop
  endfacet
  facet normal -0 0 -1
    outer loop
      vertex 19.7815 2.07912 0
      vertex 23.6941 2.91076 0
      vertex 20 0 0
    endloop
  endfacet
  facet normal 0 0 -1
    outer loop
      vertex 18.0902 5.87785 0
      vertex 22.7896 5.69431 0
      vertex 19.1355 4.06737 0
    endloop
  endfacet
  facet normal 0 0 -1
    outer loop
      vertex 19.1355 4.06737 0
      vertex 23.6941 2.91076 0
      vertex 19.7815 2.07912 0
    endloop
  endfacet
  facet normal 0 0 -1
    outer loop
      vertex 19.7815 -2.07912 0
      vertex 23.6941 -2.91076 0
      vertex 19.1355 -4.06737 0
    endloop
  endfacet
  facet normal -0 0 -1
    outer loop
      vertex 11.0453 9.94522 0
      vertex 14.3262 13.3148 0
      vertex 13.0902 9.51056 0
    endloop
  endfacet
  facet normal -0 0 -1
    outer loop
      vertex 8.95471 9.94522 0
      vertex 14.3262 13.3148 0
      vertex 11.0453 9.94522 0
    endloop
  endfacet
  facet normal -0 0 -1
    outer loop
      vertex 13.0902 9.51056 0
      vertex 17 12.1244 0
      vertex 15 8.66025 0
    endloop
  endfacet
  facet normal 0 0 -1
    outer loop
      vertex 5 8.66025 0
      vertex 8.5366 13.9233 0
      vertex 6.90983 9.51056 0
    endloop
  endfacet
  facet normal 0 0 -1
    outer loop
      vertex 1.90983 5.87785 0
      vertex 5.67376 13.3148 0
      vertex 3.30869 7.43145 0
    endloop
  endfacet
  facet normal 0 -0 -1
    outer loop
      vertex 0.218524 2.07912 0
      vertex -3.69407 -2.91076 0
      vertex 0.864545 4.06737 0
    endloop
  endfacet
  facet normal 0 0 -1
    outer loop
      vertex -3.69407 -2.91076 0
      vertex 5.67376 13.3148 0
      vertex 1.90983 5.87785 0
    endloop
  endfacet
  facet normal 0 0 -1
    outer loop
      vertex -3.69407 -2.91076 0
      vertex 1.90983 5.87785 0
      vertex 0.864545 4.06737 0
    endloop
  endfacet
  facet normal -0 0 -1
    outer loop
      vertex 1 31 0
      vertex 2 32 0
      vertex 2 31 0
    endloop
  endfacet
  facet normal 0 0 -1
    outer loop
      vertex 6.90983 9.51056 0
      vertex 11.4634 13.9233 0
      vertex 8.95471 9.94522 0
    endloop
  endfacet
  facet normal 0 0 -1
    outer loop
      vertex 15 8.66025 0
      vertex 19 10.6713 0
      vertex 20 9.70193 0
    endloop
  endfacet
  facet normal -0 0 -1
    outer loop
      vertex 15 8.66025 0
      vertex 20 9.70193 0
      vertex 16.6913 7.43145 0
    endloop
  endfacet
  facet normal -0 0 -1
    outer loop
      vertex 16.6913 7.43145 0
      vertex 21.3262 8.22899 0
      vertex 18.0902 5.87785 0
    endloop
  endfacet
  facet normal 0 0 -1
    outer loop
      vertex 19.1355 -4.06737 0
      vertex 22.7896 -5.69431 0
      vertex 18.0902 -5.87785 0
    endloop
  endfacet
  facet normal -0.994522 0.104529 0
    outer loop
      vertex -4 0 0
      vertex -4 0 6
      vertex -3.69407 2.91076 0
    endloop
  endfacet
  facet normal -0.994522 0.104529 0
    outer loop
      vertex -3.69407 2.91076 0
      vertex -4 0 6
      vertex -3.69407 2.91076 6
    endloop
  endfacet
  facet normal -0.994522 -0.104529 -0
    outer loop
      vertex -4 0 0
      vertex -3.69407 -2.91076 0
      vertex -4 0 6
    endloop
  endfacet
  facet normal -0.994522 -0.104529 0
    outer loop
      vertex -4 0 6
      vertex -3.69407 -2.91076 0
      vertex -3.69407 -2.91076 6
    endloop
  endfacet
  facet normal -0.951057 -0.309017 -0
    outer loop
      vertex -3.69407 -2.91076 0
      vertex -2.78964 -5.69431 0
      vertex -3.69407 -2.91076 6
    endloop
  endfacet
  facet normal -0.951057 -0.309017 0
    outer loop
      vertex -3.69407 -2.91076 6
      vertex -2.78964 -5.69431 0
      vertex -2.78964 -5.69431 6
    endloop
  endfacet
  facet normal -0.866026 -0.5 -0
    outer loop
      vertex -2.78964 -5.69431 0
      vertex -1.32624 -8.22899 0
      vertex -2.78964 -5.69431 6
    endloop
  endfacet
  facet normal -0.866026 -0.5 0
    outer loop
      vertex -2.78964 -5.69431 6
      vertex -1.32624 -8.22899 0
      vertex -1.32624 -8.22899 6
    endloop
  endfacet
  facet normal -0.743145 -0.669131 -0
    outer loop
      vertex -1.32624 -8.22899 0
      vertex 0.632172 -10.404 0
      vertex -1.32624 -8.22899 6
    endloop
  endfacet
  facet normal -0.743145 -0.669131 0
    outer loop
      vertex -1.32624 -8.22899 6
      vertex 0.632172 -10.404 0
      vertex 0.632172 -10.404 6
    endloop
  endfacet
  facet normal -0.587785 -0.809017 0
    outer loop
      vertex 0.632172 -10.404 6
      vertex 0.632172 -10.404 0
      vertex 3 -12.1244 0
    endloop
  endfacet
  facet normal -0.587785 -0.809017 0
    outer loop
      vertex 3 -12.1244 6
      vertex 0.632172 -10.404 6
      vertex 3 -12.1244 0
    endloop
  endfacet
  facet normal -0.406736 -0.913546 0
    outer loop
      vertex 3 -12.1244 6
      vertex 3 -12.1244 0
      vertex 5.67376 -13.3148 0
    endloop
  endfacet
  facet normal -0.406736 -0.913546 0
    outer loop
      vertex 5.67376 -13.3148 6
      vertex 3 -12.1244 6
      vertex 5.67376 -13.3148 0
    endloop
  endfacet
  facet normal -0.207912 -0.978148 0
    outer loop
      vertex 5.67376 -13.3148 6
      vertex 5.67376 -13.3148 0
      vertex 8.5366 -13.9233 0
    endloop
  endfacet
  facet normal -0.207912 -0.978148 0
    outer loop
      vertex 8.5366 -13.9233 6
      vertex 5.67376 -13.3148 6
      vertex 8.5366 -13.9233 0
    endloop
  endfacet
  facet normal 0 -1 0
    outer loop
      vertex 8.5366 -13.9233 6
      vertex 8.5366 -13.9233 0
      vertex 11.4634 -13.9233 0
    endloop
  endfacet
  facet normal 0 -1 0
    outer loop
      vertex 11.4634 -13.9233 6
      vertex 8.5366 -13.9233 6
      vertex 11.4634 -13.9233 0
    endloop
  endfacet
  facet normal 0.207912 -0.978148 0
    outer loop
      vertex 11.4634 -13.9233 6
      vertex 11.4634 -13.9233 0
      vertex 14.3262 -13.3148 0
    endloop
  endfacet
  facet normal 0.207912 -0.978148 0
    outer loop
      vertex 14.3262 -13.3148 6
      vertex 11.4634 -13.9233 6
      vertex 14.3262 -13.3148 0
    endloop
  endfacet
  facet normal 0.406736 -0.913546 0
    outer loop
      vertex 14.3262 -13.3148 6
      vertex 14.3262 -13.3148 0
      vertex 17 -12.1244 0
    endloop
  endfacet
  facet normal 0.406736 -0.913546 0
    outer loop
      vertex 17 -12.1244 6
      vertex 14.3262 -13.3148 6
      vertex 17 -12.1244 0
    endloop
  endfacet
  facet normal 0.587785 -0.809017 0
    outer loop
      vertex 17 -12.1244 6
      vertex 17 -12.1244 0
      vertex 19.3678 -10.404 0
    endloop
  endfacet
  facet normal 0.587785 -0.809017 0
    outer loop
      vertex 19.3678 -10.404 6
      vertex 17 -12.1244 6
      vertex 19.3678 -10.404 0
    endloop
  endfacet
  facet normal 0.743145 -0.669131 0
    outer loop
      vertex 19.3678 -10.404 6
      vertex 19.3678 -10.404 0
      vertex 21.3262 -8.22899 0
    endloop
  endfacet
  facet normal 0.743145 -0.669131 0
    outer loop
      vertex 21.3262 -8.22899 6
      vertex 19.3678 -10.404 6
      vertex 21.3262 -8.22899 0
    endloop
  endfacet
  facet normal 0.866026 -0.5 0
    outer loop
      vertex 21.3262 -8.22899 6
      vertex 21.3262 -8.22899 0
      vertex 22.7896 -5.69431 0
    endloop
  endfacet
  facet normal 0.866026 -0.5 0
    outer loop
      vertex 22.7896 -5.69431 6
      vertex 21.3262 -8.22899 6
      vertex 22.7896 -5.69431 0
    endloop
  endfacet
  facet normal 0.951057 -0.309017 0
    outer loop
      vertex 22.7896 -5.69431 6
      vertex 22.7896 -5.69431 0
      vertex 23.6941 -2.91076 0
    endloop
  endfacet
  facet normal 0.951057 -0.309017 0
    outer loop
      vertex 23.6941 -2.91076 6
      vertex 22.7896 -5.69431 6
      vertex 23.6941 -2.91076 0
    endloop
  endfacet
  facet normal 0.994522 -0.104529 0
    outer loop
      vertex 23.6941 -2.91076 6
      vertex 23.6941 -2.91076 0
      vertex 24 0 0
    endloop
  endfacet
  facet normal 0.994522 -0.104529 0
    outer loop
      vertex 24 0 6
      vertex 23.6941 -2.91076 6
      vertex 24 0 0
    endloop
  endfacet
  facet normal 0.994522 0.104529 0
    outer loop
      vertex 24 0 0
      vertex 23.6941 2.91076 0
      vertex 23.6941 2.91076 6
    endloop
  endfacet
  facet normal 0.994522 0.104529 -0
    outer loop
      vertex 24 0 6
      vertex 24 0 0
      vertex 23.6941 2.91076 6
    endloop
  endfacet
  facet normal 0.951057 0.309017 0
    outer loop
      vertex 23.6941 2.91076 0
      vertex 22.7896 5.69431 0
      vertex 22.7896 5.69431 6
    endloop
  endfacet
  facet normal 0.951057 0.309017 -0
    outer loop
      vertex 23.6941 2.91076 6
      vertex 23.6941 2.91076 0
      vertex 22.7896 5.69431 6
    endloop
  endfacet
  facet normal 0.866026 0.5 0
    outer loop
      vertex 22.7896 5.69431 0
      vertex 21.3262 8.22899 0
      vertex 21.3262 8.22899 6
    endloop
  endfacet
  facet normal 0.866026 0.5 -0
    outer loop
      vertex 22.7896 5.69431 6
      vertex 22.7896 5.69431 0
      vertex 21.3262 8.22899 6
    endloop
  endfacet
  facet normal 0.743145 0.669131 0
    outer loop
      vertex 21.3262 8.22899 0
      vertex 20 9.70193 0
      vertex 20 9.70193 6
    endloop
  endfacet
  facet normal 0.743145 0.669131 -0
    outer loop
      vertex 21.3262 8.22899 6
      vertex 21.3262 8.22899 0
      vertex 20 9.70193 6
    endloop
  endfacet
  facet normal 1 0 -0
    outer loop
      vertex 20 9.70193 6
      vertex 20 9.70193 0
      vertex 20 32 0
    endloop
  endfacet
  facet normal 1 0 0
    outer loop
      vertex 20 32 6
      vertex 20 9.70193 6
      vertex 20 32 0
    endloop
  endfacet
  facet normal 0 1 0
    outer loop
      vertex 18 32 0
      vertex 18 32 6
      vertex 20 32 0
    endloop
  endfacet
  facet normal 0 1 0
    outer loop
      vertex 20 32 0
      vertex 18 32 6
      vertex 20 32 6
    endloop
  endfacet
  facet normal -1 0 0
    outer loop
      vertex 18 32 6
      vertex 18 32 0
      vertex 18 31 6
    endloop
  endfacet
  facet normal -1 0 0
    outer loop
      vertex 18 31 6
      vertex 18 32 0
      vertex 18 31 0
    endloop
  endfacet
  facet normal 0 -1 0
    outer loop
      vertex 19 31 0
      vertex 19 31 6
      vertex 18 31 6
    endloop
  endfacet
  facet normal -0 -1 -0
    outer loop
      vertex 18 31 0
      vertex 19 31 0
      vertex 18 31 6
    endloop
  endfacet
  facet normal -1 0 0
    outer loop
      vertex 19 31 6
      vertex 19 31 0
      vertex 19 10.6713 6
    endloop
  endfacet
  facet normal -1 0 0
    outer loop
      vertex 19 10.6713 6
      vertex 19 31 0
      vertex 19 10.6713 0
    endloop
  endfacet
  facet normal 0.587785 0.809017 0
    outer loop
      vertex 17 12.1244 0
      vertex 17 12.1244 6
      vertex 19 10.6713 0
    endloop
  endfacet
  facet normal 0.587785 0.809017 0
    outer loop
      vertex 19 10.6713 0
      vertex 17 12.1244 6
      vertex 19 10.6713 6
    endloop
  endfacet
  facet normal 0.406736 0.913546 0
    outer loop
      vertex 14.3262 13.3148 0
      vertex 14.3262 13.3148 6
      vertex 17 12.1244 0
    endloop
  endfacet
  facet normal 0.406736 0.913546 0
    outer loop
      vertex 17 12.1244 0
      vertex 14.3262 13.3148 6
      vertex 17 12.1244 6
    endloop
  endfacet
  facet normal 0.207912 0.978148 0
    outer loop
      vertex 11.4634 13.9233 0
      vertex 11.4634 13.9233 6
      vertex 14.3262 13.3148 0
    endloop
  endfacet
  facet normal 0.207912 0.978148 0
    outer loop
      vertex 14.3262 13.3148 0
      vertex 11.4634 13.9233 6
      vertex 14.3262 13.3148 6
    endloop
  endfacet
  facet normal 0 1 0
    outer loop
      vertex 8.5366 13.9233 0
      vertex 8.5366 13.9233 6
      vertex 11.4634 13.9233 0
    endloop
  endfacet
  facet normal 0 1 0
    outer loop
      vertex 11.4634 13.9233 0
      vertex 8.5366 13.9233 6
      vertex 11.4634 13.9233 6
    endloop
  endfacet
  facet normal -0.207912 0.978148 0
    outer loop
      vertex 5.67376 13.3148 0
      vertex 5.67376 13.3148 6
      vertex 8.5366 13.9233 0
    endloop
  endfacet
  facet normal -0.207912 0.978148 0
    outer loop
      vertex 8.5366 13.9233 0
      vertex 5.67376 13.3148 6
      vertex 8.5366 13.9233 6
    endloop
  endfacet
  facet normal -0.406736 0.913546 0
    outer loop
      vertex 3 12.1244 0
      vertex 3 12.1244 6
      vertex 5.67376 13.3148 0
    endloop
  endfacet
  facet normal -0.406736 0.913546 0
    outer loop
      vertex 5.67376 13.3148 0
      vertex 3 12.1244 6
      vertex 5.67376 13.3148 6
    endloop
  endfacet
  facet normal -0.587785 0.809017 0
    outer loop
      vertex 1 10.6713 0
      vertex 1 10.6713 6
      vertex 3 12.1244 0
    endloop
  endfacet
  facet normal -0.587785 0.809017 0
    outer loop
      vertex 3 12.1244 0
      vertex 1 10.6713 6
      vertex 3 12.1244 6
    endloop
  endfacet
  facet normal 1 0 0
    outer loop
      vertex 1 31 0
      vertex 1 31 6
      vertex 1 10.6713 6
    endloop
  endfacet
  facet normal 1 0 0
    outer loop
      vertex 1 10.6713 0
      vertex 1 31 0
      vertex 1 10.6713 6
    endloop
  endfacet
  facet normal 0 -1 0
    outer loop
      vertex 2 31 0
      vertex 2 31 6
      vertex 1 31 6
    endloop
  endfacet
  facet normal -0 -1 -0
    outer loop
      vertex 1 31 0
      vertex 2 31 0
      vertex 1 31 6
    endloop
  endfacet
  facet normal 1 0 0
    outer loop
      vertex 2 32 0
      vertex 2 32 6
      vertex 2 31 6
    endloop
  endfacet
  facet normal 1 0 0
    outer loop
      vertex 2 31 0
      vertex 2 32 0
      vertex 2 31 6
    endloop
  endfacet
  facet normal 0 1 0
    outer loop
      vertex 0 32 0
      vertex 0 32 6
      vertex 2 32 0
    endloop
  endfacet
  facet normal 0 1 0
    outer loop
      vertex 2 32 0
      vertex 0 32 6
      vertex 2 32 6
    endloop
  endfacet
  facet normal -1 -0 -0
    outer loop
      vertex 0 9.70193 0
      vertex 0 9.70193 6
      vertex 0 32 0
    endloop
  endfacet
  facet normal -1 0 0
    outer loop
      vertex 0 32 0
      vertex 0 9.70193 6
      vertex 0 32 6
    endloop
  endfacet
  facet normal -0.743145 0.669131 0
    outer loop
      vertex -1.32624 8.22899 0
      vertex -1.32624 8.22899 6
      vertex 0 9.70193 0
    endloop
  endfacet
  facet normal -0.743145 0.669131 0
    outer loop
      vertex 0 9.70193 0
      vertex -1.32624 8.22899 6
      vertex 0 9.70193 6
    endloop
  endfacet
  facet normal -0.866026 0.5 0
    outer loop
      vertex -2.78964 5.69431 0
      vertex -2.78964 5.69431 6
      vertex -1.32624 8.22899 0
    endloop
  endfacet
  facet normal -0.866026 0.5 0
    outer loop
      vertex -1.32624 8.22899 0
      vertex -2.78964 5.69431 6
      vertex -1.32624 8.22899 6
    endloop
  endfacet
  facet normal -0.951057 0.309017 0
    outer loop
      vertex -3.69407 2.91076 0
      vertex -3.69407 2.91076 6
      vertex -2.78964 5.69431 0
    endloop
  endfacet
  facet normal -0.951057 0.309017 0
    outer loop
      vertex -2.78964 5.69431 0
      vertex -3.69407 2.91076 6
      vertex -2.78964 5.69431 6
    endloop
  endfacet
  facet normal 0.994522 0.104528 0
    outer loop
      vertex 0 0 6
      vertex 0.218524 -2.07912 6
      vertex 0.218524 -2.07912 0
    endloop
  endfacet
  facet normal 0.994522 0.104528 0
    outer loop
      vertex 0 0 0
      vertex 0 0 6
      vertex 0.218524 -2.07912 0
    endloop
  endfacet
  facet normal 0.994522 -0.104528 0
    outer loop
      vertex 0.218524 2.07912 0
      vertex 0.218524 2.07912 6
      vertex 0 0 6
    endloop
  endfacet
  facet normal 0.994522 -0.104528 0
    outer loop
      vertex 0 0 0
      vertex 0.218524 2.07912 0
      vertex 0 0 6
    endloop
  endfacet
  facet normal 0.951057 -0.309017 0
    outer loop
      vertex 0.864545 4.06737 0
      vertex 0.864545 4.06737 6
      vertex 0.218524 2.07912 6
    endloop
  endfacet
  facet normal 0.951057 -0.309017 0
    outer loop
      vertex 0.218524 2.07912 0
      vertex 0.864545 4.06737 0
      vertex 0.218524 2.07912 6
    endloop
  endfacet
  facet normal 0.866025 -0.5 0
    outer loop
      vertex 1.90983 5.87785 0
      vertex 1.90983 5.87785 6
      vertex 0.864545 4.06737 6
    endloop
  endfacet
  facet normal 0.866025 -0.5 0
    outer loop
      vertex 0.864545 4.06737 0
      vertex 1.90983 5.87785 0
      vertex 0.864545 4.06737 6
    endloop
  endfacet
  facet normal 0.743145 -0.669131 0
    outer loop
      vertex 3.30869 7.43145 0
      vertex 3.30869 7.43145 6
      vertex 1.90983 5.87785 6
    endloop
  endfacet
  facet normal 0.743145 -0.669131 0
    outer loop
      vertex 1.90983 5.87785 0
      vertex 3.30869 7.43145 0
      vertex 1.90983 5.87785 6
    endloop
  endfacet
  facet normal 0.587785 -0.809017 0
    outer loop
      vertex 5 8.66025 0
      vertex 5 8.66025 6
      vertex 3.30869 7.43145 6
    endloop
  endfacet
  facet normal 0.587785 -0.809017 0
    outer loop
      vertex 3.30869 7.43145 0
      vertex 5 8.66025 0
      vertex 3.30869 7.43145 6
    endloop
  endfacet
  facet normal 0.406737 -0.913545 0
    outer loop
      vertex 6.90983 9.51056 0
      vertex 6.90983 9.51056 6
      vertex 5 8.66025 6
    endloop
  endfacet
  facet normal 0.406737 -0.913545 0
    outer loop
      vertex 5 8.66025 0
      vertex 6.90983 9.51056 0
      vertex 5 8.66025 6
    endloop
  endfacet
  facet normal 0.207912 -0.978148 0
    outer loop
      vertex 8.95471 9.94522 0
      vertex 8.95471 9.94522 6
      vertex 6.90983 9.51056 6
    endloop
  endfacet
  facet normal 0.207912 -0.978148 0
    outer loop
      vertex 6.90983 9.51056 0
      vertex 8.95471 9.94522 0
      vertex 6.90983 9.51056 6
    endloop
  endfacet
  facet normal 0 -1 0
    outer loop
      vertex 11.0453 9.94522 0
      vertex 11.0453 9.94522 6
      vertex 8.95471 9.94522 6
    endloop
  endfacet
  facet normal -0 -1 -0
    outer loop
      vertex 8.95471 9.94522 0
      vertex 11.0453 9.94522 0
      vertex 8.95471 9.94522 6
    endloop
  endfacet
  facet normal -0.207912 -0.978148 -0
    outer loop
      vertex 13.0902 9.51056 0
      vertex 13.0902 9.51056 6
      vertex 11.0453 9.94522 6
    endloop
  endfacet
  facet normal -0.207912 -0.978148 -0
    outer loop
      vertex 11.0453 9.94522 0
      vertex 13.0902 9.51056 0
      vertex 11.0453 9.94522 6
    endloop
  endfacet
  facet normal -0.406737 -0.913545 -0
    outer loop
      vertex 15 8.66025 0
      vertex 15 8.66025 6
      vertex 13.0902 9.51056 6
    endloop
  endfacet
  facet normal -0.406737 -0.913545 -0
    outer loop
      vertex 13.0902 9.51056 0
      vertex 15 8.66025 0
      vertex 13.0902 9.51056 6
    endloop
  endfacet
  facet normal -0.587785 -0.809017 -0
    outer loop
      vertex 16.6913 7.43145 0
      vertex 16.6913 7.43145 6
      vertex 15 8.66025 6
    endloop
  endfacet
  facet normal -0.587785 -0.809017 -0
    outer loop
      vertex 15 8.66025 0
      vertex 16.6913 7.43145 0
      vertex 15 8.66025 6
    endloop
  endfacet
  facet normal -0.743145 -0.669131 0
    outer loop
      vertex 18.0902 5.87785 6
      vertex 16.6913 7.43145 6
      vertex 18.0902 5.87785 0
    endloop
  endfacet
  facet normal -0.743145 -0.669131 0
    outer loop
      vertex 18.0902 5.87785 0
      vertex 16.6913 7.43145 6
      vertex 16.6913 7.43145 0
    endloop
  endfacet
  facet normal -0.866025 -0.5 0
    outer loop
      vertex 19.1355 4.06737 6
      vertex 18.0902 5.87785 6
      vertex 19.1355 4.06737 0
    endloop
  endfacet
  facet normal -0.866025 -0.5 0
    outer loop
      vertex 19.1355 4.06737 0
      vertex 18.0902 5.87785 6
      vertex 18.0902 5.87785 0
    endloop
  endfacet
  facet normal -0.951057 -0.309017 0
    outer loop
      vertex 19.7815 2.07912 6
      vertex 19.1355 4.06737 6
      vertex 19.7815 2.07912 0
    endloop
  endfacet
  facet normal -0.951057 -0.309017 0
    outer loop
      vertex 19.7815 2.07912 0
      vertex 19.1355 4.06737 6
      vertex 19.1355 4.06737 0
    endloop
  endfacet
  facet normal -0.994522 -0.104528 0
    outer loop
      vertex 20 0 6
      vertex 19.7815 2.07912 6
      vertex 20 0 0
    endloop
  endfacet
  facet normal -0.994522 -0.104528 0
    outer loop
      vertex 20 0 0
      vertex 19.7815 2.07912 6
      vertex 19.7815 2.07912 0
    endloop
  endfacet
  facet normal -0.994522 0.104528 0
    outer loop
      vertex 20 0 6
      vertex 20 0 0
      vertex 19.7815 -2.07912 6
    endloop
  endfacet
  facet normal -0.994522 0.104528 0
    outer loop
      vertex 19.7815 -2.07912 6
      vertex 20 0 0
      vertex 19.7815 -2.07912 0
    endloop
  endfacet
  facet normal -0.951057 0.309017 0
    outer loop
      vertex 19.7815 -2.07912 6
      vertex 19.7815 -2.07912 0
      vertex 19.1355 -4.06737 6
    endloop
  endfacet
  facet normal -0.951057 0.309017 0
    outer loop
      vertex 19.1355 -4.06737 6
      vertex 19.7815 -2.07912 0
      vertex 19.1355 -4.06737 0
    endloop
  endfacet
  facet normal -0.866025 0.5 0
    outer loop
      vertex 19.1355 -4.06737 6
      vertex 19.1355 -4.06737 0
      vertex 18.0902 -5.87785 6
    endloop
  endfacet
  facet normal -0.866025 0.5 0
    outer loop
      vertex 18.0902 -5.87785 6
      vertex 19.1355 -4.06737 0
      vertex 18.0902 -5.87785 0
    endloop
  endfacet
  facet normal -0.743145 0.669131 0
    outer loop
      vertex 18.0902 -5.87785 6
      vertex 18.0902 -5.87785 0
      vertex 16.6913 -7.43145 6
    endloop
  endfacet
  facet normal -0.743145 0.669131 0
    outer loop
      vertex 16.6913 -7.43145 6
      vertex 18.0902 -5.87785 0
      vertex 16.6913 -7.43145 0
    endloop
  endfacet
  facet normal -0.587785 0.809017 0
    outer loop
      vertex 16.6913 -7.43145 6
      vertex 16.6913 -7.43145 0
      vertex 15 -8.66025 6
    endloop
  endfacet
  facet normal -0.587785 0.809017 0
    outer loop
      vertex 15 -8.66025 6
      vertex 16.6913 -7.43145 0
      vertex 15 -8.66025 0
    endloop
  endfacet
  facet normal -0.406737 0.913545 0
    outer loop
      vertex 15 -8.66025 6
      vertex 15 -8.66025 0
      vertex 13.0902 -9.51056 6
    endloop
  endfacet
  facet normal -0.406737 0.913545 0
    outer loop
      vertex 13.0902 -9.51056 6
      vertex 15 -8.66025 0
      vertex 13.0902 -9.51056 0
    endloop
  endfacet
  facet normal -0.207912 0.978148 0
    outer loop
      vertex 13.0902 -9.51056 6
      vertex 13.0902 -9.51056 0
      vertex 11.0453 -9.94522 6
    endloop
  endfacet
  facet normal -0.207912 0.978148 0
    outer loop
      vertex 11.0453 -9.94522 6
      vertex 13.0902 -9.51056 0
      vertex 11.0453 -9.94522 0
    endloop
  endfacet
  facet normal 0 1 0
    outer loop
      vertex 11.0453 -9.94522 6
      vertex 11.0453 -9.94522 0
      vertex 8.95471 -9.94522 6
    endloop
  endfacet
  facet normal 0 1 -0
    outer loop
      vertex 8.95471 -9.94522 6
      vertex 11.0453 -9.94522 0
      vertex 8.95471 -9.94522 0
    endloop
  endfacet
  facet normal 0.207912 0.978148 -0
    outer loop
      vertex 8.95471 -9.94522 6
      vertex 8.95471 -9.94522 0
      vertex 6.90983 -9.51056 6
    endloop
  endfacet
  facet normal 0.207912 0.978148 -0
    outer loop
      vertex 6.90983 -9.51056 6
      vertex 8.95471 -9.94522 0
      vertex 6.90983 -9.51056 0
    endloop
  endfacet
  facet normal 0.406737 0.913545 -0
    outer loop
      vertex 6.90983 -9.51056 6
      vertex 6.90983 -9.51056 0
      vertex 5 -8.66025 6
    endloop
  endfacet
  facet normal 0.406737 0.913545 -0
    outer loop
      vertex 5 -8.66025 6
      vertex 6.90983 -9.51056 0
      vertex 5 -8.66025 0
    endloop
  endfacet
  facet normal 0.587785 0.809017 -0
    outer loop
      vertex 5 -8.66025 6
      vertex 5 -8.66025 0
      vertex 3.30869 -7.43145 6
    endloop
  endfacet
  facet normal 0.587785 0.809017 -0
    outer loop
      vertex 3.30869 -7.43145 6
      vertex 5 -8.66025 0
      vertex 3.30869 -7.43145 0
    endloop
  endfacet
  facet normal 0.743145 0.669131 0
    outer loop
      vertex 1.90983 -5.87785 6
      vertex 3.30869 -7.43145 6
      vertex 3.30869 -7.43145 0
    endloop
  endfacet
  facet normal 0.743145 0.669131 0
    outer loop
      vertex 1.90983 -5.87785 0
      vertex 1.90983 -5.87785 6
      vertex 3.30869 -7.43145 0
    endloop
  endfacet
  facet normal 0.866025 0.5 0
    outer loop
      vertex 0.864545 -4.06737 6
      vertex 1.90983 -5.87785 6
      vertex 1.90983 -5.87785 0
    endloop
  endfacet
  facet normal 0.866025 0.5 0
    outer loop
      vertex 0.864545 -4.06737 0
      vertex 0.864545 -4.06737 6
      vertex 1.90983 -5.87785 0
    endloop
  endfacet
  facet normal 0.951057 0.309017 0
    outer loop
      vertex 0.218524 -2.07912 6
      vertex 0.864545 -4.06737 6
      vertex 0.864545 -4.06737 0
    endloop
  endfacet
  facet normal 0.951057 0.309017 0
    outer loop
      vertex 0.218524 -2.07912 0
      vertex 0.218524 -2.07912 6
      vertex 0.864545 -4.06737 0
    endloop
  endfacet
  facet normal 0 0 1
    outer loop
      vertex -3.69407 2.91076 6
      vertex -4 0 6
      vertex -3.69407 -2.91076 6
    endloop
  endfacet
  facet normal 0 0 1
    outer loop
      vertex -1.32624 -8.22899 6
      vertex -3.69407 2.91076 6
      vertex -2.78964 -5.69431 6
    endloop
  endfacet
  facet normal 0 0 1
    outer loop
      vertex -2.78964 -5.69431 6
      vertex -3.69407 2.91076 6
      vertex -3.69407 -2.91076 6
    endloop
  endfacet
  facet normal 0 0 1
    outer loop
      vertex 0.632172 -10.404 6
      vertex -3.69407 2.91076 6
      vertex -1.32624 -8.22899 6
    endloop
  endfacet
  facet normal 0 0 1
    outer loop
      vertex 3 -12.1244 6
      vertex -3.69407 2.91076 6
      vertex 0.632172 -10.404 6
    endloop
  endfacet
  facet normal 0 0 1
    outer loop
      vertex 5.67376 -13.3148 6
      vertex -3.69407 2.91076 6
      vertex 3 -12.1244 6
    endloop
  endfacet
  facet normal -0 -0 1
    outer loop
      vertex 1.90983 -5.87785 6
      vertex -3.69407 2.91076 6
      vertex 5.67376 -13.3148 6
    endloop
  endfacet
  facet normal 0 0 1
    outer loop
      vertex 16.6913 7.43145 6
      vertex 18.0902 5.87785 6
      vertex 21.3262 8.22899 6
    endloop
  endfacet
  facet normal 0 -0 1
    outer loop
      vertex 11.0453 -9.94522 6
      vertex 8.95471 -9.94522 6
      vertex 14.3262 -13.3148 6
    endloop
  endfacet
  facet normal 0 -0 1
    outer loop
      vertex 18 32 6
      vertex 18 31 6
      vertex 20 32 6
    endloop
  endfacet
  facet normal -0 0 1
    outer loop
      vertex 2 31 6
      vertex 2 32 6
      vertex 1 31 6
    endloop
  endfacet
  facet normal 0 0 1
    outer loop
      vertex 18 31 6
      vertex 19 31 6
      vertex 20 32 6
    endloop
  endfacet
  facet normal 0 0 1
    outer loop
      vertex 20 32 6
      vertex 19 10.6713 6
      vertex 20 9.70193 6
    endloop
  endfacet
  facet normal 0 0 1
    outer loop
      vertex 6.90983 9.51056 6
      vertex 8.95471 9.94522 6
      vertex 14.3262 13.3148 6
    endloop
  endfacet
  facet normal 0 0 1
    outer loop
      vertex 11.0453 9.94522 6
      vertex 13.0902 9.51056 6
      vertex 17 12.1244 6
    endloop
  endfacet
  facet normal 0 -0 1
    outer loop
      vertex 8.5366 13.9233 6
      vertex -3.69407 2.91076 6
      vertex 11.4634 13.9233 6
    endloop
  endfacet
  facet normal 0 0 1
    outer loop
      vertex 5.67376 13.3148 6
      vertex 3 12.1244 6
      vertex -3.69407 2.91076 6
    endloop
  endfacet
  facet normal 0 -0 1
    outer loop
      vertex 5.67376 13.3148 6
      vertex -3.69407 2.91076 6
      vertex 8.5366 13.9233 6
    endloop
  endfacet
  facet normal -0 -0 1
    outer loop
      vertex 8.95471 -9.94522 6
      vertex 6.90983 -9.51056 6
      vertex 11.4634 -13.9233 6
    endloop
  endfacet
  facet normal 0 -0 1
    outer loop
      vertex 1 10.6713 6
      vertex -3.69407 2.91076 6
      vertex 3 12.1244 6
    endloop
  endfacet
  facet normal 0 -0 1
    outer loop
      vertex 0 9.70193 6
      vertex -3.69407 2.91076 6
      vertex 1 10.6713 6
    endloop
  endfacet
  facet normal 0 0 1
    outer loop
      vertex 0.218524 -2.07912 6
      vertex 0 0 6
      vertex -3.69407 2.91076 6
    endloop
  endfacet
  facet normal 0 0 1
    outer loop
      vertex 0 32 6
      vertex 1 31 6
      vertex 2 32 6
    endloop
  endfacet
  facet normal 0 0 1
    outer loop
      vertex 1 31 6
      vertex 0 9.70193 6
      vertex 1 10.6713 6
    endloop
  endfacet
  facet normal 0 -0 1
    outer loop
      vertex -1.32624 8.22899 6
      vertex -3.69407 2.91076 6
      vertex 0 9.70193 6
    endloop
  endfacet
  facet normal 0 -0 1
    outer loop
      vertex -2.78964 5.69431 6
      vertex -3.69407 2.91076 6
      vertex -1.32624 8.22899 6
    endloop
  endfacet
  facet normal 0 0 1
    outer loop
      vertex 0.864545 -4.06737 6
      vertex 0.218524 -2.07912 6
      vertex -3.69407 2.91076 6
    endloop
  endfacet
  facet normal 0 -0 1
    outer loop
      vertex 18.0902 -5.87785 6
      vertex 16.6913 -7.43145 6
      vertex 21.3262 -8.22899 6
    endloop
  endfacet
  facet normal 0 0 1
    outer loop
      vertex 18.0902 5.87785 6
      vertex 19.1355 4.06737 6
      vertex 22.7896 5.69431 6
    endloop
  endfacet
  facet normal 0 0 1
    outer loop
      vertex 13.0902 9.51056 6
      vertex 15 8.66025 6
      vertex 19 10.6713 6
    endloop
  endfacet
  facet normal 0 0 1
    outer loop
      vertex 15 8.66025 6
      vertex 16.6913 7.43145 6
      vertex 20 9.70193 6
    endloop
  endfacet
  facet normal 0 0 1
    outer loop
      vertex 11.4634 13.9233 6
      vertex -3.69407 2.91076 6
      vertex 3.30869 7.43145 6
    endloop
  endfacet
  facet normal 0 -0 1
    outer loop
      vertex 11.4634 13.9233 6
      vertex 5 8.66025 6
      vertex 14.3262 13.3148 6
    endloop
  endfacet
  facet normal 0 0 1
    outer loop
      vertex 11.4634 13.9233 6
      vertex 3.30869 7.43145 6
      vertex 5 8.66025 6
    endloop
  endfacet
  facet normal 0 0 1
    outer loop
      vertex 5 8.66025 6
      vertex 6.90983 9.51056 6
      vertex 14.3262 13.3148 6
    endloop
  endfacet
  facet normal 0 -0 1
    outer loop
      vertex 14.3262 13.3148 6
      vertex 8.95471 9.94522 6
      vertex 17 12.1244 6
    endloop
  endfacet
  facet normal 0 0 1
    outer loop
      vertex 8.95471 9.94522 6
      vertex 11.0453 9.94522 6
      vertex 17 12.1244 6
    endloop
  endfacet
  facet normal 0 -0 1
    outer loop
      vertex 17 12.1244 6
      vertex 13.0902 9.51056 6
      vertex 19 10.6713 6
    endloop
  endfacet
  facet normal -0 0 1
    outer loop
      vertex 1.90983 5.87785 6
      vertex 3.30869 7.43145 6
      vertex -3.69407 2.91076 6
    endloop
  endfacet
  facet normal 0 -0 1
    outer loop
      vertex 19 10.6713 6
      vertex 15 8.66025 6
      vertex 20 9.70193 6
    endloop
  endfacet
  facet normal 0 -0 1
    outer loop
      vertex 20 9.70193 6
      vertex 16.6913 7.43145 6
      vertex 21.3262 8.22899 6
    endloop
  endfacet
  facet normal 0 -0 1
    outer loop
      vertex 21.3262 8.22899 6
      vertex 18.0902 5.87785 6
      vertex 22.7896 5.69431 6
    endloop
  endfacet
  facet normal 0 -0 1
    outer loop
      vertex 22.7896 5.69431 6
      vertex 19.1355 4.06737 6
      vertex 23.6941 2.91076 6
    endloop
  endfacet
  facet normal 0 -0 1
    outer loop
      vertex 15 -8.66025 6
      vertex 13.0902 -9.51056 6
      vertex 17 -12.1244 6
    endloop
  endfacet
  facet normal 0 -0 1
    outer loop
      vertex 23.6941 2.91076 6
      vertex 19.7815 2.07912 6
      vertex 24 0 6
    endloop
  endfacet
  facet normal -0 0 1
    outer loop
      vertex 0.864545 4.06737 6
      vertex 1.90983 5.87785 6
      vertex -3.69407 2.91076 6
    endloop
  endfacet
  facet normal 0 0 1
    outer loop
      vertex 24 0 6
      vertex 20 0 6
      vertex 23.6941 -2.91076 6
    endloop
  endfacet
  facet normal 0 -0 1
    outer loop
      vertex 20 0 6
      vertex 19.7815 -2.07912 6
      vertex 23.6941 -2.91076 6
    endloop
  endfacet
  facet normal 0 0 1
    outer loop
      vertex 23.6941 -2.91076 6
      vertex 19.1355 -4.06737 6
      vertex 22.7896 -5.69431 6
    endloop
  endfacet
  facet normal 0 0 1
    outer loop
      vertex 22.7896 -5.69431 6
      vertex 18.0902 -5.87785 6
      vertex 21.3262 -8.22899 6
    endloop
  endfacet
  facet normal 0 0 1
    outer loop
      vertex 19.1355 4.06737 6
      vertex 19.7815 2.07912 6
      vertex 23.6941 2.91076 6
    endloop
  endfacet
  facet normal -0 0 1
    outer loop
      vertex 21.3262 -8.22899 6
      vertex 16.6913 -7.43145 6
      vertex 19.3678 -10.404 6
    endloop
  endfacet
  facet normal 0 0 1
    outer loop
      vertex 19.7815 2.07912 6
      vertex 20 0 6
      vertex 24 0 6
    endloop
  endfacet
  facet normal -0 0 1
    outer loop
      vertex 19.3678 -10.404 6
      vertex 15 -8.66025 6
      vertex 17 -12.1244 6
    endloop
  endfacet
  facet normal 0 -0 1
    outer loop
      vertex 19.7815 -2.07912 6
      vertex 19.1355 -4.06737 6
      vertex 23.6941 -2.91076 6
    endloop
  endfacet
  facet normal -0 0 1
    outer loop
      vertex 17 -12.1244 6
      vertex 13.0902 -9.51056 6
      vertex 14.3262 -13.3148 6
    endloop
  endfacet
  facet normal 0 -0 1
    outer loop
      vertex 13.0902 -9.51056 6
      vertex 11.0453 -9.94522 6
      vertex 14.3262 -13.3148 6
    endloop
  endfacet
  facet normal -0 0 1
    outer loop
      vertex 14.3262 -13.3148 6
      vertex 8.95471 -9.94522 6
      vertex 11.4634 -13.9233 6
    endloop
  endfacet
  facet normal 0 -0 1
    outer loop
      vertex 16.6913 -7.43145 6
      vertex 15 -8.66025 6
      vertex 19.3678 -10.404 6
    endloop
  endfacet
  facet normal -0 0 1
    outer loop
      vertex 11.4634 -13.9233 6
      vertex 6.90983 -9.51056 6
      vertex 8.5366 -13.9233 6
    endloop
  endfacet
  facet normal -0 -0 1
    outer loop
      vertex 6.90983 -9.51056 6
      vertex 5 -8.66025 6
      vertex 8.5366 -13.9233 6
    endloop
  endfacet
  facet normal 0 0 1
    outer loop
      vertex 8.5366 -13.9233 6
      vertex 3.30869 -7.43145 6
      vertex 5.67376 -13.3148 6
    endloop
  endfacet
  facet normal -0 -0 1
    outer loop
      vertex 3.30869 -7.43145 6
      vertex 1.90983 -5.87785 6
      vertex 5.67376 -13.3148 6
    endloop
  endfacet
  facet normal -0 -0 1
    outer loop
      vertex 0.864545 -4.06737 6
      vertex -3.69407 2.91076 6
      vertex 1.90983 -5.87785 6
    endloop
  endfacet
  facet normal -0 -0 1
    outer loop
      vertex 5 -8.66025 6
      vertex 3.30869 -7.43145 6
      vertex 8.5366 -13.9233 6
    endloop
  endfacet
  facet normal 0 -0 1
    outer loop
      vertex 0 32 6
      vertex 0 9.70193 6
      vertex 1 31 6
    endloop
  endfacet
  facet normal 0 -0 1
    outer loop
      vertex 19 31 6
      vertex 19 10.6713 6
      vertex 20 32 6
    endloop
  endfacet
  facet normal 0 0 1
    outer loop
      vertex 0 0 6
      vertex 0.218524 2.07912 6
      vertex -3.69407 2.91076 6
    endloop
  endfacet
  facet normal 0 -0 1
    outer loop
      vertex 19.1355 -4.06737 6
      vertex 18.0902 -5.87785 6
      vertex 22.7896 -5.69431 6
    endloop
  endfacet
  facet normal 0 0 1
    outer loop
      vertex 0.218524 2.07912 6
      vertex 0.864545 4.06737 6
      vertex -3.69407 2.91076 6
    endloop
  endfacet
endsolid OpenSCAD_Model
