solid AutoCAD
   facet normal 9.9144486e-01 -1.3052619e-01 0.0000000e+00
      outer loop
         vertex 9.2036978e+01 1.0010545e+02 1.5000001e+01
         vertex 9.2036978e+01 1.0010545e+02 1.0000000e-06
         vertex 9.2309571e+01 1.0217600e+02 1.5000001e+01
      endloop
   endfacet
   facet normal 9.9144486e-01 -1.3052619e-01 0.0000000e+00
      outer loop
         vertex 9.2309571e+01 1.0217600e+02 1.5000001e+01
         vertex 9.2036978e+01 1.0010545e+02 1.0000000e-06
         vertex 9.2309571e+01 1.0217600e+02 1.0000000e-06
      endloop
   endfacet
   facet normal 9.2387953e-01 -3.8268343e-01 0.0000000e+00
      outer loop
         vertex 9.2309571e+01 1.0217600e+02 1.5000001e+01
         vertex 9.2309571e+01 1.0217600e+02 1.0000000e-06
         vertex 9.3108775e+01 1.0410545e+02 1.5000001e+01
      endloop
   endfacet
   facet normal 9.2387953e-01 -3.8268343e-01 0.0000000e+00
      outer loop
         vertex 9.3108775e+01 1.0410545e+02 1.5000001e+01
         vertex 9.2309571e+01 1.0217600e+02 1.0000000e-06
         vertex 9.3108775e+01 1.0410545e+02 1.0000000e-06
      endloop
   endfacet
   facet normal 7.9335334e-01 -6.0876143e-01 0.0000000e+00
      outer loop
         vertex 9.3108775e+01 1.0410545e+02 1.5000001e+01
         vertex 9.3108775e+01 1.0410545e+02 1.0000000e-06
         vertex 9.4380124e+01 1.0576230e+02 1.5000001e+01
      endloop
   endfacet
   facet normal 7.9335334e-01 -6.0876143e-01 0.0000000e+00
      outer loop
         vertex 9.4380124e+01 1.0576230e+02 1.5000001e+01
         vertex 9.3108775e+01 1.0410545e+02 1.0000000e-06
         vertex 9.4380124e+01 1.0576230e+02 1.0000000e-06
      endloop
   endfacet
   facet normal 6.0876143e-01 -7.9335334e-01 0.0000000e+00
      outer loop
         vertex 9.4380124e+01 1.0576230e+02 1.5000001e+01
         vertex 9.4380124e+01 1.0576230e+02 1.0000000e-06
         vertex 9.6036978e+01 1.0703365e+02 1.5000001e+01
      endloop
   endfacet
   facet normal 6.0876143e-01 -7.9335334e-01 0.0000000e+00
      outer loop
         vertex 9.6036978e+01 1.0703365e+02 1.5000001e+01
         vertex 9.4380124e+01 1.0576230e+02 1.0000000e-06
         vertex 9.6036978e+01 1.0703365e+02 1.0000000e-06
      endloop
   endfacet
   facet normal 3.8268343e-01 -9.2387953e-01 0.0000000e+00
      outer loop
         vertex 9.6036978e+01 1.0703365e+02 1.5000001e+01
         vertex 9.6036978e+01 1.0703365e+02 1.0000000e-06
         vertex 9.7966426e+01 1.0783286e+02 1.5000001e+01
      endloop
   endfacet
   facet normal 3.8268343e-01 -9.2387953e-01 0.0000000e+00
      outer loop
         vertex 9.7966426e+01 1.0783286e+02 1.5000001e+01
         vertex 9.6036978e+01 1.0703365e+02 1.0000000e-06
         vertex 9.7966426e+01 1.0783286e+02 1.0000000e-06
      endloop
   endfacet
   facet normal 1.3052619e-01 -9.9144486e-01 0.0000000e+00
      outer loop
         vertex 9.7966426e+01 1.0783286e+02 1.5000001e+01
         vertex 9.7966426e+01 1.0783286e+02 1.0000000e-06
         vertex 1.0003698e+02 1.0810545e+02 1.5000001e+01
      endloop
   endfacet
   facet normal 1.3052619e-01 -9.9144486e-01 0.0000000e+00
      outer loop
         vertex 1.0003698e+02 1.0810545e+02 1.5000001e+01
         vertex 9.7966426e+01 1.0783286e+02 1.0000000e-06
         vertex 1.0003698e+02 1.0810545e+02 1.0000000e-06
      endloop
   endfacet
   facet normal -9.8017140e-02 9.9518473e-01 0.0000000e+00
      outer loop
         vertex 1.0003698e+02 1.1210545e+02 1.5000001e+01
         vertex 1.0003698e+02 1.1210545e+02 1.0000000e-06
         vertex 9.7695894e+01 1.1187487e+02 1.5000001e+01
      endloop
   endfacet
   facet normal -9.8017140e-02 9.9518473e-01 0.0000000e+00
      outer loop
         vertex 9.7695894e+01 1.1187487e+02 1.5000001e+01
         vertex 1.0003698e+02 1.1210545e+02 1.0000000e-06
         vertex 9.7695894e+01 1.1187487e+02 1.0000000e-06
      endloop
   endfacet
   facet normal -2.9028468e-01 9.5694034e-01 0.0000000e+00
      outer loop
         vertex 9.7695894e+01 1.1187487e+02 1.5000001e+01
         vertex 9.7695894e+01 1.1187487e+02 1.0000000e-06
         vertex 9.5444777e+01 1.1119200e+02 1.0000000e-06
      endloop
   endfacet
   facet normal -2.9028468e-01 9.5694034e-01 0.0000000e+00
      outer loop
         vertex 9.7695894e+01 1.1187487e+02 1.5000001e+01
         vertex 9.5444777e+01 1.1119200e+02 1.0000000e-06
         vertex 9.5444777e+01 1.1119200e+02 1.5000001e+01
      endloop
   endfacet
   facet normal -4.7139674e-01 8.8192126e-01 0.0000000e+00
      outer loop
         vertex 9.5444777e+01 1.1119200e+02 1.5000001e+01
         vertex 9.5444777e+01 1.1119200e+02 1.0000000e-06
         vertex 9.3370135e+01 1.1008309e+02 1.0000000e-06
      endloop
   endfacet
   facet normal -4.7139674e-01 8.8192126e-01 0.0000000e+00
      outer loop
         vertex 9.5444777e+01 1.1119200e+02 1.5000001e+01
         vertex 9.3370135e+01 1.1008309e+02 1.0000000e-06
         vertex 9.3370135e+01 1.1008309e+02 1.5000001e+01
      endloop
   endfacet
   facet normal -6.3439328e-01 7.7301045e-01 0.0000000e+00
      outer loop
         vertex 9.3370135e+01 1.1008309e+02 1.5000001e+01
         vertex 9.3370135e+01 1.1008309e+02 1.0000000e-06
         vertex 9.1551697e+01 1.0859073e+02 1.0000000e-06
      endloop
   endfacet
   facet normal -6.3439328e-01 7.7301045e-01 0.0000000e+00
      outer loop
         vertex 9.3370135e+01 1.1008309e+02 1.5000001e+01
         vertex 9.1551697e+01 1.0859073e+02 1.0000000e-06
         vertex 9.1551697e+01 1.0859073e+02 1.5000001e+01
      endloop
   endfacet
   facet normal -7.7301045e-01 6.3439328e-01 0.0000000e+00
      outer loop
         vertex 9.1551697e+01 1.0859073e+02 1.5000001e+01
         vertex 9.1551697e+01 1.0859073e+02 1.0000000e-06
         vertex 9.0059343e+01 1.0677229e+02 1.0000000e-06
      endloop
   endfacet
   facet normal -7.7301045e-01 6.3439328e-01 0.0000000e+00
      outer loop
         vertex 9.1551697e+01 1.0859073e+02 1.5000001e+01
         vertex 9.0059343e+01 1.0677229e+02 1.0000000e-06
         vertex 9.0059343e+01 1.0677229e+02 1.5000001e+01
      endloop
   endfacet
   facet normal -8.8192126e-01 4.7139674e-01 0.0000000e+00
      outer loop
         vertex 9.0059343e+01 1.0677229e+02 1.5000001e+01
         vertex 9.0059343e+01 1.0677229e+02 1.0000000e-06
         vertex 8.8950424e+01 1.0469765e+02 1.0000000e-06
      endloop
   endfacet
   facet normal -8.8192126e-01 4.7139674e-01 0.0000000e+00
      outer loop
         vertex 9.0059343e+01 1.0677229e+02 1.5000001e+01
         vertex 8.8950424e+01 1.0469765e+02 1.0000000e-06
         vertex 8.8950424e+01 1.0469765e+02 1.5000001e+01
      endloop
   endfacet
   facet normal -9.5694034e-01 2.9028468e-01 0.0000000e+00
      outer loop
         vertex 8.8950424e+01 1.0469765e+02 1.5000001e+01
         vertex 8.8950424e+01 1.0469765e+02 1.0000000e-06
         vertex 8.8267555e+01 1.0244653e+02 1.0000000e-06
      endloop
   endfacet
   facet normal -9.5694034e-01 2.9028468e-01 0.0000000e+00
      outer loop
         vertex 8.8950424e+01 1.0469765e+02 1.5000001e+01
         vertex 8.8267555e+01 1.0244653e+02 1.0000000e-06
         vertex 8.8267555e+01 1.0244653e+02 1.5000001e+01
      endloop
   endfacet
   facet normal -9.9518473e-01 9.8017140e-02 0.0000000e+00
      outer loop
         vertex 8.8267555e+01 1.0244653e+02 1.5000001e+01
         vertex 8.8267555e+01 1.0244653e+02 1.0000000e-06
         vertex 8.8036978e+01 1.0010545e+02 1.5000001e+01
      endloop
   endfacet
   facet normal -9.9518473e-01 9.8017140e-02 0.0000000e+00
      outer loop
         vertex 8.8036978e+01 1.0010545e+02 1.5000001e+01
         vertex 8.8267555e+01 1.0244653e+02 1.0000000e-06
         vertex 8.8036978e+01 1.0010545e+02 1.0000000e-06
      endloop
   endfacet
   facet normal 1.0000000e+00 0.0000000e+00 -0.0000000e+00
      outer loop
         vertex 9.2036978e+01 6.0105450e+01 1.0000000e-06
         vertex 9.2036978e+01 1.0010545e+02 1.0000000e-06
         vertex 9.2036978e+01 6.0105450e+01 1.5000001e+01
      endloop
   endfacet
   facet normal 1.0000000e+00 -0.0000000e+00 0.0000000e+00
      outer loop
         vertex 9.2036978e+01 6.0105450e+01 1.5000001e+01
         vertex 9.2036978e+01 1.0010545e+02 1.0000000e-06
         vertex 9.2036978e+01 1.0010545e+02 1.5000001e+01
      endloop
   endfacet
   facet normal 0.0000000e+00 -1.0000000e+00 0.0000000e+00
      outer loop
         vertex 8.8036978e+01 6.0105450e+01 1.0000000e-06
         vertex 9.2036978e+01 6.0105450e+01 1.0000000e-06
         vertex 8.8036978e+01 6.0105450e+01 1.5000001e+01
      endloop
   endfacet
   facet normal 0.0000000e+00 -1.0000000e+00 0.0000000e+00
      outer loop
         vertex 8.8036978e+01 6.0105450e+01 1.5000001e+01
         vertex 9.2036978e+01 6.0105450e+01 1.0000000e-06
         vertex 9.2036978e+01 6.0105450e+01 1.5000001e+01
      endloop
   endfacet
   facet normal -1.0000000e+00 0.0000000e+00 0.0000000e+00
      outer loop
         vertex 8.8036978e+01 1.0010545e+02 1.0000000e-06
         vertex 8.8036978e+01 6.0105450e+01 1.0000000e-06
         vertex 8.8036978e+01 1.0010545e+02 1.5000001e+01
      endloop
   endfacet
   facet normal -1.0000000e+00 -0.0000000e+00 0.0000000e+00
      outer loop
         vertex 8.8036978e+01 1.0010545e+02 1.5000001e+01
         vertex 8.8036978e+01 6.0105450e+01 1.0000000e-06
         vertex 8.8036978e+01 6.0105450e+01 1.5000001e+01
      endloop
   endfacet
   facet normal 0.0000000e+00 -1.0000000e+00 0.0000000e+00
      outer loop
         vertex 1.0003698e+02 1.0810545e+02 1.0000000e-06
         vertex 1.4003698e+02 1.0810545e+02 1.0000000e-06
         vertex 1.0003698e+02 1.0810545e+02 1.5000001e+01
      endloop
   endfacet
   facet normal 0.0000000e+00 -1.0000000e+00 0.0000000e+00
      outer loop
         vertex 1.0003698e+02 1.0810545e+02 1.5000001e+01
         vertex 1.4003698e+02 1.0810545e+02 1.0000000e-06
         vertex 1.4003698e+02 1.0810545e+02 1.5000001e+01
      endloop
   endfacet
   facet normal 0.0000000e+00 1.0000000e+00 -0.0000000e+00
      outer loop
         vertex 1.4003698e+02 1.1210545e+02 1.0000000e-06
         vertex 1.0003698e+02 1.1210545e+02 1.0000000e-06
         vertex 1.4003698e+02 1.1210545e+02 1.5000001e+01
      endloop
   endfacet
   facet normal 0.0000000e+00 1.0000000e+00 -0.0000000e+00
      outer loop
         vertex 1.4003698e+02 1.1210545e+02 1.5000001e+01
         vertex 1.0003698e+02 1.1210545e+02 1.0000000e-06
         vertex 1.0003698e+02 1.1210545e+02 1.5000001e+01
      endloop
   endfacet
   facet normal 1.0000000e+00 0.0000000e+00 -0.0000000e+00
      outer loop
         vertex 1.4003698e+02 1.0810545e+02 1.0000000e-06
         vertex 1.4003698e+02 1.1210545e+02 1.0000000e-06
         vertex 1.4003698e+02 1.0810545e+02 1.5000001e+01
      endloop
   endfacet
   facet normal 1.0000000e+00 -0.0000000e+00 0.0000000e+00
      outer loop
         vertex 1.4003698e+02 1.0810545e+02 1.5000001e+01
         vertex 1.4003698e+02 1.1210545e+02 1.0000000e-06
         vertex 1.4003698e+02 1.1210545e+02 1.5000001e+01
      endloop
   endfacet
   facet normal 0.0000000e+00 0.0000000e+00 1.0000000e+00
      outer loop
         vertex 1.4003698e+02 1.1210545e+02 1.5000001e+01
         vertex 1.0003698e+02 1.1210545e+02 1.5000001e+01
         vertex 1.4003698e+02 1.0810545e+02 1.5000001e+01
      endloop
   endfacet
   facet normal 0.0000000e+00 0.0000000e+00 1.0000000e+00
      outer loop
         vertex 1.4003698e+02 1.0810545e+02 1.5000001e+01
         vertex 1.0003698e+02 1.1210545e+02 1.5000001e+01
         vertex 1.0003698e+02 1.0810545e+02 1.5000001e+01
      endloop
   endfacet
   facet normal 0.0000000e+00 -0.0000000e+00 1.0000000e+00
      outer loop
         vertex 1.0003698e+02 1.0810545e+02 1.5000001e+01
         vertex 1.0003698e+02 1.1210545e+02 1.5000001e+01
         vertex 9.7695894e+01 1.1187487e+02 1.5000001e+01
      endloop
   endfacet
   facet normal 0.0000000e+00 0.0000000e+00 1.0000000e+00
      outer loop
         vertex 1.0003698e+02 1.0810545e+02 1.5000001e+01
         vertex 9.7695894e+01 1.1187487e+02 1.5000001e+01
         vertex 9.7966426e+01 1.0783286e+02 1.5000001e+01
      endloop
   endfacet
   facet normal 0.0000000e+00 0.0000000e+00 1.0000000e+00
      outer loop
         vertex 9.7966426e+01 1.0783286e+02 1.5000001e+01
         vertex 9.7695894e+01 1.1187487e+02 1.5000001e+01
         vertex 9.5444777e+01 1.1119200e+02 1.5000001e+01
      endloop
   endfacet
   facet normal 0.0000000e+00 0.0000000e+00 1.0000000e+00
      outer loop
         vertex 9.7966426e+01 1.0783286e+02 1.5000001e+01
         vertex 9.5444777e+01 1.1119200e+02 1.5000001e+01
         vertex 9.6036978e+01 1.0703365e+02 1.5000001e+01
      endloop
   endfacet
   facet normal 0.0000000e+00 0.0000000e+00 1.0000000e+00
      outer loop
         vertex 9.6036978e+01 1.0703365e+02 1.5000001e+01
         vertex 9.5444777e+01 1.1119200e+02 1.5000001e+01
         vertex 9.3370135e+01 1.1008309e+02 1.5000001e+01
      endloop
   endfacet
   facet normal 0.0000000e+00 0.0000000e+00 1.0000000e+00
      outer loop
         vertex 9.6036978e+01 1.0703365e+02 1.5000001e+01
         vertex 9.3370135e+01 1.1008309e+02 1.5000001e+01
         vertex 9.4380124e+01 1.0576230e+02 1.5000001e+01
      endloop
   endfacet
   facet normal 0.0000000e+00 0.0000000e+00 1.0000000e+00
      outer loop
         vertex 9.4380124e+01 1.0576230e+02 1.5000001e+01
         vertex 9.3370135e+01 1.1008309e+02 1.5000001e+01
         vertex 9.1551697e+01 1.0859073e+02 1.5000001e+01
      endloop
   endfacet
   facet normal 0.0000000e+00 0.0000000e+00 1.0000000e+00
      outer loop
         vertex 9.4380124e+01 1.0576230e+02 1.5000001e+01
         vertex 9.1551697e+01 1.0859073e+02 1.5000001e+01
         vertex 9.0059343e+01 1.0677229e+02 1.5000001e+01
      endloop
   endfacet
   facet normal 0.0000000e+00 0.0000000e+00 1.0000000e+00
      outer loop
         vertex 9.4380124e+01 1.0576230e+02 1.5000001e+01
         vertex 9.0059343e+01 1.0677229e+02 1.5000001e+01
         vertex 9.3108775e+01 1.0410545e+02 1.5000001e+01
      endloop
   endfacet
   facet normal 0.0000000e+00 0.0000000e+00 1.0000000e+00
      outer loop
         vertex 9.3108775e+01 1.0410545e+02 1.5000001e+01
         vertex 9.0059343e+01 1.0677229e+02 1.5000001e+01
         vertex 8.8950424e+01 1.0469765e+02 1.5000001e+01
      endloop
   endfacet
   facet normal 0.0000000e+00 0.0000000e+00 1.0000000e+00
      outer loop
         vertex 9.3108775e+01 1.0410545e+02 1.5000001e+01
         vertex 8.8950424e+01 1.0469765e+02 1.5000001e+01
         vertex 9.2309571e+01 1.0217600e+02 1.5000001e+01
      endloop
   endfacet
   facet normal 0.0000000e+00 0.0000000e+00 1.0000000e+00
      outer loop
         vertex 9.2309571e+01 1.0217600e+02 1.5000001e+01
         vertex 8.8950424e+01 1.0469765e+02 1.5000001e+01
         vertex 8.8267555e+01 1.0244653e+02 1.5000001e+01
      endloop
   endfacet
   facet normal 0.0000000e+00 0.0000000e+00 1.0000000e+00
      outer loop
         vertex 9.2309571e+01 1.0217600e+02 1.5000001e+01
         vertex 8.8267555e+01 1.0244653e+02 1.5000001e+01
         vertex 9.2036978e+01 1.0010545e+02 1.5000001e+01
      endloop
   endfacet
   facet normal 0.0000000e+00 0.0000000e+00 1.0000000e+00
      outer loop
         vertex 9.2036978e+01 1.0010545e+02 1.5000001e+01
         vertex 8.8267555e+01 1.0244653e+02 1.5000001e+01
         vertex 8.8036978e+01 1.0010545e+02 1.5000001e+01
      endloop
   endfacet
   facet normal 0.0000000e+00 0.0000000e+00 1.0000000e+00
      outer loop
         vertex 9.2036978e+01 1.0010545e+02 1.5000001e+01
         vertex 8.8036978e+01 1.0010545e+02 1.5000001e+01
         vertex 9.2036978e+01 6.0105450e+01 1.5000001e+01
      endloop
   endfacet
   facet normal 0.0000000e+00 0.0000000e+00 1.0000000e+00
      outer loop
         vertex 9.2036978e+01 6.0105450e+01 1.5000001e+01
         vertex 8.8036978e+01 1.0010545e+02 1.5000001e+01
         vertex 8.8036978e+01 6.0105450e+01 1.5000001e+01
      endloop
   endfacet
   facet normal -0.0000000e+00 -0.0000000e+00 -1.0000000e+00
      outer loop
         vertex 1.4003698e+02 1.1210545e+02 1.0000000e-06
         vertex 1.4003698e+02 1.0810545e+02 1.0000000e-06
         vertex 1.0003698e+02 1.1210545e+02 1.0000000e-06
      endloop
   endfacet
   facet normal -0.0000000e+00 -0.0000000e+00 -1.0000000e+00
      outer loop
         vertex 1.0003698e+02 1.1210545e+02 1.0000000e-06
         vertex 1.4003698e+02 1.0810545e+02 1.0000000e-06
         vertex 1.0003698e+02 1.0810545e+02 1.0000000e-06
      endloop
   endfacet
   facet normal -0.0000000e+00 -0.0000000e+00 -1.0000000e+00
      outer loop
         vertex 1.0003698e+02 1.1210545e+02 1.0000000e-06
         vertex 1.0003698e+02 1.0810545e+02 1.0000000e-06
         vertex 9.7695894e+01 1.1187487e+02 1.0000000e-06
      endloop
   endfacet
   facet normal 0.0000000e+00 -0.0000000e+00 -1.0000000e+00
      outer loop
         vertex 9.7695894e+01 1.1187487e+02 1.0000000e-06
         vertex 1.0003698e+02 1.0810545e+02 1.0000000e-06
         vertex 9.7966426e+01 1.0783286e+02 1.0000000e-06
      endloop
   endfacet
   facet normal -0.0000000e+00 -0.0000000e+00 -1.0000000e+00
      outer loop
         vertex 9.7695894e+01 1.1187487e+02 1.0000000e-06
         vertex 9.7966426e+01 1.0783286e+02 1.0000000e-06
         vertex 9.5444777e+01 1.1119200e+02 1.0000000e-06
      endloop
   endfacet
   facet normal 0.0000000e+00 -0.0000000e+00 -1.0000000e+00
      outer loop
         vertex 9.5444777e+01 1.1119200e+02 1.0000000e-06
         vertex 9.7966426e+01 1.0783286e+02 1.0000000e-06
         vertex 9.6036978e+01 1.0703365e+02 1.0000000e-06
      endloop
   endfacet
   facet normal -0.0000000e+00 -0.0000000e+00 -1.0000000e+00
      outer loop
         vertex 9.5444777e+01 1.1119200e+02 1.0000000e-06
         vertex 9.6036978e+01 1.0703365e+02 1.0000000e-06
         vertex 9.3370135e+01 1.1008309e+02 1.0000000e-06
      endloop
   endfacet
   facet normal 0.0000000e+00 -0.0000000e+00 -1.0000000e+00
      outer loop
         vertex 9.3370135e+01 1.1008309e+02 1.0000000e-06
         vertex 9.6036978e+01 1.0703365e+02 1.0000000e-06
         vertex 9.4380124e+01 1.0576230e+02 1.0000000e-06
      endloop
   endfacet
   facet normal -0.0000000e+00 -0.0000000e+00 -1.0000000e+00
      outer loop
         vertex 9.3370135e+01 1.1008309e+02 1.0000000e-06
         vertex 9.4380124e+01 1.0576230e+02 1.0000000e-06
         vertex 9.1551697e+01 1.0859073e+02 1.0000000e-06
      endloop
   endfacet
   facet normal -0.0000000e+00 -0.0000000e+00 -1.0000000e+00
      outer loop
         vertex 9.1551697e+01 1.0859073e+02 1.0000000e-06
         vertex 9.4380124e+01 1.0576230e+02 1.0000000e-06
         vertex 9.0059343e+01 1.0677229e+02 1.0000000e-06
      endloop
   endfacet
   facet normal 0.0000000e+00 -0.0000000e+00 -1.0000000e+00
      outer loop
         vertex 9.0059343e+01 1.0677229e+02 1.0000000e-06
         vertex 9.4380124e+01 1.0576230e+02 1.0000000e-06
         vertex 9.3108775e+01 1.0410545e+02 1.0000000e-06
      endloop
   endfacet
   facet normal -0.0000000e+00 -0.0000000e+00 -1.0000000e+00
      outer loop
         vertex 9.0059343e+01 1.0677229e+02 1.0000000e-06
         vertex 9.3108775e+01 1.0410545e+02 1.0000000e-06
         vertex 8.8950424e+01 1.0469765e+02 1.0000000e-06
      endloop
   endfacet
   facet normal 0.0000000e+00 -0.0000000e+00 -1.0000000e+00
      outer loop
         vertex 8.8950424e+01 1.0469765e+02 1.0000000e-06
         vertex 9.3108775e+01 1.0410545e+02 1.0000000e-06
         vertex 9.2309571e+01 1.0217600e+02 1.0000000e-06
      endloop
   endfacet
   facet normal -0.0000000e+00 -0.0000000e+00 -1.0000000e+00
      outer loop
         vertex 8.8950424e+01 1.0469765e+02 1.0000000e-06
         vertex 9.2309571e+01 1.0217600e+02 1.0000000e-06
         vertex 8.8267555e+01 1.0244653e+02 1.0000000e-06
      endloop
   endfacet
   facet normal 0.0000000e+00 -0.0000000e+00 -1.0000000e+00
      outer loop
         vertex 8.8267555e+01 1.0244653e+02 1.0000000e-06
         vertex 9.2309571e+01 1.0217600e+02 1.0000000e-06
         vertex 9.2036978e+01 1.0010545e+02 1.0000000e-06
      endloop
   endfacet
   facet normal -0.0000000e+00 -0.0000000e+00 -1.0000000e+00
      outer loop
         vertex 8.8267555e+01 1.0244653e+02 1.0000000e-06
         vertex 9.2036978e+01 1.0010545e+02 1.0000000e-06
         vertex 8.8036978e+01 1.0010545e+02 1.0000000e-06
      endloop
   endfacet
   facet normal 0.0000000e+00 -0.0000000e+00 -1.0000000e+00
      outer loop
         vertex 8.8036978e+01 1.0010545e+02 1.0000000e-06
         vertex 9.2036978e+01 1.0010545e+02 1.0000000e-06
         vertex 8.8036978e+01 6.0105450e+01 1.0000000e-06
      endloop
   endfacet
   facet normal 0.0000000e+00 0.0000000e+00 -1.0000000e+00
      outer loop
         vertex 8.8036978e+01 6.0105450e+01 1.0000000e-06
         vertex 9.2036978e+01 1.0010545e+02 1.0000000e-06
         vertex 9.2036978e+01 6.0105450e+01 1.0000000e-06
      endloop
   endfacet
endsolid AutoCAD
