solid stengun_3Dtisk
facet normal -1.395468408625842e-12 0.0 1.0
  outer loop
    vertex 352.54534307610334 235.47987738731462 82.40185223035282
    vertex 352.54534307610334 234.85335166465836 82.40185223035282
    vertex 352.56587540880616 235.1666145259865 82.40185223035284
  endloop
endfacet
facet normal -1.395468408625842e-12 0.0 1.0
  outer loop
    vertex 352.54534307610334 234.85335166465836 82.40185223035282
    vertex 352.54534307610334 235.47987738731462 82.40185223035282
    vertex 352.4840973919 235.78778023423257 82.40185223035274
  endloop
endfacet
facet normal -1.395468408625842e-12 0.0 1.0
  outer loop
    vertex 352.54534307610334 234.85335166465836 82.40185223035282
    vertex 352.4840973919 235.78778023423257 82.40185223035274
    vertex 352.4840973919 234.54544881774046 82.40185223035274
  endloop
endfacet
facet normal -1.395468408625842e-12 0.0 1.0
  outer loop
    vertex 352.4840973919 234.54544881774046 82.40185223035274
    vertex 352.4840973919 235.78778023423257 82.40185223035274
    vertex 352.3831862868333 236.0850547636627 82.40185223035259
  endloop
endfacet
facet normal -1.395468408625842e-12 0.0 1.0
  outer loop
    vertex 352.4840973919 234.54544881774046 82.40185223035274
    vertex 352.3831862868333 236.0850547636627 82.40185223035259
    vertex 352.3831862868333 234.24817428831028 82.40185223035259
  endloop
endfacet
facet normal -1.395468408625842e-12 0.0 1.0
  outer loop
    vertex 352.3831862868333 234.24817428831028 82.40185223035259
    vertex 352.3831862868333 236.0850547636627 82.40185223035259
    vertex 352.2443363778888 236.36661452598648 82.4018522303524
  endloop
endfacet
facet normal -1.395468408625842e-12 0.0 1.0
  outer loop
    vertex 352.3831862868333 234.24817428831028 82.40185223035259
    vertex 352.2443363778888 236.36661452598648 82.4018522303524
    vertex 352.2443363778888 233.9666145259865 82.4018522303524
  endloop
endfacet
facet normal -1.395468408625842e-12 0.0 1.0
  outer loop
    vertex 352.2443363778888 233.9666145259865 82.4018522303524
    vertex 352.2443363778888 236.36661452598648 82.4018522303524
    vertex 352.0699234255052 236.62764195560746 82.40185223035216
  endloop
endfacet
facet normal -1.395468408625842e-12 0.0 1.0
  outer loop
    vertex 352.2443363778888 233.9666145259865 82.4018522303524
    vertex 352.0699234255052 236.62764195560746 82.40185223035216
    vertex 352.0699234255052 233.70558709636558 82.40185223035216
  endloop
endfacet
facet normal -1.395468408625842e-12 0.0 1.0
  outer loop
    vertex 352.0699234255052 233.70558709636558 82.40185223035216
    vertex 352.0699234255052 236.62764195560746 82.40185223035216
    vertex 351.8629316836539 236.86367080083423 82.40185223035186
  endloop
endfacet
facet normal -1.395468408625842e-12 0.0 1.0
  outer loop
    vertex 352.0699234255052 233.70558709636558 82.40185223035216
    vertex 351.8629316836539 236.86367080083423 82.40185223035186
    vertex 351.8629316836539 233.4695582511388 82.40185223035186
  endloop
endfacet
facet normal -1.395468408625842e-12 0.0 1.0
  outer loop
    vertex 351.8629316836539 233.4695582511388 82.40185223035186
    vertex 351.8629316836539 236.86367080083423 82.40185223035186
    vertex 351.6269028384271 237.07066254268548 82.40185223035154
  endloop
endfacet
facet normal -1.395468408625842e-12 0.0 1.0
  outer loop
    vertex 351.8629316836539 233.4695582511388 82.40185223035186
    vertex 351.6269028384271 237.07066254268548 82.40185223035154
    vertex 351.62690283842716 233.26256650928755 82.40185223035154
  endloop
endfacet
facet normal -1.395468408625842e-12 0.0 1.0
  outer loop
    vertex 351.62690283842716 233.26256650928755 82.40185223035154
    vertex 351.6269028384271 237.07066254268548 82.40185223035154
    vertex 351.3658754088062 233.08815355690385 82.40185223035118
  endloop
endfacet
facet normal -1.395468408625842e-12 0.0 1.0
  outer loop
    vertex 351.3658754088062 233.08815355690385 82.40185223035118
    vertex 351.6269028384271 237.07066254268548 82.40185223035154
    vertex 351.3658754088062 237.24507549506913 82.40185223035118
  endloop
endfacet
facet normal -1.395468408625842e-12 0.0 1.0
  outer loop
    vertex 351.3658754088062 233.08815355690385 82.40185223035118
    vertex 351.3658754088062 237.24507549506913 82.40185223035118
    vertex 351.0843156464824 237.38392540401358 82.40185223035078
  endloop
endfacet
facet normal -1.395468408625842e-12 0.0 1.0
  outer loop
    vertex 351.3658754088062 233.08815355690385 82.40185223035118
    vertex 351.0843156464824 237.38392540401358 82.40185223035078
    vertex 351.0843156464824 232.9493036479594 82.40185223035078
  endloop
endfacet
facet normal -1.395468408625842e-12 0.0 1.0
  outer loop
    vertex 351.0843156464824 232.9493036479594 82.40185223035078
    vertex 351.0843156464824 237.38392540401358 82.40185223035078
    vertex 351.0626569025952 235.1666145259865 82.40185223035076
  endloop
endfacet
facet normal -1.395468408625842e-12 0.0 1.0
  outer loop
    vertex 351.0626569025952 235.1666145259865 82.40185223035076
    vertex 351.0843156464824 237.38392540401358 82.40185223035078
    vertex 351.05498481259843 235.28366799962447 82.40185223035074
  endloop
endfacet
facet normal -1.395468408625842e-12 0.0 1.0
  outer loop
    vertex 351.05498481259843 235.28366799962447 82.40185223035074
    vertex 351.0843156464824 237.38392540401358 82.40185223035078
    vertex 350.78704111705224 237.48483650908025 82.40185223035037
  endloop
endfacet
facet normal -1.395468408625842e-12 0.0 1.0
  outer loop
    vertex 351.05498481259843 235.28366799962447 82.40185223035074
    vertex 350.78704111705224 237.48483650908025 82.40185223035037
    vertex 351.03209981419513 235.3987186558747 82.40185223035071
  endloop
endfacet
facet normal -1.395468408625842e-12 0.0 1.0
  outer loop
    vertex 351.03209981419513 235.3987186558747 82.40185223035071
    vertex 350.78704111705224 237.48483650908025 82.40185223035037
    vertex 350.99439347605284 235.509797946111 82.40185223035066
  endloop
endfacet
facet normal -1.395468408625842e-12 0.0 1.0
  outer loop
    vertex 350.99439347605284 235.509797946111 82.40185223035066
    vertex 350.78704111705224 237.48483650908025 82.40185223035037
    vertex 350.94251096407123 235.61500527288115 82.40185223035058
  endloop
endfacet
facet normal -1.395468408625842e-12 0.0 1.0
  outer loop
    vertex 350.94251096407123 235.61500527288115 82.40185223035058
    vertex 350.78704111705224 237.48483650908025 82.40185223035037
    vertex 350.87734000241517 235.71254050965405 82.4018522303505
  endloop
endfacet
facet normal -1.395468408625842e-12 0.0 1.0
  outer loop
    vertex 350.87734000241517 235.71254050965405 82.4018522303505
    vertex 350.78704111705224 237.48483650908025 82.40185223035037
    vertex 350.7999956843072 235.8007348014872 82.40185223035039
  endloop
endfacet
facet normal -1.395468408625842e-12 0.0 1.0
  outer loop
    vertex 350.7999956843072 235.8007348014872 82.40185223035039
    vertex 350.78704111705224 237.48483650908025 82.40185223035037
    vertex 350.71180139247366 235.8780791195955 82.40185223035027
  endloop
endfacet
facet normal -1.395468408625842e-12 0.0 1.0
  outer loop
    vertex 350.71180139247366 235.8780791195955 82.40185223035027
    vertex 350.78704111705224 237.48483650908025 82.40185223035037
    vertex 350.4791382701343 237.54608219328367 82.40185223034995
  endloop
endfacet
facet normal -1.395468408625842e-12 0.0 1.0
  outer loop
    vertex 350.71180139247366 235.8780791195955 82.40185223035027
    vertex 350.4791382701343 237.54608219328367 82.40185223034995
    vertex 350.61426615570076 235.94325008125153 82.40185223035013
  endloop
endfacet
facet normal -1.395468408625842e-12 0.0 1.0
  outer loop
    vertex 350.61426615570076 235.94325008125153 82.40185223035013
    vertex 350.4791382701343 237.54608219328367 82.40185223034995
    vertex 350.50905882893085 235.9951325932331 82.40185223034999
  endloop
endfacet
facet normal -1.395468408625842e-12 0.0 1.0
  outer loop
    vertex 350.50905882893085 235.9951325932331 82.40185223034999
    vertex 350.4791382701343 237.54608219328367 82.40185223034995
    vertex 350.39797953869436 236.03283893137544 82.40185223034983
  endloop
endfacet
facet normal -1.395468408625842e-12 0.0 1.0
  outer loop
    vertex 350.39797953869436 236.03283893137544 82.40185223034983
    vertex 350.4791382701343 237.54608219328367 82.40185223034995
    vertex 350.1658754088062 237.5666145259865 82.4018522303495
  endloop
endfacet
facet normal -1.395468408625842e-12 0.0 1.0
  outer loop
    vertex 350.39797953869436 236.03283893137544 82.40185223034983
    vertex 350.1658754088062 237.5666145259865 82.4018522303495
    vertex 350.2829288824439 236.0557239297788 82.40185223034968
  endloop
endfacet
facet normal -1.395468408625842e-12 0.0 1.0
  outer loop
    vertex 350.2829288824439 236.0557239297788 82.40185223034968
    vertex 350.1658754088062 237.5666145259865 82.4018522303495
    vertex 350.11677049318513 236.0666145259866 82.40185223034943
  endloop
endfacet
facet normal -1.395468408625842e-12 0.0 1.0
  outer loop
    vertex 350.11677049318513 236.0666145259866 82.40185223034943
    vertex 350.1658754088062 237.5666145259865 82.4018522303495
    vertex 331.56587540880616 237.5666145259865 82.40185223032354
  endloop
endfacet
facet normal -1.395468408625842e-12 0.0 1.0
  outer loop
    vertex 350.11677049318513 236.0666145259866 82.40185223034943
    vertex 331.56587540880616 237.5666145259865 82.40185223032354
    vertex 331.56587540880616 236.06661452598652 82.40185223032354
  endloop
endfacet
facet normal -1.395468408625842e-12 0.0 1.0
  outer loop
    vertex 351.0843156464824 232.9493036479594 82.40185223035078
    vertex 351.05498481259843 235.0495610523485 82.40185223035074
    vertex 350.7870411170523 232.84839254289273 82.40185223035037
  endloop
endfacet
facet normal -1.395468408625842e-12 0.0 1.0
  outer loop
    vertex 351.05498481259843 235.0495610523485 82.40185223035074
    vertex 351.0843156464824 232.9493036479594 82.40185223035078
    vertex 351.0626569025952 235.1666145259865 82.40185223035076
  endloop
endfacet
facet normal -1.395468408625842e-12 0.0 1.0
  outer loop
    vertex 350.7870411170523 232.84839254289273 82.40185223035037
    vertex 351.05498481259843 235.0495610523485 82.40185223035074
    vertex 351.03209981419513 234.93451039609835 82.40185223035071
  endloop
endfacet
facet normal -1.395468408625842e-12 0.0 1.0
  outer loop
    vertex 350.7870411170523 232.84839254289273 82.40185223035037
    vertex 351.03209981419513 234.93451039609835 82.40185223035071
    vertex 350.99439347605284 234.82343110586197 82.40185223035066
  endloop
endfacet
facet normal -1.395468408625842e-12 0.0 1.0
  outer loop
    vertex 350.7870411170523 232.84839254289273 82.40185223035037
    vertex 350.99439347605284 234.82343110586197 82.40185223035066
    vertex 350.9425109640713 234.71822377909206 82.40185223035058
  endloop
endfacet
facet normal -1.395468408625842e-12 0.0 1.0
  outer loop
    vertex 350.7870411170523 232.84839254289273 82.40185223035037
    vertex 350.9425109640713 234.71822377909206 82.40185223035058
    vertex 350.877340002415 234.62068854231876 82.4018522303505
  endloop
endfacet
facet normal -1.395468408625842e-12 0.0 1.0
  outer loop
    vertex 350.7870411170523 232.84839254289273 82.40185223035037
    vertex 350.877340002415 234.62068854231876 82.4018522303505
    vertex 350.7999956843071 234.53249425048568 82.40185223035039
  endloop
endfacet
facet normal -1.395468408625842e-12 0.0 1.0
  outer loop
    vertex 350.7870411170523 232.84839254289273 82.40185223035037
    vertex 350.7999956843071 234.53249425048568 82.40185223035039
    vertex 350.7118013924737 234.45514993237754 82.40185223035027
  endloop
endfacet
facet normal -1.395468408625842e-12 0.0 1.0
  outer loop
    vertex 350.7870411170523 232.84839254289273 82.40185223035037
    vertex 350.7118013924737 234.45514993237754 82.40185223035027
    vertex 350.4791382701343 232.78714685868937 82.40185223034995
  endloop
endfacet
facet normal -1.395468408625842e-12 0.0 1.0
  outer loop
    vertex 350.4791382701343 232.78714685868937 82.40185223034995
    vertex 350.7118013924737 234.45514993237754 82.40185223035027
    vertex 350.6142661557008 234.38997897072147 82.40185223035013
  endloop
endfacet
facet normal -1.395468408625842e-12 0.0 1.0
  outer loop
    vertex 350.4791382701343 232.78714685868937 82.40185223034995
    vertex 350.6142661557008 234.38997897072147 82.40185223035013
    vertex 350.50905882893085 234.33809645873987 82.40185223034999
  endloop
endfacet
facet normal -1.395468408625842e-12 0.0 1.0
  outer loop
    vertex 350.4791382701343 232.78714685868937 82.40185223034995
    vertex 350.50905882893085 234.33809645873987 82.40185223034999
    vertex 350.3979795386943 234.30039012059754 82.40185223034983
  endloop
endfacet
facet normal -1.395468408625842e-12 0.0 1.0
  outer loop
    vertex 350.4791382701343 232.78714685868937 82.40185223034995
    vertex 350.3979795386943 234.30039012059754 82.40185223034983
    vertex 350.1658754088062 232.76661452598648 82.4018522303495
  endloop
endfacet
facet normal -1.395468408625842e-12 0.0 1.0
  outer loop
    vertex 350.1658754088062 232.76661452598648 82.4018522303495
    vertex 350.3979795386943 234.30039012059754 82.40185223034983
    vertex 350.2829288824439 234.27750512219424 82.40185223034968
  endloop
endfacet
facet normal -1.395468408625842e-12 0.0 1.0
  outer loop
    vertex 350.1658754088062 232.76661452598648 82.4018522303495
    vertex 350.2829288824439 234.27750512219424 82.40185223034968
    vertex 350.1167704931867 234.2666145259865 82.40185223034943
  endloop
endfacet
facet normal -1.395468408625842e-12 0.0 1.0
  outer loop
    vertex 350.1658754088062 232.76661452598648 82.4018522303495
    vertex 350.1167704931867 234.2666145259865 82.40185223034943
    vertex 327.0658754088062 232.76661452598648 82.40185223031726
  endloop
endfacet
facet normal -1.395468408625842e-12 0.0 1.0
  outer loop
    vertex 327.0658754088062 232.76661452598648 82.40185223031726
    vertex 350.1167704931867 234.2666145259865 82.40185223034943
    vertex 327.0658754088062 234.2666145259865 82.40185223031726
  endloop
endfacet
facet normal 0.0 1.0 0.0
  outer loop
    vertex 350.1658754088223 237.5666145259865 70.9018522303495
    vertex 331.56587540880616 237.5666145259865 82.40185223032354
    vertex 350.1658754088062 237.5666145259865 82.4018522303495
  endloop
endfacet
facet normal 0.0 1.0 0.0
  outer loop
    vertex 331.56587540880616 237.5666145259865 82.40185223032354
    vertex 350.1658754088223 237.5666145259865 70.9018522303495
    vertex 331.56587540882225 237.5666145259865 70.90185223032354
  endloop
endfacet
facet normal 0.06540312923014437 0.9978589232386036 9.126800066593985e-14
  outer loop
    vertex 350.4791382701504 237.54608219328367 70.90185223034995
    vertex 350.1658754088062 237.5666145259865 82.4018522303495
    vertex 350.4791382701343 237.54608219328367 82.40185223034995
  endloop
endfacet
facet normal 0.06540312923014437 0.9978589232386036 9.126800066593985e-14
  outer loop
    vertex 350.1658754088062 237.5666145259865 82.4018522303495
    vertex 350.4791382701504 237.54608219328367 70.90185223034995
    vertex 350.1658754088223 237.5666145259865 70.9018522303495
  endloop
endfacet
facet normal 0.19509032201613577 0.980785280403229 2.7224238120216006e-13
  outer loop
    vertex 350.78704111706827 237.48483650908025 70.90185223035037
    vertex 350.4791382701343 237.54608219328367 82.40185223034995
    vertex 350.78704111705224 237.48483650908025 82.40185223035037
  endloop
endfacet
facet normal 0.19509032201613577 0.980785280403229 2.7224238120216006e-13
  outer loop
    vertex 350.4791382701343 237.54608219328367 82.40185223034995
    vertex 350.78704111706827 237.48483650908025 70.90185223035037
    vertex 350.4791382701504 237.54608219328367 70.90185223034995
  endloop
endfacet
facet normal 0.3214394653031444 0.9469301294951117 4.485586191161205e-13
  outer loop
    vertex 351.08431564649845 237.38392540401358 70.90185223035078
    vertex 350.78704111705224 237.48483650908025 82.40185223035037
    vertex 351.0843156464824 237.38392540401358 82.40185223035078
  endloop
endfacet
facet normal 0.3214394653031444 0.9469301294951117 4.485586191161205e-13
  outer loop
    vertex 350.78704111705224 237.48483650908025 82.40185223035037
    vertex 351.08431564649845 237.38392540401358 70.90185223035078
    vertex 350.78704111706827 237.48483650908025 70.90185223035037
  endloop
endfacet
facet normal 0.4422886902190013 0.8968727415326885 6.171998946931177e-13
  outer loop
    vertex 351.36587540882226 237.24507549506913 70.90185223035118
    vertex 351.0843156464824 237.38392540401358 82.40185223035078
    vertex 351.3658754088062 237.24507549506913 82.40185223035118
  endloop
endfacet
facet normal 0.4422886902190013 0.8968727415326885 6.171998946931177e-13
  outer loop
    vertex 351.0843156464824 237.38392540401358 82.40185223035078
    vertex 351.36587540882226 237.24507549506913 70.90185223035118
    vertex 351.08431564649845 237.38392540401358 70.90185223035078
  endloop
endfacet
facet normal 0.5555702330196197 0.8314696123025337 7.75280708951777e-13
  outer loop
    vertex 351.6269028384432 237.07066254268548 70.90185223035154
    vertex 351.3658754088062 237.24507549506913 82.40185223035118
    vertex 351.6269028384271 237.07066254268548 82.40185223035154
  endloop
endfacet
facet normal 0.5555702330196197 0.8314696123025337 7.75280708951777e-13
  outer loop
    vertex 351.3658754088062 237.24507549506913 82.40185223035118
    vertex 351.6269028384432 237.07066254268548 70.90185223035154
    vertex 351.36587540882226 237.24507549506913 70.90185223035118
  endloop
endfacet
facet normal 0.6593458151000255 0.7518398074790154 9.200962553317414e-13
  outer loop
    vertex 351.86293168367 236.86367080083423 70.90185223035186
    vertex 351.6269028384271 237.07066254268548 82.40185223035154
    vertex 351.8629316836539 236.86367080083423 82.40185223035186
  endloop
endfacet
facet normal 0.6593458151000255 0.7518398074790154 9.200962553317414e-13
  outer loop
    vertex 351.6269028384271 237.07066254268548 82.40185223035154
    vertex 351.86293168367 236.86367080083423 70.90185223035186
    vertex 351.6269028384432 237.07066254268548 70.90185223035154
  endloop
endfacet
facet normal 0.7518398074789726 0.6593458151000746 1.0491686996842413e-12
  outer loop
    vertex 351.86293168367 236.86367080083423 70.90185223035186
    vertex 352.0699234255052 236.62764195560746 82.40185223035216
    vertex 352.0699234255212 236.62764195560746 70.90185223035216
  endloop
endfacet
facet normal 0.7518398074789726 0.6593458151000746 1.0491686996842413e-12
  outer loop
    vertex 352.0699234255052 236.62764195560746 82.40185223035216
    vertex 351.86293168367 236.86367080083423 70.90185223035186
    vertex 351.8629316836539 236.86367080083423 82.40185223035186
  endloop
endfacet
facet normal 0.831469612302571 0.5555702330195638 1.1602895767006145e-12
  outer loop
    vertex 352.0699234255212 236.62764195560746 70.90185223035216
    vertex 352.2443363778888 236.36661452598648 82.4018522303524
    vertex 352.2443363779049 236.36661452598648 70.9018522303524
  endloop
endfacet
facet normal 0.831469612302571 0.5555702330195638 1.1602895767006145e-12
  outer loop
    vertex 352.2443363778888 236.36661452598648 82.4018522303524
    vertex 352.0699234255212 236.62764195560746 70.90185223035216
    vertex 352.0699234255052 236.62764195560746 82.40185223035216
  endloop
endfacet
facet normal 0.896872741532674 0.4422886902190301 1.2515575773664969e-12
  outer loop
    vertex 352.2443363779049 236.36661452598648 70.9018522303524
    vertex 352.3831862868333 236.0850547636627 82.40185223035259
    vertex 352.38318628684937 236.0850547636627 70.9018522303526
  endloop
endfacet
facet normal 0.896872741532674 0.4422886902190301 1.2515575773664969e-12
  outer loop
    vertex 352.3831862868333 236.0850547636627 82.40185223035259
    vertex 352.2443363779049 236.36661452598648 70.9018522303524
    vertex 352.2443363778888 236.36661452598648 82.4018522303524
  endloop
endfacet
facet normal 0.9469301294951128 0.32143946530314055 1.3214110808864076e-12
  outer loop
    vertex 352.38318628684937 236.0850547636627 70.9018522303526
    vertex 352.4840973919 235.78778023423257 82.40185223035274
    vertex 352.484097391916 235.78778023423257 70.90185223035273
  endloop
endfacet
facet normal 0.9469301294951128 0.32143946530314055 1.3214110808864076e-12
  outer loop
    vertex 352.4840973919 235.78778023423257 82.40185223035274
    vertex 352.38318628684937 236.0850547636627 70.9018522303526
    vertex 352.3831862868333 236.0850547636627 82.40185223035259
  endloop
endfacet
facet normal 0.9807852804032418 0.19509032201607188 1.368654874447962e-12
  outer loop
    vertex 352.484097391916 235.78778023423257 70.90185223035273
    vertex 352.54534307610334 235.47987738731462 82.40185223035282
    vertex 352.54534307611937 235.47987738731462 70.90185223035283
  endloop
endfacet
facet normal 0.9807852804032418 0.19509032201607188 1.368654874447962e-12
  outer loop
    vertex 352.54534307610334 235.47987738731462 82.40185223035282
    vertex 352.484097391916 235.78778023423257 70.90185223035273
    vertex 352.4840973919 235.78778023423257 82.40185223035274
  endloop
endfacet
facet normal 0.9978589232386006 0.06540312923018761 1.3924806036448662e-12
  outer loop
    vertex 352.54534307611937 235.47987738731462 70.90185223035283
    vertex 352.56587540880616 235.1666145259865 82.40185223035284
    vertex 352.56587540882225 235.1666145259865 70.90185223035284
  endloop
endfacet
facet normal 0.9978589232386006 0.06540312923018761 1.3924806036448662e-12
  outer loop
    vertex 352.56587540880616 235.1666145259865 82.40185223035284
    vertex 352.54534307611937 235.47987738731462 70.90185223035283
    vertex 352.54534307610334 235.47987738731462 82.40185223035282
  endloop
endfacet
facet normal 0.9978589232386006 -0.06540312923018761 1.3924806036448662e-12
  outer loop
    vertex 352.56587540882225 235.1666145259865 70.90185223035284
    vertex 352.54534307610334 234.85335166465836 82.40185223035282
    vertex 352.54534307611937 234.85335166465836 70.90185223035283
  endloop
endfacet
facet normal 0.9978589232386006 -0.06540312923018761 1.3924806036448662e-12
  outer loop
    vertex 352.54534307610334 234.85335166465836 82.40185223035282
    vertex 352.56587540882225 235.1666145259865 70.90185223035284
    vertex 352.56587540880616 235.1666145259865 82.40185223035284
  endloop
endfacet
facet normal 0.9807852804032418 -0.19509032201607188 1.368654874447962e-12
  outer loop
    vertex 352.54534307611937 234.85335166465836 70.90185223035283
    vertex 352.4840973919 234.54544881774046 82.40185223035274
    vertex 352.484097391916 234.54544881774046 70.90185223035273
  endloop
endfacet
facet normal 0.9807852804032418 -0.19509032201607188 1.368654874447962e-12
  outer loop
    vertex 352.4840973919 234.54544881774046 82.40185223035274
    vertex 352.54534307611937 234.85335166465836 70.90185223035283
    vertex 352.54534307610334 234.85335166465836 82.40185223035282
  endloop
endfacet
facet normal -0.8314696123026754 0.5555702330194078 -1.1602895767007601e-12
  outer loop
    vertex 350.9425109640713 234.71822377909206 82.40185223035058
    vertex 350.8773400024311 234.62068854231876 70.90185223035049
    vertex 350.877340002415 234.62068854231876 82.4018522303505
  endloop
endfacet
facet normal -0.8314696123026754 0.5555702330194078 -1.1602895767007601e-12
  outer loop
    vertex 350.8773400024311 234.62068854231876 70.90185223035049
    vertex 350.9425109640713 234.71822377909206 82.40185223035058
    vertex 350.9425109640874 234.71822377909206 70.90185223035058
  endloop
endfacet
facet normal -0.896872741532712 0.44228869021895323 -1.2515575773665498e-12
  outer loop
    vertex 350.99439347605284 234.82343110586197 82.40185223035066
    vertex 350.9425109640874 234.71822377909206 70.90185223035058
    vertex 350.9425109640713 234.71822377909206 82.40185223035058
  endloop
endfacet
facet normal -0.896872741532712 0.44228869021895323 -1.2515575773665498e-12
  outer loop
    vertex 350.9425109640874 234.71822377909206 70.90185223035058
    vertex 350.99439347605284 234.82343110586197 82.40185223035066
    vertex 350.9943934760689 234.82343110586197 70.90185223035066
  endloop
endfacet
facet normal -0.9469301294950221 0.32143946530340795 -1.321411080886281e-12
  outer loop
    vertex 351.03209981419513 234.93451039609835 82.40185223035071
    vertex 350.9943934760689 234.82343110586197 70.90185223035066
    vertex 350.99439347605284 234.82343110586197 82.40185223035066
  endloop
endfacet
facet normal -0.9469301294950221 0.32143946530340795 -1.321411080886281e-12
  outer loop
    vertex 350.9943934760689 234.82343110586197 70.90185223035066
    vertex 351.03209981419513 234.93451039609835 82.40185223035071
    vertex 351.0320998142112 234.93451039609835 70.90185223035071
  endloop
endfacet
facet normal -0.9807852804032988 0.1950903220157853 -1.3686548744480417e-12
  outer loop
    vertex 351.05498481259843 235.0495610523485 82.40185223035074
    vertex 351.0320998142112 234.93451039609835 70.90185223035071
    vertex 351.03209981419513 234.93451039609835 82.40185223035071
  endloop
endfacet
facet normal -0.9807852804032988 0.1950903220157853 -1.3686548744480417e-12
  outer loop
    vertex 351.0320998142112 234.93451039609835 70.90185223035071
    vertex 351.05498481259843 235.0495610523485 82.40185223035074
    vertex 351.05498481261446 235.0495610523485 70.90185223035074
  endloop
endfacet
facet normal -0.9978589232385868 0.06540312923039764 -1.392480603644847e-12
  outer loop
    vertex 351.0626569025952 235.1666145259865 82.40185223035076
    vertex 351.05498481261446 235.0495610523485 70.90185223035074
    vertex 351.05498481259843 235.0495610523485 82.40185223035074
  endloop
endfacet
facet normal -0.9978589232385868 0.06540312923039764 -1.392480603644847e-12
  outer loop
    vertex 351.05498481261446 235.0495610523485 70.90185223035074
    vertex 351.0626569025952 235.1666145259865 82.40185223035076
    vertex 351.0626569026113 235.1666145259865 70.90185223035076
  endloop
endfacet
facet normal -0.9978589232385869 -0.06540312923039528 -1.3924806036448473e-12
  outer loop
    vertex 351.05498481259843 235.28366799962447 82.40185223035074
    vertex 351.0626569026113 235.1666145259865 70.90185223035076
    vertex 351.0626569025952 235.1666145259865 82.40185223035076
  endloop
endfacet
facet normal -0.9978589232385869 -0.06540312923039528 -1.3924806036448473e-12
  outer loop
    vertex 351.0626569026113 235.1666145259865 70.90185223035076
    vertex 351.05498481259843 235.28366799962447 82.40185223035074
    vertex 351.05498481261446 235.28366799962447 70.90185223035074
  endloop
endfacet
facet normal -0.9807852804032964 -0.19509032201579674 -1.3686548744480383e-12
  outer loop
    vertex 351.03209981419513 235.3987186558747 82.40185223035071
    vertex 351.05498481261446 235.28366799962447 70.90185223035074
    vertex 351.05498481259843 235.28366799962447 82.40185223035074
  endloop
endfacet
facet normal -0.9807852804032964 -0.19509032201579674 -1.3686548744480383e-12
  outer loop
    vertex 351.05498481261446 235.28366799962447 70.90185223035074
    vertex 351.03209981419513 235.3987186558747 82.40185223035071
    vertex 351.0320998142112 235.3987186558747 70.90185223035071
  endloop
endfacet
facet normal -0.9469301294950283 -0.3214394653033896 -1.3214110808862897e-12
  outer loop
    vertex 350.99439347605284 235.509797946111 82.40185223035066
    vertex 351.0320998142112 235.3987186558747 70.90185223035071
    vertex 351.03209981419513 235.3987186558747 82.40185223035071
  endloop
endfacet
facet normal -0.9469301294950283 -0.3214394653033896 -1.3214110808862897e-12
  outer loop
    vertex 351.0320998142112 235.3987186558747 70.90185223035071
    vertex 350.99439347605284 235.509797946111 82.40185223035066
    vertex 350.9943934760689 235.509797946111 70.90185223035066
  endloop
endfacet
facet normal -0.8968727415327807 -0.4422886902188139 -1.2515575773666457e-12
  outer loop
    vertex 350.94251096407123 235.61500527288115 82.40185223035058
    vertex 350.9943934760689 235.509797946111 70.90185223035066
    vertex 350.99439347605284 235.509797946111 82.40185223035066
  endloop
endfacet
facet normal -0.8968727415327807 -0.4422886902188139 -1.2515575773666457e-12
  outer loop
    vertex 350.9943934760689 235.509797946111 70.90185223035066
    vertex 350.94251096407123 235.61500527288115 82.40185223035058
    vertex 350.94251096408726 235.61500527288115 70.90185223035058
  endloop
endfacet
facet normal -0.8314696123025875 -0.5555702330195391 -1.1602895767006378e-12
  outer loop
    vertex 350.87734000241517 235.71254050965405 82.4018522303505
    vertex 350.94251096408726 235.61500527288115 70.90185223035058
    vertex 350.94251096407123 235.61500527288115 82.40185223035058
  endloop
endfacet
facet normal -0.8314696123025875 -0.5555702330195391 -1.1602895767006378e-12
  outer loop
    vertex 350.94251096408726 235.61500527288115 70.90185223035058
    vertex 350.87734000241517 235.71254050965405 82.4018522303505
    vertex 350.87734000243125 235.71254050965405 70.90185223035049
  endloop
endfacet
facet normal -0.7518398074789838 -0.6593458151000618 -1.0491686996842568e-12
  outer loop
    vertex 350.7999956843072 235.8007348014872 82.40185223035039
    vertex 350.87734000243125 235.71254050965405 70.90185223035049
    vertex 350.87734000241517 235.71254050965405 82.4018522303505
  endloop
endfacet
facet normal -0.7518398074789838 -0.6593458151000618 -1.0491686996842568e-12
  outer loop
    vertex 350.87734000243125 235.71254050965405 70.90185223035049
    vertex 350.7999956843072 235.8007348014872 82.40185223035039
    vertex 350.7999956843232 235.8007348014872 70.90185223035039
  endloop
endfacet
facet normal -0.6593458150998547 -0.7518398074791651 -9.20096255331503e-13
  outer loop
    vertex 350.7118013924897 235.8780791195955 70.90185223035027
    vertex 350.7999956843072 235.8007348014872 82.40185223035039
    vertex 350.71180139247366 235.8780791195955 82.40185223035027
  endloop
endfacet
facet normal -0.6593458150998547 -0.7518398074791651 -9.20096255331503e-13
  outer loop
    vertex 350.7999956843072 235.8007348014872 82.40185223035039
    vertex 350.7118013924897 235.8780791195955 70.90185223035027
    vertex 350.7999956843232 235.8007348014872 70.90185223035039
  endloop
endfacet
facet normal -0.5555702330197605 -0.8314696123024397 -7.752807089519735e-13
  outer loop
    vertex 350.61426615571685 235.94325008125153 70.90185223035013
    vertex 350.71180139247366 235.8780791195955 82.40185223035027
    vertex 350.61426615570076 235.94325008125153 82.40185223035013
  endloop
endfacet
facet normal -0.5555702330197605 -0.8314696123024397 -7.752807089519735e-13
  outer loop
    vertex 350.71180139247366 235.8780791195955 82.40185223035027
    vertex 350.61426615571685 235.94325008125153 70.90185223035013
    vertex 350.7118013924897 235.8780791195955 70.90185223035027
  endloop
endfacet
facet normal -0.44228869021901074 -0.8968727415326837 -6.17199894693131e-13
  outer loop
    vertex 350.50905882894693 235.9951325932331 70.90185223034999
    vertex 350.61426615570076 235.94325008125153 82.40185223035013
    vertex 350.50905882893085 235.9951325932331 82.40185223034999
  endloop
endfacet
facet normal -0.44228869021901074 -0.8968727415326837 -6.17199894693131e-13
  outer loop
    vertex 350.61426615570076 235.94325008125153 82.40185223035013
    vertex 350.50905882894693 235.9951325932331 70.90185223034999
    vertex 350.61426615571685 235.94325008125153 70.90185223035013
  endloop
endfacet
facet normal -0.3214394653031342 -0.9469301294951151 -4.485586191161063e-13
  outer loop
    vertex 350.3979795387104 236.03283893137544 70.90185223034983
    vertex 350.50905882893085 235.9951325932331 82.40185223034999
    vertex 350.39797953869436 236.03283893137544 82.40185223034983
  endloop
endfacet
facet normal -0.3214394653031342 -0.9469301294951151 -4.485586191161063e-13
  outer loop
    vertex 350.50905882893085 235.9951325932331 82.40185223034999
    vertex 350.3979795387104 236.03283893137544 70.90185223034983
    vertex 350.50905882894693 235.9951325932331 70.90185223034999
  endloop
endfacet
facet normal -0.19509032201612966 -0.9807852804032302 -2.7224238120215153e-13
  outer loop
    vertex 350.28292888245994 236.0557239297788 70.90185223034968
    vertex 350.39797953869436 236.03283893137544 82.40185223034983
    vertex 350.2829288824439 236.0557239297788 82.40185223034968
  endloop
endfacet
facet normal -0.19509032201612966 -0.9807852804032302 -2.7224238120215153e-13
  outer loop
    vertex 350.39797953869436 236.03283893137544 82.40185223034983
    vertex 350.28292888245994 236.0557239297788 70.90185223034968
    vertex 350.3979795387104 236.03283893137544 70.90185223034983
  endloop
endfacet
facet normal -0.06540312923013515 -0.997858923238604 -9.1268000665927e-14
  outer loop
    vertex 350.11677049320116 236.0666145259866 70.90185223034943
    vertex 350.2829288824439 236.0557239297788 82.40185223034968
    vertex 350.11677049318513 236.0666145259866 82.40185223034943
  endloop
endfacet
facet normal -0.06540312923013515 -0.997858923238604 -9.1268000665927e-14
  outer loop
    vertex 350.2829288824439 236.0557239297788 82.40185223034968
    vertex 350.11677049320116 236.0666145259866 70.90185223034943
    vertex 350.28292888245994 236.0557239297788 70.90185223034968
  endloop
endfacet
facet normal 5.830383648291942e-15 -1.0 8.136136234739956e-27
  outer loop
    vertex 331.56587540882225 236.06661452598652 70.90185223032354
    vertex 350.11677049318513 236.0666145259866 82.40185223034943
    vertex 331.56587540880616 236.06661452598652 82.40185223032354
  endloop
endfacet
facet normal 5.830383648291942e-15 -1.0 8.136136234739956e-27
  outer loop
    vertex 350.11677049318513 236.0666145259866 82.40185223034943
    vertex 331.56587540882225 236.06661452598652 70.90185223032354
    vertex 350.11677049320116 236.0666145259866 70.90185223034943
  endloop
endfacet
facet normal -1.0 0.0 -1.395468408625842e-12
  outer loop
    vertex 331.56587540880616 237.5666145259865 82.40185223032354
    vertex 331.56587540882225 236.06661452598652 70.90185223032354
    vertex 331.56587540880616 236.06661452598652 82.40185223032354
  endloop
endfacet
facet normal -1.0 0.0 -1.395468408625842e-12
  outer loop
    vertex 331.56587540882225 236.06661452598652 70.90185223032354
    vertex 331.56587540880616 237.5666145259865 82.40185223032354
    vertex 331.56587540882225 237.5666145259865 70.90185223032354
  endloop
endfacet
facet normal 1.395468408625842e-12 0.0 -1.0
  outer loop
    vertex 352.54534307611937 234.85335166465836 70.90185223035283
    vertex 352.54534307611937 235.47987738731462 70.90185223035283
    vertex 352.56587540882225 235.1666145259865 70.90185223035284
  endloop
endfacet
facet normal 1.395468408625842e-12 0.0 -1.0
  outer loop
    vertex 352.54534307611937 235.47987738731462 70.90185223035283
    vertex 352.54534307611937 234.85335166465836 70.90185223035283
    vertex 352.484097391916 234.54544881774046 70.90185223035273
  endloop
endfacet
facet normal 1.395468408625842e-12 0.0 -1.0
  outer loop
    vertex 352.54534307611937 235.47987738731462 70.90185223035283
    vertex 352.484097391916 234.54544881774046 70.90185223035273
    vertex 352.484097391916 235.78778023423257 70.90185223035273
  endloop
endfacet
facet normal 1.395468408625842e-12 0.0 -1.0
  outer loop
    vertex 352.484097391916 235.78778023423257 70.90185223035273
    vertex 352.484097391916 234.54544881774046 70.90185223035273
    vertex 352.38318628684937 234.24817428831028 70.9018522303526
  endloop
endfacet
facet normal 1.395468408625842e-12 0.0 -1.0
  outer loop
    vertex 352.484097391916 235.78778023423257 70.90185223035273
    vertex 352.38318628684937 234.24817428831028 70.9018522303526
    vertex 352.38318628684937 236.0850547636627 70.9018522303526
  endloop
endfacet
facet normal 1.395468408625842e-12 0.0 -1.0
  outer loop
    vertex 352.38318628684937 236.0850547636627 70.9018522303526
    vertex 352.38318628684937 234.24817428831028 70.9018522303526
    vertex 352.2443363779049 233.9666145259865 70.9018522303524
  endloop
endfacet
facet normal 1.395468408625842e-12 0.0 -1.0
  outer loop
    vertex 352.38318628684937 236.0850547636627 70.9018522303526
    vertex 352.2443363779049 233.9666145259865 70.9018522303524
    vertex 352.2443363779049 236.36661452598648 70.9018522303524
  endloop
endfacet
facet normal 1.395468408625842e-12 0.0 -1.0
  outer loop
    vertex 352.2443363779049 236.36661452598648 70.9018522303524
    vertex 352.2443363779049 233.9666145259865 70.9018522303524
    vertex 352.0699234255212 233.70558709636558 70.90185223035216
  endloop
endfacet
facet normal 1.395468408625842e-12 0.0 -1.0
  outer loop
    vertex 352.2443363779049 236.36661452598648 70.9018522303524
    vertex 352.0699234255212 233.70558709636558 70.90185223035216
    vertex 352.0699234255212 236.62764195560746 70.90185223035216
  endloop
endfacet
facet normal 1.395468408625842e-12 0.0 -1.0
  outer loop
    vertex 352.0699234255212 236.62764195560746 70.90185223035216
    vertex 352.0699234255212 233.70558709636558 70.90185223035216
    vertex 351.86293168367 233.4695582511388 70.90185223035186
  endloop
endfacet
facet normal 1.395468408625842e-12 0.0 -1.0
  outer loop
    vertex 352.0699234255212 236.62764195560746 70.90185223035216
    vertex 351.86293168367 233.4695582511388 70.90185223035186
    vertex 351.86293168367 236.86367080083423 70.90185223035186
  endloop
endfacet
facet normal 1.395468408625842e-12 0.0 -1.0
  outer loop
    vertex 351.86293168367 236.86367080083423 70.90185223035186
    vertex 351.86293168367 233.4695582511388 70.90185223035186
    vertex 351.62690283844324 233.26256650928755 70.90185223035154
  endloop
endfacet
facet normal 1.395468408625842e-12 0.0 -1.0
  outer loop
    vertex 351.86293168367 236.86367080083423 70.90185223035186
    vertex 351.62690283844324 233.26256650928755 70.90185223035154
    vertex 351.6269028384432 237.07066254268548 70.90185223035154
  endloop
endfacet
facet normal 1.395468408625842e-12 0.0 -1.0
  outer loop
    vertex 351.6269028384432 237.07066254268548 70.90185223035154
    vertex 351.62690283844324 233.26256650928755 70.90185223035154
    vertex 351.36587540882226 233.08815355690385 70.90185223035118
  endloop
endfacet
facet normal 1.395468408625842e-12 0.0 -1.0
  outer loop
    vertex 351.6269028384432 237.07066254268548 70.90185223035154
    vertex 351.36587540882226 233.08815355690385 70.90185223035118
    vertex 351.36587540882226 237.24507549506913 70.90185223035118
  endloop
endfacet
facet normal 1.395468408625842e-12 0.0 -1.0
  outer loop
    vertex 351.36587540882226 237.24507549506913 70.90185223035118
    vertex 351.36587540882226 233.08815355690385 70.90185223035118
    vertex 351.08431564649845 232.9493036479594 70.90185223035078
  endloop
endfacet
facet normal 1.395468408625842e-12 0.0 -1.0
  outer loop
    vertex 351.36587540882226 237.24507549506913 70.90185223035118
    vertex 351.08431564649845 232.9493036479594 70.90185223035078
    vertex 351.08431564649845 237.38392540401358 70.90185223035078
  endloop
endfacet
facet normal 1.395468408625842e-12 0.0 -1.0
  outer loop
    vertex 351.08431564649845 237.38392540401358 70.90185223035078
    vertex 351.08431564649845 232.9493036479594 70.90185223035078
    vertex 351.0626569026113 235.1666145259865 70.90185223035076
  endloop
endfacet
facet normal 1.395468408625842e-12 0.0 -1.0
  outer loop
    vertex 351.0626569026113 235.1666145259865 70.90185223035076
    vertex 351.08431564649845 232.9493036479594 70.90185223035078
    vertex 351.05498481261446 235.0495610523485 70.90185223035074
  endloop
endfacet
facet normal 1.395468408625842e-12 0.0 -1.0
  outer loop
    vertex 351.05498481261446 235.0495610523485 70.90185223035074
    vertex 351.08431564649845 232.9493036479594 70.90185223035078
    vertex 350.7870411170683 232.84839254289273 70.90185223035037
  endloop
endfacet
facet normal 1.395468408625842e-12 0.0 -1.0
  outer loop
    vertex 351.05498481261446 235.0495610523485 70.90185223035074
    vertex 350.7870411170683 232.84839254289273 70.90185223035037
    vertex 351.0320998142112 234.93451039609835 70.90185223035071
  endloop
endfacet
facet normal 1.395468408625842e-12 0.0 -1.0
  outer loop
    vertex 351.0320998142112 234.93451039609835 70.90185223035071
    vertex 350.7870411170683 232.84839254289273 70.90185223035037
    vertex 350.9943934760689 234.82343110586197 70.90185223035066
  endloop
endfacet
facet normal 1.395468408625842e-12 0.0 -1.0
  outer loop
    vertex 350.9943934760689 234.82343110586197 70.90185223035066
    vertex 350.7870411170683 232.84839254289273 70.90185223035037
    vertex 350.9425109640874 234.71822377909206 70.90185223035058
  endloop
endfacet
facet normal 1.395468408625842e-12 0.0 -1.0
  outer loop
    vertex 350.9425109640874 234.71822377909206 70.90185223035058
    vertex 350.7870411170683 232.84839254289273 70.90185223035037
    vertex 350.8773400024311 234.62068854231876 70.90185223035049
  endloop
endfacet
facet normal 1.395468408625842e-12 0.0 -1.0
  outer loop
    vertex 350.8773400024311 234.62068854231876 70.90185223035049
    vertex 350.7870411170683 232.84839254289273 70.90185223035037
    vertex 350.79999568432316 234.53249425048568 70.90185223035039
  endloop
endfacet
facet normal 1.395468408625842e-12 0.0 -1.0
  outer loop
    vertex 350.79999568432316 234.53249425048568 70.90185223035039
    vertex 350.7870411170683 232.84839254289273 70.90185223035037
    vertex 350.7118013924898 234.45514993237754 70.90185223035027
  endloop
endfacet
facet normal 1.395468408625842e-12 0.0 -1.0
  outer loop
    vertex 350.7118013924898 234.45514993237754 70.90185223035027
    vertex 350.7870411170683 232.84839254289273 70.90185223035037
    vertex 350.4791382701504 232.78714685868937 70.90185223034995
  endloop
endfacet
facet normal 1.395468408625842e-12 0.0 -1.0
  outer loop
    vertex 350.7118013924898 234.45514993237754 70.90185223035027
    vertex 350.4791382701504 232.78714685868937 70.90185223034995
    vertex 350.6142661557169 234.38997897072147 70.90185223035013
  endloop
endfacet
facet normal 1.395468408625842e-12 0.0 -1.0
  outer loop
    vertex 350.6142661557169 234.38997897072147 70.90185223035013
    vertex 350.4791382701504 232.78714685868937 70.90185223034995
    vertex 350.50905882894693 234.33809645873987 70.90185223034999
  endloop
endfacet
facet normal 1.395468408625842e-12 0.0 -1.0
  outer loop
    vertex 350.50905882894693 234.33809645873987 70.90185223034999
    vertex 350.4791382701504 232.78714685868937 70.90185223034995
    vertex 350.39797953871033 234.30039012059754 70.90185223034983
  endloop
endfacet
facet normal 1.395468408625842e-12 0.0 -1.0
  outer loop
    vertex 350.39797953871033 234.30039012059754 70.90185223034983
    vertex 350.4791382701504 232.78714685868937 70.90185223034995
    vertex 350.1658754088223 232.76661452598648 70.9018522303495
  endloop
endfacet
facet normal 1.395468408625842e-12 0.0 -1.0
  outer loop
    vertex 350.39797953871033 234.30039012059754 70.90185223034983
    vertex 350.1658754088223 232.76661452598648 70.9018522303495
    vertex 350.28292888245994 234.27750512219424 70.90185223034968
  endloop
endfacet
facet normal 1.395468408625842e-12 0.0 -1.0
  outer loop
    vertex 350.28292888245994 234.27750512219424 70.90185223034968
    vertex 350.1658754088223 232.76661452598648 70.9018522303495
    vertex 350.1167704932028 234.2666145259865 70.90185223034943
  endloop
endfacet
facet normal 1.395468408625842e-12 0.0 -1.0
  outer loop
    vertex 350.1167704932028 234.2666145259865 70.90185223034943
    vertex 350.1658754088223 232.76661452598648 70.9018522303495
    vertex 327.06587540882225 232.76661452598648 70.90185223031727
  endloop
endfacet
facet normal 1.395468408625842e-12 0.0 -1.0
  outer loop
    vertex 350.1167704932028 234.2666145259865 70.90185223034943
    vertex 327.06587540882225 232.76661452598648 70.90185223031727
    vertex 327.06587540882225 234.2666145259865 70.90185223031727
  endloop
endfacet
facet normal 1.395468408625842e-12 0.0 -1.0
  outer loop
    vertex 351.08431564649845 237.38392540401358 70.90185223035078
    vertex 351.05498481261446 235.28366799962447 70.90185223035074
    vertex 350.78704111706827 237.48483650908025 70.90185223035037
  endloop
endfacet
facet normal 1.395468408625842e-12 0.0 -1.0
  outer loop
    vertex 351.05498481261446 235.28366799962447 70.90185223035074
    vertex 351.08431564649845 237.38392540401358 70.90185223035078
    vertex 351.0626569026113 235.1666145259865 70.90185223035076
  endloop
endfacet
facet normal 1.395468408625842e-12 0.0 -1.0
  outer loop
    vertex 350.78704111706827 237.48483650908025 70.90185223035037
    vertex 351.05498481261446 235.28366799962447 70.90185223035074
    vertex 351.0320998142112 235.3987186558747 70.90185223035071
  endloop
endfacet
facet normal 1.395468408625842e-12 0.0 -1.0
  outer loop
    vertex 350.78704111706827 237.48483650908025 70.90185223035037
    vertex 351.0320998142112 235.3987186558747 70.90185223035071
    vertex 350.9943934760689 235.509797946111 70.90185223035066
  endloop
endfacet
facet normal 1.395468408625842e-12 0.0 -1.0
  outer loop
    vertex 350.78704111706827 237.48483650908025 70.90185223035037
    vertex 350.9943934760689 235.509797946111 70.90185223035066
    vertex 350.94251096408726 235.61500527288115 70.90185223035058
  endloop
endfacet
facet normal 1.395468408625842e-12 0.0 -1.0
  outer loop
    vertex 350.78704111706827 237.48483650908025 70.90185223035037
    vertex 350.94251096408726 235.61500527288115 70.90185223035058
    vertex 350.87734000243125 235.71254050965405 70.90185223035049
  endloop
endfacet
facet normal 1.395468408625842e-12 0.0 -1.0
  outer loop
    vertex 350.78704111706827 237.48483650908025 70.90185223035037
    vertex 350.87734000243125 235.71254050965405 70.90185223035049
    vertex 350.7999956843232 235.8007348014872 70.90185223035039
  endloop
endfacet
facet normal 1.395468408625842e-12 0.0 -1.0
  outer loop
    vertex 350.78704111706827 237.48483650908025 70.90185223035037
    vertex 350.7999956843232 235.8007348014872 70.90185223035039
    vertex 350.7118013924897 235.8780791195955 70.90185223035027
  endloop
endfacet
facet normal 1.395468408625842e-12 0.0 -1.0
  outer loop
    vertex 350.78704111706827 237.48483650908025 70.90185223035037
    vertex 350.7118013924897 235.8780791195955 70.90185223035027
    vertex 350.4791382701504 237.54608219328367 70.90185223034995
  endloop
endfacet
facet normal 1.395468408625842e-12 0.0 -1.0
  outer loop
    vertex 350.4791382701504 237.54608219328367 70.90185223034995
    vertex 350.7118013924897 235.8780791195955 70.90185223035027
    vertex 350.61426615571685 235.94325008125153 70.90185223035013
  endloop
endfacet
facet normal 1.395468408625842e-12 0.0 -1.0
  outer loop
    vertex 350.4791382701504 237.54608219328367 70.90185223034995
    vertex 350.61426615571685 235.94325008125153 70.90185223035013
    vertex 350.50905882894693 235.9951325932331 70.90185223034999
  endloop
endfacet
facet normal 1.395468408625842e-12 0.0 -1.0
  outer loop
    vertex 350.4791382701504 237.54608219328367 70.90185223034995
    vertex 350.50905882894693 235.9951325932331 70.90185223034999
    vertex 350.3979795387104 236.03283893137544 70.90185223034983
  endloop
endfacet
facet normal 1.395468408625842e-12 0.0 -1.0
  outer loop
    vertex 350.4791382701504 237.54608219328367 70.90185223034995
    vertex 350.3979795387104 236.03283893137544 70.90185223034983
    vertex 350.1658754088223 237.5666145259865 70.9018522303495
  endloop
endfacet
facet normal 1.395468408625842e-12 0.0 -1.0
  outer loop
    vertex 350.1658754088223 237.5666145259865 70.9018522303495
    vertex 350.3979795387104 236.03283893137544 70.90185223034983
    vertex 350.28292888245994 236.0557239297788 70.90185223034968
  endloop
endfacet
facet normal 1.395468408625842e-12 0.0 -1.0
  outer loop
    vertex 350.1658754088223 237.5666145259865 70.9018522303495
    vertex 350.28292888245994 236.0557239297788 70.90185223034968
    vertex 350.11677049320116 236.0666145259866 70.90185223034943
  endloop
endfacet
facet normal 1.395468408625842e-12 0.0 -1.0
  outer loop
    vertex 350.1658754088223 237.5666145259865 70.9018522303495
    vertex 350.11677049320116 236.0666145259866 70.90185223034943
    vertex 331.56587540882225 237.5666145259865 70.90185223032354
  endloop
endfacet
facet normal 1.395468408625842e-12 0.0 -1.0
  outer loop
    vertex 331.56587540882225 237.5666145259865 70.90185223032354
    vertex 350.11677049320116 236.0666145259866 70.90185223034943
    vertex 331.56587540882225 236.06661452598652 70.90185223032354
  endloop
endfacet
facet normal 0.9469301294951133 -0.3214394653031392 1.3214110808864084e-12
  outer loop
    vertex 352.484097391916 234.54544881774046 70.90185223035273
    vertex 352.3831862868333 234.24817428831028 82.40185223035259
    vertex 352.38318628684937 234.24817428831028 70.9018522303526
  endloop
endfacet
facet normal 0.9469301294951133 -0.3214394653031392 1.3214110808864084e-12
  outer loop
    vertex 352.3831862868333 234.24817428831028 82.40185223035259
    vertex 352.484097391916 234.54544881774046 70.90185223035273
    vertex 352.4840973919 234.54544881774046 82.40185223035274
  endloop
endfacet
facet normal 0.896872741532674 -0.4422886902190301 1.2515575773664969e-12
  outer loop
    vertex 352.38318628684937 234.24817428831028 70.9018522303526
    vertex 352.2443363778888 233.9666145259865 82.4018522303524
    vertex 352.2443363779049 233.9666145259865 70.9018522303524
  endloop
endfacet
facet normal 0.896872741532674 -0.4422886902190301 1.2515575773664969e-12
  outer loop
    vertex 352.2443363778888 233.9666145259865 82.4018522303524
    vertex 352.38318628684937 234.24817428831028 70.9018522303526
    vertex 352.3831862868333 234.24817428831028 82.40185223035259
  endloop
endfacet
facet normal 0.8314696123025739 -0.5555702330195597 1.1602895767006186e-12
  outer loop
    vertex 352.2443363779049 233.9666145259865 70.9018522303524
    vertex 352.0699234255052 233.70558709636558 82.40185223035216
    vertex 352.0699234255212 233.70558709636558 70.90185223035216
  endloop
endfacet
facet normal 0.8314696123025739 -0.5555702330195597 1.1602895767006186e-12
  outer loop
    vertex 352.0699234255052 233.70558709636558 82.40185223035216
    vertex 352.2443363779049 233.9666145259865 70.9018522303524
    vertex 352.2443363778888 233.9666145259865 82.4018522303524
  endloop
endfacet
facet normal 0.7518398074789744 -0.6593458151000723 1.049168699684244e-12
  outer loop
    vertex 352.0699234255212 233.70558709636558 70.90185223035216
    vertex 351.8629316836539 233.4695582511388 82.40185223035186
    vertex 351.86293168367 233.4695582511388 70.90185223035186
  endloop
endfacet
facet normal 0.7518398074789744 -0.6593458151000723 1.049168699684244e-12
  outer loop
    vertex 351.8629316836539 233.4695582511388 82.40185223035186
    vertex 352.0699234255212 233.70558709636558 70.90185223035216
    vertex 352.0699234255052 233.70558709636558 82.40185223035216
  endloop
endfacet
facet normal 0.6593458151000943 -0.7518398074789552 9.200962553318373e-13
  outer loop
    vertex 351.62690283844324 233.26256650928755 70.90185223035154
    vertex 351.8629316836539 233.4695582511388 82.40185223035186
    vertex 351.62690283842716 233.26256650928755 82.40185223035154
  endloop
endfacet
facet normal 0.6593458151000943 -0.7518398074789552 9.200962553318373e-13
  outer loop
    vertex 351.8629316836539 233.4695582511388 82.40185223035186
    vertex 351.62690283844324 233.26256650928755 70.90185223035154
    vertex 351.86293168367 233.4695582511388 70.90185223035186
  endloop
endfacet
facet normal 0.5555702330195595 -0.831469612302574 7.752807089516931e-13
  outer loop
    vertex 351.36587540882226 233.08815355690385 70.90185223035118
    vertex 351.62690283842716 233.26256650928755 82.40185223035154
    vertex 351.3658754088062 233.08815355690385 82.40185223035118
  endloop
endfacet
facet normal 0.5555702330195595 -0.831469612302574 7.752807089516931e-13
  outer loop
    vertex 351.62690283842716 233.26256650928755 82.40185223035154
    vertex 351.36587540882226 233.08815355690385 70.90185223035118
    vertex 351.62690283844324 233.26256650928755 70.90185223035154
  endloop
endfacet
facet normal 0.44228869021900485 -0.8968727415326866 6.171998946931227e-13
  outer loop
    vertex 351.08431564649845 232.9493036479594 70.90185223035078
    vertex 351.3658754088062 233.08815355690385 82.40185223035118
    vertex 351.0843156464824 232.9493036479594 82.40185223035078
  endloop
endfacet
facet normal 0.44228869021900485 -0.8968727415326866 6.171998946931227e-13
  outer loop
    vertex 351.3658754088062 233.08815355690385 82.40185223035118
    vertex 351.08431564649845 232.9493036479594 70.90185223035078
    vertex 351.36587540882226 233.08815355690385 70.90185223035118
  endloop
endfacet
facet normal 0.32143946530319617 -0.946930129495094 4.4855861911619274e-13
  outer loop
    vertex 350.7870411170683 232.84839254289273 70.90185223035037
    vertex 351.0843156464824 232.9493036479594 82.40185223035078
    vertex 350.7870411170523 232.84839254289273 82.40185223035037
  endloop
endfacet
facet normal 0.32143946530319617 -0.946930129495094 4.4855861911619274e-13
  outer loop
    vertex 351.0843156464824 232.9493036479594 82.40185223035078
    vertex 350.7870411170683 232.84839254289273 70.90185223035037
    vertex 351.08431564649845 232.9493036479594 70.90185223035078
  endloop
endfacet
facet normal 0.19509032201610826 -0.9807852804032345 2.722423812021217e-13
  outer loop
    vertex 350.4791382701504 232.78714685868937 70.90185223034995
    vertex 350.7870411170523 232.84839254289273 82.40185223035037
    vertex 350.4791382701343 232.78714685868937 82.40185223034995
  endloop
endfacet
facet normal 0.19509032201610826 -0.9807852804032345 2.722423812021217e-13
  outer loop
    vertex 350.7870411170523 232.84839254289273 82.40185223035037
    vertex 350.4791382701504 232.78714685868937 70.90185223034995
    vertex 350.7870411170683 232.84839254289273 70.90185223035037
  endloop
endfacet
facet normal 0.06540312923014883 -0.9978589232386031 9.126800066594608e-14
  outer loop
    vertex 350.1658754088223 232.76661452598648 70.9018522303495
    vertex 350.4791382701343 232.78714685868937 82.40185223034995
    vertex 350.1658754088062 232.76661452598648 82.4018522303495
  endloop
endfacet
facet normal 0.06540312923014883 -0.9978589232386031 9.126800066594608e-14
  outer loop
    vertex 350.4791382701343 232.78714685868937 82.40185223034995
    vertex 350.1658754088223 232.76661452598648 70.9018522303495
    vertex 350.4791382701504 232.78714685868937 70.90185223034995
  endloop
endfacet
facet normal 0.0 -1.0 0.0
  outer loop
    vertex 327.06587540882225 232.76661452598648 70.90185223031727
    vertex 350.1658754088062 232.76661452598648 82.4018522303495
    vertex 327.0658754088062 232.76661452598648 82.40185223031726
  endloop
endfacet
facet normal 0.0 -1.0 0.0
  outer loop
    vertex 350.1658754088062 232.76661452598648 82.4018522303495
    vertex 327.06587540882225 232.76661452598648 70.90185223031727
    vertex 350.1658754088223 232.76661452598648 70.9018522303495
  endloop
endfacet
facet normal -1.0 0.0 -1.395468408625842e-12
  outer loop
    vertex 327.0658754088062 234.2666145259865 82.40185223031726
    vertex 327.06587540882225 232.76661452598648 70.90185223031727
    vertex 327.0658754088062 232.76661452598648 82.40185223031726
  endloop
endfacet
facet normal -1.0 0.0 -1.395468408625842e-12
  outer loop
    vertex 327.06587540882225 232.76661452598648 70.90185223031727
    vertex 327.0658754088062 234.2666145259865 82.40185223031726
    vertex 327.06587540882225 234.2666145259865 70.90185223031727
  endloop
endfacet
facet normal 0.0 1.0 0.0
  outer loop
    vertex 350.1167704932028 234.2666145259865 70.90185223034943
    vertex 327.0658754088062 234.2666145259865 82.40185223031726
    vertex 350.1167704931867 234.2666145259865 82.40185223034943
  endloop
endfacet
facet normal 0.0 1.0 0.0
  outer loop
    vertex 327.0658754088062 234.2666145259865 82.40185223031726
    vertex 350.1167704932028 234.2666145259865 70.90185223034943
    vertex 327.06587540882225 234.2666145259865 70.90185223031727
  endloop
endfacet
facet normal -0.06540312923015629 0.9978589232386028 -9.126800066595648e-14
  outer loop
    vertex 350.28292888245994 234.27750512219424 70.90185223034968
    vertex 350.1167704931867 234.2666145259865 82.40185223034943
    vertex 350.2829288824439 234.27750512219424 82.40185223034968
  endloop
endfacet
facet normal -0.06540312923015629 0.9978589232386028 -9.126800066595648e-14
  outer loop
    vertex 350.1167704931867 234.2666145259865 82.40185223034943
    vertex 350.28292888245994 234.27750512219424 70.90185223034968
    vertex 350.1167704932028 234.2666145259865 70.90185223034943
  endloop
endfacet
facet normal -0.1950903220161108 0.9807852804032341 -2.7224238120212523e-13
  outer loop
    vertex 350.39797953871033 234.30039012059754 70.90185223034983
    vertex 350.2829288824439 234.27750512219424 82.40185223034968
    vertex 350.3979795386943 234.30039012059754 82.40185223034983
  endloop
endfacet
facet normal -0.1950903220161108 0.9807852804032341 -2.7224238120212523e-13
  outer loop
    vertex 350.2829288824439 234.27750512219424 82.40185223034968
    vertex 350.39797953871033 234.30039012059754 70.90185223034983
    vertex 350.28292888245994 234.27750512219424 70.90185223034968
  endloop
endfacet
facet normal -0.3214394653031141 0.9469301294951218 -4.4855861911607823e-13
  outer loop
    vertex 350.50905882894693 234.33809645873987 70.90185223034999
    vertex 350.3979795386943 234.30039012059754 82.40185223034983
    vertex 350.50905882893085 234.33809645873987 82.40185223034999
  endloop
endfacet
facet normal -0.3214394653031141 0.9469301294951218 -4.4855861911607823e-13
  outer loop
    vertex 350.3979795386943 234.30039012059754 82.40185223034983
    vertex 350.50905882894693 234.33809645873987 70.90185223034999
    vertex 350.39797953871033 234.30039012059754 70.90185223034983
  endloop
endfacet
facet normal -0.44228869021901285 0.8968727415326827 -6.171998946931339e-13
  outer loop
    vertex 350.6142661557169 234.38997897072147 70.90185223035013
    vertex 350.50905882893085 234.33809645873987 82.40185223034999
    vertex 350.6142661557008 234.38997897072147 82.40185223035013
  endloop
endfacet
facet normal -0.44228869021901285 0.8968727415326827 -6.171998946931339e-13
  outer loop
    vertex 350.50905882893085 234.33809645873987 82.40185223034999
    vertex 350.6142661557169 234.38997897072147 70.90185223035013
    vertex 350.50905882894693 234.33809645873987 70.90185223034999
  endloop
endfacet
facet normal -0.5555702330196909 0.8314696123024862 -7.752807089518763e-13
  outer loop
    vertex 350.7118013924898 234.45514993237754 70.90185223035027
    vertex 350.6142661557008 234.38997897072147 82.40185223035013
    vertex 350.7118013924737 234.45514993237754 82.40185223035027
  endloop
endfacet
facet normal -0.5555702330196909 0.8314696123024862 -7.752807089518763e-13
  outer loop
    vertex 350.6142661557008 234.38997897072147 82.40185223035013
    vertex 350.7118013924898 234.45514993237754 70.90185223035027
    vertex 350.6142661557169 234.38997897072147 70.90185223035013
  endloop
endfacet
facet normal -0.6593458150999991 0.7518398074790384 -9.200962553317045e-13
  outer loop
    vertex 350.79999568432316 234.53249425048568 70.90185223035039
    vertex 350.7118013924737 234.45514993237754 82.40185223035027
    vertex 350.7999956843071 234.53249425048568 82.40185223035039
  endloop
endfacet
facet normal -0.6593458150999991 0.7518398074790384 -9.200962553317045e-13
  outer loop
    vertex 350.7118013924737 234.45514993237754 82.40185223035027
    vertex 350.79999568432316 234.53249425048568 70.90185223035039
    vertex 350.7118013924898 234.45514993237754 70.90185223035027
  endloop
endfacet
facet normal -0.7518398074789471 0.6593458151001036 -1.0491686996842057e-12
  outer loop
    vertex 350.877340002415 234.62068854231876 82.4018522303505
    vertex 350.79999568432316 234.53249425048568 70.90185223035039
    vertex 350.7999956843071 234.53249425048568 82.40185223035039
  endloop
endfacet
facet normal -0.7518398074789471 0.6593458151001036 -1.0491686996842057e-12
  outer loop
    vertex 350.79999568432316 234.53249425048568 70.90185223035039
    vertex 350.877340002415 234.62068854231876 82.4018522303505
    vertex 350.8773400024311 234.62068854231876 70.90185223035049
  endloop
endfacet
endsolid stengun_3Dtisk
