solid stengun_3Dtisk
facet normal -1.0 -8.8541673992637e-13 1.2028586596160774e-12
  outer loop
    vertex 222.8597844500368 445.07392387697 47.30699924582115
    vertex 222.85978445004727 444.37392387696997 55.50699924582115
    vertex 222.85978445005665 445.07392387697 63.80699924582115
  endloop
endfacet
facet normal -1.0 -8.8541673992637e-13 1.2028586596160774e-12
  outer loop
    vertex 222.85978445004727 444.37392387696997 55.50699924582115
    vertex 222.8597844500368 445.07392387697 47.30699924582115
    vertex 222.85978445002686 442.2574362483596 36.977517385719594
  endloop
endfacet
facet normal -1.0 -8.8541673992637e-13 1.2028586596160774e-12
  outer loop
    vertex 222.85978445004727 444.37392387696997 55.50699924582115
    vertex 222.85978445002686 442.2574362483596 36.977517385719594
    vertex 222.85978445004704 444.3466645380013 55.29994400973914
  endloop
endfacet
facet normal -1.0 -8.8541673992637e-13 1.2028586596160774e-12
  outer loop
    vertex 222.85978445004704 444.3466645380013 55.29994400973914
    vertex 222.85978445002686 442.2574362483596 36.977517385719594
    vertex 222.8597844500469 444.26674419999756 55.10699924582115
  endloop
endfacet
facet normal -1.0 -8.8541673992637e-13 1.2028586596160774e-12
  outer loop
    vertex 222.8597844500469 444.26674419999756 55.10699924582115
    vertex 222.85978445002686 442.2574362483596 36.977517385719594
    vertex 222.85978445004682 444.1396093019192 54.94131382087191
  endloop
endfacet
facet normal -1.0 -8.8541673992637e-13 1.2028586596160774e-12
  outer loop
    vertex 222.85978445004682 444.1396093019192 54.94131382087191
    vertex 222.85978445002686 442.2574362483596 36.977517385719594
    vertex 222.85978445004682 443.97392387697 54.8141789227936
  endloop
endfacet
facet normal -1.0 -8.8541673992637e-13 1.2028586596160774e-12
  outer loop
    vertex 222.85978445004682 443.97392387697 54.8141789227936
    vertex 222.85978445002686 442.2574362483596 36.977517385719594
    vertex 222.85978445004687 443.780979113052 54.7342585847899
  endloop
endfacet
facet normal -1.0 -8.8541673992637e-13 1.2028586596160774e-12
  outer loop
    vertex 222.85978445004687 443.780979113052 54.7342585847899
    vertex 222.85978445002686 442.2574362483596 36.977517385719594
    vertex 222.85978445004704 443.57392387697 54.70699924582115
  endloop
endfacet
facet normal -1.0 -8.8541673992637e-13 1.2028586596160774e-12
  outer loop
    vertex 222.85978445004704 443.57392387697 54.70699924582115
    vertex 222.85978445002686 442.2574362483596 36.977517385719594
    vertex 222.85978445004727 443.36686864088796 54.7342585847899
  endloop
endfacet
facet normal -1.0 -8.8541673992637e-13 1.2028586596160774e-12
  outer loop
    vertex 222.85978445004727 443.36686864088796 54.7342585847899
    vertex 222.85978445002686 442.2574362483596 36.977517385719594
    vertex 222.85978445004756 443.17392387697 54.8141789227936
  endloop
endfacet
facet normal -1.0 -8.8541673992637e-13 1.2028586596160774e-12
  outer loop
    vertex 222.85978445004756 443.17392387697 54.8141789227936
    vertex 222.85978445002686 442.2574362483596 36.977517385719594
    vertex 222.8597844500478 443.00823845202075 54.94131382087191
  endloop
endfacet
facet normal -1.0 -8.8541673992637e-13 1.2028586596160774e-12
  outer loop
    vertex 222.8597844500478 443.00823845202075 54.94131382087191
    vertex 222.85978445002686 442.2574362483596 36.977517385719594
    vertex 222.85978445004812 442.8811035539424 55.10699924582115
  endloop
endfacet
facet normal -1.0 -8.8541673992637e-13 1.2028586596160774e-12
  outer loop
    vertex 222.85978445004812 442.8811035539424 55.10699924582115
    vertex 222.85978445002686 442.2574362483596 36.977517385719594
    vertex 222.85978445004844 442.8011832159387 55.29994400973914
  endloop
endfacet
facet normal -1.0 -8.8541673992637e-13 1.2028586596160774e-12
  outer loop
    vertex 222.85978445004844 442.8011832159387 55.29994400973914
    vertex 222.85978445002686 442.2574362483596 36.977517385719594
    vertex 222.85978445004872 442.77392387697 55.50699924582115
  endloop
endfacet
facet normal -1.0 -8.8541673992637e-13 1.2028586596160774e-12
  outer loop
    vertex 222.85978445005665 445.07392387697 63.80699924582115
    vertex 222.85978445004758 444.3466645380013 55.714054481903176
    vertex 222.85978445006003 441.27392387696995 63.80699924582115
  endloop
endfacet
facet normal -1.0 -8.8541673992637e-13 1.2028586596160774e-12
  outer loop
    vertex 222.85978445004758 444.3466645380013 55.714054481903176
    vertex 222.85978445005665 445.07392387697 63.80699924582115
    vertex 222.85978445004727 444.37392387696997 55.50699924582115
  endloop
endfacet
facet normal -1.0 -8.8541673992637e-13 1.2028586596160774e-12
  outer loop
    vertex 222.85978445006003 441.27392387696995 63.80699924582115
    vertex 222.85978445004758 444.3466645380013 55.714054481903176
    vertex 222.85978445004787 444.26674419999756 55.90699924582115
  endloop
endfacet
facet normal -1.0 -8.8541673992637e-13 1.2028586596160774e-12
  outer loop
    vertex 222.85978445006003 441.27392387696995 63.80699924582115
    vertex 222.85978445004787 444.26674419999756 55.90699924582115
    vertex 222.85978445004818 444.1396093019192 56.07268467077039
  endloop
endfacet
facet normal -1.0 -8.8541673992637e-13 1.2028586596160774e-12
  outer loop
    vertex 222.85978445006003 441.27392387696995 63.80699924582115
    vertex 222.85978445004818 444.1396093019192 56.07268467077039
    vertex 222.8597844500485 443.97392387697 56.1998195688487
  endloop
endfacet
facet normal -1.0 -8.8541673992637e-13 1.2028586596160774e-12
  outer loop
    vertex 222.85978445006003 441.27392387696995 63.80699924582115
    vertex 222.8597844500485 443.97392387697 56.1998195688487
    vertex 222.85978445004875 443.780979113052 56.27973990685241
  endloop
endfacet
facet normal -1.0 -8.8541673992637e-13 1.2028586596160774e-12
  outer loop
    vertex 222.85978445006003 441.27392387696995 63.80699924582115
    vertex 222.85978445004875 443.780979113052 56.27973990685241
    vertex 222.85978445004895 443.57392387697 56.306999245821146
  endloop
endfacet
facet normal -1.0 -8.8541673992637e-13 1.2028586596160774e-12
  outer loop
    vertex 222.85978445006003 441.27392387696995 63.80699924582115
    vertex 222.85978445004895 443.57392387697 56.306999245821146
    vertex 222.85978445004912 443.36686864088796 56.27973990685241
  endloop
endfacet
facet normal -1.0 -8.8541673992637e-13 1.2028586596160774e-12
  outer loop
    vertex 222.85978445006003 441.27392387696995 63.80699924582115
    vertex 222.85978445004912 443.36686864088796 56.27973990685241
    vertex 222.85978445004918 443.17392387697 56.1998195688487
  endloop
endfacet
facet normal -1.0 -8.8541673992637e-13 1.2028586596160774e-12
  outer loop
    vertex 222.85978445006003 441.27392387696995 63.80699924582115
    vertex 222.85978445004918 443.17392387697 56.1998195688487
    vertex 222.85978445004918 443.00823845202075 56.07268467077039
  endloop
endfacet
facet normal -1.0 -8.8541673992637e-13 1.2028586596160774e-12
  outer loop
    vertex 222.85978445006003 441.27392387696995 63.80699924582115
    vertex 222.85978445004918 443.00823845202075 56.07268467077039
    vertex 222.8597844500491 442.8811035539424 55.90699924582115
  endloop
endfacet
facet normal -1.0 -8.8541673992637e-13 1.2028586596160774e-12
  outer loop
    vertex 222.85978445006003 441.27392387696995 63.80699924582115
    vertex 222.8597844500491 442.8811035539424 55.90699924582115
    vertex 222.85978445004895 442.8011832159387 55.714054481903176
  endloop
endfacet
facet normal -1.0 -8.8541673992637e-13 1.2028586596160774e-12
  outer loop
    vertex 222.85978445006003 441.27392387696995 63.80699924582115
    vertex 222.85978445004895 442.8011832159387 55.714054481903176
    vertex 222.85978445004872 442.77392387697 55.50699924582115
  endloop
endfacet
facet normal -1.0 -8.8541673992637e-13 1.2028586596160774e-12
  outer loop
    vertex 222.85978445006003 441.27392387696995 63.80699924582115
    vertex 222.85978445004872 442.77392387697 55.50699924582115
    vertex 222.85978445002686 442.2574362483596 36.977517385719594
  endloop
endfacet
facet normal -1.0 -8.8541673992637e-13 1.2028586596160774e-12
  outer loop
    vertex 222.85978445006003 441.27392387696995 63.80699924582115
    vertex 222.85978445002686 442.2574362483596 36.977517385719594
    vertex 222.85978445002354 441.27392387696995 33.487404496916824
  endloop
endfacet
facet normal 1.0 8.8541673992637e-13 -1.2028586596160774e-12
  outer loop
    vertex 229.35978445005668 445.07392387697575 63.80699924581334
    vertex 229.35978445004727 444.37392387697577 55.50699924581333
    vertex 229.3597844500368 445.07392387697575 47.30699924581334
  endloop
endfacet
facet normal 1.0 8.8541673992637e-13 -1.2028586596160774e-12
  outer loop
    vertex 229.35978445004727 444.37392387697577 55.50699924581333
    vertex 229.35978445005668 445.07392387697575 63.80699924581334
    vertex 229.35978445004756 444.346664538007 55.714054481895346
  endloop
endfacet
facet normal 1.0 8.8541673992637e-13 -1.2028586596160774e-12
  outer loop
    vertex 229.35978445004756 444.346664538007 55.714054481895346
    vertex 229.35978445005668 445.07392387697575 63.80699924581334
    vertex 229.35978445006 441.27392387697574 63.80699924581334
  endloop
endfacet
facet normal 1.0 8.8541673992637e-13 -1.2028586596160774e-12
  outer loop
    vertex 229.35978445004756 444.346664538007 55.714054481895346
    vertex 229.35978445006 441.27392387697574 63.80699924581334
    vertex 229.35978445004787 444.2667442000033 55.90699924581333
  endloop
endfacet
facet normal 1.0 8.8541673992637e-13 -1.2028586596160774e-12
  outer loop
    vertex 229.35978445004787 444.2667442000033 55.90699924581333
    vertex 229.35978445006 441.27392387697574 63.80699924581334
    vertex 229.35978445004818 444.139609301925 56.07268467076258
  endloop
endfacet
facet normal 1.0 8.8541673992637e-13 -1.2028586596160774e-12
  outer loop
    vertex 229.35978445004818 444.139609301925 56.07268467076258
    vertex 229.35978445006 441.27392387697574 63.80699924581334
    vertex 229.35978445004847 443.97392387697573 56.19981956884089
  endloop
endfacet
facet normal 1.0 8.8541673992637e-13 -1.2028586596160774e-12
  outer loop
    vertex 229.35978445004847 443.97392387697573 56.19981956884089
    vertex 229.35978445006 441.27392387697574 63.80699924581334
    vertex 229.35978445004872 443.7809791130578 56.27973990684459
  endloop
endfacet
facet normal 1.0 8.8541673992637e-13 -1.2028586596160774e-12
  outer loop
    vertex 229.35978445004872 443.7809791130578 56.27973990684459
    vertex 229.35978445006 441.27392387697574 63.80699924581334
    vertex 229.35978445004895 443.57392387697575 56.30699924581333
  endloop
endfacet
facet normal 1.0 8.8541673992637e-13 -1.2028586596160774e-12
  outer loop
    vertex 229.35978445004895 443.57392387697575 56.30699924581333
    vertex 229.35978445006 441.27392387697574 63.80699924581334
    vertex 229.3597844500491 443.36686864089376 56.27973990684459
  endloop
endfacet
facet normal 1.0 8.8541673992637e-13 -1.2028586596160774e-12
  outer loop
    vertex 229.3597844500491 443.36686864089376 56.27973990684459
    vertex 229.35978445006 441.27392387697574 63.80699924581334
    vertex 229.35978445004918 443.1739238769758 56.19981956884089
  endloop
endfacet
facet normal 1.0 8.8541673992637e-13 -1.2028586596160774e-12
  outer loop
    vertex 229.35978445004918 443.1739238769758 56.19981956884089
    vertex 229.35978445006 441.27392387697574 63.80699924581334
    vertex 229.35978445004918 443.0082384520265 56.07268467076258
  endloop
endfacet
facet normal 1.0 8.8541673992637e-13 -1.2028586596160774e-12
  outer loop
    vertex 229.35978445004918 443.0082384520265 56.07268467076258
    vertex 229.35978445006 441.27392387697574 63.80699924581334
    vertex 229.3597844500491 442.8811035539482 55.90699924581333
  endloop
endfacet
facet normal 1.0 8.8541673992637e-13 -1.2028586596160774e-12
  outer loop
    vertex 229.3597844500491 442.8811035539482 55.90699924581333
    vertex 229.35978445006 441.27392387697574 63.80699924581334
    vertex 229.35978445004892 442.8011832159445 55.714054481895346
  endloop
endfacet
facet normal 1.0 8.8541673992637e-13 -1.2028586596160774e-12
  outer loop
    vertex 229.35978445004892 442.8011832159445 55.714054481895346
    vertex 229.35978445006 441.27392387697574 63.80699924581334
    vertex 229.3597844500487 442.77392387697574 55.50699924581333
  endloop
endfacet
facet normal 1.0 8.8541673992637e-13 -1.2028586596160774e-12
  outer loop
    vertex 229.3597844500487 442.77392387697574 55.50699924581333
    vertex 229.35978445006 441.27392387697574 63.80699924581334
    vertex 229.3597844500269 442.25743624836537 36.97751738571178
  endloop
endfacet
facet normal 1.0 8.8541673992637e-13 -1.2028586596160774e-12
  outer loop
    vertex 229.3597844500269 442.25743624836537 36.97751738571178
    vertex 229.35978445006 441.27392387697574 63.80699924581334
    vertex 229.35978445002354 441.27392387697574 33.48740449690901
  endloop
endfacet
facet normal 1.0 8.8541673992637e-13 -1.2028586596160774e-12
  outer loop
    vertex 229.35978445004727 444.37392387697577 55.50699924581333
    vertex 229.3597844500269 442.25743624836537 36.97751738571178
    vertex 229.3597844500368 445.07392387697575 47.30699924581334
  endloop
endfacet
facet normal 1.0 8.8541673992637e-13 -1.2028586596160774e-12
  outer loop
    vertex 229.3597844500269 442.25743624836537 36.97751738571178
    vertex 229.35978445004727 444.37392387697577 55.50699924581333
    vertex 229.35978445004704 444.346664538007 55.29994400973131
  endloop
endfacet
facet normal 1.0 8.8541673992637e-13 -1.2028586596160774e-12
  outer loop
    vertex 229.3597844500269 442.25743624836537 36.97751738571178
    vertex 229.35978445004704 444.346664538007 55.29994400973131
    vertex 229.35978445004687 444.2667442000033 55.106999245813334
  endloop
endfacet
facet normal 1.0 8.8541673992637e-13 -1.2028586596160774e-12
  outer loop
    vertex 229.3597844500269 442.25743624836537 36.97751738571178
    vertex 229.35978445004687 444.2667442000033 55.106999245813334
    vertex 229.3597844500468 444.139609301925 54.941313820864096
  endloop
endfacet
facet normal 1.0 8.8541673992637e-13 -1.2028586596160774e-12
  outer loop
    vertex 229.3597844500269 442.25743624836537 36.97751738571178
    vertex 229.3597844500468 444.139609301925 54.941313820864096
    vertex 229.3597844500468 443.97392387697573 54.814178922785786
  endloop
endfacet
facet normal 1.0 8.8541673992637e-13 -1.2028586596160774e-12
  outer loop
    vertex 229.3597844500269 442.25743624836537 36.97751738571178
    vertex 229.3597844500468 443.97392387697573 54.814178922785786
    vertex 229.35978445004687 443.7809791130578 54.73425858478208
  endloop
endfacet
facet normal 1.0 8.8541673992637e-13 -1.2028586596160774e-12
  outer loop
    vertex 229.3597844500269 442.25743624836537 36.97751738571178
    vertex 229.35978445004687 443.7809791130578 54.73425858478208
    vertex 229.35978445004702 443.57392387697575 54.70699924581333
  endloop
endfacet
facet normal 1.0 8.8541673992637e-13 -1.2028586596160774e-12
  outer loop
    vertex 229.3597844500269 442.25743624836537 36.97751738571178
    vertex 229.35978445004702 443.57392387697575 54.70699924581333
    vertex 229.35978445004724 443.36686864089376 54.73425858478208
  endloop
endfacet
facet normal 1.0 8.8541673992637e-13 -1.2028586596160774e-12
  outer loop
    vertex 229.3597844500269 442.25743624836537 36.97751738571178
    vertex 229.35978445004724 443.36686864089376 54.73425858478208
    vertex 229.3597844500475 443.1739238769758 54.814178922785786
  endloop
endfacet
facet normal 1.0 8.8541673992637e-13 -1.2028586596160774e-12
  outer loop
    vertex 229.3597844500269 442.25743624836537 36.97751738571178
    vertex 229.3597844500475 443.1739238769758 54.814178922785786
    vertex 229.3597844500478 443.0082384520265 54.941313820864096
  endloop
endfacet
facet normal 1.0 8.8541673992637e-13 -1.2028586596160774e-12
  outer loop
    vertex 229.3597844500269 442.25743624836537 36.97751738571178
    vertex 229.3597844500478 443.0082384520265 54.941313820864096
    vertex 229.3597844500481 442.8811035539482 55.106999245813334
  endloop
endfacet
facet normal 1.0 8.8541673992637e-13 -1.2028586596160774e-12
  outer loop
    vertex 229.3597844500269 442.25743624836537 36.97751738571178
    vertex 229.3597844500481 442.8811035539482 55.106999245813334
    vertex 229.3597844500484 442.8011832159445 55.29994400973131
  endloop
endfacet
facet normal 1.0 8.8541673992637e-13 -1.2028586596160774e-12
  outer loop
    vertex 229.3597844500269 442.25743624836537 36.97751738571178
    vertex 229.3597844500484 442.8011832159445 55.29994400973131
    vertex 229.3597844500487 442.77392387697574 55.50699924581333
  endloop
endfacet
facet normal -0.10166163996287836 0.2994855339328269 -0.948669239474448
  outer loop
    vertex 229.35978445002354 441.27392387697574 33.48740449690901
    vertex 228.86593119591603 440.5348202509663 33.30699924581393
    vertex 228.76683968610604 440.501183215944 33.30699924581405
  endloop
endfacet
facet normal -8.8541673992637e-13 1.0 1.0650311929894703e-24
  outer loop
    vertex 229.3597844500368 445.07392387697575 47.30699924581334
    vertex 228.55978445005667 445.0739238769751 63.806999245814296
    vertex 229.35978445005668 445.07392387697575 63.80699924581334
  endloop
endfacet
facet normal -8.8541673992637e-13 1.0 1.0650311929894703e-24
  outer loop
    vertex 228.55978445005667 445.0739238769751 63.806999245814296
    vertex 229.3597844500368 445.07392387697575 47.30699924581334
    vertex 228.55978445003683 445.0739238769751 47.306999245814296
  endloop
endfacet
facet normal -0.13052619221918493 -0.9914448613739246 1.570045606175593e-13
  outer loop
    vertex 223.452729213942 440.5011832159393 33.30699924582044
    vertex 223.65978445006073 440.4739238769707 63.806999245820194
    vertex 223.4527292139787 440.5011832159393 63.80699924582044
  endloop
endfacet
facet normal -0.13052619221918493 -0.9914448613739246 1.570045606175593e-13
  outer loop
    vertex 223.65978445006073 440.4739238769707 63.806999245820194
    vertex 223.452729213942 440.5011832159393 33.30699924582044
    vertex 223.65978445002403 440.4739238769707 33.30699924582019
  endloop
endfacet
facet normal 0.9469301294953962 -0.32143946530230594 -1.1390231063149108e-12
  outer loop
    vertex 229.29888807606932 440.9677771310836 63.80699924581341
    vertex 229.3325251110548 441.0668686408937 33.30699924581337
    vertex 229.33252511109148 441.0668686408937 63.80699924581337
  endloop
endfacet
facet normal 0.9469301294953962 -0.32143946530230594 -1.1390231063149108e-12
  outer loop
    vertex 229.3325251110548 441.0668686408937 33.30699924581337
    vertex 229.29888807606932 440.9677771310836 63.80699924581341
    vertex 229.29888807603263 440.9677771310836 33.30699924581341
  endloop
endfacet
facet normal 0.896872741533073 -0.4422886902182214 -1.0788111437266689e-12
  outer loop
    vertex 229.25260477308794 440.87392387697565 63.806999245813465
    vertex 229.29888807603263 440.9677771310836 33.30699924581341
    vertex 229.29888807606932 440.9677771310836 63.80699924581341
  endloop
endfacet
facet normal 0.896872741533073 -0.4422886902182214 -1.0788111437266689e-12
  outer loop
    vertex 229.29888807603263 440.9677771310836 33.30699924581341
    vertex 229.25260477308794 440.87392387697565 63.806999245813465
    vertex 229.25260477305125 440.87392387697565 33.306999245813465
  endloop
endfacet
facet normal 0.8314696123030213 -0.5555702330188896 -1.0001404233663119e-12
  outer loop
    vertex 229.19446712229345 440.78691473376864 63.80699924581353
    vertex 229.25260477305125 440.87392387697565 33.306999245813465
    vertex 229.25260477308794 440.87392387697565 63.806999245813465
  endloop
endfacet
facet normal 0.8314696123030213 -0.5555702330188896 -1.0001404233663119e-12
  outer loop
    vertex 229.25260477305125 440.87392387697565 33.306999245813465
    vertex 229.19446712229345 440.78691473376864 63.80699924581353
    vertex 229.19446712225678 440.78691473376864 33.306999245813536
  endloop
endfacet
facet normal 0.7518398074795726 -0.6593458150993905 -9.043570230708883e-13
  outer loop
    vertex 229.12546987500977 440.7082384520263 63.80699924581362
    vertex 229.19446712225678 440.78691473376864 33.306999245813536
    vertex 229.19446712229345 440.78691473376864 63.80699924581353
  endloop
endfacet
facet normal 0.7518398074795726 -0.6593458150993905 -9.043570230708883e-13
  outer loop
    vertex 229.19446712225678 440.78691473376864 33.306999245813536
    vertex 229.12546987500977 440.7082384520263 63.80699924581362
    vertex 229.12546987497308 440.7082384520263 33.30699924581362
  endloop
endfacet
facet normal 0.6593458151007199 -0.7518398074784066 -7.930998233755219e-13
  outer loop
    vertex 229.0467935932309 440.6392412047425 33.30699924581371
    vertex 229.12546987500977 440.7082384520263 63.80699924581362
    vertex 229.04679359326758 440.6392412047425 63.80699924581371
  endloop
endfacet
facet normal 0.6593458151007199 -0.7518398074784066 -7.930998233755219e-13
  outer loop
    vertex 229.12546987500977 440.7082384520263 63.80699924581362
    vertex 229.0467935932309 440.6392412047425 33.30699924581371
    vertex 229.12546987497308 440.7082384520263 33.30699924581362
  endloop
endfacet
facet normal 0.5555702330203931 -0.831469612302017 -6.682724658135018e-13
  outer loop
    vertex 228.95978445002396 440.5811035539478 33.30699924581382
    vertex 229.04679359326758 440.6392412047425 63.80699924581371
    vertex 228.95978445006065 440.5811035539478 63.80699924581382
  endloop
endfacet
facet normal 0.5555702330203931 -0.831469612302017 -6.682724658135018e-13
  outer loop
    vertex 229.04679359326758 440.6392412047425 63.80699924581371
    vertex 228.95978445002396 440.5811035539478 33.30699924581382
    vertex 229.0467935932309 440.6392412047425 33.30699924581371
  endloop
endfacet
facet normal 0.4422886902197989 -0.896872741532295 -5.320107810811378e-13
  outer loop
    vertex 228.86593119591603 440.5348202509663 33.30699924581393
    vertex 228.95978445006065 440.5811035539478 63.80699924581382
    vertex 228.86593119595278 440.5348202509663 63.806999245813934
  endloop
endfacet
facet normal 0.4422886902197989 -0.896872741532295 -5.320107810811378e-13
  outer loop
    vertex 228.95978445006065 440.5811035539478 63.80699924581382
    vertex 228.86593119591603 440.5348202509663 33.30699924581393
    vertex 228.95978445002396 440.5811035539478 33.30699924581382
  endloop
endfacet
facet normal 0.3214394653039427 -0.9469301294948407 -3.8664624438320916e-13
  outer loop
    vertex 228.76683968610604 440.501183215944 33.30699924581405
    vertex 228.86593119595278 440.5348202509663 63.806999245813934
    vertex 228.7668396861427 440.501183215944 63.80699924581405
  endloop
endfacet
facet normal 0.3214394653039427 -0.9469301294948407 -3.8664624438320916e-13
  outer loop
    vertex 228.86593119595278 440.5348202509663 63.806999245813934
    vertex 228.76683968610604 440.501183215944 33.30699924581405
    vertex 228.86593119591603 440.5348202509663 33.30699924581393
  endloop
endfacet
facet normal 0.13052619222094064 -0.9914448613736935 -1.5700456061967112e-13
  outer loop
    vertex 228.55978445002404 440.47392387697505 33.306999245814296
    vertex 228.7668396861427 440.501183215944 63.80699924581405
    vertex 228.55978445006073 440.47392387697505 63.806999245814296
  endloop
endfacet
facet normal 0.13052619222094064 -0.9914448613736935 -1.5700456061967112e-13
  outer loop
    vertex 228.7668396861427 440.501183215944 63.80699924581405
    vertex 228.55978445002404 440.47392387697505 33.306999245814296
    vertex 228.76683968610604 440.501183215944 33.30699924581405
  endloop
endfacet
facet normal 8.8541673992637e-13 -1.0 -1.0650311929894703e-24
  outer loop
    vertex 223.65978445002403 440.4739238769707 33.30699924582019
    vertex 228.55978445006073 440.47392387697505 63.806999245814296
    vertex 223.65978445006073 440.4739238769707 63.806999245820194
  endloop
endfacet
facet normal 8.8541673992637e-13 -1.0 -1.0650311929894703e-24
  outer loop
    vertex 228.55978445006073 440.47392387697505 63.806999245814296
    vertex 223.65978445002403 440.4739238769707 33.30699924582019
    vertex 228.55978445002404 440.47392387697505 33.306999245814296
  endloop
endfacet
facet normal 1.2028586596160774e-12 0.0 1.0
  outer loop
    vertex 228.55978445006073 440.47392387697505 63.806999245814296
    vertex 223.65978445006004 441.2739238769707 63.806999245820194
    vertex 223.65978445006073 440.4739238769707 63.806999245820194
  endloop
endfacet
facet normal 1.2028586596160774e-12 0.0 1.0
  outer loop
    vertex 223.65978445006004 441.2739238769707 63.806999245820194
    vertex 228.55978445006073 440.47392387697505 63.806999245814296
    vertex 228.55978445006002 441.273923876975 63.806999245814296
  endloop
endfacet
facet normal 1.2028586596160774e-12 0.0 1.0
  outer loop
    vertex 228.55978445006002 441.273923876975 63.806999245814296
    vertex 228.55978445006073 440.47392387697505 63.806999245814296
    vertex 228.55978445005667 445.0739238769751 63.806999245814296
  endloop
endfacet
facet normal 1.2028586596160774e-12 0.0 1.0
  outer loop
    vertex 228.55978445005667 445.0739238769751 63.806999245814296
    vertex 228.55978445006073 440.47392387697505 63.806999245814296
    vertex 229.35978445005668 445.07392387697575 63.80699924581334
  endloop
endfacet
facet normal 1.2028586596160774e-12 0.0 1.0
  outer loop
    vertex 229.35978445005668 445.07392387697575 63.80699924581334
    vertex 228.55978445006073 440.47392387697505 63.806999245814296
    vertex 228.7668396861427 440.501183215944 63.80699924581405
  endloop
endfacet
facet normal 1.2028586596160774e-12 0.0 1.0
  outer loop
    vertex 229.35978445005668 445.07392387697575 63.80699924581334
    vertex 228.7668396861427 440.501183215944 63.80699924581405
    vertex 228.86593119595278 440.5348202509663 63.806999245813934
  endloop
endfacet
facet normal 1.2028586596160774e-12 0.0 1.0
  outer loop
    vertex 229.35978445005668 445.07392387697575 63.80699924581334
    vertex 228.86593119595278 440.5348202509663 63.806999245813934
    vertex 228.95978445006065 440.5811035539478 63.80699924581382
  endloop
endfacet
facet normal 1.2028586596160774e-12 0.0 1.0
  outer loop
    vertex 229.35978445005668 445.07392387697575 63.80699924581334
    vertex 228.95978445006065 440.5811035539478 63.80699924581382
    vertex 229.04679359326758 440.6392412047425 63.80699924581371
  endloop
endfacet
facet normal 1.2028586596160774e-12 0.0 1.0
  outer loop
    vertex 229.35978445005668 445.07392387697575 63.80699924581334
    vertex 229.04679359326758 440.6392412047425 63.80699924581371
    vertex 229.12546987500977 440.7082384520263 63.80699924581362
  endloop
endfacet
facet normal 1.2028586596160774e-12 0.0 1.0
  outer loop
    vertex 229.35978445005668 445.07392387697575 63.80699924581334
    vertex 229.12546987500977 440.7082384520263 63.80699924581362
    vertex 229.19446712229345 440.78691473376864 63.80699924581353
  endloop
endfacet
facet normal 1.2028586596160774e-12 0.0 1.0
  outer loop
    vertex 229.35978445005668 445.07392387697575 63.80699924581334
    vertex 229.19446712229345 440.78691473376864 63.80699924581353
    vertex 229.25260477308794 440.87392387697565 63.806999245813465
  endloop
endfacet
facet normal 1.2028586596160774e-12 0.0 1.0
  outer loop
    vertex 229.35978445005668 445.07392387697575 63.80699924581334
    vertex 229.25260477308794 440.87392387697565 63.806999245813465
    vertex 229.29888807606932 440.9677771310836 63.80699924581341
  endloop
endfacet
facet normal 1.2028586596160774e-12 0.0 1.0
  outer loop
    vertex 229.35978445005668 445.07392387697575 63.80699924581334
    vertex 229.29888807606932 440.9677771310836 63.80699924581341
    vertex 229.33252511109148 441.0668686408937 63.80699924581337
  endloop
endfacet
facet normal 1.2028586596160774e-12 0.0 1.0
  outer loop
    vertex 229.35978445005668 445.07392387697575 63.80699924581334
    vertex 229.33252511109148 441.0668686408937 63.80699924581337
    vertex 229.35978445006 441.27392387697574 63.80699924581334
  endloop
endfacet
facet normal 1.2028586596160774e-12 0.0 1.0
  outer loop
    vertex 222.88704378902892 441.066868640888 63.80699924582112
    vertex 222.85978445005665 445.07392387697 63.80699924582115
    vertex 222.85978445006003 441.27392387696995 63.80699924582115
  endloop
endfacet
facet normal 1.2028586596160774e-12 0.0 1.0
  outer loop
    vertex 222.85978445005665 445.07392387697 63.80699924582115
    vertex 222.88704378902892 441.066868640888 63.80699924582112
    vertex 223.65978445005666 445.07392387697075 63.806999245820194
  endloop
endfacet
facet normal 1.2028586596160774e-12 0.0 1.0
  outer loop
    vertex 223.65978445005666 445.07392387697075 63.806999245820194
    vertex 222.88704378902892 441.066868640888 63.80699924582112
    vertex 222.9206808240513 440.96777713107804 63.80699924582109
  endloop
endfacet
facet normal 1.2028586596160774e-12 0.0 1.0
  outer loop
    vertex 223.65978445005666 445.07392387697075 63.806999245820194
    vertex 222.9206808240513 440.96777713107804 63.80699924582109
    vertex 222.96696412703284 440.8739238769701 63.80699924582103
  endloop
endfacet
facet normal 1.2028586596160774e-12 0.0 1.0
  outer loop
    vertex 223.65978445005666 445.07392387697075 63.806999245820194
    vertex 222.96696412703284 440.8739238769701 63.80699924582103
    vertex 223.02510177782744 440.7869147337631 63.806999245820954
  endloop
endfacet
facet normal 1.2028586596160774e-12 0.0 1.0
  outer loop
    vertex 223.65978445005666 445.07392387697075 63.806999245820194
    vertex 223.02510177782744 440.7869147337631 63.806999245820954
    vertex 223.0940990251113 440.70823845202096 63.806999245820876
  endloop
endfacet
facet normal 1.2028586596160774e-12 0.0 1.0
  outer loop
    vertex 223.65978445005666 445.07392387697075 63.806999245820194
    vertex 223.0940990251113 440.70823845202096 63.806999245820876
    vertex 223.17277530685362 440.6392412047373 63.80699924582078
  endloop
endfacet
facet normal 1.2028586596160774e-12 0.0 1.0
  outer loop
    vertex 223.65978445005666 445.07392387697075 63.806999245820194
    vertex 223.17277530685362 440.6392412047373 63.80699924582078
    vertex 223.25978445006064 440.58110355394274 63.80699924582067
  endloop
endfacet
facet normal 1.2028586596160774e-12 0.0 1.0
  outer loop
    vertex 223.65978445005666 445.07392387697075 63.806999245820194
    vertex 223.25978445006064 440.58110355394274 63.80699924582067
    vertex 223.3536377041686 440.53482025096145 63.806999245820556
  endloop
endfacet
facet normal 1.2028586596160774e-12 0.0 1.0
  outer loop
    vertex 223.65978445005666 445.07392387697075 63.806999245820194
    vertex 223.3536377041686 440.53482025096145 63.806999245820556
    vertex 223.4527292139787 440.5011832159393 63.80699924582044
  endloop
endfacet
facet normal 1.2028586596160774e-12 0.0 1.0
  outer loop
    vertex 223.65978445005666 445.07392387697075 63.806999245820194
    vertex 223.4527292139787 440.5011832159393 63.80699924582044
    vertex 223.65978445006073 440.4739238769707 63.806999245820194
  endloop
endfacet
facet normal 1.2028586596160774e-12 0.0 1.0
  outer loop
    vertex 223.65978445005666 445.07392387697075 63.806999245820194
    vertex 223.65978445006073 440.4739238769707 63.806999245820194
    vertex 223.65978445006004 441.2739238769707 63.806999245820194
  endloop
endfacet
facet normal -0.3214394653022699 -0.9469301294954084 3.86646244381197e-13
  outer loop
    vertex 223.3536377041319 440.53482025096145 33.30699924582056
    vertex 223.4527292139787 440.5011832159393 63.80699924582044
    vertex 223.3536377041686 440.53482025096145 63.806999245820556
  endloop
endfacet
facet normal -0.3214394653022699 -0.9469301294954084 3.86646244381197e-13
  outer loop
    vertex 223.4527292139787 440.5011832159393 63.80699924582044
    vertex 223.3536377041319 440.53482025096145 33.30699924582056
    vertex 223.452729213942 440.5011832159393 33.30699924582044
  endloop
endfacet
facet normal -0.4422886902182053 -0.8968727415330807 5.320107810792209e-13
  outer loop
    vertex 223.25978445002394 440.58110355394274 33.30699924582068
    vertex 223.3536377041686 440.53482025096145 63.806999245820556
    vertex 223.25978445006064 440.58110355394274 63.80699924582067
  endloop
endfacet
facet normal -0.4422886902182053 -0.8968727415330807 5.320107810792209e-13
  outer loop
    vertex 223.3536377041686 440.53482025096145 63.806999245820556
    vertex 223.25978445002394 440.58110355394274 33.30699924582068
    vertex 223.3536377041319 440.53482025096145 33.30699924582056
  endloop
endfacet
facet normal -0.5555702330189269 -0.8314696123029965 6.682724658117383e-13
  outer loop
    vertex 223.17277530681693 440.6392412047373 33.306999245820776
    vertex 223.25978445006064 440.58110355394274 63.80699924582067
    vertex 223.17277530685362 440.6392412047373 63.80699924582078
  endloop
endfacet
facet normal -0.5555702330189269 -0.8314696123029965 6.682724658117383e-13
  outer loop
    vertex 223.25978445006064 440.58110355394274 63.80699924582067
    vertex 223.17277530681693 440.6392412047373 33.306999245820776
    vertex 223.25978445002394 440.58110355394274 33.30699924582068
  endloop
endfacet
facet normal -0.6593458150993885 -0.7518398074795741 7.930998233739205e-13
  outer loop
    vertex 223.0940990250746 440.70823845202096 33.30699924582087
    vertex 223.17277530685362 440.6392412047373 63.80699924582078
    vertex 223.0940990251113 440.70823845202096 63.806999245820876
  endloop
endfacet
facet normal -0.6593458150993885 -0.7518398074795741 7.930998233739205e-13
  outer loop
    vertex 223.17277530685362 440.6392412047373 63.80699924582078
    vertex 223.0940990250746 440.70823845202096 33.30699924582087
    vertex 223.17277530681693 440.6392412047373 33.306999245820776
  endloop
endfacet
facet normal -0.7518398074783982 -0.6593458151007294 9.043570230694758e-13
  outer loop
    vertex 223.0940990250746 440.70823845202096 33.30699924582087
    vertex 223.02510177782744 440.7869147337631 63.806999245820954
    vertex 223.02510177779078 440.7869147337631 33.306999245820954
  endloop
endfacet
facet normal -0.7518398074783982 -0.6593458151007294 9.043570230694758e-13
  outer loop
    vertex 223.02510177782744 440.7869147337631 63.806999245820954
    vertex 223.0940990250746 440.70823845202096 33.30699924582087
    vertex 223.0940990251113 440.70823845202096 63.806999245820876
  endloop
endfacet
facet normal -0.831469612302044 -0.5555702330203528 1.0001404233651361e-12
  outer loop
    vertex 223.02510177779078 440.7869147337631 33.306999245820954
    vertex 222.96696412703284 440.8739238769701 63.80699924582103
    vertex 222.96696412699615 440.8739238769701 33.306999245821025
  endloop
endfacet
facet normal -0.831469612302044 -0.5555702330203528 1.0001404233651361e-12
  outer loop
    vertex 222.96696412703284 440.8739238769701 63.80699924582103
    vertex 223.02510177779078 440.7869147337631 33.306999245820954
    vertex 223.02510177782744 440.7869147337631 63.806999245820954
  endloop
endfacet
facet normal -0.8968727415322898 -0.4422886902198096 1.0788111437257266e-12
  outer loop
    vertex 222.96696412699615 440.8739238769701 33.306999245821025
    vertex 222.9206808240513 440.96777713107804 63.80699924582109
    vertex 222.9206808240146 440.96777713107804 33.30699924582108
  endloop
endfacet
facet normal -0.8968727415322898 -0.4422886902198096 1.0788111437257266e-12
  outer loop
    vertex 222.9206808240513 440.96777713107804 63.80699924582109
    vertex 222.96696412699615 440.8739238769701 33.306999245821025
    vertex 222.96696412703284 440.8739238769701 63.80699924582103
  endloop
endfacet
facet normal -0.9469301294948229 -0.3214394653039949 1.1390231063142215e-12
  outer loop
    vertex 222.9206808240146 440.96777713107804 33.30699924582108
    vertex 222.88704378902892 441.066868640888 63.80699924582112
    vertex 222.88704378899226 441.066868640888 33.30699924582112
  endloop
endfacet
facet normal -0.9469301294948229 -0.3214394653039949 1.1390231063142215e-12
  outer loop
    vertex 222.88704378902892 441.066868640888 63.80699924582112
    vertex 222.9206808240146 440.96777713107804 33.30699924582108
    vertex 222.9206808240513 440.96777713107804 63.80699924582109
  endloop
endfacet
facet normal -8.8541673992637e-13 1.0 1.0650311929894703e-24
  outer loop
    vertex 223.6597844500368 445.07392387697075 47.306999245820194
    vertex 222.85978445005665 445.07392387697 63.80699924582115
    vertex 223.65978445005666 445.07392387697075 63.806999245820194
  endloop
endfacet
facet normal -8.8541673992637e-13 1.0 1.0650311929894703e-24
  outer loop
    vertex 222.85978445005665 445.07392387697 63.80699924582115
    vertex 223.6597844500368 445.07392387697075 47.306999245820194
    vertex 222.8597844500368 445.07392387697 47.30699924582115
  endloop
endfacet
facet normal -0.03307386111567809 0.25122091658254325 -0.9673645490622073
  outer loop
    vertex 229.35978445002354 441.27392387697574 33.48740449690901
    vertex 228.76683968610604 440.501183215944 33.30699924581405
    vertex 228.55978445002404 440.47392387697505 33.306999245814296
  endloop
endfacet
facet normal -0.9914448613736951 -0.13052619222092735 1.192568139745254e-12
  outer loop
    vertex 222.88704378902892 441.066868640888 63.80699924582112
    vertex 222.85978445006003 441.27392387696995 63.80699924582115
    vertex 222.88704378899226 441.066868640888 33.30699924582112
  endloop
endfacet
facet normal -1.3681694116863147e-12 0.21998251344319308 -0.9755038153586154
  outer loop
    vertex 229.35978445002354 441.27392387697574 33.48740449690901
    vertex 228.55978445002404 440.47392387697505 33.306999245814296
    vertex 228.55978445002356 441.273923876975 33.48740449690997
  endloop
endfacet
facet normal -0.9914448613736951 -0.13052619222092732 1.1925680370352106e-12
  outer loop
    vertex 222.88704378899226 441.066868640888 33.30699924582112
    vertex 222.85978445006003 441.27392387696995 63.80699924582115
    vertex 222.85978445002354 441.27392387696995 33.487404496916824
  endloop
endfacet
facet normal -1.368165215127826e-12 0.21998251344319308 -0.9755038153586154
  outer loop
    vertex 228.55978445002404 440.47392387697505 33.306999245814296
    vertex 223.65978445002355 441.2739238769707 33.48740449691586
    vertex 228.55978445002356 441.273923876975 33.48740449690997
  endloop
endfacet
facet normal -1.3681694116863145e-12 0.21998251344319303 -0.9755038153586154
  outer loop
    vertex 228.55978445002404 440.47392387697505 33.306999245814296
    vertex 223.65978445002403 440.4739238769707 33.30699924582019
    vertex 223.65978445002355 441.2739238769707 33.48740449691586
  endloop
endfacet
facet normal 0.9914448613739263 -0.13052619221917164 -1.1925680370354885e-12
  outer loop
    vertex 229.3325251110548 441.0668686408937 33.30699924581337
    vertex 229.35978445002354 441.27392387697574 33.48740449690901
    vertex 229.33252511109148 441.0668686408937 63.80699924581337
  endloop
endfacet
facet normal 0.02894910927528135 0.2198903158478419 -0.9750949687433036
  outer loop
    vertex 223.65978445002355 441.2739238769707 33.48740449691586
    vertex 223.65978445002403 440.4739238769707 33.30699924582019
    vertex 223.452729213942 440.5011832159393 33.30699924582044
  endloop
endfacet
facet normal 0.9914448613739263 -0.13052619221917164 -1.1925681409714423e-12
  outer loop
    vertex 229.33252511109148 441.0668686408937 63.80699924581337
    vertex 229.35978445002354 441.27392387697574 33.48740449690901
    vertex 229.35978445006 441.27392387697574 63.80699924581334
  endloop
endfacet
facet normal 0.07085541944724354 0.20873333475292652 -0.9754024320750271
  outer loop
    vertex 223.65978445002355 441.2739238769707 33.48740449691586
    vertex 223.452729213942 440.5011832159393 33.30699924582044
    vertex 223.3536377041319 440.53482025096145 33.30699924582056
  endloop
endfacet
facet normal -1.1701790931808479e-12 0.9647790834140912 -0.2630614380837034
  outer loop
    vertex 228.55978445002688 442.2574362483646 36.97751738571274
    vertex 228.55978445003683 445.0739238769751 47.306999245814296
    vertex 229.3597844500269 442.25743624836537 36.97751738571178
  endloop
endfacet
facet normal 0.09749440888614787 0.19769910403944635 -0.9754024320750595
  outer loop
    vertex 223.65978445002355 441.2739238769707 33.48740449691586
    vertex 223.3536377041319 440.53482025096145 33.30699924582056
    vertex 223.25978445002394 440.58110355394274 33.30699924582068
  endloop
endfacet
facet normal -1.1697009067659988e-12 0.9647790834140912 -0.2630614380837034
  outer loop
    vertex 229.3597844500269 442.25743624836537 36.97751738571178
    vertex 228.55978445003683 445.0739238769751 47.306999245814296
    vertex 229.3597844500368 445.07392387697575 47.30699924581334
  endloop
endfacet
facet normal 0.1224652419584382 0.18328218684329953 -0.9754024320750894
  outer loop
    vertex 223.65978445002355 441.2739238769707 33.48740449691586
    vertex 223.25978445002394 440.58110355394274 33.30699924582068
    vertex 223.17277530681693 440.6392412047373 33.306999245820776
  endloop
endfacet
facet normal 0.14534066078698885 0.16572926061486287 -0.9754024320751165
  outer loop
    vertex 223.65978445002355 441.2739238769707 33.48740449691586
    vertex 223.17277530681693 440.6392412047373 33.306999245820776
    vertex 223.0940990250746 440.70823845202096 33.30699924582087
  endloop
endfacet
facet normal -0.9236674717551425 0.3135428570598293 -0.22029361862800892
  outer loop
    vertex 229.29888807603263 440.9677771310836 33.30699924581341
    vertex 229.35978445002354 441.27392387697574 33.48740449690901
    vertex 229.3325251110548 441.0668686408937 33.30699924581337
  endloop
endfacet
facet normal 0.16572926061343002 0.14534066078845773 -0.9754024320751412
  outer loop
    vertex 223.65978445002355 441.2739238769707 33.48740449691586
    vertex 223.0940990250746 440.70823845202096 33.30699924582087
    vertex 223.02510177779078 440.7869147337631 33.306999245820954
  endloop
endfacet
facet normal -0.8185441898129663 0.4036613232096347 -0.4087088761797102
  outer loop
    vertex 229.25260477305125 440.87392387697565 33.306999245813465
    vertex 229.35978445002354 441.27392387697574 33.48740449690901
    vertex 229.29888807603263 440.9677771310836 33.30699924581341
  endloop
endfacet
facet normal -1.1786139325386949e-12 0.9625129441869475 -0.2712357503585652
  outer loop
    vertex 228.55978445002356 441.273923876975 33.48740449690997
    vertex 228.55978445002688 442.2574362483646 36.97751738571274
    vertex 229.3597844500269 442.25743624836537 36.97751738571178
  endloop
endfacet
facet normal 0.18328218684191744 0.12246524195992571 -0.9754024320751621
  outer loop
    vertex 223.65978445002355 441.2739238769707 33.48740449691586
    vertex 223.02510177779078 440.7869147337631 33.306999245820954
    vertex 222.96696412699615 440.8739238769701 33.306999245821025
  endloop
endfacet
facet normal -0.6690582883564251 0.4470504558013092 -0.5937229124342536
  outer loop
    vertex 229.19446712225678 440.78691473376864 33.306999245813536
    vertex 229.35978445002354 441.27392387697574 33.48740449690901
    vertex 229.25260477305125 440.87392387697565 33.306999245813465
  endloop
endfacet
facet normal 0.19769910403809965 0.09749440888767419 -0.9754024320751798
  outer loop
    vertex 223.65978445002355 441.2739238769707 33.48740449691586
    vertex 222.96696412699615 440.8739238769701 33.306999245821025
    vertex 222.9206808240146 440.96777713107804 33.30699924582108
  endloop
endfacet
facet normal -0.5080232589186063 0.4455244407229003 -0.7371704966398652
  outer loop
    vertex 229.35978445002354 441.27392387697574 33.48740449690901
    vertex 229.19446712225678 440.78691473376864 33.306999245813536
    vertex 229.12546987497308 440.7082384520263 33.30699924581362
  endloop
endfacet
facet normal -0.3655497501423552 0.41682960212324466 -0.8322418296172329
  outer loop
    vertex 229.35978445002354 441.27392387697574 33.48740449690901
    vertex 229.12546987497308 440.7082384520263 33.30699924581362
    vertex 229.0467935932309 440.6392412047425 33.30699924581371
  endloop
endfacet
facet normal -8.8541673992637e-13 1.0 1.0650311929894703e-24
  outer loop
    vertex 228.55978445002356 441.273923876975 33.48740449690997
    vertex 223.65978445006004 441.2739238769707 63.806999245820194
    vertex 228.55978445006002 441.273923876975 63.806999245814296
  endloop
endfacet
facet normal -0.2523561683213334 0.3776776957515093 -0.8908849097622011
  outer loop
    vertex 229.35978445002354 441.27392387697574 33.48740449690901
    vertex 229.0467935932309 440.6392412047425 33.30699924581371
    vertex 228.95978445002396 440.5811035539478 33.30699924581382
  endloop
endfacet
facet normal -0.1663445711160846 0.3373134218303391 -0.9265792675822796
  outer loop
    vertex 229.35978445002354 441.27392387697574 33.48740449690901
    vertex 228.95978445002396 440.5811035539478 33.30699924581382
    vertex 228.86593119591603 440.5348202509663 33.30699924581393
  endloop
endfacet
facet normal -1.4885557721325542e-12 0.656919091570481 -0.7539610779942252
  outer loop
    vertex 223.65978445002355 441.2739238769707 33.48740449691586
    vertex 222.88704378899226 441.066868640888 33.30699924582112
    vertex 222.85978445002354 441.27392387696995 33.487404496916824
  endloop
endfacet
facet normal -8.8541673992637e-13 1.0 1.0650311929894703e-24
  outer loop
    vertex 223.65978445002355 441.2739238769707 33.48740449691586
    vertex 223.65978445006004 441.2739238769707 63.806999245820194
    vertex 228.55978445002356 441.273923876975 33.48740449690997
  endloop
endfacet
facet normal -1.170179093180848e-12 0.9647790834140912 -0.26306143808370347
  outer loop
    vertex 222.85978445002686 442.2574362483596 36.977517385719594
    vertex 223.6597844500368 445.07392387697075 47.306999245820194
    vertex 223.65978445002688 442.2574362483603 36.97751738571863
  endloop
endfacet
facet normal -1.1720918388402452e-12 0.9647790834140912 -0.2630614380837034
  outer loop
    vertex 222.85978445002686 442.2574362483596 36.977517385719594
    vertex 222.8597844500368 445.07392387697 47.30699924582115
    vertex 223.6597844500368 445.07392387697075 47.306999245820194
  endloop
endfacet
facet normal -1.1783527560517128e-12 0.9625129441869475 -0.2712357503585653
  outer loop
    vertex 228.55978445002356 441.273923876975 33.48740449690997
    vertex 229.3597844500269 442.25743624836537 36.97751738571178
    vertex 229.35978445002354 441.27392387697574 33.48740449690901
  endloop
endfacet
facet normal 0.20873333475162406 0.07085541944879685 -0.9754024320751931
  outer loop
    vertex 223.65978445002355 441.2739238769707 33.48740449691586
    vertex 222.9206808240146 440.96777713107804 33.30699924582108
    vertex 222.88704378899226 441.066868640888 33.30699924582112
  endloop
endfacet
facet normal -1.1784833442952039e-12 0.9625129441869475 -0.27123575035856523
  outer loop
    vertex 222.85978445002354 441.27392387696995 33.487404496916824
    vertex 222.85978445002686 442.2574362483596 36.977517385719594
    vertex 223.65978445002688 442.2574362483603 36.97751738571863
  endloop
endfacet
facet normal -1.1783527560517128e-12 0.9625129441869475 -0.2712357503585653
  outer loop
    vertex 222.85978445002354 441.27392387696995 33.487404496916824
    vertex 223.65978445002688 442.2574362483603 36.97751738571863
    vertex 223.65978445002355 441.2739238769707 33.48740449691586
  endloop
endfacet
facet normal 1.0 8.8541673992637e-13 -1.2028586596160774e-12
  outer loop
    vertex 223.65978445005666 445.07392387697075 63.806999245820194
    vertex 223.65978445004728 444.3739238769707 55.5069992458202
    vertex 223.6597844500368 445.07392387697075 47.306999245820194
  endloop
endfacet
facet normal 1.0 8.8541673992637e-13 -1.2028586596160774e-12
  outer loop
    vertex 223.65978445004728 444.3739238769707 55.5069992458202
    vertex 223.65978445005666 445.07392387697075 63.806999245820194
    vertex 223.6597844500476 444.346664538002 55.71405448190222
  endloop
endfacet
facet normal 1.0 8.8541673992637e-13 -1.2028586596160774e-12
  outer loop
    vertex 223.6597844500476 444.346664538002 55.71405448190222
    vertex 223.65978445005666 445.07392387697075 63.806999245820194
    vertex 223.65978445006004 441.2739238769707 63.806999245820194
  endloop
endfacet
facet normal 1.0 8.8541673992637e-13 -1.2028586596160774e-12
  outer loop
    vertex 223.6597844500476 444.346664538002 55.71405448190222
    vertex 223.65978445006004 441.2739238769707 63.806999245820194
    vertex 223.65978445004785 444.2667441999983 55.90699924582019
  endloop
endfacet
facet normal 1.0 8.8541673992637e-13 -1.2028586596160774e-12
  outer loop
    vertex 223.65978445004785 444.2667441999983 55.90699924582019
    vertex 223.65978445006004 441.2739238769707 63.806999245820194
    vertex 223.65978445004816 444.13960930191996 56.07268467076943
  endloop
endfacet
facet normal 1.0 8.8541673992637e-13 -1.2028586596160774e-12
  outer loop
    vertex 223.65978445004816 444.13960930191996 56.07268467076943
    vertex 223.65978445006004 441.2739238769707 63.806999245820194
    vertex 223.65978445004848 443.97392387697073 56.199819568847744
  endloop
endfacet
facet normal 1.0 8.8541673992637e-13 -1.2028586596160774e-12
  outer loop
    vertex 223.65978445004848 443.97392387697073 56.199819568847744
    vertex 223.65978445006004 441.2739238769707 63.806999245820194
    vertex 223.65978445004876 443.78097911305275 56.279739906851454
  endloop
endfacet
facet normal 1.0 8.8541673992637e-13 -1.2028586596160774e-12
  outer loop
    vertex 223.65978445004876 443.78097911305275 56.279739906851454
    vertex 223.65978445006004 441.2739238769707 63.806999245820194
    vertex 223.659784450049 443.5739238769707 56.30699924582019
  endloop
endfacet
facet normal 1.0 8.8541673992637e-13 -1.2028586596160774e-12
  outer loop
    vertex 223.659784450049 443.5739238769707 56.30699924582019
    vertex 223.65978445006004 441.2739238769707 63.806999245820194
    vertex 223.65978445004913 443.3668686408887 56.27973990685144
  endloop
endfacet
facet normal 1.0 8.8541673992637e-13 -1.2028586596160774e-12
  outer loop
    vertex 223.65978445004913 443.3668686408887 56.27973990685144
    vertex 223.65978445006004 441.2739238769707 63.806999245820194
    vertex 223.65978445004922 443.1739238769707 56.199819568847744
  endloop
endfacet
facet normal 1.0 8.8541673992637e-13 -1.2028586596160774e-12
  outer loop
    vertex 223.65978445004922 443.1739238769707 56.199819568847744
    vertex 223.65978445006004 441.2739238769707 63.806999245820194
    vertex 223.65978445004916 443.00823845202143 56.07268467076943
  endloop
endfacet
facet normal 1.0 8.8541673992637e-13 -1.2028586596160774e-12
  outer loop
    vertex 223.65978445004916 443.00823845202143 56.07268467076943
    vertex 223.65978445006004 441.2739238769707 63.806999245820194
    vertex 223.65978445004907 442.88110355394315 55.9069992458202
  endloop
endfacet
facet normal 1.0 8.8541673992637e-13 -1.2028586596160774e-12
  outer loop
    vertex 223.65978445004907 442.88110355394315 55.9069992458202
    vertex 223.65978445006004 441.2739238769707 63.806999245820194
    vertex 223.65978445004893 442.80118321593943 55.7140544819022
  endloop
endfacet
facet normal 1.0 8.8541673992637e-13 -1.2028586596160774e-12
  outer loop
    vertex 223.65978445004893 442.80118321593943 55.7140544819022
    vertex 223.65978445006004 441.2739238769707 63.806999245820194
    vertex 223.6597844500487 442.7739238769707 55.5069992458202
  endloop
endfacet
facet normal 1.0 8.8541673992637e-13 -1.2028586596160774e-12
  outer loop
    vertex 223.6597844500487 442.7739238769707 55.5069992458202
    vertex 223.65978445006004 441.2739238769707 63.806999245820194
    vertex 223.65978445002688 442.2574362483603 36.97751738571863
  endloop
endfacet
facet normal 1.0 8.8541673992637e-13 -1.2028586596160774e-12
  outer loop
    vertex 223.65978445002688 442.2574362483603 36.97751738571863
    vertex 223.65978445006004 441.2739238769707 63.806999245820194
    vertex 223.65978445002355 441.2739238769707 33.48740449691586
  endloop
endfacet
facet normal 1.0 8.8541673992637e-13 -1.2028586596160774e-12
  outer loop
    vertex 223.65978445004728 444.3739238769707 55.5069992458202
    vertex 223.65978445002688 442.2574362483603 36.97751738571863
    vertex 223.6597844500368 445.07392387697075 47.306999245820194
  endloop
endfacet
facet normal 1.0 8.8541673992637e-13 -1.2028586596160774e-12
  outer loop
    vertex 223.65978445002688 442.2574362483603 36.97751738571863
    vertex 223.65978445004728 444.3739238769707 55.5069992458202
    vertex 223.65978445004708 444.346664538002 55.29994400973817
  endloop
endfacet
facet normal 1.0 8.8541673992637e-13 -1.2028586596160774e-12
  outer loop
    vertex 223.65978445002688 442.2574362483603 36.97751738571863
    vertex 223.65978445004708 444.346664538002 55.29994400973817
    vertex 223.6597844500469 444.2667441999983 55.1069992458202
  endloop
endfacet
facet normal 1.0 8.8541673992637e-13 -1.2028586596160774e-12
  outer loop
    vertex 223.65978445002688 442.2574362483603 36.97751738571863
    vertex 223.6597844500469 444.2667441999983 55.1069992458202
    vertex 223.65978445004683 444.13960930191996 54.94131382087097
  endloop
endfacet
facet normal 1.0 8.8541673992637e-13 -1.2028586596160774e-12
  outer loop
    vertex 223.65978445002688 442.2574362483603 36.97751738571863
    vertex 223.65978445004683 444.13960930191996 54.94131382087097
    vertex 223.65978445004683 443.97392387697073 54.81417892279265
  endloop
endfacet
facet normal 1.0 8.8541673992637e-13 -1.2028586596160774e-12
  outer loop
    vertex 223.65978445002688 442.2574362483603 36.97751738571863
    vertex 223.65978445004683 443.97392387697073 54.81417892279265
    vertex 223.6597844500469 443.78097911305275 54.73425858478894
  endloop
endfacet
facet normal 1.0 8.8541673992637e-13 -1.2028586596160774e-12
  outer loop
    vertex 223.65978445002688 442.2574362483603 36.97751738571863
    vertex 223.6597844500469 443.78097911305275 54.73425858478894
    vertex 223.65978445004706 443.5739238769707 54.70699924582019
  endloop
endfacet
facet normal 1.0 8.8541673992637e-13 -1.2028586596160774e-12
  outer loop
    vertex 223.65978445002688 442.2574362483603 36.97751738571863
    vertex 223.65978445004706 443.5739238769707 54.70699924582019
    vertex 223.65978445004728 443.3668686408887 54.73425858478894
  endloop
endfacet
facet normal 1.0 8.8541673992637e-13 -1.2028586596160774e-12
  outer loop
    vertex 223.65978445002688 442.2574362483603 36.97751738571863
    vertex 223.65978445004728 443.3668686408887 54.73425858478894
    vertex 223.65978445004754 443.1739238769707 54.814178922792635
  endloop
endfacet
facet normal 1.0 8.8541673992637e-13 -1.2028586596160774e-12
  outer loop
    vertex 223.65978445002688 442.2574362483603 36.97751738571863
    vertex 223.65978445004754 443.1739238769707 54.814178922792635
    vertex 223.65978445004782 443.00823845202143 54.94131382087095
  endloop
endfacet
facet normal 1.0 8.8541673992637e-13 -1.2028586596160774e-12
  outer loop
    vertex 223.65978445002688 442.2574362483603 36.97751738571863
    vertex 223.65978445004782 443.00823845202143 54.94131382087095
    vertex 223.65978445004814 442.88110355394315 55.10699924582019
  endloop
endfacet
facet normal 1.0 8.8541673992637e-13 -1.2028586596160774e-12
  outer loop
    vertex 223.65978445002688 442.2574362483603 36.97751738571863
    vertex 223.65978445004814 442.88110355394315 55.10699924582019
    vertex 223.65978445004845 442.80118321593943 55.299944009738184
  endloop
endfacet
facet normal 1.0 8.8541673992637e-13 -1.2028586596160774e-12
  outer loop
    vertex 223.65978445002688 442.2574362483603 36.97751738571863
    vertex 223.65978445004845 442.80118321593943 55.299944009738184
    vertex 223.6597844500487 442.7739238769707 55.5069992458202
  endloop
endfacet
facet normal -1.0 -8.8541673992637e-13 1.2028586596160774e-12
  outer loop
    vertex 228.55978445003683 445.0739238769751 47.306999245814296
    vertex 228.5597844500473 444.373923876975 55.5069992458143
    vertex 228.55978445005667 445.0739238769751 63.806999245814296
  endloop
endfacet
facet normal -1.0 -8.8541673992637e-13 1.2028586596160774e-12
  outer loop
    vertex 228.5597844500473 444.373923876975 55.5069992458143
    vertex 228.55978445003683 445.0739238769751 47.306999245814296
    vertex 228.55978445002688 442.2574362483646 36.97751738571274
  endloop
endfacet
facet normal -1.0 -8.8541673992637e-13 1.2028586596160774e-12
  outer loop
    vertex 228.5597844500473 444.373923876975 55.5069992458143
    vertex 228.55978445002688 442.2574362483646 36.97751738571274
    vertex 228.55978445004706 444.34666453800634 55.299944009732286
  endloop
endfacet
facet normal -1.0 -8.8541673992637e-13 1.2028586596160774e-12
  outer loop
    vertex 228.55978445004706 444.34666453800634 55.299944009732286
    vertex 228.55978445002688 442.2574362483646 36.97751738571274
    vertex 228.55978445004692 444.2667442000026 55.1069992458143
  endloop
endfacet
facet normal -1.0 -8.8541673992637e-13 1.2028586596160774e-12
  outer loop
    vertex 228.55978445004692 444.2667442000026 55.1069992458143
    vertex 228.55978445002688 442.2574362483646 36.97751738571274
    vertex 228.55978445004683 444.1396093019243 54.94131382086506
  endloop
endfacet
facet normal -1.0 -8.8541673992637e-13 1.2028586596160774e-12
  outer loop
    vertex 228.55978445004683 444.1396093019243 54.94131382086506
    vertex 228.55978445002688 442.2574362483646 36.97751738571274
    vertex 228.55978445004683 443.97392387697505 54.814178922786745
  endloop
endfacet
facet normal -1.0 -8.8541673992637e-13 1.2028586596160774e-12
  outer loop
    vertex 228.55978445004683 443.97392387697505 54.814178922786745
    vertex 228.55978445002688 442.2574362483646 36.97751738571274
    vertex 228.5597844500469 443.78097911305707 54.734258584783035
  endloop
endfacet
facet normal -1.0 -8.8541673992637e-13 1.2028586596160774e-12
  outer loop
    vertex 228.5597844500469 443.78097911305707 54.734258584783035
    vertex 228.55978445002688 442.2574362483646 36.97751738571274
    vertex 228.55978445004706 443.573923876975 54.70699924581429
  endloop
endfacet
facet normal -1.0 -8.8541673992637e-13 1.2028586596160774e-12
  outer loop
    vertex 228.55978445004706 443.573923876975 54.70699924581429
    vertex 228.55978445002688 442.2574362483646 36.97751738571274
    vertex 228.55978445004723 443.366868640893 54.73425858478305
  endloop
endfacet
facet normal -1.0 -8.8541673992637e-13 1.2028586596160774e-12
  outer loop
    vertex 228.55978445004723 443.366868640893 54.73425858478305
    vertex 228.55978445002688 442.2574362483646 36.97751738571274
    vertex 228.55978445004752 443.17392387697504 54.814178922786745
  endloop
endfacet
facet normal -1.0 -8.8541673992637e-13 1.2028586596160774e-12
  outer loop
    vertex 228.55978445004752 443.17392387697504 54.814178922786745
    vertex 228.55978445002688 442.2574362483646 36.97751738571274
    vertex 228.55978445004783 443.0082384520258 54.94131382086506
  endloop
endfacet
facet normal -1.0 -8.8541673992637e-13 1.2028586596160774e-12
  outer loop
    vertex 228.55978445004783 443.0082384520258 54.94131382086506
    vertex 228.55978445002688 442.2574362483646 36.97751738571274
    vertex 228.55978445004814 442.88110355394747 55.1069992458143
  endloop
endfacet
facet normal -1.0 -8.8541673992637e-13 1.2028586596160774e-12
  outer loop
    vertex 228.55978445004814 442.88110355394747 55.1069992458143
    vertex 228.55978445002688 442.2574362483646 36.97751738571274
    vertex 228.55978445004843 442.80118321594375 55.299944009732286
  endloop
endfacet
facet normal -1.0 -8.8541673992637e-13 1.2028586596160774e-12
  outer loop
    vertex 228.55978445004843 442.80118321594375 55.299944009732286
    vertex 228.55978445002688 442.2574362483646 36.97751738571274
    vertex 228.55978445004874 442.77392387697506 55.5069992458143
  endloop
endfacet
facet normal -1.0 -8.8541673992637e-13 1.2028586596160774e-12
  outer loop
    vertex 228.55978445005667 445.0739238769751 63.806999245814296
    vertex 228.55978445004754 444.34666453800634 55.71405448189632
    vertex 228.55978445006002 441.273923876975 63.806999245814296
  endloop
endfacet
facet normal -1.0 -8.8541673992637e-13 1.2028586596160774e-12
  outer loop
    vertex 228.55978445004754 444.34666453800634 55.71405448189632
    vertex 228.55978445005667 445.0739238769751 63.806999245814296
    vertex 228.5597844500473 444.373923876975 55.5069992458143
  endloop
endfacet
facet normal -1.0 -8.8541673992637e-13 1.2028586596160774e-12
  outer loop
    vertex 228.55978445006002 441.273923876975 63.806999245814296
    vertex 228.55978445004754 444.34666453800634 55.71405448189632
    vertex 228.55978445004789 444.2667442000026 55.9069992458143
  endloop
endfacet
facet normal -1.0 -8.8541673992637e-13 1.2028586596160774e-12
  outer loop
    vertex 228.55978445006002 441.273923876975 63.806999245814296
    vertex 228.55978445004789 444.2667442000026 55.9069992458143
    vertex 228.5597844500482 444.1396093019243 56.07268467076355
  endloop
endfacet
facet normal -1.0 -8.8541673992637e-13 1.2028586596160774e-12
  outer loop
    vertex 228.55978445006002 441.273923876975 63.806999245814296
    vertex 228.5597844500482 444.1396093019243 56.07268467076355
    vertex 228.55978445004845 443.97392387697505 56.199819568841846
  endloop
endfacet
facet normal -1.0 -8.8541673992637e-13 1.2028586596160774e-12
  outer loop
    vertex 228.55978445006002 441.273923876975 63.806999245814296
    vertex 228.55978445004845 443.97392387697505 56.199819568841846
    vertex 228.55978445004874 443.78097911305707 56.27973990684555
  endloop
endfacet
facet normal -1.0 -8.8541673992637e-13 1.2028586596160774e-12
  outer loop
    vertex 228.55978445006002 441.273923876975 63.806999245814296
    vertex 228.55978445004874 443.78097911305707 56.27973990684555
    vertex 228.55978445004897 443.573923876975 56.306999245814296
  endloop
endfacet
facet normal -1.0 -8.8541673992637e-13 1.2028586596160774e-12
  outer loop
    vertex 228.55978445006002 441.273923876975 63.806999245814296
    vertex 228.55978445004897 443.573923876975 56.306999245814296
    vertex 228.55978445004914 443.366868640893 56.27973990684555
  endloop
endfacet
facet normal -1.0 -8.8541673992637e-13 1.2028586596160774e-12
  outer loop
    vertex 228.55978445006002 441.273923876975 63.806999245814296
    vertex 228.55978445004914 443.366868640893 56.27973990684555
    vertex 228.5597844500492 443.17392387697504 56.199819568841846
  endloop
endfacet
facet normal -1.0 -8.8541673992637e-13 1.2028586596160774e-12
  outer loop
    vertex 228.55978445006002 441.273923876975 63.806999245814296
    vertex 228.5597844500492 443.17392387697504 56.199819568841846
    vertex 228.5597844500492 443.0082384520258 56.072684670763536
  endloop
endfacet
facet normal -1.0 -8.8541673992637e-13 1.2028586596160774e-12
  outer loop
    vertex 228.55978445006002 441.273923876975 63.806999245814296
    vertex 228.5597844500492 443.0082384520258 56.072684670763536
    vertex 228.55978445004908 442.88110355394747 55.90699924581431
  endloop
endfacet
facet normal -1.0 -8.8541673992637e-13 1.2028586596160774e-12
  outer loop
    vertex 228.55978445006002 441.273923876975 63.806999245814296
    vertex 228.55978445004908 442.88110355394747 55.90699924581431
    vertex 228.55978445004897 442.80118321594387 55.71405448189632
  endloop
endfacet
facet normal -1.0 -8.8541673992637e-13 1.2028586596160774e-12
  outer loop
    vertex 228.55978445006002 441.273923876975 63.806999245814296
    vertex 228.55978445004897 442.80118321594387 55.71405448189632
    vertex 228.55978445004874 442.77392387697506 55.5069992458143
  endloop
endfacet
facet normal -1.0 -8.8541673992637e-13 1.2028586596160774e-12
  outer loop
    vertex 228.55978445006002 441.273923876975 63.806999245814296
    vertex 228.55978445004874 442.77392387697506 55.5069992458143
    vertex 228.55978445002688 442.2574362483646 36.97751738571274
  endloop
endfacet
facet normal -1.0 -8.8541673992637e-13 1.2028586596160774e-12
  outer loop
    vertex 228.55978445006002 441.273923876975 63.806999245814296
    vertex 228.55978445002688 442.2574362483646 36.97751738571274
    vertex 228.55978445002356 441.273923876975 33.48740449690997
  endloop
endfacet
facet normal -1.3100713886933953e-12 0.1305261922200561 -0.9914448613738098
  outer loop
    vertex 229.35978445004895 443.57392387697575 56.30699924581333
    vertex 228.55978445004914 443.366868640893 56.27973990684555
    vertex 228.55978445004897 443.573923876975 56.306999245814296
  endloop
endfacet
facet normal -1.3100713886933953e-12 0.1305261922200561 -0.9914448613738098
  outer loop
    vertex 228.55978445004914 443.366868640893 56.27973990684555
    vertex 229.35978445004895 443.57392387697575 56.30699924581333
    vertex 229.3597844500491 443.36686864089376 56.27973990684459
  endloop
endfacet
facet normal -1.076904970484154e-12 -0.13052619222003584 -0.9914448613738125
  outer loop
    vertex 229.35978445004872 443.7809791130578 56.27973990684459
    vertex 228.55978445004897 443.573923876975 56.306999245814296
    vertex 228.55978445004874 443.78097911305707 56.27973990684555
  endloop
endfacet
facet normal -1.076904970484154e-12 -0.13052619222003584 -0.9914448613738125
  outer loop
    vertex 228.55978445004897 443.573923876975 56.306999245814296
    vertex 229.35978445004872 443.7809791130578 56.27973990684459
    vertex 229.35978445004895 443.57392387697575 56.30699924581333
  endloop
endfacet
facet normal -7.724621790147116e-13 -0.3826834323650982 -0.9238795325112833
  outer loop
    vertex 229.35978445004847 443.97392387697573 56.19981956884089
    vertex 228.55978445004874 443.78097911305707 56.27973990684555
    vertex 228.55978445004845 443.97392387697505 56.199819568841846
  endloop
endfacet
facet normal -7.724621790147116e-13 -0.3826834323650982 -0.9238795325112833
  outer loop
    vertex 228.55978445004874 443.78097911305707 56.27973990684555
    vertex 229.35978445004847 443.97392387697573 56.19981956884089
    vertex 229.35978445004872 443.7809791130578 56.27973990684459
  endloop
endfacet
facet normal -4.1947892553654853e-13 -0.6087614290087054 -0.793353340291247
  outer loop
    vertex 229.35978445004818 444.139609301925 56.07268467076258
    vertex 228.55978445004845 443.97392387697505 56.199819568841846
    vertex 228.5597844500482 444.1396093019243 56.07268467076355
  endloop
endfacet
facet normal -4.1947892553654853e-13 -0.6087614290087054 -0.793353340291247
  outer loop
    vertex 228.55978445004845 443.97392387697505 56.199819568841846
    vertex 229.35978445004818 444.139609301925 56.07268467076258
    vertex 229.35978445004847 443.97392387697573 56.19981956884089
  endloop
endfacet
facet normal -2.8504350274653465e-14 -0.7933533402912458 -0.608761429008707
  outer loop
    vertex 228.55978445004789 444.2667442000026 55.9069992458143
    vertex 229.35978445004818 444.139609301925 56.07268467076258
    vertex 228.5597844500482 444.1396093019243 56.07268467076355
  endloop
endfacet
facet normal -2.8504350274653465e-14 -0.7933533402912458 -0.608761429008707
  outer loop
    vertex 229.35978445004818 444.139609301925 56.07268467076258
    vertex 228.55978445004789 444.2667442000026 55.9069992458143
    vertex 229.35978445004787 444.2667442000033 55.90699924581333
  endloop
endfacet
facet normal 3.6287149372935785e-13 -0.923879532511286 -0.38268343236509145
  outer loop
    vertex 228.55978445004754 444.34666453800634 55.71405448189632
    vertex 229.35978445004787 444.2667442000033 55.90699924581333
    vertex 228.55978445004789 444.2667442000026 55.9069992458143
  endloop
endfacet
facet normal 3.6287149372935785e-13 -0.923879532511286 -0.38268343236509145
  outer loop
    vertex 229.35978445004787 444.2667442000033 55.90699924581333
    vertex 228.55978445004754 444.34666453800634 55.71405448189632
    vertex 229.35978445004756 444.346664538007 55.714054481895346
  endloop
endfacet
facet normal 7.131580328562405e-13 -0.9914448613738055 -0.13052619222008843
  outer loop
    vertex 228.5597844500473 444.373923876975 55.5069992458143
    vertex 229.35978445004756 444.346664538007 55.714054481895346
    vertex 228.55978445004754 444.34666453800634 55.71405448189632
  endloop
endfacet
facet normal 7.131580328562405e-13 -0.9914448613738055 -0.13052619222008843
  outer loop
    vertex 229.35978445004756 444.346664538007 55.714054481895346
    vertex 228.5597844500473 444.373923876975 55.5069992458143
    vertex 229.35978445004727 444.37392387697577 55.50699924581333
  endloop
endfacet
facet normal 1.0283156391708205e-12 -0.9914448613738055 0.13052619222008932
  outer loop
    vertex 228.55978445004706 444.34666453800634 55.299944009732286
    vertex 229.35978445004727 444.37392387697577 55.50699924581333
    vertex 228.5597844500473 444.373923876975 55.5069992458143
  endloop
endfacet
facet normal 1.0283156391708205e-12 -0.9914448613738055 0.13052619222008932
  outer loop
    vertex 229.35978445004727 444.37392387697577 55.50699924581333
    vertex 228.55978445004706 444.34666453800634 55.299944009732286
    vertex 229.35978445004704 444.346664538007 55.29994400973131
  endloop
endfacet
facet normal 1.2796813450056913e-12 -0.9238795325112975 0.3826834323650636
  outer loop
    vertex 228.55978445004692 444.2667442000026 55.1069992458143
    vertex 229.35978445004704 444.346664538007 55.29994400973131
    vertex 228.55978445004706 444.34666453800634 55.299944009732286
  endloop
endfacet
facet normal 1.2796813450056913e-12 -0.9238795325112975 0.3826834323650636
  outer loop
    vertex 229.35978445004704 444.346664538007 55.29994400973131
    vertex 228.55978445004692 444.2667442000026 55.1069992458143
    vertex 229.35978445004687 444.2667442000033 55.106999245813334
  endloop
endfacet
facet normal 1.4379208760326895e-12 -0.7933533402912202 0.6087614290087402
  outer loop
    vertex 228.55978445004683 444.1396093019243 54.94131382086506
    vertex 229.35978445004687 444.2667442000033 55.106999245813334
    vertex 228.55978445004692 444.2667442000026 55.1069992458143
  endloop
endfacet
facet normal 1.4379208760326895e-12 -0.7933533402912202 0.6087614290087402
  outer loop
    vertex 229.35978445004687 444.2667442000033 55.106999245813334
    vertex 228.55978445004683 444.1396093019243 54.94131382086506
    vertex 229.3597844500468 444.139609301925 54.941313820864096
  endloop
endfacet
facet normal 1.4974940452681596e-12 -0.6087614290087309 0.7933533402912274
  outer loop
    vertex 229.3597844500468 443.97392387697573 54.814178922785786
    vertex 228.55978445004683 444.1396093019243 54.94131382086506
    vertex 228.55978445004683 443.97392387697505 54.814178922786745
  endloop
endfacet
facet normal 1.4974940452681596e-12 -0.6087614290087309 0.7933533402912274
  outer loop
    vertex 228.55978445004683 444.1396093019243 54.94131382086506
    vertex 229.3597844500468 443.97392387697573 54.814178922785786
    vertex 229.3597844500468 444.139609301925 54.941313820864096
  endloop
endfacet
facet normal 1.4501308132317891e-12 -0.3826834323650982 0.9238795325112833
  outer loop
    vertex 229.35978445004687 443.7809791130578 54.73425858478208
    vertex 228.55978445004683 443.97392387697505 54.814178922786745
    vertex 228.5597844500469 443.78097911305707 54.734258584783035
  endloop
endfacet
facet normal 1.4501308132317891e-12 -0.3826834323650982 0.9238795325112833
  outer loop
    vertex 228.55978445004683 443.97392387697505 54.814178922786745
    vertex 229.35978445004687 443.7809791130578 54.73425858478208
    vertex 229.3597844500468 443.97392387697573 54.814178922785786
  endloop
endfacet
facet normal 1.3115397099572962e-12 -0.13052619222004913 0.9914448613738107
  outer loop
    vertex 223.65978445004706 443.5739238769707 54.70699924582019
    vertex 222.85978445004687 443.780979113052 54.7342585847899
    vertex 222.85978445004704 443.57392387697 54.70699924582115
  endloop
endfacet
facet normal 1.3115397099572962e-12 -0.13052619222004913 0.9914448613738107
  outer loop
    vertex 222.85978445004687 443.780979113052 54.7342585847899
    vertex 223.65978445004706 443.5739238769707 54.70699924582019
    vertex 223.6597844500469 443.78097911305275 54.73425858478894
  endloop
endfacet
facet normal 1.0824276090266142e-12 0.1305261922200694 0.9914448613738082
  outer loop
    vertex 223.65978445004728 443.3668686408887 54.73425858478894
    vertex 222.85978445004704 443.57392387697 54.70699924582115
    vertex 222.85978445004727 443.36686864088796 54.7342585847899
  endloop
endfacet
facet normal 1.0824276090266142e-12 0.1305261922200694 0.9914448613738082
  outer loop
    vertex 222.85978445004704 443.57392387697 54.70699924582115
    vertex 223.65978445004728 443.3668686408887 54.73425858478894
    vertex 223.65978445004706 443.5739238769707 54.70699924582019
  endloop
endfacet
facet normal 7.751577508501531e-13 0.38268343236510377 0.9238795325112811
  outer loop
    vertex 223.65978445004754 443.1739238769707 54.814178922792635
    vertex 222.85978445004727 443.36686864088796 54.7342585847899
    vertex 222.85978445004756 443.17392387697 54.8141789227936
  endloop
endfacet
facet normal 7.751577508501531e-13 0.38268343236510377 0.9238795325112811
  outer loop
    vertex 222.85978445004727 443.36686864088796 54.7342585847899
    vertex 223.65978445004754 443.1739238769707 54.814178922792635
    vertex 223.65978445004728 443.3668686408887 54.73425858478894
  endloop
endfacet
facet normal 4.1957583075739106e-13 0.6087614290087219 0.7933533402912344
  outer loop
    vertex 229.3597844500478 443.0082384520265 54.941313820864096
    vertex 228.55978445004752 443.17392387697504 54.814178922786745
    vertex 228.55978445004783 443.0082384520258 54.94131382086506
  endloop
endfacet
facet normal 4.1957583075739106e-13 0.6087614290087219 0.7933533402912344
  outer loop
    vertex 228.55978445004752 443.17392387697504 54.814178922786745
    vertex 229.3597844500478 443.0082384520265 54.941313820864096
    vertex 229.3597844500475 443.1739238769758 54.814178922785786
  endloop
endfacet
facet normal 3.4327026945704915e-14 0.7933533402912072 0.6087614290087573
  outer loop
    vertex 223.65978445004782 443.00823845202143 54.94131382087095
    vertex 222.85978445004812 442.8811035539424 55.10699924582115
    vertex 223.65978445004814 442.88110355394315 55.10699924582019
  endloop
endfacet
facet normal 3.4327026945704915e-14 0.7933533402912072 0.6087614290087573
  outer loop
    vertex 222.85978445004812 442.8811035539424 55.10699924582115
    vertex 223.65978445004782 443.00823845202143 54.94131382087095
    vertex 222.8597844500478 443.00823845202075 54.94131382087191
  endloop
endfacet
facet normal -3.5254030823156215e-13 0.923879532511309 0.3826834323650358
  outer loop
    vertex 223.65978445004814 442.88110355394315 55.10699924582019
    vertex 222.85978445004844 442.8011832159387 55.29994400973914
    vertex 223.65978445004845 442.80118321593943 55.299944009738184
  endloop
endfacet
facet normal -3.5254030823156215e-13 0.923879532511309 0.3826834323650358
  outer loop
    vertex 222.85978445004844 442.8011832159387 55.29994400973914
    vertex 223.65978445004814 442.88110355394315 55.10699924582019
    vertex 222.85978445004812 442.8811035539424 55.10699924582115
  endloop
endfacet
facet normal -7.131580328563087e-13 0.9914448613738123 0.13052619222003708
  outer loop
    vertex 229.3597844500487 442.77392387697574 55.50699924581333
    vertex 228.55978445004843 442.80118321594375 55.299944009732286
    vertex 228.55978445004874 442.77392387697506 55.5069992458143
  endloop
endfacet
facet normal -7.131580328563087e-13 0.9914448613738123 0.13052619222003708
  outer loop
    vertex 228.55978445004843 442.80118321594375 55.299944009732286
    vertex 229.3597844500487 442.77392387697574 55.50699924581333
    vertex 229.3597844500484 442.8011832159445 55.29994400973131
  endloop
endfacet
facet normal -1.0213264625863933e-12 0.9914448613738089 -0.13052619222006276
  outer loop
    vertex 229.35978445004892 442.8011832159445 55.714054481895346
    vertex 228.55978445004874 442.77392387697506 55.5069992458143
    vertex 228.55978445004897 442.80118321594387 55.71405448189632
  endloop
endfacet
facet normal -1.0213264625863933e-12 0.9914448613738089 -0.13052619222006276
  outer loop
    vertex 228.55978445004874 442.77392387697506 55.5069992458143
    vertex 229.35978445004892 442.8011832159445 55.714054481895346
    vertex 229.3597844500487 442.77392387697574 55.50699924581333
  endloop
endfacet
facet normal -1.2758661907211697e-12 0.9238795325113112 -0.38268343236503105
  outer loop
    vertex 229.3597844500491 442.8811035539482 55.90699924581333
    vertex 228.55978445004897 442.80118321594387 55.71405448189632
    vertex 228.55978445004908 442.88110355394747 55.90699924581431
  endloop
endfacet
facet normal -1.2758661907211697e-12 0.9238795325113112 -0.38268343236503105
  outer loop
    vertex 228.55978445004897 442.80118321594387 55.71405448189632
    vertex 229.3597844500491 442.8811035539482 55.90699924581333
    vertex 229.35978445004892 442.8011832159445 55.714054481895346
  endloop
endfacet
facet normal -1.4411394673716147e-12 0.7933533402912126 -0.6087614290087501
  outer loop
    vertex 229.35978445004918 443.0082384520265 56.07268467076258
    vertex 228.55978445004908 442.88110355394747 55.90699924581431
    vertex 228.5597844500492 443.0082384520258 56.072684670763536
  endloop
endfacet
facet normal -1.4411394673716147e-12 0.7933533402912126 -0.6087614290087501
  outer loop
    vertex 228.55978445004908 442.88110355394747 55.90699924581431
    vertex 229.35978445004918 443.0082384520265 56.07268467076258
    vertex 229.3597844500491 442.8811035539482 55.90699924581333
  endloop
endfacet
facet normal -1.4932979661951488e-12 0.608761429008718 -0.7933533402912372
  outer loop
    vertex 223.65978445004922 443.1739238769707 56.199819568847744
    vertex 222.85978445004918 443.00823845202075 56.07268467077039
    vertex 222.85978445004918 443.17392387697 56.1998195688487
  endloop
endfacet
facet normal -1.4932979661951488e-12 0.608761429008718 -0.7933533402912372
  outer loop
    vertex 222.85978445004918 443.00823845202075 56.07268467077039
    vertex 223.65978445004922 443.1739238769707 56.199819568847744
    vertex 223.65978445004916 443.00823845202143 56.07268467076943
  endloop
endfacet
facet normal -1.4522698182883033e-12 0.38268343236510577 -0.9238795325112803
  outer loop
    vertex 229.3597844500491 443.36686864089376 56.27973990684459
    vertex 228.5597844500492 443.17392387697504 56.199819568841846
    vertex 228.55978445004914 443.366868640893 56.27973990684555
  endloop
endfacet
facet normal -1.4522698182883033e-12 0.38268343236510577 -0.9238795325112803
  outer loop
    vertex 228.5597844500492 443.17392387697504 56.199819568841846
    vertex 229.3597844500491 443.36686864089376 56.27973990684459
    vertex 229.35978445004918 443.1739238769758 56.19981956884089
  endloop
endfacet
facet normal -1.0483647194850533e-12 0.9914448613738089 -0.1305261922200628
  outer loop
    vertex 223.6597844500487 442.7739238769707 55.5069992458202
    vertex 222.85978445004895 442.8011832159387 55.714054481903176
    vertex 223.65978445004893 442.80118321593943 55.7140544819022
  endloop
endfacet
facet normal -1.0483647194850533e-12 0.9914448613738089 -0.1305261922200628
  outer loop
    vertex 222.85978445004895 442.8011832159387 55.714054481903176
    vertex 223.6597844500487 442.7739238769707 55.5069992458202
    vertex 222.85978445004872 442.77392387697 55.50699924582115
  endloop
endfacet
facet normal -1.2807987778243202e-12 0.9238795325113112 -0.38268343236503116
  outer loop
    vertex 223.65978445004893 442.80118321593943 55.7140544819022
    vertex 222.8597844500491 442.8811035539424 55.90699924582115
    vertex 223.65978445004907 442.88110355394315 55.9069992458202
  endloop
endfacet
facet normal -1.2807987778243202e-12 0.9238795325113112 -0.38268343236503116
  outer loop
    vertex 222.8597844500491 442.8811035539424 55.90699924582115
    vertex 223.65978445004893 442.80118321593943 55.7140544819022
    vertex 222.85978445004895 442.8011832159387 55.714054481903176
  endloop
endfacet
facet normal -1.4282635728406105e-12 0.7933533402912126 -0.6087614290087501
  outer loop
    vertex 223.65978445004907 442.88110355394315 55.9069992458202
    vertex 222.85978445004918 443.00823845202075 56.07268467077039
    vertex 223.65978445004916 443.00823845202143 56.07268467076943
  endloop
endfacet
facet normal -1.4282635728406105e-12 0.7933533402912126 -0.6087614290087501
  outer loop
    vertex 222.85978445004918 443.00823845202075 56.07268467077039
    vertex 223.65978445004907 442.88110355394315 55.9069992458202
    vertex 222.8597844500491 442.8811035539424 55.90699924582115
  endloop
endfacet
facet normal -1.4479918081752813e-12 0.38268343236510577 -0.9238795325112801
  outer loop
    vertex 223.65978445004913 443.3668686408887 56.27973990685144
    vertex 222.85978445004918 443.17392387697 56.1998195688487
    vertex 222.85978445004912 443.36686864088796 56.27973990685241
  endloop
endfacet
facet normal -1.4479918081752813e-12 0.38268343236510577 -0.9238795325112801
  outer loop
    vertex 222.85978445004918 443.17392387697 56.1998195688487
    vertex 223.65978445004913 443.3668686408887 56.27973990685144
    vertex 223.65978445004922 443.1739238769707 56.199819568847744
  endloop
endfacet
facet normal -1.3062030533362686e-12 0.1305261922200561 -0.9914448613738098
  outer loop
    vertex 223.659784450049 443.5739238769707 56.30699924582019
    vertex 222.85978445004912 443.36686864088796 56.27973990685241
    vertex 222.85978445004895 443.57392387697 56.306999245821146
  endloop
endfacet
facet normal -1.3062030533362686e-12 0.1305261922200561 -0.9914448613738098
  outer loop
    vertex 222.85978445004912 443.36686864088796 56.27973990685241
    vertex 223.659784450049 443.5739238769707 56.30699924582019
    vertex 223.65978445004913 443.3668686408887 56.27973990685144
  endloop
endfacet
facet normal -7.285183830772306e-13 0.9914448613738123 0.13052619222003706
  outer loop
    vertex 223.65978445004845 442.80118321593943 55.299944009738184
    vertex 222.85978445004872 442.77392387697 55.50699924582115
    vertex 223.6597844500487 442.7739238769707 55.5069992458202
  endloop
endfacet
facet normal -7.285183830772306e-13 0.9914448613738123 0.13052619222003706
  outer loop
    vertex 222.85978445004872 442.77392387697 55.50699924582115
    vertex 223.65978445004845 442.80118321593943 55.299944009738184
    vertex 222.85978445004844 442.8011832159387 55.29994400973914
  endloop
endfacet
facet normal 1.4891034162974611e-12 -0.6087614290087309 0.7933533402912273
  outer loop
    vertex 223.65978445004683 443.97392387697073 54.81417892279265
    vertex 222.85978445004682 444.1396093019192 54.94131382087191
    vertex 222.85978445004682 443.97392387697 54.8141789227936
  endloop
endfacet
facet normal 1.4891034162974611e-12 -0.6087614290087309 0.7933533402912273
  outer loop
    vertex 222.85978445004682 444.1396093019192 54.94131382087191
    vertex 223.65978445004683 443.97392387697073 54.81417892279265
    vertex 223.65978445004683 444.13960930191996 54.94131382087097
  endloop
endfacet
facet normal -1.0770909524056159e-12 -0.13052619222003586 -0.9914448613738125
  outer loop
    vertex 223.65978445004876 443.78097911305275 56.279739906851454
    vertex 222.85978445004895 443.57392387697 56.306999245821146
    vertex 222.85978445004875 443.780979113052 56.27973990685241
  endloop
endfacet
facet normal -1.0770909524056159e-12 -0.13052619222003586 -0.9914448613738125
  outer loop
    vertex 222.85978445004895 443.57392387697 56.306999245821146
    vertex 223.65978445004876 443.78097911305275 56.279739906851454
    vertex 223.659784450049 443.5739238769707 56.30699924582019
  endloop
endfacet
facet normal 1.0715700970850883e-12 0.13052619222006936 0.9914448613738082
  outer loop
    vertex 229.35978445004724 443.36686864089376 54.73425858478208
    vertex 228.55978445004706 443.573923876975 54.70699924581429
    vertex 228.55978445004723 443.366868640893 54.73425858478305
  endloop
endfacet
facet normal 1.0715700970850883e-12 0.13052619222006936 0.9914448613738082
  outer loop
    vertex 228.55978445004706 443.573923876975 54.70699924581429
    vertex 229.35978445004724 443.36686864089376 54.73425858478208
    vertex 229.35978445004702 443.57392387697575 54.70699924581333
  endloop
endfacet
facet normal -4.110913549164976e-13 -0.6087614290087052 -0.793353340291247
  outer loop
    vertex 223.65978445004816 444.13960930191996 56.07268467076943
    vertex 222.8597844500485 443.97392387697 56.1998195688487
    vertex 222.85978445004818 444.1396093019192 56.07268467077039
  endloop
endfacet
facet normal -4.110913549164976e-13 -0.6087614290087052 -0.793353340291247
  outer loop
    vertex 222.8597844500485 443.97392387697 56.1998195688487
    vertex 223.65978445004816 444.13960930191996 56.07268467076943
    vertex 223.65978445004848 443.97392387697073 56.199819568847744
  endloop
endfacet
facet normal -3.110690643136701e-14 -0.7933533402912457 -0.6087614290087069
  outer loop
    vertex 222.85978445004818 444.1396093019192 56.07268467077039
    vertex 223.65978445004785 444.2667441999983 55.90699924582019
    vertex 223.65978445004816 444.13960930191996 56.07268467076943
  endloop
endfacet
facet normal -3.110690643136701e-14 -0.7933533402912457 -0.6087614290087069
  outer loop
    vertex 223.65978445004785 444.2667441999983 55.90699924582019
    vertex 222.85978445004818 444.1396093019192 56.07268467077039
    vertex 222.85978445004787 444.26674419999756 55.90699924582115
  endloop
endfacet
facet normal 3.52537152768418e-13 -0.9238795325112862 -0.3826834323650915
  outer loop
    vertex 222.85978445004758 444.3466645380013 55.714054481903176
    vertex 223.65978445004785 444.2667441999983 55.90699924582019
    vertex 222.85978445004787 444.26674419999756 55.90699924582115
  endloop
endfacet
facet normal 3.52537152768418e-13 -0.9238795325112862 -0.3826834323650915
  outer loop
    vertex 223.65978445004785 444.2667441999983 55.90699924582019
    vertex 222.85978445004758 444.3466645380013 55.714054481903176
    vertex 223.6597844500476 444.346664538002 55.71405448190222
  endloop
endfacet
facet normal 7.285165998551603e-13 -0.9914448613738055 -0.1305261922200884
  outer loop
    vertex 222.85978445004758 444.3466645380013 55.714054481903176
    vertex 223.65978445004728 444.3739238769707 55.5069992458202
    vertex 223.6597844500476 444.346664538002 55.71405448190222
  endloop
endfacet
facet normal 7.285165998551603e-13 -0.9914448613738055 -0.1305261922200884
  outer loop
    vertex 223.65978445004728 444.3739238769707 55.5069992458202
    vertex 222.85978445004758 444.3466645380013 55.714054481903176
    vertex 222.85978445004727 444.37392387696997 55.50699924582115
  endloop
endfacet
facet normal 1.4314836933548494e-12 -0.7933533402912202 0.6087614290087402
  outer loop
    vertex 222.8597844500469 444.26674419999756 55.10699924582115
    vertex 223.65978445004683 444.13960930191996 54.94131382087097
    vertex 223.6597844500469 444.2667441999983 55.1069992458202
  endloop
endfacet
facet normal 1.4314836933548494e-12 -0.7933533402912202 0.6087614290087402
  outer loop
    vertex 223.65978445004683 444.13960930191996 54.94131382087097
    vertex 222.8597844500469 444.26674419999756 55.10699924582115
    vertex 222.85978445004682 444.1396093019192 54.94131382087191
  endloop
endfacet
facet normal -7.724611731820437e-13 -0.38268343236509816 -0.9238795325112833
  outer loop
    vertex 223.65978445004848 443.97392387697073 56.199819568847744
    vertex 222.85978445004875 443.780979113052 56.27973990685241
    vertex 222.8597844500485 443.97392387697 56.1998195688487
  endloop
endfacet
facet normal -7.724611731820437e-13 -0.38268343236509816 -0.9238795325112833
  outer loop
    vertex 222.85978445004875 443.780979113052 56.27973990685241
    vertex 223.65978445004848 443.97392387697073 56.199819568847744
    vertex 223.65978445004876 443.78097911305275 56.279739906851454
  endloop
endfacet
facet normal -1.4932994953704727e-12 0.6087614290087179 -0.7933533402912372
  outer loop
    vertex 229.35978445004918 443.1739238769758 56.19981956884089
    vertex 228.5597844500492 443.0082384520258 56.072684670763536
    vertex 228.5597844500492 443.17392387697504 56.199819568841846
  endloop
endfacet
facet normal -1.4932994953704727e-12 0.6087614290087179 -0.7933533402912372
  outer loop
    vertex 228.5597844500492 443.0082384520258 56.072684670763536
    vertex 229.35978445004918 443.1739238769758 56.19981956884089
    vertex 229.35978445004918 443.0082384520265 56.07268467076258
  endloop
endfacet
facet normal 1.3047365152943603e-12 -0.1305261922200491 0.9914448613738107
  outer loop
    vertex 229.35978445004702 443.57392387697575 54.70699924581333
    vertex 228.5597844500469 443.78097911305707 54.734258584783035
    vertex 228.55978445004706 443.573923876975 54.70699924581429
  endloop
endfacet
facet normal 1.3047365152943603e-12 -0.1305261922200491 0.9914448613738107
  outer loop
    vertex 228.5597844500469 443.78097911305707 54.734258584783035
    vertex 229.35978445004702 443.57392387697575 54.70699924581333
    vertex 229.35978445004687 443.7809791130578 54.73425858478208
  endloop
endfacet
facet normal 2.528575893582865e-14 0.7933533402912072 0.6087614290087573
  outer loop
    vertex 229.3597844500478 443.0082384520265 54.941313820864096
    vertex 228.55978445004814 442.88110355394747 55.1069992458143
    vertex 229.3597844500481 442.8811035539482 55.106999245813334
  endloop
endfacet
facet normal 2.528575893582865e-14 0.7933533402912072 0.6087614290087573
  outer loop
    vertex 228.55978445004814 442.88110355394747 55.1069992458143
    vertex 229.3597844500478 443.0082384520265 54.941313820864096
    vertex 228.55978445004783 443.0082384520258 54.94131382086506
  endloop
endfacet
facet normal -3.628683382663883e-13 0.923879532511309 0.38268343236503577
  outer loop
    vertex 229.3597844500484 442.8011832159445 55.29994400973131
    vertex 228.55978445004814 442.88110355394747 55.1069992458143
    vertex 228.55978445004843 442.80118321594375 55.299944009732286
  endloop
endfacet
facet normal -3.628683382663883e-13 0.923879532511309 0.38268343236503577
  outer loop
    vertex 228.55978445004814 442.88110355394747 55.1069992458143
    vertex 229.3597844500484 442.8011832159445 55.29994400973131
    vertex 229.3597844500481 442.8811035539482 55.106999245813334
  endloop
endfacet
facet normal 1.276983623539853e-12 -0.9238795325112975 0.3826834323650636
  outer loop
    vertex 222.85978445004704 444.3466645380013 55.29994400973914
    vertex 223.6597844500469 444.2667441999983 55.1069992458202
    vertex 223.65978445004708 444.346664538002 55.29994400973817
  endloop
endfacet
facet normal 1.276983623539853e-12 -0.9238795325112975 0.3826834323650636
  outer loop
    vertex 223.6597844500469 444.2667441999983 55.1069992458202
    vertex 222.85978445004704 444.3466645380013 55.29994400973914
    vertex 222.8597844500469 444.26674419999756 55.10699924582115
  endloop
endfacet
facet normal 1.0413755429006838e-12 -0.9914448613738055 0.1305261922200893
  outer loop
    vertex 222.85978445004727 444.37392387696997 55.50699924582115
    vertex 223.65978445004708 444.346664538002 55.29994400973817
    vertex 223.65978445004728 444.3739238769707 55.5069992458202
  endloop
endfacet
facet normal 1.0413755429006838e-12 -0.9914448613738055 0.1305261922200893
  outer loop
    vertex 223.65978445004708 444.346664538002 55.29994400973817
    vertex 222.85978445004727 444.37392387696997 55.50699924582115
    vertex 222.85978445004704 444.3466645380013 55.29994400973914
  endloop
endfacet
facet normal 1.4501318190644571e-12 -0.38268343236509816 0.9238795325112833
  outer loop
    vertex 223.6597844500469 443.78097911305275 54.73425858478894
    vertex 222.85978445004682 443.97392387697 54.8141789227936
    vertex 222.85978445004687 443.780979113052 54.7342585847899
  endloop
endfacet
facet normal 1.4501318190644571e-12 -0.38268343236509816 0.9238795325112833
  outer loop
    vertex 222.85978445004682 443.97392387697 54.8141789227936
    vertex 223.6597844500469 443.78097911305275 54.73425858478894
    vertex 223.65978445004683 443.97392387697073 54.81417892279265
  endloop
endfacet
facet normal 7.697644575488656e-13 0.38268343236510377 0.9238795325112811
  outer loop
    vertex 229.3597844500475 443.1739238769758 54.814178922785786
    vertex 228.55978445004723 443.366868640893 54.73425858478305
    vertex 228.55978445004752 443.17392387697504 54.814178922786745
  endloop
endfacet
facet normal 7.697644575488656e-13 0.38268343236510377 0.9238795325112811
  outer loop
    vertex 228.55978445004723 443.366868640893 54.73425858478305
    vertex 229.3597844500475 443.1739238769758 54.814178922785786
    vertex 229.35978445004724 443.36686864089376 54.73425858478208
  endloop
endfacet
facet normal 4.1099292052027083e-13 0.608761429008722 0.7933533402912342
  outer loop
    vertex 223.65978445004782 443.00823845202143 54.94131382087095
    vertex 222.85978445004756 443.17392387697 54.8141789227936
    vertex 222.8597844500478 443.00823845202075 54.94131382087191
  endloop
endfacet
facet normal 4.1099292052027083e-13 0.608761429008722 0.7933533402912342
  outer loop
    vertex 222.85978445004756 443.17392387697 54.8141789227936
    vertex 223.65978445004782 443.00823845202143 54.94131382087095
    vertex 223.65978445004754 443.1739238769707 54.814178922792635
  endloop
endfacet
endsolid stengun_3Dtisk
