# FreeCAD v0.20 build2 Arch module
# http://www.freecadweb.org
mtllib Podtacek-Test-objectFlex-body.mtl
o Body001
usemtl color_cccccc
v 3.45 0.0 0.0
v 3.24194 1.17997 0.0
v 3.45 0.0 10.0
v 3.24194 1.17997 10.0
v 2.642853 2.217617 0.0
v 2.642853 2.217617 10.0
v 1.725 2.987788 10.0
v 1.725 2.987788 0.0
v 0.599086 3.397587 0.0
v 0.599086 3.397587 10.0
v -0.599086 3.397587 10.0
v -0.599086 3.397587 0.0
v -1.725 2.987788 0.0
v -1.725 2.987788 10.0
v -2.642853 2.217617 0.0
v -2.642853 2.217617 10.0
v -3.24194 1.17997 10.0
v -3.24194 1.17997 0.0
v -3.45 0.0 10.0
v -3.45 0.0 0.0
v -3.24194 -1.17997 0.0
v -3.24194 -1.17997 10.0
v -2.642853 -2.217617 0.0
v -2.642853 -2.217617 10.0
v -1.725 -2.987788 0.0
v -1.725 -2.987788 10.0
v -0.599086 -3.397587 0.0
v -0.599086 -3.397587 10.0
v 0.599086 -3.397587 0.0
v 0.599086 -3.397587 10.0
v 1.725 -2.987788 0.0
v 1.725 -2.987788 10.0
v 2.642853 -2.217617 10.0
v 2.642853 -2.217617 0.0
v 3.24194 -1.17997 0.0
v 3.24194 -1.17997 10.0
vn 0.9848077893257141 0.17364820837974548 -0.0
vn 0.9848077893257141 0.17364820837974548 0.0
vn 0.8660253286361694 0.5000000596046448 0.0
vn 0.6427876949310303 0.7660444378852844 0.0
vn 0.8660253286361694 0.5000000596046448 -0.0
vn 0.6427876949310303 0.7660444378852844 0.0
vn 0.3420201241970062 0.9396926164627075 0.0
vn 0.0 1.0 0.0
vn 0.3420201241970062 0.9396926164627075 -0.0
vn 0.0 1.0 0.0
vn -0.3420201241970062 0.9396926164627075 0.0
vn -0.3420201241970062 0.9396926164627075 0.0
vn -0.6427876949310303 0.7660444378852844 0.0
vn -0.8660253286361694 0.5000000596046448 0.0
vn -0.6427876949310303 0.7660444378852844 0.0
vn -0.9848077893257141 0.17364820837974548 0.0
vn -0.8660253286361694 0.5000000596046448 0.0
vn -0.9848077893257141 0.17364820837974548 0.0
vn -0.9848077893257141 -0.17364820837974548 0.0
vn -0.9848077893257141 -0.17364820837974548 0.0
vn -0.8660253286361694 -0.5000000596046448 0.0
vn -0.8660253286361694 -0.5000000596046448 0.0
vn -0.6427876949310303 -0.7660444378852844 0.0
vn -0.6427876949310303 -0.7660444378852844 0.0
vn -0.3420201241970062 -0.9396926164627075 0.0
vn -0.3420201241970062 -0.9396926164627075 0.0
vn 0.0 -1.0 0.0
vn 0.0 -1.0 0.0
vn 0.3420201241970062 -0.9396926164627075 0.0
vn 0.3420201241970062 -0.9396926164627075 0.0
vn 0.6427876949310303 -0.7660444378852844 0.0
vn 0.6427876949310303 -0.7660444378852844 0.0
vn 0.8660253286361694 -0.5000000596046448 0.0
vn 0.8660253286361694 -0.5000000596046448 0.0
vn 0.9848077893257141 -0.17364820837974548 0.0
vn 0.9848077893257141 -0.17364820837974548 0.0
vn 0.0 0.0 -1.0
vn 0.0 0.0 -1.0
vn 0.0 0.0 -1.0
vn 0.0 0.0 -1.0
vn 0.0 0.0 -1.0
vn 0.0 -0.0 -1.0
vn 0.0 0.0 -1.0
vn 0.0 0.0 -1.0
vn 0.0 0.0 -1.0
vn 0.0 0.0 -1.0
vn -0.0 -0.0 -1.0
vn 0.0 -0.0 -1.0
vn 0.0 0.0 -1.0
vn 0.0 0.0 -1.0
vn -0.0 -0.0 -1.0
vn 0.0 0.0 -1.0
vn 0.0 0.0 1.0
vn 0.0 0.0 1.0
vn 0.0 0.0 1.0
vn 0.0 0.0 1.0
vn 0.0 0.0 1.0
vn 0.0 0.0 1.0
vn 0.0 0.0 1.0
vn 0.0 0.0 1.0
vn 0.0 0.0 1.0
vn 0.0 0.0 1.0
vn 0.0 0.0 1.0
vn 0.0 0.0 1.0
vn 0.0 0.0 1.0
vn 0.0 0.0 1.0
vn 0.0 0.0 1.0
vn 0.0 0.0 1.0
f 1//1 2//1 3//1 
f 3//2 2//2 4//2 
f 4//3 5//3 6//3 
f 6//4 5//4 7//4 
f 2//5 5//5 4//5 
f 5//6 8//6 7//6 
f 7//7 9//7 10//7 
f 10//8 9//8 11//8 
f 8//9 9//9 7//9 
f 9//10 12//10 11//10 
f 11//11 13//11 14//11 
f 12//12 13//12 11//12 
f 14//13 15//13 16//13 
f 16//14 15//14 17//14 
f 13//15 15//15 14//15 
f 17//16 18//16 19//16 
f 15//17 18//17 17//17 
f 18//18 20//18 19//18 
f 19//19 21//19 22//19 
f 20//20 21//20 19//20 
f 22//21 23//21 24//21 
f 21//22 23//22 22//22 
f 24//23 25//23 26//23 
f 23//24 25//24 24//24 
f 26//25 27//25 28//25 
f 25//26 27//26 26//26 
f 28//27 29//27 30//27 
f 27//28 29//28 28//28 
f 29//29 31//29 30//29 
f 30//30 31//30 32//30 
f 32//31 31//31 33//31 
f 31//32 34//32 33//32 
f 34//33 35//33 33//33 
f 33//34 35//34 36//34 
f 36//35 35//35 3//35 
f 35//36 1//36 3//36 
f 23//37 29//37 25//37 
f 25//38 29//38 27//38 
f 20//39 18//39 21//39 
f 21//40 18//40 23//40 
f 29//41 34//41 31//41 
f 15//42 13//42 18//42 
f 23//43 13//43 29//43 
f 18//44 13//44 23//44 
f 29//45 13//45 34//45 
f 34//46 1//46 35//46 
f 9//47 8//47 12//47 
f 12//48 8//48 13//48 
f 1//49 5//49 2//49 
f 13//50 5//50 34//50 
f 8//51 5//51 13//51 
f 34//52 5//52 1//52 
f 30//53 24//53 26//53 
f 30//54 26//54 28//54 
f 17//55 19//55 22//55 
f 17//56 22//56 24//56 
f 33//57 30//57 32//57 
f 14//58 16//58 17//58 
f 14//59 24//59 30//59 
f 14//60 17//60 24//60 
f 14//61 30//61 33//61 
f 3//62 33//62 36//62 
f 7//63 10//63 11//63 
f 7//64 11//64 14//64 
f 6//65 3//65 4//65 
f 6//66 14//66 33//66 
f 6//67 7//67 14//67 
f 6//68 33//68 3//68 
