# FreeCAD v0.20 build2 Arch module
# http://www.freecadweb.org
mtllib Podtacek-Test-objectMain-body.mtl
o Body
usemtl color_cccccc
v 0.0 -3.5 0.0
v -1.19707 -3.288924 0.0
v -1.19707 -3.288924 10.0
v 0.0 -3.5 10.0
v 1.19707 -3.288924 0.0
v 1.19707 -3.288924 10.0
v 2.249757 -2.681155 0.0
v 2.249757 -2.681155 10.0
v 3.031089 -1.75 10.0
v 3.031089 -1.75 0.0
v 3.446827 -0.607769 0.0
v 3.446827 -0.607769 10.0
v 3.446827 0.607769 0.0
v 3.446827 0.607769 10.0
v 3.031089 1.75 0.0
v 3.031089 1.75 10.0
v 2.249757 2.681155 10.0
v 2.249757 2.681155 0.0
v 1.19707 3.288924 0.0
v 1.19707 3.288924 10.0
v -0.0 3.5 0.0
v -0.0 3.5 10.0
v -1.19707 3.288924 0.0
v -1.19707 3.288924 10.0
v -1.19707 6.288924 10.0
v -1.19707 6.288924 0.0
v 8.80293 6.288924 0.0
v 8.80293 6.288924 10.0
v 8.80293 -6.288924 0.0
v 8.80293 -6.288924 10.0
v -1.19707 -6.288924 0.0
v -1.19707 -6.288924 10.0
vn 0.1736481487751007 0.9848077893257141 0.0
vn 0.1736481487751007 0.9848077893257141 -0.0
vn -0.1736481487751007 0.9848077893257141 0.0
vn -0.1736481487751007 0.9848077893257141 0.0
vn -0.5000000596046448 0.8660253286361694 0.0
vn -0.7660443782806396 0.6427876353263855 0.0
vn -0.5000000596046448 0.8660253286361694 0.0
vn -0.7660443782806396 0.6427876353263855 0.0
vn -0.9396926164627075 0.3420202136039734 0.0
vn -0.9396926164627075 0.3420202136039734 0.0
vn -1.0 0.0 0.0
vn -1.0 0.0 0.0
vn -0.9396926164627075 -0.3420202136039734 0.0
vn -0.7660443782806396 -0.6427876353263855 0.0
vn -0.9396926164627075 -0.3420202136039734 0.0
vn -0.7660443782806396 -0.6427876353263855 0.0
vn -0.5000000596046448 -0.8660253286361694 0.0
vn -0.5000000596046448 -0.8660253286361694 0.0
vn -0.1736481487751007 -0.9848077893257141 0.0
vn -0.1736481487751007 -0.9848077893257141 0.0
vn 0.1736481487751007 -0.9848077893257141 0.0
vn 0.1736481487751007 -0.9848077893257141 0.0
vn -1.0 0.0 0.0
vn -1.0 0.0 0.0
vn 0.0 1.0 0.0
vn 0.0 1.0 -0.0
vn 1.0 0.0 0.0
vn 1.0 0.0 0.0
vn 0.0 -1.0 0.0
vn 0.0 -1.0 0.0
vn -1.0 0.0 0.0
vn -1.0 -0.0 0.0
vn 0.0 0.0 -1.0
vn 0.0 -0.0 -1.0
vn 0.0 -0.0 -1.0
vn 0.0 -0.0 -1.0
vn 0.0 -0.0 -1.0
vn 0.0 0.0 -1.0
vn 0.0 0.0 -1.0
vn 0.0 0.0 -1.0
vn 0.0 0.0 -1.0
vn 0.0 0.0 -1.0
vn 0.0 0.0 -1.0
vn 0.0 0.0 -1.0
vn 0.0 0.0 -1.0
vn 0.0 0.0 -1.0
vn 0.0 0.0 1.0
vn 0.0 0.0 1.0
vn 0.0 0.0 1.0
vn 0.0 0.0 1.0
vn 0.0 0.0 1.0
vn 0.0 0.0 1.0
vn 0.0 0.0 1.0
vn 0.0 0.0 1.0
vn 0.0 0.0 1.0
vn 0.0 0.0 1.0
vn 0.0 0.0 1.0
vn 0.0 0.0 1.0
vn 0.0 0.0 1.0
vn 0.0 0.0 1.0
f 1//1 2//1 3//1 
f 1//2 3//2 4//2 
f 5//3 4//3 6//3 
f 5//4 1//4 4//4 
f 7//5 6//5 8//5 
f 7//6 8//6 9//6 
f 7//7 5//7 6//7 
f 10//8 7//8 9//8 
f 11//9 9//9 12//9 
f 11//10 10//10 9//10 
f 13//11 12//11 14//11 
f 13//12 11//12 12//12 
f 15//13 14//13 16//13 
f 15//14 16//14 17//14 
f 15//15 13//15 14//15 
f 18//16 15//16 17//16 
f 19//17 17//17 20//17 
f 19//18 18//18 17//18 
f 21//19 20//19 22//19 
f 21//20 19//20 20//20 
f 23//21 22//21 24//21 
f 23//22 21//22 22//22 
f 23//23 24//23 25//23 
f 26//24 23//24 25//24 
f 27//25 26//25 25//25 
f 27//26 25//26 28//26 
f 29//27 27//27 28//27 
f 29//28 28//28 30//28 
f 31//29 29//29 32//29 
f 32//30 29//30 30//30 
f 2//31 31//31 3//31 
f 3//32 31//32 32//32 
f 2//33 1//33 31//33 
f 1//34 5//34 31//34 
f 7//35 29//35 5//35 
f 10//36 29//36 7//36 
f 5//37 29//37 31//37 
f 10//38 11//38 29//38 
f 21//39 26//39 19//39 
f 23//40 26//40 21//40 
f 13//41 27//41 11//41 
f 15//42 27//42 13//42 
f 18//43 27//43 15//43 
f 19//44 27//44 18//44 
f 26//45 27//45 19//45 
f 11//46 27//46 29//46 
f 4//47 3//47 32//47 
f 6//48 4//48 32//48 
f 30//49 8//49 6//49 
f 30//50 9//50 8//50 
f 30//51 6//51 32//51 
f 12//52 9//52 30//52 
f 25//53 22//53 20//53 
f 25//54 24//54 22//54 
f 28//55 14//55 12//55 
f 28//56 16//56 14//56 
f 28//57 17//57 16//57 
f 28//58 20//58 17//58 
f 28//59 25//59 20//59 
f 28//60 12//60 30//60 
