solid Untitled-598b8ec0
facet normal 0.0 0.0 -1.0
  outer loop
    vertex 49.0395691136108 86.6769478547864 0.0
    vertex 49.0395691136108 84.60639549396625 0.0
    vertex 48.903272418767074 85.64167167437633 0.0
  endloop
endfacet
facet normal 0.0 0.0 -1.0
  outer loop
    vertex 49.0395691136108 84.60639549396625 0.0
    vertex 49.0395691136108 86.6769478547864 0.0
    vertex 49.439170803629324 87.64167167437633 0.0
  endloop
endfacet
facet normal 0.0 0.0 -1.0
  outer loop
    vertex 49.0395691136108 84.60639549396625 0.0
    vertex 49.439170803629324 87.64167167437633 0.0
    vertex 49.439170803629324 83.64167167437633 0.0
  endloop
endfacet
facet normal 0.0 0.0 -1.0
  outer loop
    vertex 49.439170803629324 83.64167167437633 0.0
    vertex 49.439170803629324 87.64167167437633 0.0
    vertex 50.07484529402089 88.47009879912252 0.0
  endloop
endfacet
facet normal 0.0 0.0 -1.0
  outer loop
    vertex 49.439170803629324 83.64167167437633 0.0
    vertex 50.07484529402089 88.47009879912252 0.0
    vertex 50.07484529402088 82.81324454963014 0.0
  endloop
endfacet
facet normal 0.0 0.0 -1.0
  outer loop
    vertex 50.07484529402088 82.81324454963014 0.0
    vertex 50.07484529402089 88.47009879912252 0.0
    vertex 50.903272418767074 82.17757005923856 0.0
  endloop
endfacet
facet normal 0.0 0.0 -1.0
  outer loop
    vertex 50.903272418767074 82.17757005923856 0.0
    vertex 50.07484529402089 88.47009879912252 0.0
    vertex 50.90327241876709 89.10577328951408 0.0
  endloop
endfacet
facet normal 0.0 0.0 -1.0
  outer loop
    vertex 50.903272418767074 82.17757005923856 0.0
    vertex 50.90327241876709 89.10577328951408 0.0
    vertex 51.86799623835699 81.77796836922005 0.0
  endloop
endfacet
facet normal 0.0 0.0 -1.0
  outer loop
    vertex 51.86799623835699 81.77796836922005 0.0
    vertex 50.90327241876709 89.10577328951408 0.0
    vertex 51.867996238357 89.5053749795326 0.0
  endloop
endfacet
facet normal 0.0 0.0 -1.0
  outer loop
    vertex 51.86799623835699 81.77796836922005 0.0
    vertex 51.867996238357 89.5053749795326 0.0
    vertex 52.90327241876708 81.64167167437633 0.0
  endloop
endfacet
facet normal 0.0 0.0 -1.0
  outer loop
    vertex 52.90327241876708 81.64167167437633 0.0
    vertex 51.867996238357 89.5053749795326 0.0
    vertex 52.90327241876708 89.64167167437633 0.0
  endloop
endfacet
facet normal 0.0 0.0 -1.0
  outer loop
    vertex 52.90327241876708 81.64167167437633 0.0
    vertex 52.90327241876708 89.64167167437633 0.0
    vertex 53.93854859917716 89.5053749795326 0.0
  endloop
endfacet
facet normal 0.0 0.0 -1.0
  outer loop
    vertex 52.90327241876708 81.64167167437633 0.0
    vertex 53.93854859917716 89.5053749795326 0.0
    vertex 53.93854859917716 81.77796836922005 0.0
  endloop
endfacet
facet normal 0.0 0.0 -1.0
  outer loop
    vertex 53.93854859917716 81.77796836922005 0.0
    vertex 53.93854859917716 89.5053749795326 0.0
    vertex 54.90327241876709 89.10577328951408 0.0
  endloop
endfacet
facet normal 0.0 0.0 -1.0
  outer loop
    vertex 53.93854859917716 81.77796836922005 0.0
    vertex 54.90327241876709 89.10577328951408 0.0
    vertex 54.90327241876708 82.17757005923856 0.0
  endloop
endfacet
facet normal 0.0 0.0 -1.0
  outer loop
    vertex 54.90327241876708 82.17757005923856 0.0
    vertex 54.90327241876709 89.10577328951408 0.0
    vertex 55.73169954351328 82.81324454963013 0.0
  endloop
endfacet
facet normal 0.0 0.0 -1.0
  outer loop
    vertex 55.73169954351328 82.81324454963013 0.0
    vertex 54.90327241876709 89.10577328951408 0.0
    vertex 55.73169954351328 88.47009879912252 0.0
  endloop
endfacet
facet normal 0.0 0.0 -1.0
  outer loop
    vertex 55.73169954351328 82.81324454963013 0.0
    vertex 55.73169954351328 88.47009879912252 0.0
    vertex 56.36737403390484 87.64167167437633 0.0
  endloop
endfacet
facet normal 0.0 0.0 -1.0
  outer loop
    vertex 55.73169954351328 82.81324454963013 0.0
    vertex 56.36737403390484 87.64167167437633 0.0
    vertex 56.36737403390484 83.64167167437631 0.0
  endloop
endfacet
facet normal 0.0 0.0 -1.0
  outer loop
    vertex 56.36737403390484 83.64167167437631 0.0
    vertex 56.36737403390484 87.64167167437633 0.0
    vertex 56.76697572392336 86.6769478547864 0.0
  endloop
endfacet
facet normal 0.0 0.0 -1.0
  outer loop
    vertex 56.36737403390484 83.64167167437631 0.0
    vertex 56.76697572392336 86.6769478547864 0.0
    vertex 56.76697572392336 84.60639549396623 0.0
  endloop
endfacet
facet normal 0.0 0.0 -1.0
  outer loop
    vertex 56.76697572392336 84.60639549396623 0.0
    vertex 56.76697572392336 86.6769478547864 0.0
    vertex 56.90327241876709 85.64167167437633 0.0
  endloop
endfacet
facet normal 0.0 0.0 1.0
  outer loop
    vertex 50.681643018302225 85.04638787064053 36.0
    vertex 50.681643018302225 86.23695547811212 36.0
    vertex 50.60327241876708 85.64167167437633 36.0
  endloop
endfacet
facet normal 0.0 0.0 1.0
  outer loop
    vertex 50.681643018302225 86.23695547811212 36.0
    vertex 50.681643018302225 85.04638787064053 36.0
    vertex 50.911413990062876 86.79167167437632 36.0
  endloop
endfacet
facet normal 0.0 0.0 1.0
  outer loop
    vertex 50.911413990062876 86.79167167437632 36.0
    vertex 50.681643018302225 85.04638787064053 36.0
    vertex 50.911413990062876 84.49167167437632 36.0
  endloop
endfacet
facet normal 0.0 0.0 1.0
  outer loop
    vertex 50.911413990062876 86.79167167437632 36.0
    vertex 50.911413990062876 84.49167167437632 36.0
    vertex 51.27692682203802 84.01532607764726 36.0
  endloop
endfacet
facet normal 0.0 0.0 1.0
  outer loop
    vertex 50.911413990062876 86.79167167437632 36.0
    vertex 51.27692682203802 84.01532607764726 36.0
    vertex 51.27692682203802 87.26801727110538 36.0
  endloop
endfacet
facet normal 0.0 0.0 1.0
  outer loop
    vertex 51.27692682203802 87.26801727110538 36.0
    vertex 51.27692682203802 84.01532607764726 36.0
    vertex 51.75327241876708 83.64981324567212 36.0
  endloop
endfacet
facet normal 0.0 0.0 1.0
  outer loop
    vertex 51.27692682203802 87.26801727110538 36.0
    vertex 51.75327241876708 83.64981324567212 36.0
    vertex 51.75327241876708 87.63353010308053 36.0
  endloop
endfacet
facet normal 0.0 0.0 1.0
  outer loop
    vertex 51.75327241876708 87.63353010308053 36.0
    vertex 51.75327241876708 83.64981324567212 36.0
    vertex 52.307988615031284 83.42004227391148 36.0
  endloop
endfacet
facet normal 0.0 0.0 1.0
  outer loop
    vertex 51.75327241876708 87.63353010308053 36.0
    vertex 52.307988615031284 83.42004227391148 36.0
    vertex 52.307988615031284 87.86330107484117 36.0
  endloop
endfacet
facet normal 0.0 0.0 1.0
  outer loop
    vertex 52.307988615031284 87.86330107484117 36.0
    vertex 52.307988615031284 83.42004227391148 36.0
    vertex 52.90327241876708 83.34167167437633 36.0
  endloop
endfacet
facet normal 0.0 0.0 1.0
  outer loop
    vertex 52.307988615031284 87.86330107484117 36.0
    vertex 52.90327241876708 83.34167167437633 36.0
    vertex 52.90327241876708 87.94167167437632 36.0
  endloop
endfacet
facet normal 0.0 0.0 1.0
  outer loop
    vertex 52.90327241876708 87.94167167437632 36.0
    vertex 52.90327241876708 83.34167167437633 36.0
    vertex 53.49855622250288 83.42004227391148 36.0
  endloop
endfacet
facet normal 0.0 0.0 1.0
  outer loop
    vertex 52.90327241876708 87.94167167437632 36.0
    vertex 53.49855622250288 83.42004227391148 36.0
    vertex 53.49855622250288 87.86330107484117 36.0
  endloop
endfacet
facet normal 0.0 0.0 1.0
  outer loop
    vertex 53.49855622250288 87.86330107484117 36.0
    vertex 53.49855622250288 83.42004227391148 36.0
    vertex 54.05327241876708 83.64981324567212 36.0
  endloop
endfacet
facet normal 0.0 0.0 1.0
  outer loop
    vertex 53.49855622250288 87.86330107484117 36.0
    vertex 54.05327241876708 83.64981324567212 36.0
    vertex 54.05327241876708 87.63353010308053 36.0
  endloop
endfacet
facet normal 0.0 0.0 1.0
  outer loop
    vertex 54.05327241876708 87.63353010308053 36.0
    vertex 54.05327241876708 83.64981324567212 36.0
    vertex 54.52961801549614 84.01532607764726 36.0
  endloop
endfacet
facet normal 0.0 0.0 1.0
  outer loop
    vertex 54.05327241876708 87.63353010308053 36.0
    vertex 54.52961801549614 84.01532607764726 36.0
    vertex 54.52961801549614 87.26801727110538 36.0
  endloop
endfacet
facet normal 0.0 0.0 1.0
  outer loop
    vertex 54.52961801549614 87.26801727110538 36.0
    vertex 54.52961801549614 84.01532607764726 36.0
    vertex 54.895130847471286 84.49167167437632 36.0
  endloop
endfacet
facet normal 0.0 0.0 1.0
  outer loop
    vertex 54.52961801549614 87.26801727110538 36.0
    vertex 54.895130847471286 84.49167167437632 36.0
    vertex 54.895130847471286 86.79167167437632 36.0
  endloop
endfacet
facet normal 0.0 0.0 1.0
  outer loop
    vertex 54.895130847471286 86.79167167437632 36.0
    vertex 54.895130847471286 84.49167167437632 36.0
    vertex 55.12490181923194 85.04638787064053 36.0
  endloop
endfacet
facet normal 0.0 0.0 1.0
  outer loop
    vertex 54.895130847471286 86.79167167437632 36.0
    vertex 55.12490181923194 85.04638787064053 36.0
    vertex 55.12490181923194 86.23695547811212 36.0
  endloop
endfacet
facet normal 0.0 0.0 1.0
  outer loop
    vertex 55.12490181923194 86.23695547811212 36.0
    vertex 55.12490181923194 85.04638787064053 36.0
    vertex 55.20327241876708 85.64167167437633 36.0
  endloop
endfacet
facet normal -0.6087614290087248 -0.7933533402912322 -0.0
  outer loop
    vertex 50.903272418767074 82.17757005923856 3.0
    vertex 50.07484529402088 82.81324454963014 0.0
    vertex 50.903272418767074 82.17757005923856 0.0
  endloop
endfacet
facet normal -0.6087614290087248 -0.7933533402912322 -0.0
  outer loop
    vertex 50.07484529402088 82.81324454963014 0.0
    vertex 50.903272418767074 82.17757005923856 3.0
    vertex 50.07484529402088 82.81324454963014 3.0
  endloop
endfacet
facet normal -0.7933533402912347 0.6087614290087213 0.0
  outer loop
    vertex 50.07484529402089 88.47009879912252 3.0
    vertex 49.439170803629324 87.64167167437633 0.0
    vertex 49.439170803629324 87.64167167437633 3.0
  endloop
endfacet
facet normal -0.7933533402912347 0.6087614290087213 0.0
  outer loop
    vertex 49.439170803629324 87.64167167437633 0.0
    vertex 50.07484529402089 88.47009879912252 3.0
    vertex 50.07484529402089 88.47009879912252 0.0
  endloop
endfacet
facet normal -0.3826834323650913 0.9238795325112861 0.0
  outer loop
    vertex 50.90327241876709 89.10577328951408 3.0
    vertex 51.867996238357 89.5053749795326 0.0
    vertex 50.90327241876709 89.10577328951408 0.0
  endloop
endfacet
facet normal -0.3826834323650913 0.9238795325112861 0.0
  outer loop
    vertex 51.867996238357 89.5053749795326 0.0
    vertex 50.90327241876709 89.10577328951408 3.0
    vertex 51.867996238357 89.5053749795326 3.0
  endloop
endfacet
facet normal 0.0 0.0 1.0
  outer loop
    vertex 49.0395691136108 84.60639549396625 3.0
    vertex 49.0395691136108 86.6769478547864 3.0
    vertex 48.903272418767074 85.64167167437633 3.0
  endloop
endfacet
facet normal 0.0 0.0 1.0
  outer loop
    vertex 49.0395691136108 86.6769478547864 3.0
    vertex 49.0395691136108 84.60639549396625 3.0
    vertex 49.439170803629324 83.64167167437633 3.0
  endloop
endfacet
facet normal 0.0 0.0 1.0
  outer loop
    vertex 49.0395691136108 86.6769478547864 3.0
    vertex 49.439170803629324 83.64167167437633 3.0
    vertex 49.439170803629324 87.64167167437633 3.0
  endloop
endfacet
facet normal 0.0 0.0 1.0
  outer loop
    vertex 49.439170803629324 87.64167167437633 3.0
    vertex 49.439170803629324 83.64167167437633 3.0
    vertex 50.07484529402088 82.81324454963014 3.0
  endloop
endfacet
facet normal 0.0 0.0 1.0
  outer loop
    vertex 49.439170803629324 87.64167167437633 3.0
    vertex 50.07484529402088 82.81324454963014 3.0
    vertex 50.07484529402089 88.47009879912252 3.0
  endloop
endfacet
facet normal 0.0 0.0 1.0
  outer loop
    vertex 50.07484529402089 88.47009879912252 3.0
    vertex 50.07484529402088 82.81324454963014 3.0
    vertex 50.903272418767074 82.17757005923856 3.0
  endloop
endfacet
facet normal 0.0 0.0 1.0
  outer loop
    vertex 50.07484529402089 88.47009879912252 3.0
    vertex 50.903272418767074 82.17757005923856 3.0
    vertex 50.60327241876708 85.64167167437633 3.0
  endloop
endfacet
facet normal 0.0 0.0 1.0
  outer loop
    vertex 50.60327241876708 85.64167167437633 3.0
    vertex 50.903272418767074 82.17757005923856 3.0
    vertex 50.681643018302225 85.04638787064053 3.0
  endloop
endfacet
facet normal 0.0 0.0 1.0
  outer loop
    vertex 50.681643018302225 85.04638787064053 3.0
    vertex 50.903272418767074 82.17757005923856 3.0
    vertex 50.911413990062876 84.49167167437632 3.0
  endloop
endfacet
facet normal 0.0 0.0 1.0
  outer loop
    vertex 50.911413990062876 84.49167167437632 3.0
    vertex 50.903272418767074 82.17757005923856 3.0
    vertex 51.86799623835699 81.77796836922005 3.0
  endloop
endfacet
facet normal 0.0 0.0 1.0
  outer loop
    vertex 50.911413990062876 84.49167167437632 3.0
    vertex 51.86799623835699 81.77796836922005 3.0
    vertex 51.27692682203802 84.01532607764726 3.0
  endloop
endfacet
facet normal 0.0 0.0 1.0
  outer loop
    vertex 51.27692682203802 84.01532607764726 3.0
    vertex 51.86799623835699 81.77796836922005 3.0
    vertex 51.75327241876708 83.64981324567212 3.0
  endloop
endfacet
facet normal 0.0 0.0 1.0
  outer loop
    vertex 51.75327241876708 83.64981324567212 3.0
    vertex 51.86799623835699 81.77796836922005 3.0
    vertex 52.307988615031284 83.42004227391148 3.0
  endloop
endfacet
facet normal 0.0 0.0 1.0
  outer loop
    vertex 52.307988615031284 83.42004227391148 3.0
    vertex 51.86799623835699 81.77796836922005 3.0
    vertex 52.90327241876708 81.64167167437633 3.0
  endloop
endfacet
facet normal 0.0 0.0 1.0
  outer loop
    vertex 52.307988615031284 83.42004227391148 3.0
    vertex 52.90327241876708 81.64167167437633 3.0
    vertex 52.90327241876708 83.34167167437633 3.0
  endloop
endfacet
facet normal 0.0 0.0 1.0
  outer loop
    vertex 52.90327241876708 83.34167167437633 3.0
    vertex 52.90327241876708 81.64167167437633 3.0
    vertex 53.93854859917716 81.77796836922005 3.0
  endloop
endfacet
facet normal 0.0 0.0 1.0
  outer loop
    vertex 52.90327241876708 83.34167167437633 3.0
    vertex 53.93854859917716 81.77796836922005 3.0
    vertex 53.49855622250288 83.42004227391148 3.0
  endloop
endfacet
facet normal 0.0 0.0 1.0
  outer loop
    vertex 53.49855622250288 83.42004227391148 3.0
    vertex 53.93854859917716 81.77796836922005 3.0
    vertex 54.05327241876708 83.64981324567212 3.0
  endloop
endfacet
facet normal 0.0 0.0 1.0
  outer loop
    vertex 54.05327241876708 83.64981324567212 3.0
    vertex 53.93854859917716 81.77796836922005 3.0
    vertex 54.90327241876708 82.17757005923856 3.0
  endloop
endfacet
facet normal 0.0 0.0 1.0
  outer loop
    vertex 54.05327241876708 83.64981324567212 3.0
    vertex 54.90327241876708 82.17757005923856 3.0
    vertex 54.52961801549614 84.01532607764726 3.0
  endloop
endfacet
facet normal 0.0 0.0 1.0
  outer loop
    vertex 54.52961801549614 84.01532607764726 3.0
    vertex 54.90327241876708 82.17757005923856 3.0
    vertex 54.895130847471286 84.49167167437632 3.0
  endloop
endfacet
facet normal 0.0 0.0 1.0
  outer loop
    vertex 54.895130847471286 84.49167167437632 3.0
    vertex 54.90327241876708 82.17757005923856 3.0
    vertex 55.12490181923194 85.04638787064053 3.0
  endloop
endfacet
facet normal 0.0 0.0 1.0
  outer loop
    vertex 55.12490181923194 85.04638787064053 3.0
    vertex 54.90327241876708 82.17757005923856 3.0
    vertex 55.73169954351328 82.81324454963013 3.0
  endloop
endfacet
facet normal 0.0 0.0 1.0
  outer loop
    vertex 55.12490181923194 85.04638787064053 3.0
    vertex 55.73169954351328 82.81324454963013 3.0
    vertex 55.20327241876708 85.64167167437633 3.0
  endloop
endfacet
facet normal 0.0 0.0 1.0
  outer loop
    vertex 50.60327241876708 85.64167167437633 3.0
    vertex 50.90327241876709 89.10577328951408 3.0
    vertex 50.07484529402089 88.47009879912252 3.0
  endloop
endfacet
facet normal 0.0 0.0 1.0
  outer loop
    vertex 50.90327241876709 89.10577328951408 3.0
    vertex 50.60327241876708 85.64167167437633 3.0
    vertex 50.681643018302225 86.23695547811212 3.0
  endloop
endfacet
facet normal 0.0 0.0 1.0
  outer loop
    vertex 50.90327241876709 89.10577328951408 3.0
    vertex 50.681643018302225 86.23695547811212 3.0
    vertex 50.911413990062876 86.79167167437632 3.0
  endloop
endfacet
facet normal 0.0 0.0 1.0
  outer loop
    vertex 50.90327241876709 89.10577328951408 3.0
    vertex 50.911413990062876 86.79167167437632 3.0
    vertex 51.867996238357 89.5053749795326 3.0
  endloop
endfacet
facet normal 0.0 0.0 1.0
  outer loop
    vertex 51.867996238357 89.5053749795326 3.0
    vertex 50.911413990062876 86.79167167437632 3.0
    vertex 51.27692682203802 87.26801727110538 3.0
  endloop
endfacet
facet normal 0.0 0.0 1.0
  outer loop
    vertex 51.867996238357 89.5053749795326 3.0
    vertex 51.27692682203802 87.26801727110538 3.0
    vertex 51.75327241876708 87.63353010308053 3.0
  endloop
endfacet
facet normal 0.0 0.0 1.0
  outer loop
    vertex 51.867996238357 89.5053749795326 3.0
    vertex 51.75327241876708 87.63353010308053 3.0
    vertex 52.307988615031284 87.86330107484117 3.0
  endloop
endfacet
facet normal 0.0 0.0 1.0
  outer loop
    vertex 51.867996238357 89.5053749795326 3.0
    vertex 52.307988615031284 87.86330107484117 3.0
    vertex 52.90327241876708 89.64167167437633 3.0
  endloop
endfacet
facet normal 0.0 0.0 1.0
  outer loop
    vertex 52.90327241876708 89.64167167437633 3.0
    vertex 52.307988615031284 87.86330107484117 3.0
    vertex 52.90327241876708 87.94167167437632 3.0
  endloop
endfacet
facet normal 0.0 0.0 1.0
  outer loop
    vertex 52.90327241876708 89.64167167437633 3.0
    vertex 52.90327241876708 87.94167167437632 3.0
    vertex 53.49855622250288 87.86330107484117 3.0
  endloop
endfacet
facet normal 0.0 0.0 1.0
  outer loop
    vertex 52.90327241876708 89.64167167437633 3.0
    vertex 53.49855622250288 87.86330107484117 3.0
    vertex 53.93854859917716 89.5053749795326 3.0
  endloop
endfacet
facet normal 0.0 0.0 1.0
  outer loop
    vertex 53.93854859917716 89.5053749795326 3.0
    vertex 53.49855622250288 87.86330107484117 3.0
    vertex 54.05327241876708 87.63353010308053 3.0
  endloop
endfacet
facet normal 0.0 0.0 1.0
  outer loop
    vertex 53.93854859917716 89.5053749795326 3.0
    vertex 54.05327241876708 87.63353010308053 3.0
    vertex 54.90327241876709 89.10577328951408 3.0
  endloop
endfacet
facet normal 0.0 0.0 1.0
  outer loop
    vertex 54.90327241876709 89.10577328951408 3.0
    vertex 54.05327241876708 87.63353010308053 3.0
    vertex 54.52961801549614 87.26801727110538 3.0
  endloop
endfacet
facet normal 0.0 0.0 1.0
  outer loop
    vertex 54.90327241876709 89.10577328951408 3.0
    vertex 54.52961801549614 87.26801727110538 3.0
    vertex 54.895130847471286 86.79167167437632 3.0
  endloop
endfacet
facet normal 0.0 0.0 1.0
  outer loop
    vertex 54.90327241876709 89.10577328951408 3.0
    vertex 54.895130847471286 86.79167167437632 3.0
    vertex 55.12490181923194 86.23695547811212 3.0
  endloop
endfacet
facet normal 0.0 0.0 1.0
  outer loop
    vertex 54.90327241876709 89.10577328951408 3.0
    vertex 55.12490181923194 86.23695547811212 3.0
    vertex 55.73169954351328 88.47009879912252 3.0
  endloop
endfacet
facet normal 0.0 0.0 1.0
  outer loop
    vertex 55.73169954351328 88.47009879912252 3.0
    vertex 55.12490181923194 86.23695547811212 3.0
    vertex 55.20327241876708 85.64167167437633 3.0
  endloop
endfacet
facet normal 0.0 0.0 1.0
  outer loop
    vertex 55.73169954351328 88.47009879912252 3.0
    vertex 55.20327241876708 85.64167167437633 3.0
    vertex 55.73169954351328 82.81324454963013 3.0
  endloop
endfacet
facet normal 0.0 0.0 1.0
  outer loop
    vertex 55.73169954351328 88.47009879912252 3.0
    vertex 55.73169954351328 82.81324454963013 3.0
    vertex 56.36737403390484 83.64167167437631 3.0
  endloop
endfacet
facet normal 0.0 0.0 1.0
  outer loop
    vertex 55.73169954351328 88.47009879912252 3.0
    vertex 56.36737403390484 83.64167167437631 3.0
    vertex 56.36737403390484 87.64167167437633 3.0
  endloop
endfacet
facet normal 0.0 0.0 1.0
  outer loop
    vertex 56.36737403390484 87.64167167437633 3.0
    vertex 56.36737403390484 83.64167167437631 3.0
    vertex 56.76697572392336 84.60639549396623 3.0
  endloop
endfacet
facet normal 0.0 0.0 1.0
  outer loop
    vertex 56.36737403390484 87.64167167437633 3.0
    vertex 56.76697572392336 84.60639549396623 3.0
    vertex 56.76697572392336 86.6769478547864 3.0
  endloop
endfacet
facet normal 0.0 0.0 1.0
  outer loop
    vertex 56.76697572392336 86.6769478547864 3.0
    vertex 56.76697572392336 84.60639549396623 3.0
    vertex 56.90327241876709 85.64167167437633 3.0
  endloop
endfacet
facet normal -0.13052619222005216 0.9914448613738104 0.0
  outer loop
    vertex 51.867996238357 89.5053749795326 3.0
    vertex 52.90327241876708 89.64167167437633 0.0
    vertex 51.867996238357 89.5053749795326 0.0
  endloop
endfacet
facet normal -0.13052619222005216 0.9914448613738104 0.0
  outer loop
    vertex 52.90327241876708 89.64167167437633 0.0
    vertex 51.867996238357 89.5053749795326 3.0
    vertex 52.90327241876708 89.64167167437633 3.0
  endloop
endfacet
facet normal 0.38268343236508756 0.9238795325112878 0.0
  outer loop
    vertex 53.93854859917716 89.5053749795326 3.0
    vertex 54.90327241876709 89.10577328951408 0.0
    vertex 53.93854859917716 89.5053749795326 0.0
  endloop
endfacet
facet normal 0.38268343236508756 0.9238795325112878 0.0
  outer loop
    vertex 54.90327241876709 89.10577328951408 0.0
    vertex 53.93854859917716 89.5053749795326 3.0
    vertex 54.90327241876709 89.10577328951408 3.0
  endloop
endfacet
facet normal 0.3826834323650913 -0.9238795325112861 0.0
  outer loop
    vertex 54.90327241876708 82.17757005923856 3.0
    vertex 53.93854859917716 81.77796836922005 0.0
    vertex 54.90327241876708 82.17757005923856 0.0
  endloop
endfacet
facet normal 0.3826834323650913 -0.9238795325112861 0.0
  outer loop
    vertex 53.93854859917716 81.77796836922005 0.0
    vertex 54.90327241876708 82.17757005923856 3.0
    vertex 53.93854859917716 81.77796836922005 3.0
  endloop
endfacet
facet normal -0.13052619222005077 -0.9914448613738106 -0.0
  outer loop
    vertex 52.90327241876708 81.64167167437633 3.0
    vertex 51.86799623835699 81.77796836922005 0.0
    vertex 52.90327241876708 81.64167167437633 0.0
  endloop
endfacet
facet normal -0.13052619222005077 -0.9914448613738106 -0.0
  outer loop
    vertex 51.86799623835699 81.77796836922005 0.0
    vertex 52.90327241876708 81.64167167437633 3.0
    vertex 51.86799623835699 81.77796836922005 3.0
  endloop
endfacet
facet normal 0.9914448613738104 0.13052619222005216 0.0
  outer loop
    vertex 56.76697572392336 86.6769478547864 0.0
    vertex 56.90327241876709 85.64167167437633 3.0
    vertex 56.90327241876709 85.64167167437633 0.0
  endloop
endfacet
facet normal 0.9914448613738104 0.13052619222005216 0.0
  outer loop
    vertex 56.90327241876709 85.64167167437633 3.0
    vertex 56.76697572392336 86.6769478547864 0.0
    vertex 56.76697572392336 86.6769478547864 3.0
  endloop
endfacet
facet normal -0.6087614290087153 0.7933533402912393 0.0
  outer loop
    vertex 50.07484529402089 88.47009879912252 3.0
    vertex 50.90327241876709 89.10577328951408 0.0
    vertex 50.07484529402089 88.47009879912252 0.0
  endloop
endfacet
facet normal -0.6087614290087153 0.7933533402912393 0.0
  outer loop
    vertex 50.90327241876709 89.10577328951408 0.0
    vertex 50.07484529402089 88.47009879912252 3.0
    vertex 50.90327241876709 89.10577328951408 3.0
  endloop
endfacet
facet normal 0.7933533402912374 -0.608761429008718 0.0
  outer loop
    vertex 56.36737403390484 83.64167167437631 0.0
    vertex 55.73169954351328 82.81324454963013 3.0
    vertex 55.73169954351328 82.81324454963013 0.0
  endloop
endfacet
facet normal 0.7933533402912374 -0.608761429008718 0.0
  outer loop
    vertex 55.73169954351328 82.81324454963013 3.0
    vertex 56.36737403390484 83.64167167437631 0.0
    vertex 56.36737403390484 83.64167167437631 3.0
  endloop
endfacet
facet normal -0.3826834323650913 -0.9238795325112861 -0.0
  outer loop
    vertex 51.86799623835699 81.77796836922005 3.0
    vertex 50.903272418767074 82.17757005923856 0.0
    vertex 51.86799623835699 81.77796836922005 0.0
  endloop
endfacet
facet normal -0.3826834323650913 -0.9238795325112861 -0.0
  outer loop
    vertex 50.903272418767074 82.17757005923856 0.0
    vertex 51.86799623835699 81.77796836922005 3.0
    vertex 50.903272418767074 82.17757005923856 3.0
  endloop
endfacet
facet normal 0.9238795325112861 -0.3826834323650913 0.0
  outer loop
    vertex 56.76697572392336 84.60639549396623 0.0
    vertex 56.36737403390484 83.64167167437631 3.0
    vertex 56.36737403390484 83.64167167437631 0.0
  endloop
endfacet
facet normal 0.9238795325112861 -0.3826834323650913 0.0
  outer loop
    vertex 56.36737403390484 83.64167167437631 3.0
    vertex 56.76697572392336 84.60639549396623 0.0
    vertex 56.76697572392336 84.60639549396623 3.0
  endloop
endfacet
facet normal 0.13052619222005216 0.9914448613738104 0.0
  outer loop
    vertex 52.90327241876708 89.64167167437633 3.0
    vertex 53.93854859917716 89.5053749795326 0.0
    vertex 52.90327241876708 89.64167167437633 0.0
  endloop
endfacet
facet normal 0.13052619222005216 0.9914448613738104 0.0
  outer loop
    vertex 53.93854859917716 89.5053749795326 0.0
    vertex 52.90327241876708 89.64167167437633 3.0
    vertex 53.93854859917716 89.5053749795326 3.0
  endloop
endfacet
facet normal 0.7933533402912413 0.6087614290087128 0.0
  outer loop
    vertex 55.73169954351328 88.47009879912252 0.0
    vertex 56.36737403390484 87.64167167437633 3.0
    vertex 56.36737403390484 87.64167167437633 0.0
  endloop
endfacet
facet normal 0.7933533402912413 0.6087614290087128 0.0
  outer loop
    vertex 56.36737403390484 87.64167167437633 3.0
    vertex 55.73169954351328 88.47009879912252 0.0
    vertex 55.73169954351328 88.47009879912252 3.0
  endloop
endfacet
facet normal 0.9238795325112861 0.3826834323650913 0.0
  outer loop
    vertex 56.36737403390484 87.64167167437633 0.0
    vertex 56.76697572392336 86.6769478547864 3.0
    vertex 56.76697572392336 86.6769478547864 0.0
  endloop
endfacet
facet normal 0.9238795325112861 0.3826834323650913 0.0
  outer loop
    vertex 56.76697572392336 86.6769478547864 3.0
    vertex 56.36737403390484 87.64167167437633 0.0
    vertex 56.36737403390484 87.64167167437633 3.0
  endloop
endfacet
facet normal 0.9914448613738106 -0.13052619222005077 0.0
  outer loop
    vertex 56.90327241876709 85.64167167437633 0.0
    vertex 56.76697572392336 84.60639549396623 3.0
    vertex 56.76697572392336 84.60639549396623 0.0
  endloop
endfacet
facet normal 0.9914448613738106 -0.13052619222005077 0.0
  outer loop
    vertex 56.76697572392336 84.60639549396623 3.0
    vertex 56.90327241876709 85.64167167437633 0.0
    vertex 56.90327241876709 85.64167167437633 3.0
  endloop
endfacet
facet normal 0.13052619222005216 -0.9914448613738104 0.0
  outer loop
    vertex 53.93854859917716 81.77796836922005 3.0
    vertex 52.90327241876708 81.64167167437633 0.0
    vertex 53.93854859917716 81.77796836922005 0.0
  endloop
endfacet
facet normal 0.13052619222005216 -0.9914448613738104 0.0
  outer loop
    vertex 52.90327241876708 81.64167167437633 0.0
    vertex 53.93854859917716 81.77796836922005 3.0
    vertex 52.90327241876708 81.64167167437633 3.0
  endloop
endfacet
facet normal 0.6087614290087128 -0.7933533402912413 0.0
  outer loop
    vertex 55.73169954351328 82.81324454963013 3.0
    vertex 54.90327241876708 82.17757005923856 0.0
    vertex 55.73169954351328 82.81324454963013 0.0
  endloop
endfacet
facet normal 0.6087614290087128 -0.7933533402912413 0.0
  outer loop
    vertex 54.90327241876708 82.17757005923856 0.0
    vertex 55.73169954351328 82.81324454963013 3.0
    vertex 54.90327241876708 82.17757005923856 3.0
  endloop
endfacet
facet normal 0.608761429008718 0.7933533402912374 0.0
  outer loop
    vertex 54.90327241876709 89.10577328951408 3.0
    vertex 55.73169954351328 88.47009879912252 0.0
    vertex 54.90327241876709 89.10577328951408 0.0
  endloop
endfacet
facet normal 0.608761429008718 0.7933533402912374 0.0
  outer loop
    vertex 55.73169954351328 88.47009879912252 0.0
    vertex 54.90327241876709 89.10577328951408 3.0
    vertex 55.73169954351328 88.47009879912252 3.0
  endloop
endfacet
facet normal -0.9238795325112878 0.38268343236508756 0.0
  outer loop
    vertex 49.439170803629324 87.64167167437633 3.0
    vertex 49.0395691136108 86.6769478547864 0.0
    vertex 49.0395691136108 86.6769478547864 3.0
  endloop
endfacet
facet normal -0.9238795325112878 0.38268343236508756 0.0
  outer loop
    vertex 49.0395691136108 86.6769478547864 0.0
    vertex 49.439170803629324 87.64167167437633 3.0
    vertex 49.439170803629324 87.64167167437633 0.0
  endloop
endfacet
facet normal 0.13052619222005152 0.9914448613738104 0.0
  outer loop
    vertex 52.90327241876708 87.94167167437632 36.0
    vertex 53.49855622250288 87.86330107484117 3.0
    vertex 52.90327241876708 87.94167167437632 3.0
  endloop
endfacet
facet normal 0.13052619222005152 0.9914448613738104 0.0
  outer loop
    vertex 53.49855622250288 87.86330107484117 3.0
    vertex 52.90327241876708 87.94167167437632 36.0
    vertex 53.49855622250288 87.86330107484117 36.0
  endloop
endfacet
facet normal -0.9914448613738104 -0.13052619222005216 -0.0
  outer loop
    vertex 48.903272418767074 85.64167167437633 3.0
    vertex 49.0395691136108 84.60639549396625 0.0
    vertex 49.0395691136108 84.60639549396625 3.0
  endloop
endfacet
facet normal -0.9914448613738104 -0.13052619222005216 -0.0
  outer loop
    vertex 49.0395691136108 84.60639549396625 0.0
    vertex 48.903272418767074 85.64167167437633 3.0
    vertex 48.903272418767074 85.64167167437633 0.0
  endloop
endfacet
facet normal 0.9914448613738104 0.13052619222005152 0.0
  outer loop
    vertex 55.12490181923194 86.23695547811212 3.0
    vertex 55.20327241876708 85.64167167437633 36.0
    vertex 55.20327241876708 85.64167167437633 3.0
  endloop
endfacet
facet normal 0.9914448613738104 0.13052619222005152 0.0
  outer loop
    vertex 55.20327241876708 85.64167167437633 36.0
    vertex 55.12490181923194 86.23695547811212 3.0
    vertex 55.12490181923194 86.23695547811212 36.0
  endloop
endfacet
facet normal 0.9238795325112864 0.3826834323650909 0.0
  outer loop
    vertex 54.895130847471286 86.79167167437632 3.0
    vertex 55.12490181923194 86.23695547811212 36.0
    vertex 55.12490181923194 86.23695547811212 3.0
  endloop
endfacet
facet normal 0.9238795325112864 0.3826834323650909 0.0
  outer loop
    vertex 55.12490181923194 86.23695547811212 36.0
    vertex 54.895130847471286 86.79167167437632 3.0
    vertex 54.895130847471286 86.79167167437632 36.0
  endloop
endfacet
facet normal 0.6087614290087145 0.7933533402912399 0.0
  outer loop
    vertex 54.05327241876708 87.63353010308053 36.0
    vertex 54.52961801549614 87.26801727110538 3.0
    vertex 54.05327241876708 87.63353010308053 3.0
  endloop
endfacet
facet normal 0.6087614290087145 0.7933533402912399 0.0
  outer loop
    vertex 54.52961801549614 87.26801727110538 3.0
    vertex 54.05327241876708 87.63353010308053 36.0
    vertex 54.52961801549614 87.26801727110538 36.0
  endloop
endfacet
facet normal 0.3826834323650909 0.9238795325112864 0.0
  outer loop
    vertex 53.49855622250288 87.86330107484117 36.0
    vertex 54.05327241876708 87.63353010308053 3.0
    vertex 53.49855622250288 87.86330107484117 3.0
  endloop
endfacet
facet normal 0.3826834323650909 0.9238795325112864 0.0
  outer loop
    vertex 54.05327241876708 87.63353010308053 3.0
    vertex 53.49855622250288 87.86330107484117 36.0
    vertex 54.05327241876708 87.63353010308053 36.0
  endloop
endfacet
facet normal -0.9238795325112861 -0.3826834323650913 -0.0
  outer loop
    vertex 49.0395691136108 84.60639549396625 3.0
    vertex 49.439170803629324 83.64167167437633 0.0
    vertex 49.439170803629324 83.64167167437633 3.0
  endloop
endfacet
facet normal -0.9238795325112861 -0.3826834323650913 -0.0
  outer loop
    vertex 49.439170803629324 83.64167167437633 0.0
    vertex 49.0395691136108 84.60639549396625 3.0
    vertex 49.0395691136108 84.60639549396625 0.0
  endloop
endfacet
facet normal -0.13052619222005152 0.9914448613738104 0.0
  outer loop
    vertex 52.307988615031284 87.86330107484117 36.0
    vertex 52.90327241876708 87.94167167437632 3.0
    vertex 52.307988615031284 87.86330107484117 3.0
  endloop
endfacet
facet normal -0.13052619222005152 0.9914448613738104 0.0
  outer loop
    vertex 52.90327241876708 87.94167167437632 3.0
    vertex 52.307988615031284 87.86330107484117 36.0
    vertex 52.90327241876708 87.94167167437632 36.0
  endloop
endfacet
facet normal 0.7933533402912399 0.6087614290087145 0.0
  outer loop
    vertex 54.52961801549614 87.26801727110538 3.0
    vertex 54.895130847471286 86.79167167437632 36.0
    vertex 54.895130847471286 86.79167167437632 3.0
  endloop
endfacet
facet normal 0.7933533402912399 0.6087614290087145 0.0
  outer loop
    vertex 54.895130847471286 86.79167167437632 36.0
    vertex 54.52961801549614 87.26801727110538 3.0
    vertex 54.52961801549614 87.26801727110538 36.0
  endloop
endfacet
facet normal 0.9914448613738104 -0.13052619222005152 0.0
  outer loop
    vertex 55.20327241876708 85.64167167437633 3.0
    vertex 55.12490181923194 85.04638787064053 36.0
    vertex 55.12490181923194 85.04638787064053 3.0
  endloop
endfacet
facet normal 0.9914448613738104 -0.13052619222005152 0.0
  outer loop
    vertex 55.12490181923194 85.04638787064053 36.0
    vertex 55.20327241876708 85.64167167437633 3.0
    vertex 55.20327241876708 85.64167167437633 36.0
  endloop
endfacet
facet normal -0.7933533402912374 -0.608761429008718 -0.0
  outer loop
    vertex 49.439170803629324 83.64167167437633 3.0
    vertex 50.07484529402088 82.81324454963014 0.0
    vertex 50.07484529402088 82.81324454963014 3.0
  endloop
endfacet
facet normal -0.7933533402912374 -0.608761429008718 -0.0
  outer loop
    vertex 50.07484529402088 82.81324454963014 0.0
    vertex 49.439170803629324 83.64167167437633 3.0
    vertex 49.439170803629324 83.64167167437633 0.0
  endloop
endfacet
facet normal -0.9914448613738104 0.13052619222005216 0.0
  outer loop
    vertex 49.0395691136108 86.6769478547864 3.0
    vertex 48.903272418767074 85.64167167437633 0.0
    vertex 48.903272418767074 85.64167167437633 3.0
  endloop
endfacet
facet normal -0.9914448613738104 0.13052619222005216 0.0
  outer loop
    vertex 48.903272418767074 85.64167167437633 0.0
    vertex 49.0395691136108 86.6769478547864 3.0
    vertex 49.0395691136108 86.6769478547864 0.0
  endloop
endfacet
facet normal 0.7933533402912399 -0.6087614290087145 0.0
  outer loop
    vertex 54.895130847471286 84.49167167437632 3.0
    vertex 54.52961801549614 84.01532607764726 36.0
    vertex 54.52961801549614 84.01532607764726 3.0
  endloop
endfacet
facet normal 0.7933533402912399 -0.6087614290087145 0.0
  outer loop
    vertex 54.52961801549614 84.01532607764726 36.0
    vertex 54.895130847471286 84.49167167437632 3.0
    vertex 54.895130847471286 84.49167167437632 36.0
  endloop
endfacet
facet normal 0.9238795325112864 -0.3826834323650909 0.0
  outer loop
    vertex 55.12490181923194 85.04638787064053 3.0
    vertex 54.895130847471286 84.49167167437632 36.0
    vertex 54.895130847471286 84.49167167437632 3.0
  endloop
endfacet
facet normal 0.9238795325112864 -0.3826834323650909 0.0
  outer loop
    vertex 54.895130847471286 84.49167167437632 36.0
    vertex 55.12490181923194 85.04638787064053 3.0
    vertex 55.12490181923194 85.04638787064053 36.0
  endloop
endfacet
facet normal -0.9914448613738093 -0.13052619222006076 -0.0
  outer loop
    vertex 50.60327241876708 85.64167167437633 36.0
    vertex 50.681643018302225 85.04638787064053 3.0
    vertex 50.681643018302225 85.04638787064053 36.0
  endloop
endfacet
facet normal -0.9914448613738093 -0.13052619222006076 -0.0
  outer loop
    vertex 50.681643018302225 85.04638787064053 3.0
    vertex 50.60327241876708 85.64167167437633 36.0
    vertex 50.60327241876708 85.64167167437633 3.0
  endloop
endfacet
facet normal 0.13052619222005152 -0.9914448613738104 0.0
  outer loop
    vertex 53.49855622250288 83.42004227391148 36.0
    vertex 52.90327241876708 83.34167167437633 3.0
    vertex 53.49855622250288 83.42004227391148 3.0
  endloop
endfacet
facet normal 0.13052619222005152 -0.9914448613738104 0.0
  outer loop
    vertex 52.90327241876708 83.34167167437633 3.0
    vertex 53.49855622250288 83.42004227391148 36.0
    vertex 52.90327241876708 83.34167167437633 36.0
  endloop
endfacet
facet normal -0.3826834323650909 0.9238795325112864 0.0
  outer loop
    vertex 51.75327241876708 87.63353010308053 36.0
    vertex 52.307988615031284 87.86330107484117 3.0
    vertex 51.75327241876708 87.63353010308053 3.0
  endloop
endfacet
facet normal -0.3826834323650909 0.9238795325112864 0.0
  outer loop
    vertex 52.307988615031284 87.86330107484117 3.0
    vertex 51.75327241876708 87.63353010308053 36.0
    vertex 52.307988615031284 87.86330107484117 36.0
  endloop
endfacet
facet normal -0.6087614290087145 -0.7933533402912399 -0.0
  outer loop
    vertex 51.75327241876708 83.64981324567212 36.0
    vertex 51.27692682203802 84.01532607764726 3.0
    vertex 51.75327241876708 83.64981324567212 3.0
  endloop
endfacet
facet normal -0.6087614290087145 -0.7933533402912399 -0.0
  outer loop
    vertex 51.27692682203802 84.01532607764726 3.0
    vertex 51.75327241876708 83.64981324567212 36.0
    vertex 51.27692682203802 84.01532607764726 36.0
  endloop
endfacet
facet normal -0.9238795325112864 -0.3826834323650909 -0.0
  outer loop
    vertex 50.681643018302225 85.04638787064053 36.0
    vertex 50.911413990062876 84.49167167437632 3.0
    vertex 50.911413990062876 84.49167167437632 36.0
  endloop
endfacet
facet normal -0.9238795325112864 -0.3826834323650909 -0.0
  outer loop
    vertex 50.911413990062876 84.49167167437632 3.0
    vertex 50.681643018302225 85.04638787064053 36.0
    vertex 50.681643018302225 85.04638787064053 3.0
  endloop
endfacet
facet normal -0.923879532511283 0.3826834323650989 0.0
  outer loop
    vertex 50.911413990062876 86.79167167437632 36.0
    vertex 50.681643018302225 86.23695547811212 3.0
    vertex 50.681643018302225 86.23695547811212 36.0
  endloop
endfacet
facet normal -0.923879532511283 0.3826834323650989 0.0
  outer loop
    vertex 50.681643018302225 86.23695547811212 3.0
    vertex 50.911413990062876 86.79167167437632 36.0
    vertex 50.911413990062876 86.79167167437632 3.0
  endloop
endfacet
facet normal -0.9914448613738104 0.13052619222005152 0.0
  outer loop
    vertex 50.681643018302225 86.23695547811212 36.0
    vertex 50.60327241876708 85.64167167437633 3.0
    vertex 50.60327241876708 85.64167167437633 36.0
  endloop
endfacet
facet normal -0.9914448613738104 0.13052619222005152 0.0
  outer loop
    vertex 50.60327241876708 85.64167167437633 3.0
    vertex 50.681643018302225 86.23695547811212 36.0
    vertex 50.681643018302225 86.23695547811212 3.0
  endloop
endfacet
facet normal -0.7933533402912399 -0.6087614290087145 -0.0
  outer loop
    vertex 50.911413990062876 84.49167167437632 36.0
    vertex 51.27692682203802 84.01532607764726 3.0
    vertex 51.27692682203802 84.01532607764726 36.0
  endloop
endfacet
facet normal -0.7933533402912399 -0.6087614290087145 -0.0
  outer loop
    vertex 51.27692682203802 84.01532607764726 3.0
    vertex 50.911413990062876 84.49167167437632 36.0
    vertex 50.911413990062876 84.49167167437632 3.0
  endloop
endfacet
facet normal 0.3826834323650909 -0.9238795325112864 0.0
  outer loop
    vertex 54.05327241876708 83.64981324567212 36.0
    vertex 53.49855622250288 83.42004227391148 3.0
    vertex 54.05327241876708 83.64981324567212 3.0
  endloop
endfacet
facet normal 0.3826834323650909 -0.9238795325112864 0.0
  outer loop
    vertex 53.49855622250288 83.42004227391148 3.0
    vertex 54.05327241876708 83.64981324567212 36.0
    vertex 53.49855622250288 83.42004227391148 36.0
  endloop
endfacet
facet normal -0.6087614290087145 0.7933533402912399 0.0
  outer loop
    vertex 51.27692682203802 87.26801727110538 36.0
    vertex 51.75327241876708 87.63353010308053 3.0
    vertex 51.27692682203802 87.26801727110538 3.0
  endloop
endfacet
facet normal -0.6087614290087145 0.7933533402912399 0.0
  outer loop
    vertex 51.75327241876708 87.63353010308053 3.0
    vertex 51.27692682203802 87.26801727110538 36.0
    vertex 51.75327241876708 87.63353010308053 36.0
  endloop
endfacet
facet normal -0.13052619222005152 -0.9914448613738104 -0.0
  outer loop
    vertex 52.90327241876708 83.34167167437633 36.0
    vertex 52.307988615031284 83.42004227391148 3.0
    vertex 52.90327241876708 83.34167167437633 3.0
  endloop
endfacet
facet normal -0.13052619222005152 -0.9914448613738104 -0.0
  outer loop
    vertex 52.307988615031284 83.42004227391148 3.0
    vertex 52.90327241876708 83.34167167437633 36.0
    vertex 52.307988615031284 83.42004227391148 36.0
  endloop
endfacet
facet normal -0.3826834323650909 -0.9238795325112864 -0.0
  outer loop
    vertex 52.307988615031284 83.42004227391148 36.0
    vertex 51.75327241876708 83.64981324567212 3.0
    vertex 52.307988615031284 83.42004227391148 3.0
  endloop
endfacet
facet normal -0.3826834323650909 -0.9238795325112864 -0.0
  outer loop
    vertex 51.75327241876708 83.64981324567212 3.0
    vertex 52.307988615031284 83.42004227391148 36.0
    vertex 51.75327241876708 83.64981324567212 36.0
  endloop
endfacet
facet normal -0.7933533402912399 0.6087614290087145 0.0
  outer loop
    vertex 51.27692682203802 87.26801727110538 36.0
    vertex 50.911413990062876 86.79167167437632 3.0
    vertex 50.911413990062876 86.79167167437632 36.0
  endloop
endfacet
facet normal -0.7933533402912399 0.6087614290087145 0.0
  outer loop
    vertex 50.911413990062876 86.79167167437632 3.0
    vertex 51.27692682203802 87.26801727110538 36.0
    vertex 51.27692682203802 87.26801727110538 3.0
  endloop
endfacet
facet normal 0.6087614290087145 -0.7933533402912399 0.0
  outer loop
    vertex 54.52961801549614 84.01532607764726 36.0
    vertex 54.05327241876708 83.64981324567212 3.0
    vertex 54.52961801549614 84.01532607764726 3.0
  endloop
endfacet
facet normal 0.6087614290087145 -0.7933533402912399 0.0
  outer loop
    vertex 54.05327241876708 83.64981324567212 3.0
    vertex 54.52961801549614 84.01532607764726 36.0
    vertex 54.05327241876708 83.64981324567212 36.0
  endloop
endfacet
endsolid Untitled-598b8ec0
