solid Untitled-5989f768
facet normal -2.959869691343447e-05 -1.821894916088446e-05 -0.9999999993959936
  outer loop
    vertex 52.650430370745084 79.427891226987 2.2052499069711486
    vertex 58.87043036802043 79.42789122363264 2.2050658030757644
    vertex 52.65043037074386 39.427891233625495 2.2059786649372213
  endloop
endfacet
facet normal -2.800298374880995e-05 -0.32392577878518564 -0.9460824959031026
  outer loop
    vertex 29.87071010874735 59.922184704234255 11.656966677671166
    vertex 43.370703845872434 60.53962857695954 11.445162708882373
    vertex 43.37071010283383 59.92218469695386 11.656567095262865
  endloop
endfacet
facet normal -2.800298374881535e-05 -0.3239257787851855 -0.9460824959031026
  outer loop
    vertex 29.870703851785954 60.53962858423966 11.445562291291216
    vertex 43.370703845872434 60.53962857695954 11.445162708882373
    vertex 29.87071010874735 59.922184704234255 11.656966677671166
  endloop
endfacet
facet normal 1.3021875552781905e-05 0.8980314634881926 0.43993123373509824
  outer loop
    vertex 34.287095631445965 57.34569956304446 7.822694767076379
    vertex 29.87061396894953 57.05858628611961 8.408909719237835
    vertex 34.873191977166734 57.0585862834221 8.408761649447543
  endloop
endfacet
facet normal 1.3021875552778448e-05 0.8980314634881926 0.4399312337350981
  outer loop
    vertex 29.87059662177488 57.34569956542623 7.8228254896913425
    vertex 29.87061396894953 57.05858628611961 8.408909719237835
    vertex 34.287095631445965 57.34569956304446 7.822694767076379
  endloop
endfacet
facet normal -5.698671865438759e-06 -0.9812943652787176 -0.19251329470912898
  outer loop
    vertex 36.33065710391173 61.824411218543716 9.866053672528494
    vertex 43.370661168339744 61.79745125706997 10.003267778438193
    vertex 29.870661174253257 61.797451264350364 10.003667360845771
  endloop
endfacet
facet normal -5.6986717989671995e-06 -0.9812943652793071 -0.19251329470612416
  outer loop
    vertex 29.87064221859689 61.92309163519598 9.363243082393286
    vertex 36.33065710391173 61.824411218543716 9.866053672528494
    vertex 29.870661174253257 61.797451264350364 10.003667360845771
  endloop
endfacet
facet normal -5.698671865321931e-06 -0.9812943652794681 -0.1925132947053032
  outer loop
    vertex 29.87064221859689 61.92309163519598 9.363243082393286
    vertex 35.8276422159875 61.923091631983745 9.363066762956452
    vertex 36.33065710391173 61.824411218543716 9.866053672528494
  endloop
endfacet
facet normal -5.698671865438787e-06 -0.9812943652787176 -0.19251329470912898
  outer loop
    vertex 43.37065710082794 61.82441121474709 9.865845297702274
    vertex 43.370661168339744 61.79745125706997 10.003267778438193
    vertex 36.33065710391173 61.824411218543716 9.866053672528494
  endloop
endfacet
facet normal 2.904493067550382e-05 -0.19251329478943965 0.9812943648496645
  outer loop
    vertex 29.870567439917217 60.2253975963885 6.836856051963771
    vertex 33.27056653323947 60.069526824207564 6.806176217522973
    vertex 33.301149477096466 60.225397594538414 6.836754511206425
  endloop
endfacet
facet normal 2.9044930675496672e-05 -0.19251329479051366 0.9812943648494538
  outer loop
    vertex 29.87056372078069 59.58497331765573 6.7112156811731065
    vertex 33.36563371924973 59.58497331577091 6.711112231655798
    vertex 33.27056653323947 60.069526824207564 6.806176217522973
  endloop
endfacet
facet normal 2.9044930636809286e-05 -0.19251329479025223 0.981294364849505
  outer loop
    vertex 29.870567439917217 60.2253975963885 6.836856051963771
    vertex 29.87056372078069 59.58497331765573 6.7112156811731065
    vertex 33.27056653323947 60.069526824207564 6.806176217522973
  endloop
endfacet
facet normal -2.4567436959468697e-05 -0.5577524438151636 -0.8300073558798462
  outer loop
    vertex 29.870703851785954 60.53962858423966 11.445562291291216
    vertex 43.37069307202603 61.08131808550475 11.081155516928439
    vertex 43.370703845872434 60.53962857695954 11.445162708882373
  endloop
endfacet
facet normal -2.4567436948363797e-05 -0.5577524438153544 -0.830007355879718
  outer loop
    vertex 29.870693077939546 61.08131809278486 11.081555099335837
    vertex 43.37069307202603 61.08131808550475 11.081155516928439
    vertex 29.870703851785954 60.53962858423966 11.445562291291216
  endloop
endfacet
facet normal 2.658032385168879e-05 -0.43993123392866057 0.8980314630944132
  outer loop
    vertex 29.870575938412216 60.811481826191 7.123969331145498
    vertex 33.301149477096466 60.225397594538414 6.836754511206425
    vertex 33.588281932563376 60.81148182418607 7.1238592918931545
  endloop
endfacet
facet normal 2.6580323851703477e-05 -0.43993123392866057 0.8980314630944132
  outer loop
    vertex 29.870567439917217 60.2253975963885 6.836856051963771
    vertex 33.301149477096466 60.225397594538414 6.836754511206425
    vertex 29.870575938412216 60.811481826191 7.123969331145498
  endloop
endfacet
facet normal 1.650829791999693e-05 -0.8300073562437293 0.5577524435704172
  outer loop
    vertex 29.87058863710733 61.30328533535141 7.552989223216228
    vertex 34.559035656947664 61.66729252493639 8.094539960076348
    vertex 29.870604670607364 61.6672925274648 8.094678731523567
  endloop
endfacet
facet normal 1.6508297920016302e-05 -0.8300073562437293 0.557752443570417
  outer loop
    vertex 34.01732348340206 61.30328533311511 7.55286648526841
    vertex 34.559035656947664 61.66729252493639 8.094539960076348
    vertex 29.87058863710733 61.30328533535141 7.552989223216228
  endloop
endfacet
facet normal 0.7071277103161604 1.2882361139984284e-05 0.7070858513200992
  outer loop
    vertex 36.33047595988719 79.4279192929697 3.745732956773888
    vertex 33.3212521744242 58.933852844374904 6.755508266569073
    vertex 36.33047595988588 39.42791929960857 3.746461714740141
  endloop
endfacet
facet normal 0.7071277103149296 1.2882361559618428e-05 0.7070858513213298
  outer loop
    vertex 36.33047595988719 79.4279192929697 3.745732956773888
    vertex 33.36563371924973 59.58497331577091 6.711112231655798
    vertex 33.3212521744242 58.933852844374904 6.755508266569073
  endloop
endfacet
facet normal 0.7071277103165853 1.2882361007658706e-05 0.707085851319674
  outer loop
    vertex 36.33047595988719 79.4279192929697 3.745732956773888
    vertex 33.27056653323947 60.069526824207564 6.806176217522973
    vertex 33.36563371924973 59.58497331577091 6.711112231655798
  endloop
endfacet
facet normal 0.7071277103160541 1.2882361174133666e-05 0.7070858513202053
  outer loop
    vertex 36.33047595988719 79.4279192929697 3.745732956773888
    vertex 33.2705665332401 79.42797504460422 6.8058235269378855
    vertex 33.27056653323947 60.069526824207564 6.806176217522973
  endloop
endfacet
facet normal 2.9530173472778558e-05 0.06802410724495 0.9976836773053354
  outer loop
    vertex 55.615493709503376 59.58497330377175 6.710453664793778
    vertex 58.8705650217523 58.933852830596415 6.754752040201596
    vertex 58.870563708077476 59.58497330201633 6.710357318962803
  endloop
endfacet
facet normal 2.9530173472780445e-05 0.06802410724495002 0.9976836773053354
  outer loop
    vertex 55.615493709503376 59.58497330377175 6.710453664793778
    vertex 55.65987788167851 58.933852832327915 6.754847072357185
    vertex 58.8705650217523 58.933852830596415 6.754752040201596
  endloop
endfacet
facet normal -1.9457659932175933e-05 -0.7535692015275153 -0.6573685862060816
  outer loop
    vertex 43.37067851551439 61.51033797776372 10.589352007983603
    vertex 43.37069307202603 61.08131808550475 11.081155516928439
    vertex 29.870693077939546 61.08131809278486 11.081555099335837
  endloop
endfacet
facet normal -1.9457659940965502e-05 -0.753569201527396 -0.6573685862062186
  outer loop
    vertex 43.37067851551439 61.51033797776372 10.589352007983603
    vertex 29.870693077939546 61.08131809278486 11.081555099335837
    vertex 29.870678521427912 61.51033798504383 10.589751590391904
  endloop
endfacet
facet normal 2.0128868922358124e-06 -0.9976836777423774 0.06802410721495893
  outer loop
    vertex 53.8047442159079 61.87869690103082 8.711414192457633
    vertex 58.870642205893745 61.92309161955658 9.362384720183524
    vertex 53.15364220839806 61.92309162263969 9.362553935933123
  endloop
endfacet
facet normal 2.012886892235813e-06 -0.9976836777423774 0.06802410721495894
  outer loop
    vertex 58.87062293355225 61.87869689829884 8.711264249048764
    vertex 58.870642205893745 61.92309161955658 9.362384720183524
    vertex 53.8047442159079 61.87869690103082 8.711414192457633
  endloop
endfacet
facet normal -2.0128868922347024e-06 0.9976836777423801 -0.06802410721492143
  outer loop
    vertex 58.87063291190271 56.932945899634774 9.048475635479477
    vertex 52.81653090675955 56.97734062415772 9.699775300714798
    vertex 58.87065218424414 56.97734062089279 9.699596106613875
  endloop
endfacet
facet normal -2.01288689223337e-06 0.9976836777423801 -0.06802410721492141
  outer loop
    vertex 53.46763291426944 56.93294590254859 9.048635557238226
    vertex 52.81653090675955 56.97734062415772 9.699775300714798
    vertex 58.87063291190271 56.932945899634774 9.048475635479477
  endloop
endfacet
facet normal -1.9457659940970022e-05 -0.7535692015273958 -0.6573685862062186
  outer loop
    vertex 45.37067851463831 61.51033797668518 10.589292810589178
    vertex 58.87069306523636 61.08131807714547 11.080696737125534
    vertex 45.37069307114992 61.081318084426215 11.081096319533835
  endloop
endfacet
facet normal -1.945765994096099e-05 -0.7535692015273958 -0.6573685862062189
  outer loop
    vertex 45.37067851463831 61.51033797668518 10.589292810589178
    vertex 58.87067850872472 61.51033796940443 10.5888932281816
    vertex 58.87069306523636 61.08131807714547 11.080696737125534
  endloop
endfacet
facet normal -2.012886892234702e-06 0.9976836777423801 -0.06802410721492141
  outer loop
    vertex 35.51363292213404 56.932945912230956 9.04916697224253
    vertex 29.87065219694722 56.977340636532006 9.70045446882436
    vertex 36.164773474326786 56.97734063313785 9.7002681710362
  endloop
endfacet
facet normal -2.012886892234702e-06 0.9976836777423801 -0.06802410721492141
  outer loop
    vertex 35.51363292213404 56.932945912230956 9.04916697224253
    vertex 29.870632924605903 56.932945915274175 9.04933399768978
    vertex 29.87065219694722 56.977340636532006 9.70045446882436
  endloop
endfacet
facet normal 9.587270734548891e-06 -0.946082496317462 0.32392577864350924
  outer loop
    vertex 54.42217367145844 61.6672925142244 8.09395203707379
    vertex 58.87062293355225 61.87869689829884 8.711264249048764
    vertex 53.8047442159079 61.87869690103082 8.711414192457633
  endloop
endfacet
facet normal 9.58727073453516e-06 -0.946082496317462 0.3239257786435093
  outer loop
    vertex 54.42217367145844 61.6672925142244 8.09395203707379
    vertex 58.87060465790402 61.6672925118254 8.093820369313805
    vertex 58.87062293355225 61.87869689829884 8.711264249048764
  endloop
endfacet
facet normal 2.2304311883475008e-05 -0.657368586493207 0.7535692011981653
  outer loop
    vertex 54.9638537780043 61.30328532181918 7.552246495266687
    vertex 58.870575925709225 60.8114818105516 7.123110968935737
    vertex 58.87058862440414 61.30328531971201 7.552130861005924
  endloop
endfacet
facet normal 2.2304311883495245e-05 -0.6573685864932067 0.7535692011981653
  outer loop
    vertex 54.9638537780043 61.30328532181918 7.552246495266687
    vertex 55.39286993145311 60.811481812427395 7.123213904500844
    vertex 58.870575925709225 60.8114818105516 7.123110968935737
  endloop
endfacet
facet normal -2.9598696913434483e-05 -1.8218949160884455e-05 -0.9999999993959936
  outer loop
    vertex 29.870430380722244 39.42789124591054 2.206652923252862
    vertex 36.33043037789397 79.42789123578854 2.20573295770471
    vertex 36.330430377892476 39.427891242427044 2.2064617156707826
  endloop
endfacet
facet normal -2.9598696913434483e-05 -1.8218949160884452e-05 -0.9999999993959936
  outer loop
    vertex 29.870430380722244 39.42789124591054 2.206652923252862
    vertex 29.87043038072378 79.42789123927203 2.2059241652867896
    vertex 36.33043037789397 79.42789123578854 2.20573295770471
  endloop
endfacet
facet normal -2.658032385169881e-05 0.4399312339281009 -0.8980314630946876
  outer loop
    vertex 29.870699204790483 58.044555724279064 11.288607748938109
    vertex 43.37070769737194 58.630639946801274 11.575321445710994
    vertex 43.37069919887697 58.04455571699868 11.288208166529808
  endloop
endfacet
facet normal -2.658032385169881e-05 0.4399312339281009 -0.8980314630946876
  outer loop
    vertex 29.870707703285483 58.63063995408139 11.575721028119295
    vertex 43.37070769737194 58.630639946801274 11.575321445710994
    vertex 29.870699204790483 58.044555724279064 11.288607748938109
  endloop
endfacet
facet normal 2.4567436959503835e-05 0.5577524438144704 0.8300073558803123
  outer loop
    vertex 55.5498652843887 58.31640895238207 6.966254715152673
    vertex 58.870582052560096 57.7747194420467 7.3301636185356625
    vertex 58.87057127871365 58.31640895059101 6.966156426582991
  endloop
endfacet
facet normal 2.4567436959478397e-05 0.5577524438144703 0.8300073558803123
  outer loop
    vertex 55.18587873535553 57.774719444033856 7.330272680952339
    vertex 58.870582052560096 57.7747194420467 7.3301636185356625
    vertex 55.5498652843887 58.31640895238207 6.966254715152673
  endloop
endfacet
facet normal -0.7071277103161735 -1.288236115762449e-05 -0.7070858513200858
  outer loop
    vertex 52.65065709676346 79.4280307841368 9.865249902344228
    vertex 53.15364220839806 61.92309162263969 9.362553935933123
    vertex 52.65065709676296 61.824411209742166 9.865570621794934
  endloop
endfacet
facet normal -0.7071277103168901 -1.2882361167523429e-05 -0.7070858513193693
  outer loop
    vertex 55.71056652341046 79.42797503250256 6.80515933217987
    vertex 55.710566523409874 60.06952681210562 6.805512022764236
    vertex 55.67998538992969 60.225397582469775 6.836092126824118
  endloop
endfacet
facet normal -0.7071277103174591 -1.2882361165699498e-05 -0.7070858513188002
  outer loop
    vertex 55.71056652341046 79.42797503250256 6.80515933217987
    vertex 55.67998538992969 60.225397582469775 6.836092126824118
    vertex 55.39286993145311 60.811481812427395 7.123213904500844
  endloop
endfacet
facet normal -0.7071277103154089 -1.2882361235734928e-05 -0.7070858513208507
  outer loop
    vertex 55.71056652341046 79.42797503250256 6.80515933217987
    vertex 55.39286993145311 60.811481812427395 7.123213904500844
    vertex 54.9638537780043 61.30328532181918 7.552246495266687
  endloop
endfacet
facet normal -0.7071277103161872 -1.2882361171614417e-05 -0.7070858513200722
  outer loop
    vertex 55.71056652341046 79.42797503250256 6.80515933217987
    vertex 54.9638537780043 61.30328532181918 7.552246495266687
    vertex 54.42217367145844 61.6672925142244 8.09395203707379
  endloop
endfacet
facet normal -0.7071277103161839 -1.288236117203961e-05 -0.7070858513200756
  outer loop
    vertex 55.71056652341046 79.42797503250256 6.80515933217987
    vertex 54.42217367145844 61.6672925142244 8.09395203707379
    vertex 53.8047442159079 61.87869690103082 8.711414192457633
  endloop
endfacet
facet normal -0.707127710316015 -1.2882361208769985e-05 -0.7070858513202445
  outer loop
    vertex 55.71056652341046 79.42797503250256 6.80515933217987
    vertex 53.8047442159079 61.87869690103082 8.711414192457633
    vertex 53.15364220839806 61.92309162263969 9.362553935933123
  endloop
endfacet
facet normal -0.7071277103161872 -1.2882361158417135e-05 -0.7070858513200724
  outer loop
    vertex 55.71056652341046 79.42797503250256 6.80515933217987
    vertex 53.15364220839806 61.92309162263969 9.362553935933123
    vertex 52.65065709676346 79.4280307841368 9.865249902344228
  endloop
endfacet
facet normal -2.959869690846651e-05 -1.8218949159824194e-05 -0.9999999993959936
  outer loop
    vertex 45.37065709995108 39.428030794702316 9.8661941388243
    vertex 52.650657096762714 57.03413488749303 9.865657895595207
    vertex 52.65065709676215 39.42803079077593 9.865978660310661
  endloop
endfacet
facet normal -2.959869690846651e-05 -1.8218949159824194e-05 -0.9999999993959936
  outer loop
    vertex 52.650657096762714 57.03413488749303 9.865657895595207
    vertex 45.37065709995108 39.428030794702316 9.8661941388243
    vertex 45.37065709995162 57.03413489141941 9.865873374108125
  endloop
endfacet
facet normal 0.9999999995619586 -5.392897430901351e-10 -2.9598696908521496e-05
  outer loop
    vertex 36.33047595988719 79.4279192929697 3.745732956773888
    vertex 36.33047595988588 39.42791929960857 3.746461714740141
    vertex 36.330430377892476 39.427891242427044 2.2064617156707826
  endloop
endfacet
facet normal 0.9999999995619586 -5.392897430901351e-10 -2.9598696908521496e-05
  outer loop
    vertex 36.33043037789397 79.42789123578854 2.20573295770471
    vertex 36.33047595988719 79.4279192929697 3.745732956773888
    vertex 36.330430377892476 39.427891242427044 2.2064617156707826
  endloop
endfacet
facet normal -2.9598696911283538e-05 -1.8218949149573252e-05 -0.9999999993959936
  outer loop
    vertex 36.330657103911015 39.42803079957747 9.866461711044224
    vertex 43.370657100827756 57.03413489249795 9.865932571502547
    vertex 43.370657100827195 39.42803079578085 9.866253336218001
  endloop
endfacet
facet normal -2.9598696911283538e-05 -1.8218949149573252e-05 -0.9999999993959936
  outer loop
    vertex 43.370657100827756 57.03413489249795 9.865932571502547
    vertex 36.330657103911015 39.42803079957747 9.866461711044224
    vertex 36.33065710391173 57.034134896294574 9.86614094632877
  endloop
endfacet
facet normal 1.6508297919995987e-05 -0.8300073562437291 0.5577524435704172
  outer loop
    vertex 54.9638537780043 61.30328532181918 7.552246495266687
    vertex 58.87060465790402 61.6672925118254 8.093820369313805
    vertex 54.42217367145844 61.6672925142244 8.09395203707379
  endloop
endfacet
facet normal 1.6508297920005436e-05 -0.8300073562437293 0.5577524435704172
  outer loop
    vertex 58.87058862440414 61.30328531971201 7.552130861005924
    vertex 58.87060465790402 61.6672925118254 8.093820369313805
    vertex 54.9638537780043 61.30328532181918 7.552246495266687
  endloop
endfacet
facet normal 5.698671865337707e-06 0.9812943652793696 0.19251329470580558
  outer loop
    vertex 58.870613956246366 57.05858627048021 8.408051357027533
    vertex 53.46763291426944 56.93294590254859 9.048635557238226
    vertex 58.87063291190271 56.932945899634774 9.048475635479477
  endloop
endfacet
facet normal 5.698671865347387e-06 0.9812943652793696 0.19251329470580567
  outer loop
    vertex 54.108035947923916 57.05858627304895 8.408192323129866
    vertex 53.46763291426944 56.93294590254859 9.048635557238226
    vertex 58.870613956246366 57.05858627048021 8.408051357027533
  endloop
endfacet
facet normal 2.2304311883501235e-05 -0.6573685864932067 0.7535692011981653
  outer loop
    vertex 29.87058863710733 61.30328533535141 7.552989223216228
    vertex 33.588281932563376 60.81148182418607 7.1238592918931545
    vertex 34.01732348340206 61.30328533311511 7.55286648526841
  endloop
endfacet
facet normal 2.2304311883487798e-05 -0.6573685864932067 0.7535692011981655
  outer loop
    vertex 29.870575938412216 60.811481826191 7.123969331145498
    vertex 33.588281932563376 60.81148182418607 7.1238592918931545
    vertex 29.87058863710733 61.30328533535141 7.552989223216228
  endloop
endfacet
facet normal 5.698671865340415e-06 0.9812943652793696 0.19251329470580555
  outer loop
    vertex 34.873191977166734 57.0585862834221 8.408761649447543
    vertex 29.870632924605903 56.932945915274175 9.04933399768978
    vertex 35.51363292213404 56.932945912230956 9.04916697224253
  endloop
endfacet
facet normal 5.698671865340414e-06 0.9812943652793696 0.19251329470580567
  outer loop
    vertex 29.87061396894953 57.05858628611961 8.408909719237835
    vertex 29.870632924605903 56.932945915274175 9.04933399768978
    vertex 34.873191977166734 57.0585862834221 8.408761649447543
  endloop
endfacet
facet normal 9.587270734539305e-06 -0.946082496317462 0.3239257786435093
  outer loop
    vertex 29.870604670607364 61.6672925274648 8.094678731523567
    vertex 35.17650166379472 61.87869691107685 8.71196556416314
    vertex 29.870622946255484 61.878696913938235 8.712122611259067
  endloop
endfacet
facet normal 9.587270734546767e-06 -0.946082496317462 0.3239257786435093
  outer loop
    vertex 29.870604670607364 61.6672925274648 8.094678731523567
    vertex 34.559035656947664 61.66729252493639 8.094539960076348
    vertex 35.17650166379472 61.87869691107685 8.71196556416314
  endloop
endfacet
facet normal 3.058379669293246e-05 2.0099684415832194e-05 0.999999999330317
  outer loop
    vertex 29.87081516378302 65.42812808793414 15.206179222722255
    vertex 33.870815162030574 53.53035060888481 15.206277592937411
    vertex 33.87081516203094 65.42812808577699 15.20606082793449
  endloop
endfacet
facet normal 3.058379669293246e-05 2.0099684415832194e-05 0.999999999330317
  outer loop
    vertex 33.870815162030574 53.53035060888481 15.206277592937411
    vertex 29.87081516378302 65.42812808793414 15.206179222722255
    vertex 29.870815170198558 53.5303506149911 15.206612752730805
  endloop
endfacet
facet normal 3.058379669293246e-05 2.0099684415832194e-05 0.999999999330317
  outer loop
    vertex 33.87081516203157 79.4281280834533 15.205805762647087
    vertex 54.87081515283203 65.4281280744519 15.205439255299536
    vertex 54.87081515283255 79.42812807212823 15.205184190011952
  endloop
endfacet
facet normal 3.058379669293246e-05 2.0099684415832194e-05 0.999999999330317
  outer loop
    vertex 54.87081515283203 65.4281280744519 15.205439255299536
    vertex 33.87081516203157 79.4281280834533 15.205805762647087
    vertex 54.87081515283119 39.42812807876664 15.205912947978206
  endloop
endfacet
facet normal 3.058379669293246e-05 2.0099684415832194e-05 0.999999999330317
  outer loop
    vertex 54.87081515283119 39.42812807876664 15.205912947978206
    vertex 33.87081516203157 79.4281280834533 15.205805762647087
    vertex 33.870815162030574 53.53035060888481 15.206277592937411
  endloop
endfacet
facet normal 3.058379669293246e-05 2.0099684415832194e-05 0.999999999330317
  outer loop
    vertex 54.87081515283119 39.42812807876664 15.205912947978206
    vertex 33.870815162030574 53.53035060888481 15.206277592937411
    vertex 33.87081516202994 39.42812809009172 15.206534520613339
  endloop
endfacet
facet normal 3.058379669293246e-05 2.0099684415832194e-05 0.999999999330317
  outer loop
    vertex 33.870815162030574 53.53035060888481 15.206277592937411
    vertex 33.87081516203157 79.4281280834533 15.205805762647087
    vertex 33.87081516203094 65.42812808577699 15.20606082793449
  endloop
endfacet
facet normal 3.058379669293246e-05 2.0099684415832194e-05 0.999999999330317
  outer loop
    vertex 54.87081515283203 65.4281280744519 15.205439255299536
    vertex 58.87081515107888 53.53035059540194 15.205537608563851
    vertex 58.870815151079356 65.42812807229457 15.205320843560388
  endloop
endfacet
facet normal 3.058379669293246e-05 2.0099684415832194e-05 0.999999999330317
  outer loop
    vertex 58.87081515107888 53.53035059540194 15.205537608563851
    vertex 54.87081515283203 65.4281280744519 15.205439255299536
    vertex 54.87081515283171 53.53035059755965 15.205656020302097
  endloop
endfacet
facet normal 3.058379669293246e-05 2.0099684415832194e-05 0.999999999330317
  outer loop
    vertex 54.87081515283171 53.53035059755965 15.205656020302097
    vertex 54.87081515283203 65.4281280744519 15.205439255299536
    vertex 54.87081515283119 39.42812807876664 15.205912947978206
  endloop
endfacet
facet normal -1.3021875552757379e-05 -0.898031463488573 -0.43993123373432197
  outer loop
    vertex 45.37066116746363 61.79745125599144 10.00320858104431
    vertex 58.87067850872472 61.51033796940443 10.5888932281816
    vertex 45.37067851463831 61.51033797668518 10.589292810589178
  endloop
endfacet
facet normal -1.3021875552753587e-05 -0.898031463488573 -0.439931233734322
  outer loop
    vertex 58.87066116155007 61.79745124871096 10.002808998635468
    vertex 58.87067850872472 61.51033796940443 10.5888932281816
    vertex 45.37066116746363 61.79745125599144 10.00320858104431
  endloop
endfacet
facet normal 0.7070858514356952 -1.2883123845031498e-05 -0.7071277102005571
  outer loop
    vertex 33.2705665332401 79.42797504460422 6.8058235269378855
    vertex 33.301149477096466 60.225397594538414 6.836754511206425
    vertex 33.27056653323947 60.069526824207564 6.806176217522973
  endloop
endfacet
facet normal 0.707085851438854 -1.2883123834912282e-05 -0.7071277101973985
  outer loop
    vertex 33.2705665332401 79.42797504460422 6.8058235269378855
    vertex 33.588281932563376 60.81148182418607 7.1238592918931545
    vertex 33.301149477096466 60.225397594538414 6.836754511206425
  endloop
endfacet
facet normal 0.7070858514368038 -1.2883123904923236e-05 -0.7071277101994485
  outer loop
    vertex 33.2705665332401 79.42797504460422 6.8058235269378855
    vertex 34.01732348340206 61.30328533311511 7.55286648526841
    vertex 33.588281932563376 60.81148182418607 7.1238592918931545
  endloop
endfacet
facet normal 0.7070858514375832 -1.2883123840690661e-05 -0.7071277101986693
  outer loop
    vertex 33.2705665332401 79.42797504460422 6.8058235269378855
    vertex 34.559035656947664 61.66729252493639 8.094539960076348
    vertex 34.01732348340206 61.30328533311511 7.55286648526841
  endloop
endfacet
facet normal 0.7070858514375923 -1.2883123839402307e-05 -0.7071277101986603
  outer loop
    vertex 33.2705665332401 79.42797504460422 6.8058235269378855
    vertex 35.17650166379472 61.87869691107685 8.71196556416314
    vertex 34.559035656947664 61.66729252493639 8.094539960076348
  endloop
endfacet
facet normal 0.7070858514374095 -1.2883123878916372e-05 -0.707127710198843
  outer loop
    vertex 33.2705665332401 79.42797504460422 6.8058235269378855
    vertex 35.8276422159875 61.923091631983745 9.363066762956452
    vertex 35.17650166379472 61.87869691107685 8.71196556416314
  endloop
endfacet
facet normal 0.7070858514375754 -1.288312383063756e-05 -0.7071277101986772
  outer loop
    vertex 33.2705665332401 79.42797504460422 6.8058235269378855
    vertex 36.330657103912145 79.42803079293834 9.86573295307833
    vertex 35.8276422159875 61.923091631983745 9.363066762956452
  endloop
endfacet
facet normal 0.7070858514375379 -1.2883123828494959e-05 -0.7071277101987145
  outer loop
    vertex 36.330657103912145 79.42803079293834 9.86573295307833
    vertex 36.33065710391173 61.824411218543716 9.866053672528494
    vertex 35.8276422159875 61.923091631983745 9.363066762956452
  endloop
endfacet
facet normal 0.7071277103182071 1.2882361167213715e-05 0.7070858513180522
  outer loop
    vertex 58.87069675629139 39.42805520081314 11.205794555582862
    vertex 54.87081515283171 53.53035059755965 15.205656020302097
    vertex 54.87081515283119 39.42812807876664 15.205912947978206
  endloop
endfacet
facet normal 0.7071277103182071 1.2882361167213715e-05 0.7070858513180522
  outer loop
    vertex 54.87081515283171 53.53035059755965 15.205656020302097
    vertex 58.87069675629139 39.42805520081314 11.205794555582862
    vertex 58.870696756291814 53.530277719605245 11.205537627907475
  endloop
endfacet
facet normal -2.4567436959462862e-05 -0.5577524438153542 -0.8300073558797182
  outer loop
    vertex 45.37070384499631 60.539628575881004 11.445103511489213
    vertex 58.87069306523636 61.08131807714547 11.080696737125534
    vertex 58.87070383908274 60.53962856860026 11.444703929080912
  endloop
endfacet
facet normal -2.4567436959458756e-05 -0.5577524438153544 -0.830007355879718
  outer loop
    vertex 45.37070384499631 60.539628575881004 11.445103511489213
    vertex 45.37069307114992 61.081318084426215 11.081096319533835
    vertex 58.87069306523636 61.08131807714547 11.080696737125534
  endloop
endfacet
facet normal -2.95986968960711e-05 -1.8218949160156173e-05 -0.9999999993959936
  outer loop
    vertex 45.37065709995185 61.824411213668554 9.86578610030785
    vertex 52.65065709676346 79.4280307841368 9.865249902344228
    vertex 52.65065709676296 61.824411209742166 9.865570621794934
  endloop
endfacet
facet normal -2.95986968960711e-05 -1.8218949160156173e-05 -0.9999999993959936
  outer loop
    vertex 52.65065709676346 79.4280307841368 9.865249902344228
    vertex 45.37065709995185 61.824411213668554 9.86578610030785
    vertex 45.37065709995239 79.42803078806318 9.865465380857685
  endloop
endfacet
facet normal 3.4708401090213794e-14 0.999999999834035 -1.821894913099574e-05
  outer loop
    vertex 58.87069675629261 79.42805519417446 11.205065797597658
    vertex 55.71056652341046 79.42797503250256 6.80515933217987
    vertex 52.65065709676346 79.4280307841368 9.865249902344228
  endloop
endfacet
facet normal 3.4708401090213794e-14 0.999999999834035 -1.821894913099574e-05
  outer loop
    vertex 55.71056652341046 79.42797503250256 6.80515933217987
    vertex 58.87069675629261 79.42805519417446 11.205065797597658
    vertex 58.87043036802043 79.42789122363264 2.2050658030757644
  endloop
endfacet
facet normal 3.4708401090213794e-14 0.999999999834035 -1.821894913099574e-05
  outer loop
    vertex 55.71056652341046 79.42797503250256 6.80515933217987
    vertex 58.87043036802043 79.42789122363264 2.2050658030757644
    vertex 52.65047595273842 79.42791928416817 3.7452499060410487
  endloop
endfacet
facet normal 3.4708401090213794e-14 0.999999999834035 -1.821894913099574e-05
  outer loop
    vertex 52.65047595273842 79.42791928416817 3.7452499060410487
    vertex 58.87043036802043 79.42789122363264 2.2050658030757644
    vertex 52.650430370745084 79.427891226987 2.2052499069711486
  endloop
endfacet
facet normal 3.4708401090213794e-14 0.999999999834035 -1.821894913099574e-05
  outer loop
    vertex 58.87069675629261 79.42805519417446 11.205065797597658
    vertex 33.87081516203157 79.4281280834533 15.205805762647087
    vertex 54.87081515283255 79.42812807212823 15.205184190011952
  endloop
endfacet
facet normal 3.4708401090213794e-14 0.999999999834035 -1.821894913099574e-05
  outer loop
    vertex 33.87081516203157 79.4281280834533 15.205805762647087
    vertex 58.87069675629261 79.42805519417446 11.205065797597658
    vertex 45.370741160251626 79.42808252987889 12.705465379142032
  endloop
endfacet
facet normal 3.4708401090213794e-14 0.999999999834035 -1.821894913099574e-05
  outer loop
    vertex 45.370741160251626 79.42808252987889 12.705465379142032
    vertex 58.87069675629261 79.42805519417446 11.205065797597658
    vertex 45.37065709995239 79.42803078806318 9.865465380857685
  endloop
endfacet
facet normal 3.4708401090213794e-14 0.999999999834035 -1.821894913099574e-05
  outer loop
    vertex 45.37065709995239 79.42803078806318 9.865465380857685
    vertex 58.87069675629261 79.42805519417446 11.205065797597658
    vertex 52.65065709676346 79.4280307841368 9.865249902344228
  endloop
endfacet
facet normal 3.4708401090213794e-14 0.999999999834035 -1.821894913099574e-05
  outer loop
    vertex 33.87081516203157 79.4281280834533 15.205805762647087
    vertex 43.37074116112774 79.42808253095743 12.705524576535733
    vertex 29.870696768995888 79.42805520981386 11.205924159850193
  endloop
endfacet
facet normal 3.4708401090213794e-14 0.999999999834035 -1.821894913099574e-05
  outer loop
    vertex 43.37074116112774 79.42808253095743 12.705524576535733
    vertex 33.87081516203157 79.4281280834533 15.205805762647087
    vertex 45.370741160251626 79.42808252987889 12.705465379142032
  endloop
endfacet
facet normal 3.4708401090213794e-14 0.999999999834035 -1.821894913099574e-05
  outer loop
    vertex 29.870696768995888 79.42805520981386 11.205924159850193
    vertex 43.37074116112774 79.42808253095743 12.705524576535733
    vertex 43.3706571008285 79.42803078914172 9.86552457825211
  endloop
endfacet
facet normal 3.4708401090213794e-14 0.999999999834035 -1.821894913099574e-05
  outer loop
    vertex 29.870696768995888 79.42805520981386 11.205924159850193
    vertex 43.3706571008285 79.42803078914172 9.86552457825211
    vertex 36.330657103912145 79.42803079293834 9.86573295307833
  endloop
endfacet
facet normal 3.4708401090213794e-14 0.999999999834035 -1.821894913099574e-05
  outer loop
    vertex 29.870696768995888 79.42805520981386 11.205924159850193
    vertex 36.330657103912145 79.42803079293834 9.86573295307833
    vertex 33.2705665332401 79.42797504460422 6.8058235269378855
  endloop
endfacet
facet normal 3.4708401090213794e-14 0.999999999834035 -1.821894913099574e-05
  outer loop
    vertex 29.870696768995888 79.42805520981386 11.205924159850193
    vertex 33.2705665332401 79.42797504460422 6.8058235269378855
    vertex 29.87043038072378 79.42789123927203 2.2059241652867896
  endloop
endfacet
facet normal 3.4708401090213794e-14 0.999999999834035 -1.821894913099574e-05
  outer loop
    vertex 29.87043038072378 79.42789123927203 2.2059241652867896
    vertex 33.2705665332401 79.42797504460422 6.8058235269378855
    vertex 36.33047595988719 79.4279192929697 3.745732956773888
  endloop
endfacet
facet normal 3.4708401090213794e-14 0.999999999834035 -1.821894913099574e-05
  outer loop
    vertex 29.87043038072378 79.42789123927203 2.2059241652867896
    vertex 36.33047595988719 79.4279192929697 3.745732956773888
    vertex 36.33043037789397 79.42789123578854 2.20573295770471
  endloop
endfacet
facet normal 1.9457659940952926e-05 0.7535692015279409 0.6573685862055939
  outer loop
    vertex 58.870582052560096 57.7747194420467 7.3301636185356625
    vertex 54.69409759929536 57.34569955203919 7.822090746410029
    vertex 58.87059660907171 57.34569954978683 7.821967127481039
  endloop
endfacet
facet normal 1.945765994090151e-05 0.7535692015279409 0.6573685862055938
  outer loop
    vertex 55.18587873535553 57.774719444033856 7.330272680952339
    vertex 54.69409759929536 57.34569955203919 7.822090746410029
    vertex 58.870582052560096 57.7747194420467 7.3301636185356625
  endloop
endfacet
facet normal -3.624040528058702e-14 -0.999999999834035 1.8218949144974456e-05
  outer loop
    vertex 29.870696768994577 39.42805521645272 11.206652917816266
    vertex 33.27056653323879 39.42797505124263 6.806552284906304
    vertex 36.330657103911015 39.42803079957747 9.866461711044224
  endloop
endfacet
facet normal -3.624040528058702e-14 -0.999999999834035 1.8218949144974456e-05
  outer loop
    vertex 33.27056653323879 39.42797505124263 6.806552284906304
    vertex 29.870696768994577 39.42805521645272 11.206652917816266
    vertex 29.870430380722244 39.42789124591054 2.206652923252862
  endloop
endfacet
facet normal -3.624040528058702e-14 -0.999999999834035 1.8218949144974456e-05
  outer loop
    vertex 33.27056653323879 39.42797505124263 6.806552284906304
    vertex 29.870430380722244 39.42789124591054 2.206652923252862
    vertex 36.33047595988588 39.42791929960857 3.746461714740141
  endloop
endfacet
facet normal -3.624040528058702e-14 -0.999999999834035 1.8218949144974456e-05
  outer loop
    vertex 36.33047595988588 39.42791929960857 3.746461714740141
    vertex 29.870430380722244 39.42789124591054 2.206652923252862
    vertex 36.330430377892476 39.427891242427044 2.2064617156707826
  endloop
endfacet
facet normal -3.624040528058702e-14 -0.999999999834035 1.8218949144974456e-05
  outer loop
    vertex 29.870696768994577 39.42805521645272 11.206652917816266
    vertex 54.87081515283119 39.42812807876664 15.205912947978206
    vertex 33.87081516202994 39.42812809009172 15.206534520613339
  endloop
endfacet
facet normal -3.624040528058702e-14 -0.999999999834035 1.8218949144974456e-05
  outer loop
    vertex 54.87081515283119 39.42812807876664 15.205912947978206
    vertex 29.870696768994577 39.42805521645272 11.206652917816266
    vertex 43.370741161126425 39.428082537596374 12.70625333450289
  endloop
endfacet
facet normal -3.624040528058702e-14 -0.999999999834035 1.8218949144974456e-05
  outer loop
    vertex 43.370741161126425 39.428082537596374 12.70625333450289
    vertex 29.870696768994577 39.42805521645272 11.206652917816266
    vertex 43.370657100827195 39.42803079578085 9.866253336218001
  endloop
endfacet
facet normal -3.624040528058702e-14 -0.999999999834035 1.8218949144974456e-05
  outer loop
    vertex 43.370657100827195 39.42803079578085 9.866253336218001
    vertex 29.870696768994577 39.42805521645272 11.206652917816266
    vertex 36.330657103911015 39.42803079957747 9.866461711044224
  endloop
endfacet
facet normal -3.624040528058702e-14 -0.999999999834035 1.8218949144974456e-05
  outer loop
    vertex 54.87081515283119 39.42812807876664 15.205912947978206
    vertex 45.37074116025032 39.42808253651784 12.706194137109007
    vertex 58.87069675629139 39.42805520081314 11.205794555582862
  endloop
endfacet
facet normal -3.624040528058702e-14 -0.999999999834035 1.8218949144974456e-05
  outer loop
    vertex 45.37074116025032 39.42808253651784 12.706194137109007
    vertex 54.87081515283119 39.42812807876664 15.205912947978206
    vertex 43.370741161126425 39.428082537596374 12.70625333450289
  endloop
endfacet
facet normal -3.624040528058702e-14 -0.999999999834035 1.8218949144974456e-05
  outer loop
    vertex 58.87069675629139 39.42805520081314 11.205794555582862
    vertex 45.37074116025032 39.42808253651784 12.706194137109007
    vertex 45.37065709995108 39.428030794702316 9.8661941388243
  endloop
endfacet
facet normal -3.624040528058702e-14 -0.999999999834035 1.8218949144974456e-05
  outer loop
    vertex 58.87069675629139 39.42805520081314 11.205794555582862
    vertex 45.37065709995108 39.428030794702316 9.8661941388243
    vertex 52.65065709676215 39.42803079077593 9.865978660310661
  endloop
endfacet
facet normal -3.624040528058702e-14 -0.999999999834035 1.8218949144974456e-05
  outer loop
    vertex 58.87069675629139 39.42805520081314 11.205794555582862
    vertex 52.65065709676215 39.42803079077593 9.865978660310661
    vertex 55.7105665234092 39.42797503914078 6.805888090147025
  endloop
endfacet
facet normal -3.624040528058702e-14 -0.999999999834035 1.8218949144974456e-05
  outer loop
    vertex 58.87069675629139 39.42805520081314 11.205794555582862
    vertex 55.7105665234092 39.42797503914078 6.805888090147025
    vertex 58.870430368019186 39.427891230271136 2.2057945610431005
  endloop
endfacet
facet normal -3.624040528058702e-14 -0.999999999834035 1.8218949144974456e-05
  outer loop
    vertex 58.870430368019186 39.427891230271136 2.2057945610431005
    vertex 55.7105665234092 39.42797503914078 6.805888090147025
    vertex 52.65047595273705 39.427919290807026 3.74597866400658
  endloop
endfacet
facet normal -3.624040528058702e-14 -0.999999999834035 1.8218949144974456e-05
  outer loop
    vertex 58.870430368019186 39.427891230271136 2.2057945610431005
    vertex 52.65047595273705 39.427919290807026 3.74597866400658
    vertex 52.65043037074386 39.427891233625495 2.2059786649372213
  endloop
endfacet
facet normal -2.658032385169502e-05 0.43993123392810085 -0.8980314630946876
  outer loop
    vertex 45.37069919800088 58.044555715920325 11.288148969136106
    vertex 58.8707076905822 58.63063993844199 11.574862665908991
    vertex 58.870699192087315 58.04455570863967 11.287749386727805
  endloop
endfacet
facet normal -2.6580323851698804e-05 0.43993123392810085 -0.8980314630946874
  outer loop
    vertex 45.370707696495764 58.630639945722734 11.575262248317292
    vertex 58.8707076905822 58.63063993844199 11.574862665908991
    vertex 45.37069919800088 58.044555715920325 11.288148969136106
  endloop
endfacet
facet normal -2.95301734727791e-05 -0.06802410724445576 -0.997683677305369
  outer loop
    vertex 29.8707114224221 59.27106423281452 11.701361398909597
    vertex 43.37071010283383 59.92218469695386 11.656567095262865
    vertex 43.370711416508584 59.27106422553422 11.700961816501298
  endloop
endfacet
facet normal -2.95301734727791e-05 -0.06802410724445575 -0.997683677305369
  outer loop
    vertex 29.87071010874735 59.922184704234255 11.656966677671166
    vertex 43.37071010283383 59.92218469695386 11.656567095262865
    vertex 29.8707114224221 59.27106423281452 11.701361398909597
  endloop
endfacet
facet normal -2.230431188347956e-05 0.6573685864937263 -0.7535692011977123
  outer loop
    vertex 29.87068650609533 57.55275221511892 10.85958785686756
    vertex 43.37069919887697 58.04455571699868 11.288208166529808
    vertex 43.37068650018197 57.55275220783854 10.859188274458717
  endloop
endfacet
facet normal -2.2304311883479568e-05 0.6573685864937262 -0.7535692011977122
  outer loop
    vertex 29.87068650609533 57.55275221511892 10.85958785686756
    vertex 29.870699204790483 58.044555724279064 11.288607748938109
    vertex 43.37069919887697 58.04455571699868 11.288208166529808
  endloop
endfacet
facet normal 2.904493067549819e-05 -0.19251329479025223 0.981294364849505
  outer loop
    vertex 55.67998538992969 60.225397582469775 6.836092126824118
    vertex 58.870563708077476 59.58497330201633 6.710357318962803
    vertex 58.87056742721414 60.225397580749096 6.8359976897534676
  endloop
endfacet
facet normal 2.904493061438727e-05 -0.19251329479054566 0.9812943648494475
  outer loop
    vertex 55.67998538992969 60.225397582469775 6.836092126824118
    vertex 55.710566523409874 60.06952681210562 6.805512022764236
    vertex 58.870563708077476 59.58497330201633 6.710357318962803
  endloop
endfacet
facet normal 2.9044930675495456e-05 -0.19251329479016177 0.9812943648495228
  outer loop
    vertex 55.615493709503376 59.58497330377175 6.710453664793778
    vertex 58.870563708077476 59.58497330201633 6.710357318962803
    vertex 55.710566523409874 60.06952681210562 6.805512022764236
  endloop
endfacet
facet normal 2.800298374881678e-05 0.3239257787843267 0.9460824959033965
  outer loop
    vertex 29.870565034455623 58.933852846235816 6.755610402411899
    vertex 33.270566533239425 58.78580420995989 6.806199605599819
    vertex 33.3212521744242 58.933852844374904 6.755508266569073
  endloop
endfacet
facet normal 2.8002983748798308e-05 0.323925778785782 0.9460824959028983
  outer loop
    vertex 29.870571291416837 58.316408966230405 6.967014788792753
    vertex 33.43127728563665 58.3164089643104 6.966909396535833
    vertex 33.270566533239425 58.78580420995989 6.806199605599819
  endloop
endfacet
facet normal 2.8002983802633174e-05 0.3239257787854331 0.9460824959030177
  outer loop
    vertex 29.870571291416837 58.316408966230405 6.967014788792753
    vertex 33.270566533239425 58.78580420995989 6.806199605599819
    vertex 29.870565034455623 58.933852846235816 6.755610402411899
  endloop
endfacet
facet normal -5.6986718654387886e-06 -0.9812943652787176 -0.192513294709129
  outer loop
    vertex 45.37065709995185 61.824411213668554 9.86578610030785
    vertex 58.87066116155007 61.79745124871096 10.002808998635468
    vertex 45.37066116746363 61.79745125599144 10.00320858104431
  endloop
endfacet
facet normal -5.698671865439802e-06 -0.9812943652787176 -0.19251329470912903
  outer loop
    vertex 45.37065709995185 61.824411213668554 9.86578610030785
    vertex 52.65065709676296 61.824411209742166 9.865570621794934
    vertex 58.87066116155007 61.79745124871096 10.002808998635468
  endloop
endfacet
facet normal -5.698671934293769e-06 -0.9812943652793071 -0.19251329470612416
  outer loop
    vertex 58.870642205893745 61.92309161955658 9.362384720183524
    vertex 58.87066116155007 61.79745124871096 10.002808998635468
    vertex 52.65065709676296 61.824411209742166 9.865570621794934
  endloop
endfacet
facet normal -5.698671865325544e-06 -0.9812943652794681 -0.19251329470530318
  outer loop
    vertex 53.15364220839806 61.92309162263969 9.362553935933123
    vertex 58.870642205893745 61.92309161955658 9.362384720183524
    vertex 52.65065709676296 61.824411209742166 9.865570621794934
  endloop
endfacet
facet normal -2.9598696901028906e-05 -1.8218949159626222e-05 -0.9999999993959936
  outer loop
    vertex 43.370741161126425 39.428082537596374 12.70625333450289
    vertex 45.370741160251626 79.42808252987889 12.705465379142032
    vertex 45.37074116025032 39.42808253651784 12.706194137109007
  endloop
endfacet
facet normal -2.9598696901028906e-05 -1.8218949159626222e-05 -0.9999999993959936
  outer loop
    vertex 45.370741160251626 79.42808252987889 12.705465379142032
    vertex 43.370741161126425 39.428082537596374 12.70625333450289
    vertex 43.37074116112774 79.42808253095743 12.705524576535733
  endloop
endfacet
facet normal 0.7071149588477845 1.6526766437351374e-05 0.7070986032375982
  outer loop
    vertex 54.87081515283255 79.42812807212823 15.205184190011952
    vertex 58.870696756292155 65.42805519649787 11.205320862887048
    vertex 58.87069675629261 79.42805519417446 11.205065797597658
  endloop
endfacet
facet normal 0.7071149588477845 1.6526766437351374e-05 0.7070986032375982
  outer loop
    vertex 58.870696756292155 65.42805519649787 11.205320862887048
    vertex 54.87081515283255 79.42812807212823 15.205184190011952
    vertex 54.87081515283203 65.4281280744519 15.205439255299536
  endloop
endfacet
facet normal 2.012886892235813e-06 -0.9976836777423774 0.06802410721495894
  outer loop
    vertex 29.870622946255484 61.878696913938235 8.712122611259067
    vertex 35.8276422159875 61.923091631983745 9.363066762956452
    vertex 29.87064221859689 61.92309163519598 9.363243082393286
  endloop
endfacet
facet normal 2.0128868922358133e-06 -0.9976836777423774 0.06802410721495895
  outer loop
    vertex 35.17650166379472 61.87869691107685 8.71196556416314
    vertex 35.8276422159875 61.923091631983745 9.363066762956452
    vertex 29.870622946255484 61.878696913938235 8.712122611259067
  endloop
endfacet
facet normal 2.9530173472778558e-05 0.06802410724495002 0.9976836773053354
  outer loop
    vertex 29.87056372078069 59.58497331765573 6.7112156811731065
    vertex 33.3212521744242 58.933852844374904 6.755508266569073
    vertex 33.36563371924973 59.58497331577091 6.711112231655798
  endloop
endfacet
facet normal 2.9530173472778558e-05 0.06802410724495002 0.9976836773053354
  outer loop
    vertex 29.87056372078069 59.58497331765573 6.7112156811731065
    vertex 29.870565034455623 58.933852846235816 6.755610402411899
    vertex 33.3212521744242 58.933852844374904 6.755508266569073
  endloop
endfacet
facet normal -2.9598696911283172e-05 -1.821894915503004e-05 -0.9999999993959936
  outer loop
    vertex 36.33065710391173 61.824411218543716 9.866053672528494
    vertex 43.3706571008285 79.42803078914172 9.86552457825211
    vertex 43.37065710082794 61.82441121474709 9.865845297702274
  endloop
endfacet
facet normal -2.9598696911283172e-05 -1.821894915503004e-05 -0.9999999993959936
  outer loop
    vertex 43.3706571008285 79.42803078914172 9.86552457825211
    vertex 36.33065710391173 61.824411218543716 9.866053672528494
    vertex 36.330657103912145 79.42803079293834 9.86573295307833
  endloop
endfacet
facet normal -0.7070985979623339 1.652449083710762e-05 0.7071149641229799
  outer loop
    vertex 33.870815162030574 53.53035060888481 15.206277592937411
    vertex 29.870696768994577 39.42805521645272 11.206652917816266
    vertex 33.87081516202994 39.42812809009172 15.206534520613339
  endloop
endfacet
facet normal -0.7070985979623339 1.652449083710762e-05 0.7071149641229799
  outer loop
    vertex 29.870696768994577 39.42805521645272 11.206652917816266
    vertex 33.870815162030574 53.53035060888481 15.206277592937411
    vertex 29.87069676899503 53.53027773524509 11.206395990141422
  endloop
endfacet
facet normal -2.95301734727791e-05 -0.06802410724445576 -0.997683677305369
  outer loop
    vertex 45.37071141563247 59.27106422445586 11.700902619108136
    vertex 58.87071009604416 59.922184688594854 11.656108315460862
    vertex 58.870711409718915 59.271064217175116 11.700503036699295
  endloop
endfacet
facet normal -0.7070858514377293 1.288312386949965e-05 0.7071277101985232
  outer loop
    vertex 55.71056652340976 58.78580419785822 6.805535410840541
    vertex 52.65047595273705 39.427919290807026 3.74597866400658
    vertex 55.7105665234092 39.42797503914078 6.805888090147025
  endloop
endfacet
facet normal -0.7070858514365345 1.2883123484781182e-05 0.7071277101997179
  outer loop
    vertex 55.65987788167851 58.933852832327915 6.754847072357185
    vertex 52.65047595273705 39.427919290807026 3.74597866400658
    vertex 55.71056652340976 58.78580419785822 6.805535410840541
  endloop
endfacet
facet normal -0.7070858514375669 1.2883123810854198e-05 0.7071277101986856
  outer loop
    vertex 52.65047595273842 79.42791928416817 3.7452499060410487
    vertex 52.65047595273705 39.427919290807026 3.74597866400658
    vertex 55.65987788167851 58.933852832327915 6.754847072357185
  endloop
endfacet
facet normal -0.7070858514356306 1.2883124404239289e-05 0.7071277102006216
  outer loop
    vertex 52.65047595273842 79.42791928416817 3.7452499060410487
    vertex 55.65987788167851 58.933852832327915 6.754847072357185
    vertex 55.615493709503376 59.58497330377175 6.710453664793778
  endloop
endfacet
facet normal -0.7070858514377564 1.2883123739194272e-05 0.7071277101984961
  outer loop
    vertex 52.65047595273842 79.42791928416817 3.7452499060410487
    vertex 55.615493709503376 59.58497330377175 6.710453664793778
    vertex 55.710566523409874 60.06952681210562 6.805512022764236
  endloop
endfacet
facet normal -0.7070858514374581 1.2883123838399857e-05 0.7071277101987945
  outer loop
    vertex 52.65047595273842 79.42791928416817 3.7452499060410487
    vertex 55.710566523409874 60.06952681210562 6.805512022764236
    vertex 55.71056652341046 79.42797503250256 6.80515933217987
  endloop
endfacet
facet normal -0.9999999995619586 5.392897430901351e-10 2.9598696908521496e-05
  outer loop
    vertex 45.37071141563247 59.27106422445586 11.700902619108136
    vertex 45.37065709995108 39.428030794702316 9.8661941388243
    vertex 45.37074116025032 39.42808253651784 12.706194137109007
  endloop
endfacet
facet normal -0.9999999995619586 5.392897430901351e-10 2.9598696908521496e-05
  outer loop
    vertex 45.370741160251626 79.42808252987889 12.705465379142032
    vertex 45.37071141563247 59.27106422445586 11.700902619108136
    vertex 45.37074116025032 39.42808253651784 12.706194137109007
  endloop
endfacet
facet normal -0.9999999995619586 5.392897430901351e-10 2.9598696908521496e-05
  outer loop
    vertex 45.37071141563247 59.27106422445586 11.700902619108136
    vertex 45.370707696495764 58.630639945722734 11.575262248317292
    vertex 45.37065709995108 39.428030794702316 9.8661941388243
  endloop
endfacet
facet normal -0.9999999995619586 5.392897430901351e-10 2.9598696908521496e-05
  outer loop
    vertex 45.370707696495764 58.630639945722734 11.575262248317292
    vertex 45.37069919800088 58.044555715920325 11.288148969136106
    vertex 45.37065709995108 39.428030794702316 9.8661941388243
  endloop
endfacet
facet normal -0.9999999995619586 5.392897430901351e-10 2.9598696908521496e-05
  outer loop
    vertex 45.37069919800088 58.044555715920325 11.288148969136106
    vertex 45.370686499305855 57.55275220676027 10.859129077064836
    vertex 45.37065709995108 39.428030794702316 9.8661941388243
  endloop
endfacet
facet normal -0.9999999995619586 5.392897430901351e-10 2.9598696908521496e-05
  outer loop
    vertex 45.370686499305855 57.55275220676027 10.859129077064836
    vertex 45.370670465805894 57.188745014646706 10.317439568757495
    vertex 45.37065709995108 39.428030794702316 9.8661941388243
  endloop
endfacet
facet normal -0.9999999995619586 5.392897430901351e-10 2.9598696908521496e-05
  outer loop
    vertex 45.370670465805894 57.188745014646706 10.317439568757495
    vertex 45.37065709995162 57.03413489141941 9.865873374108125
    vertex 45.37065709995108 39.428030794702316 9.8661941388243
  endloop
endfacet
facet normal -0.9999999995619586 5.392897430901351e-10 2.9598696908521496e-05
  outer loop
    vertex 45.370741160251626 79.42808252987889 12.705465379142032
    vertex 45.37071010195772 59.9221846958756 11.656507897869705
    vertex 45.37071141563247 59.27106422445586 11.700902619108136
  endloop
endfacet
facet normal -0.9999999995619586 5.392897430901351e-10 2.9598696908521496e-05
  outer loop
    vertex 45.370741160251626 79.42808252987889 12.705465379142032
    vertex 45.37070384499631 60.539628575881004 11.445103511489213
    vertex 45.37071010195772 59.9221846958756 11.656507897869705
  endloop
endfacet
facet normal -0.9999999995619586 5.392897430901351e-10 2.9598696908521496e-05
  outer loop
    vertex 45.370741160251626 79.42808252987889 12.705465379142032
    vertex 45.37069307114992 61.081318084426215 11.081096319533835
    vertex 45.37070384499631 60.539628575881004 11.445103511489213
  endloop
endfacet
facet normal -0.9999999995619586 5.392897430901351e-10 2.9598696908521496e-05
  outer loop
    vertex 45.370741160251626 79.42808252987889 12.705465379142032
    vertex 45.37067851463831 61.51033797668518 10.589292810589178
    vertex 45.37069307114992 61.081318084426215 11.081096319533835
  endloop
endfacet
facet normal -0.9999999995619586 5.392897430901351e-10 2.9598696908521496e-05
  outer loop
    vertex 45.370741160251626 79.42808252987889 12.705465379142032
    vertex 45.37066116746363 61.79745125599144 10.00320858104431
    vertex 45.37067851463831 61.51033797668518 10.589292810589178
  endloop
endfacet
facet normal -0.9999999995619586 5.392897430901351e-10 2.9598696908521496e-05
  outer loop
    vertex 45.370741160251626 79.42808252987889 12.705465379142032
    vertex 45.37065709995185 61.824411213668554 9.86578610030785
    vertex 45.37066116746363 61.79745125599144 10.00320858104431
  endloop
endfacet
facet normal -0.9999999995619586 5.392897430901351e-10 2.9598696908521496e-05
  outer loop
    vertex 45.37065709995239 79.42803078806318 9.865465380857685
    vertex 45.37065709995185 61.824411213668554 9.86578610030785
    vertex 45.370741160251626 79.42808252987889 12.705465379142032
  endloop
endfacet
facet normal 1.302187555278607e-05 0.8980314634881928 0.4399312337350982
  outer loop
    vertex 58.87059660907171 57.34569954978683 7.821967127481039
    vertex 54.108035947923916 57.05858627304895 8.408192323129866
    vertex 58.870613956246366 57.05858627048021 8.408051357027533
  endloop
endfacet
facet normal 1.3021875552778448e-05 0.8980314634881926 0.4399312337350981
  outer loop
    vertex 58.87059660907171 57.34569954978683 7.821967127481039
    vertex 54.69409759929536 57.34569955203919 7.822090746410029
    vertex 54.108035947923916 57.05858627304895 8.408192323129866
  endloop
endfacet
facet normal -1.302187555275359e-05 -0.898031463488573 -0.4399312337343221
  outer loop
    vertex 29.870661174253257 61.797451264350364 10.003667360845771
    vertex 43.37067851551439 61.51033797776372 10.589352007983603
    vertex 29.870678521427912 61.51033798504383 10.589751590391904
  endloop
endfacet
facet normal -1.3021875552755485e-05 -0.898031463488573 -0.4399312337343221
  outer loop
    vertex 29.870661174253257 61.797451264350364 10.003667360845771
    vertex 43.370661168339744 61.79745125706997 10.003267778438193
    vertex 43.37067851551439 61.51033797776372 10.589352007983603
  endloop
endfacet
facet normal -0.9999999995619586 5.392897430901351e-10 2.9598696908521496e-05
  outer loop
    vertex 52.65047595273842 79.42791928416817 3.7452499060410487
    vertex 52.65043037074386 39.427891233625495 2.2059786649372213
    vertex 52.65047595273705 39.427919290807026 3.74597866400658
  endloop
endfacet
facet normal -0.9999999995619586 5.392897430901351e-10 2.9598696908521496e-05
  outer loop
    vertex 52.650430370745084 79.427891226987 2.2052499069711486
    vertex 52.65043037074386 39.427891233625495 2.2059786649372213
    vertex 52.65047595273842 79.42791928416817 3.7452499060410487
  endloop
endfacet
facet normal -2.230431188348182e-05 0.6573685864937263 -0.7535692011977121
  outer loop
    vertex 45.370686499305855 57.55275220676027 10.859129077064836
    vertex 58.870699192087315 58.04455570863967 11.287749386727805
    vertex 58.87068649339229 57.55275219947952 10.858729494657256
  endloop
endfacet
facet normal -2.230431188348182e-05 0.6573685864937263 -0.7535692011977121
  outer loop
    vertex 45.370686499305855 57.55275220676027 10.859129077064836
    vertex 45.37069919800088 58.044555715920325 11.288148969136106
    vertex 58.870699192087315 58.04455570863967 11.287749386727805
  endloop
endfacet
facet normal -1.650829792000523e-05 0.8300073562436873 -0.5577524435704796
  outer loop
    vertex 58.87067045989233 57.18874500736623 10.317039986349194
    vertex 45.370686499305855 57.55275220676027 10.859129077064836
    vertex 58.87068649339229 57.55275219947952 10.858729494657256
  endloop
endfacet
facet normal -1.6508297920007286e-05 0.8300073562436873 -0.5577524435704797
  outer loop
    vertex 45.370670465805894 57.188745014646706 10.317439568757495
    vertex 45.370686499305855 57.55275220676027 10.859129077064836
    vertex 58.87067045989233 57.18874500736623 10.317039986349194
  endloop
endfacet
facet normal -2.8002983748806334e-05 -0.32392577878518564 -0.9460824959031024
  outer loop
    vertex 45.37070384499631 60.539628575881004 11.445103511489213
    vertex 58.87070383908274 60.53962856860026 11.444703929080912
    vertex 45.37071010195772 59.9221846958756 11.656507897869705
  endloop
endfacet
facet normal -9.587270734546123e-06 0.946082496317404 -0.32392577864367883
  outer loop
    vertex 58.87065218424414 56.97734062089279 9.699596106613875
    vertex 45.370670465805894 57.188745014646706 10.317439568757495
    vertex 58.87067045989233 57.18874500736623 10.317039986349194
  endloop
endfacet
facet normal -9.587270695978424e-06 0.9460824963176622 -0.3239257786429246
  outer loop
    vertex 58.87065218424414 56.97734062089279 9.699596106613875
    vertex 52.650657096762714 57.03413488749303 9.865657895595207
    vertex 45.370670465805894 57.188745014646706 10.317439568757495
  endloop
endfacet
facet normal -9.587270734538447e-06 0.946082496317472 -0.3239257786434804
  outer loop
    vertex 45.37065709995162 57.03413489141941 9.865873374108125
    vertex 45.370670465805894 57.188745014646706 10.317439568757495
    vertex 52.650657096762714 57.03413488749303 9.865657895595207
  endloop
endfacet
facet normal -9.587270734560303e-06 0.9460824963172192 -0.32392577864421873
  outer loop
    vertex 52.81653090675955 56.97734062415772 9.699775300714798
    vertex 52.650657096762714 57.03413488749303 9.865657895595207
    vertex 58.87065218424414 56.97734062089279 9.699596106613875
  endloop
endfacet
facet normal -0.7070815999677426 1.4097867161722112e-05 0.7071319613681081
  outer loop
    vertex 29.870696768995888 79.42805520981386 11.205924159850193
    vertex 33.87081516203094 65.42812808577699 15.20606082793449
    vertex 33.87081516203157 79.4281280834533 15.205805762647087
  endloop
endfacet
facet normal -0.7070815999677426 1.4097867161722112e-05 0.7071319613681081
  outer loop
    vertex 33.87081516203094 65.42812808577699 15.20606082793449
    vertex 29.870696768995888 79.42805520981386 11.205924159850193
    vertex 29.870696768995437 65.42805521213754 11.206179225138499
  endloop
endfacet
facet normal 2.456743695946626e-05 0.5577524438144704 0.8300073558803123
  outer loop
    vertex 29.870582065263243 57.7747194576861 7.331021980745966
    vertex 33.79528538236252 57.774719455569546 7.330905814641872
    vertex 33.43127728563665 58.3164089643104 6.966909396535833
  endloop
endfacet
facet normal 2.4567436959478397e-05 0.5577524438144702 0.8300073558803123
  outer loop
    vertex 29.870582065263243 57.7747194576861 7.331021980745966
    vertex 33.43127728563665 58.3164089643104 6.966909396535833
    vertex 29.870571291416837 58.316408966230405 6.967014788792753
  endloop
endfacet
facet normal 1.945765994094174e-05 0.7535692015279408 0.6573685862055938
  outer loop
    vertex 33.79528538236252 57.774719455569546 7.330905814641872
    vertex 29.87059662177488 57.34569956542623 7.8228254896913425
    vertex 34.287095631445965 57.34569956304446 7.822694767076379
  endloop
endfacet
facet normal 1.9457659940926962e-05 0.753569201527941 0.6573685862055938
  outer loop
    vertex 29.870582065263243 57.7747194576861 7.331021980745966
    vertex 29.87059662177488 57.34569956542623 7.8228254896913425
    vertex 33.79528538236252 57.774719455569546 7.330905814641872
  endloop
endfacet
facet normal 2.6580323851688792e-05 -0.4399312339286607 0.8980314630944133
  outer loop
    vertex 55.39286993145311 60.811481812427395 7.123213904500844
    vertex 58.87056742721414 60.225397580749096 6.8359976897534676
    vertex 58.870575925709225 60.8114818105516 7.123110968935737
  endloop
endfacet
facet normal 2.6580323851697283e-05 -0.4399312339286606 0.8980314630944133
  outer loop
    vertex 55.39286993145311 60.811481812427395 7.123213904500844
    vertex 55.67998538992969 60.225397582469775 6.836092126824118
    vertex 58.87056742721414 60.225397580749096 6.8359976897534676
  endloop
endfacet
facet normal -0.7071277103160413 -1.2882361154262666e-05 -0.7070858513202182
  outer loop
    vertex 52.650657096762714 57.03413488749303 9.865657895595207
    vertex 55.7105665234092 39.42797503914078 6.805888090147025
    vertex 52.65065709676215 39.42803079077593 9.865978660310661
  endloop
endfacet
facet normal -0.7071277103162565 -1.288236122928099e-05 -0.7070858513200029
  outer loop
    vertex 52.650657096762714 57.03413488749303 9.865657895595207
    vertex 52.81653090675955 56.97734062415772 9.699775300714798
    vertex 55.7105665234092 39.42797503914078 6.805888090147025
  endloop
endfacet
facet normal -0.7071277103162238 -1.2882361218585474e-05 -0.7070858513200357
  outer loop
    vertex 52.81653090675955 56.97734062415772 9.699775300714798
    vertex 53.46763291426944 56.93294590254859 9.048635557238226
    vertex 55.7105665234092 39.42797503914078 6.805888090147025
  endloop
endfacet
facet normal -0.707127710316292 -1.2882361198641454e-05 -0.7070858513199675
  outer loop
    vertex 55.71056652340976 58.78580419785822 6.805535410840541
    vertex 55.7105665234092 39.42797503914078 6.805888090147025
    vertex 55.5498652843887 58.31640895238207 6.966254715152673
  endloop
endfacet
facet normal -0.7071277103157304 -1.2882361189088402e-05 -0.7070858513205291
  outer loop
    vertex 55.5498652843887 58.31640895238207 6.966254715152673
    vertex 55.7105665234092 39.42797503914078 6.805888090147025
    vertex 55.18587873535553 57.774719444033856 7.330272680952339
  endloop
endfacet
facet normal -0.707127710316336 -1.2882361223736562e-05 -0.7070858513199234
  outer loop
    vertex 55.18587873535553 57.774719444033856 7.330272680952339
    vertex 55.7105665234092 39.42797503914078 6.805888090147025
    vertex 54.69409759929536 57.34569955203919 7.822090746410029
  endloop
endfacet
facet normal -0.7071277103161985 -1.2882361208110307e-05 -0.707085851320061
  outer loop
    vertex 54.69409759929536 57.34569955203919 7.822090746410029
    vertex 55.7105665234092 39.42797503914078 6.805888090147025
    vertex 54.108035947923916 57.05858627304895 8.408192323129866
  endloop
endfacet
facet normal -0.7071277103161437 -1.2882361198002188e-05 -0.7070858513201158
  outer loop
    vertex 54.108035947923916 57.05858627304895 8.408192323129866
    vertex 55.7105665234092 39.42797503914078 6.805888090147025
    vertex 53.46763291426944 56.93294590254859 9.048635557238226
  endloop
endfacet
facet normal -9.587270734539293e-06 0.9460824963174718 -0.3239257786434805
  outer loop
    vertex 43.370657100827756 57.03413489249795 9.865932571502547
    vertex 29.87067047259561 57.18874502300562 10.317898348559497
    vertex 43.37067046668207 57.18874501572524 10.317498766151196
  endloop
endfacet
facet normal -9.587270734538449e-06 0.9460824963174718 -0.32392577864348043
  outer loop
    vertex 36.33065710391173 57.034134896294574 9.86614094632877
    vertex 29.87067047259561 57.18874502300562 10.317898348559497
    vertex 43.370657100827756 57.03413489249795 9.865932571502547
  endloop
endfacet
facet normal -9.587270750031371e-06 0.946082496317404 -0.32392577864367883
  outer loop
    vertex 29.87065219694722 56.977340636532006 9.70045446882436
    vertex 29.87067047259561 57.18874502300562 10.317898348559497
    vertex 36.33065710391173 57.034134896294574 9.86614094632877
  endloop
endfacet
facet normal -9.587270734560301e-06 0.9460824963172192 -0.3239257786442187
  outer loop
    vertex 29.87065219694722 56.977340636532006 9.70045446882436
    vertex 36.33065710391173 57.034134896294574 9.86614094632877
    vertex 36.164773474326786 56.97734063313785 9.7002681710362
  endloop
endfacet
facet normal 0.7070858514375513 -1.2883123872675608e-05 -0.7071277101987012
  outer loop
    vertex 34.873191977166734 57.0585862834221 8.408761649447543
    vertex 35.51363292213404 56.932945912230956 9.04916697224253
    vertex 33.27056653323879 39.42797505124263 6.806552284906304
  endloop
endfacet
facet normal 0.7070858514377848 -1.2883123906440858e-05 -0.7071277101984678
  outer loop
    vertex 33.27056653323879 39.42797505124263 6.806552284906304
    vertex 34.287095631445965 57.34569956304446 7.822694767076379
    vertex 34.873191977166734 57.0585862834221 8.408761649447543
  endloop
endfacet
facet normal 0.7070858514377848 -1.2883123906440858e-05 -0.7071277101984678
  outer loop
    vertex 34.287095631445965 57.34569956304446 7.822694767076379
    vertex 33.27056653323879 39.42797505124263 6.806552284906304
    vertex 33.79528538236252 57.774719455569546 7.330905814641872
  endloop
endfacet
facet normal 0.7070858514374295 -1.2883123825131836e-05 -0.707127710198823
  outer loop
    vertex 36.33065710391173 57.034134896294574 9.86614094632877
    vertex 36.330657103911015 39.42803079957747 9.866461711044224
    vertex 33.27056653323879 39.42797505124263 6.806552284906304
  endloop
endfacet
facet normal 0.7070858514375005 -1.2883123849401743e-05 -0.707127710198752
  outer loop
    vertex 36.33065710391173 57.034134896294574 9.86614094632877
    vertex 33.27056653323879 39.42797505124263 6.806552284906304
    vertex 36.164773474326786 56.97734063313785 9.7002681710362
  endloop
endfacet
facet normal 0.7070858514376307 -1.2883123892828361e-05 -0.7071277101986218
  outer loop
    vertex 36.164773474326786 56.97734063313785 9.7002681710362
    vertex 33.27056653323879 39.42797505124263 6.806552284906304
    vertex 35.51363292213404 56.932945912230956 9.04916697224253
  endloop
endfacet
facet normal -2.9044930675501656e-05 0.19251329478951076 -0.9812943648496506
  outer loop
    vertex 45.370707696495764 58.630639945722734 11.575262248317292
    vertex 58.870711409718915 59.271064217175116 11.700503036699295
    vertex 58.8707076905822 58.63063993844199 11.574862665908991
  endloop
endfacet
facet normal -2.9044930675502523e-05 0.19251329478951074 -0.9812943648496506
  outer loop
    vertex 45.370707696495764 58.630639945722734 11.575262248317292
    vertex 45.37071141563247 59.27106422445586 11.700902619108136
    vertex 58.870711409718915 59.271064217175116 11.700503036699295
  endloop
endfacet
facet normal 2.8002983748815384e-05 0.3239257787854331 0.9460824959030177
  outer loop
    vertex 55.65987788167851 58.933852832327915 6.754847072357185
    vertex 58.87057127871365 58.31640895059101 6.966156426582991
    vertex 58.8705650217523 58.933852830596415 6.754752040201596
  endloop
endfacet
facet normal 2.800298349443676e-05 0.32392577878424994 0.946082495903423
  outer loop
    vertex 55.65987788167851 58.933852832327915 6.754847072357185
    vertex 55.71056652340976 58.78580419785822 6.805535410840541
    vertex 58.87057127871365 58.31640895059101 6.966156426582991
  endloop
endfacet
facet normal 2.800298374881034e-05 0.32392577878578205 0.9460824959028983
  outer loop
    vertex 55.5498652843887 58.31640895238207 6.966254715152673
    vertex 58.87057127871365 58.31640895059101 6.966156426582991
    vertex 55.71056652340976 58.78580419785822 6.805535410840541
  endloop
endfacet
facet normal 0.9999999995619586 -5.392897430901351e-10 -2.9598696908521496e-05
  outer loop
    vertex 43.37074116112774 79.42808253095743 12.705524576535733
    vertex 43.370741161126425 39.428082537596374 12.70625333450289
    vertex 43.370711416508584 59.27106422553422 11.700961816501298
  endloop
endfacet
facet normal 0.9999999995619586 -5.392897430901351e-10 -2.9598696908521496e-05
  outer loop
    vertex 43.370711416508584 59.27106422553422 11.700961816501298
    vertex 43.370741161126425 39.428082537596374 12.70625333450289
    vertex 43.370657100827195 39.42803079578085 9.866253336218001
  endloop
endfacet
facet normal 0.9999999995619586 -5.392897430901351e-10 -2.9598696908521496e-05
  outer loop
    vertex 43.370711416508584 59.27106422553422 11.700961816501298
    vertex 43.370657100827195 39.42803079578085 9.866253336218001
    vertex 43.37070769737194 58.630639946801274 11.575321445710994
  endloop
endfacet
facet normal 0.9999999995619586 -5.392897430901351e-10 -2.9598696908521496e-05
  outer loop
    vertex 43.37070769737194 58.630639946801274 11.575321445710994
    vertex 43.370657100827195 39.42803079578085 9.866253336218001
    vertex 43.37069919887697 58.04455571699868 11.288208166529808
  endloop
endfacet
facet normal 0.9999999995619586 -5.392897430901351e-10 -2.9598696908521496e-05
  outer loop
    vertex 43.37069919887697 58.04455571699868 11.288208166529808
    vertex 43.370657100827195 39.42803079578085 9.866253336218001
    vertex 43.37068650018197 57.55275220783854 10.859188274458717
  endloop
endfacet
facet normal 0.9999999995619586 -5.392897430901351e-10 -2.9598696908521496e-05
  outer loop
    vertex 43.37068650018197 57.55275220783854 10.859188274458717
    vertex 43.370657100827195 39.42803079578085 9.866253336218001
    vertex 43.37067046668207 57.18874501572524 10.317498766151196
  endloop
endfacet
facet normal 0.9999999995619586 -5.392897430901351e-10 -2.9598696908521496e-05
  outer loop
    vertex 43.37067046668207 57.18874501572524 10.317498766151196
    vertex 43.370657100827195 39.42803079578085 9.866253336218001
    vertex 43.370657100827756 57.03413489249795 9.865932571502547
  endloop
endfacet
facet normal 0.9999999995619586 -5.392897430901351e-10 -2.9598696908521496e-05
  outer loop
    vertex 43.37074116112774 79.42808253095743 12.705524576535733
    vertex 43.370711416508584 59.27106422553422 11.700961816501298
    vertex 43.37071010283383 59.92218469695386 11.656567095262865
  endloop
endfacet
facet normal 0.9999999995619586 -5.392897430901351e-10 -2.9598696908521496e-05
  outer loop
    vertex 43.37074116112774 79.42808253095743 12.705524576535733
    vertex 43.37071010283383 59.92218469695386 11.656567095262865
    vertex 43.370703845872434 60.53962857695954 11.445162708882373
  endloop
endfacet
facet normal 0.9999999995619586 -5.392897430901351e-10 -2.9598696908521496e-05
  outer loop
    vertex 43.37074116112774 79.42808253095743 12.705524576535733
    vertex 43.370703845872434 60.53962857695954 11.445162708882373
    vertex 43.37069307202603 61.08131808550475 11.081155516928439
  endloop
endfacet
facet normal 0.9999999995619586 -5.392897430901351e-10 -2.9598696908521496e-05
  outer loop
    vertex 43.37074116112774 79.42808253095743 12.705524576535733
    vertex 43.37069307202603 61.08131808550475 11.081155516928439
    vertex 43.37067851551439 61.51033797776372 10.589352007983603
  endloop
endfacet
facet normal 0.9999999995619586 -5.392897430901351e-10 -2.9598696908521496e-05
  outer loop
    vertex 43.37074116112774 79.42808253095743 12.705524576535733
    vertex 43.37067851551439 61.51033797776372 10.589352007983603
    vertex 43.370661168339744 61.79745125706997 10.003267778438193
  endloop
endfacet
facet normal 0.9999999995619586 -5.392897430901351e-10 -2.9598696908521496e-05
  outer loop
    vertex 43.37074116112774 79.42808253095743 12.705524576535733
    vertex 43.370661168339744 61.79745125706997 10.003267778438193
    vertex 43.37065710082794 61.82441121474709 9.865845297702274
  endloop
endfacet
facet normal 0.9999999995619586 -5.392897430901351e-10 -2.9598696908521496e-05
  outer loop
    vertex 43.3706571008285 79.42803078914172 9.86552457825211
    vertex 43.37074116112774 79.42808253095743 12.705524576535733
    vertex 43.37065710082794 61.82441121474709 9.865845297702274
  endloop
endfacet
facet normal -1.650829792000523e-05 0.8300073562436874 -0.5577524435704796
  outer loop
    vertex 43.37067046668207 57.18874501572524 10.317498766151196
    vertex 29.87068650609533 57.55275221511892 10.85958785686756
    vertex 43.37068650018197 57.55275220783854 10.859188274458717
  endloop
endfacet
facet normal -1.6508297920007286e-05 0.8300073562436873 -0.5577524435704797
  outer loop
    vertex 29.87067047259561 57.18874502300562 10.317898348559497
    vertex 29.87068650609533 57.55275221511892 10.85958785686756
    vertex 43.37067046668207 57.18874501572524 10.317498766151196
  endloop
endfacet
facet normal -2.904493067550426e-05 0.19251329478951076 -0.9812943648496506
  outer loop
    vertex 29.870707703285483 58.63063995408139 11.575721028119295
    vertex 43.370711416508584 59.27106422553422 11.700961816501298
    vertex 43.37070769737194 58.630639946801274 11.575321445710994
  endloop
endfacet
facet normal -2.9044930675502523e-05 0.19251329478951076 -0.9812943648496506
  outer loop
    vertex 29.8707114224221 59.27106423281452 11.701361398909597
    vertex 43.370711416508584 59.27106422553422 11.700961816501298
    vertex 29.870707703285483 58.63063995408139 11.575721028119295
  endloop
endfacet
facet normal -2.9598696913434453e-05 -1.821894916088446e-05 -0.9999999993959936
  outer loop
    vertex 52.65043037074386 39.427891233625495 2.2059786649372213
    vertex 58.87043036802043 79.42789122363264 2.2050658030757644
    vertex 58.870430368019186 39.427891230271136 2.2057945610431005
  endloop
endfacet
facet normal 4.733527165441932e-14 0.999999999834035 -1.821894917389935e-05
  outer loop
    vertex 29.870696768995437 65.42805521213754 11.206179225138499
    vertex 29.87081516378302 65.42812808793414 15.206179222722255
    vertex 33.87081516203094 65.42812808577699 15.20606082793449
  endloop
endfacet
facet normal -0.9999999995619586 5.392905253258397e-10 2.9598696904994698e-05
  outer loop
    vertex 29.87081516378302 65.42812808793414 15.206179222722255
    vertex 29.87069676899503 53.53027773524509 11.206395990141422
    vertex 29.870815170198558 53.5303506149911 15.206612752730805
  endloop
endfacet
facet normal -0.9999999995619586 5.392905253258397e-10 2.9598696904994698e-05
  outer loop
    vertex 29.87069676899503 53.53027773524509 11.206395990141422
    vertex 29.87081516378302 65.42812808793414 15.206179222722255
    vertex 29.870699204790483 58.044555724279064 11.288607748938109
  endloop
endfacet
facet normal -0.9999999995619586 5.392905253258397e-10 2.9598696904994698e-05
  outer loop
    vertex 29.87069676899503 53.53027773524509 11.206395990141422
    vertex 29.870699204790483 58.044555724279064 11.288607748938109
    vertex 29.87068650609533 57.55275221511892 10.85958785686756
  endloop
endfacet
facet normal -0.9999999995619586 5.392905253258397e-10 2.9598696904994698e-05
  outer loop
    vertex 29.87069676899503 53.53027773524509 11.206395990141422
    vertex 29.87068650609533 57.55275221511892 10.85958785686756
    vertex 29.87067047259561 57.18874502300562 10.317898348559497
  endloop
endfacet
facet normal -0.9999999995619586 5.392905253258397e-10 2.9598696904994698e-05
  outer loop
    vertex 29.87069676899503 53.53027773524509 11.206395990141422
    vertex 29.87067047259561 57.18874502300562 10.317898348559497
    vertex 29.87065219694722 56.977340636532006 9.70045446882436
  endloop
endfacet
facet normal -0.9999999995619586 5.392905253258397e-10 2.9598696904994698e-05
  outer loop
    vertex 29.87069676899503 53.53027773524509 11.206395990141422
    vertex 29.87065219694722 56.977340636532006 9.70045446882436
    vertex 29.870632924605903 56.932945915274175 9.04933399768978
  endloop
endfacet
facet normal -0.9999999995619586 5.392905253258397e-10 2.9598696904994698e-05
  outer loop
    vertex 29.870699204790483 58.044555724279064 11.288607748938109
    vertex 29.87081516378302 65.42812808793414 15.206179222722255
    vertex 29.870707703285483 58.63063995408139 11.575721028119295
  endloop
endfacet
facet normal -0.9999999995619586 5.392905253258397e-10 2.9598696904994698e-05
  outer loop
    vertex 29.870707703285483 58.63063995408139 11.575721028119295
    vertex 29.87081516378302 65.42812808793414 15.206179222722255
    vertex 29.8707114224221 59.27106423281452 11.701361398909597
  endloop
endfacet
facet normal -0.9999999995619586 5.392905253258397e-10 2.9598696904994698e-05
  outer loop
    vertex 29.8707114224221 59.27106423281452 11.701361398909597
    vertex 29.87081516378302 65.42812808793414 15.206179222722255
    vertex 29.87071010874735 59.922184704234255 11.656966677671166
  endloop
endfacet
facet normal -0.9999999995619586 5.392905253258397e-10 2.9598696904994698e-05
  outer loop
    vertex 29.87071010874735 59.922184704234255 11.656966677671166
    vertex 29.87081516378302 65.42812808793414 15.206179222722255
    vertex 29.870703851785954 60.53962858423966 11.445562291291216
  endloop
endfacet
facet normal -0.9999999995619586 5.392905253258397e-10 2.9598696904994698e-05
  outer loop
    vertex 29.870703851785954 60.53962858423966 11.445562291291216
    vertex 29.87081516378302 65.42812808793414 15.206179222722255
    vertex 29.870693077939546 61.08131809278486 11.081555099335837
  endloop
endfacet
facet normal -0.9999999995619586 5.392905253258397e-10 2.9598696904994698e-05
  outer loop
    vertex 29.870693077939546 61.08131809278486 11.081555099335837
    vertex 29.87081516378302 65.42812808793414 15.206179222722255
    vertex 29.870678521427912 61.51033798504383 10.589751590391904
  endloop
endfacet
facet normal -0.9999999995619586 5.392905253258397e-10 2.9598696904994698e-05
  outer loop
    vertex 29.870678521427912 61.51033798504383 10.589751590391904
    vertex 29.87081516378302 65.42812808793414 15.206179222722255
    vertex 29.870661174253257 61.797451264350364 10.003667360845771
  endloop
endfacet
facet normal -0.9999999995619586 5.392905253258397e-10 2.9598696904994698e-05
  outer loop
    vertex 29.870661174253257 61.797451264350364 10.003667360845771
    vertex 29.87081516378302 65.42812808793414 15.206179222722255
    vertex 29.87064221859689 61.92309163519598 9.363243082393286
  endloop
endfacet
facet normal -0.9999999995619586 5.392905253258397e-10 2.9598696904994698e-05
  outer loop
    vertex 29.87069676899503 53.53027773524509 11.206395990141422
    vertex 29.870430380722244 39.42789124591054 2.206652923252862
    vertex 29.870696768994577 39.42805521645272 11.206652917816266
  endloop
endfacet
facet normal -0.9999999995619586 5.392905253258397e-10 2.9598696904994698e-05
  outer loop
    vertex 29.870430380722244 39.42789124591054 2.206652923252862
    vertex 29.87069676899503 53.53027773524509 11.206395990141422
    vertex 29.870582065263243 57.7747194576861 7.331021980745966
  endloop
endfacet
facet normal -0.9999999995619586 5.392905253258397e-10 2.9598696904994698e-05
  outer loop
    vertex 29.870430380722244 39.42789124591054 2.206652923252862
    vertex 29.870582065263243 57.7747194576861 7.331021980745966
    vertex 29.870571291416837 58.316408966230405 6.967014788792753
  endloop
endfacet
facet normal -0.9999999995619586 5.392905253258397e-10 2.9598696904994698e-05
  outer loop
    vertex 29.870430380722244 39.42789124591054 2.206652923252862
    vertex 29.870571291416837 58.316408966230405 6.967014788792753
    vertex 29.870565034455623 58.933852846235816 6.755610402411899
  endloop
endfacet
facet normal -0.9999999995619586 5.392905253258397e-10 2.9598696904994698e-05
  outer loop
    vertex 29.870430380722244 39.42789124591054 2.206652923252862
    vertex 29.870565034455623 58.933852846235816 6.755610402411899
    vertex 29.87043038072378 79.42789123927203 2.2059241652867896
  endloop
endfacet
facet normal -0.9999999995619586 5.392905253258397e-10 2.9598696904994698e-05
  outer loop
    vertex 29.870582065263243 57.7747194576861 7.331021980745966
    vertex 29.87069676899503 53.53027773524509 11.206395990141422
    vertex 29.87059662177488 57.34569956542623 7.8228254896913425
  endloop
endfacet
facet normal -0.9999999995619586 5.392905253258397e-10 2.9598696904994698e-05
  outer loop
    vertex 29.87059662177488 57.34569956542623 7.8228254896913425
    vertex 29.87069676899503 53.53027773524509 11.206395990141422
    vertex 29.87061396894953 57.05858628611961 8.408909719237835
  endloop
endfacet
facet normal -0.9999999995619586 5.392905253258397e-10 2.9598696904994698e-05
  outer loop
    vertex 29.87061396894953 57.05858628611961 8.408909719237835
    vertex 29.87069676899503 53.53027773524509 11.206395990141422
    vertex 29.870632924605903 56.932945915274175 9.04933399768978
  endloop
endfacet
facet normal -0.9999999995619586 5.392905253258397e-10 2.9598696904994698e-05
  outer loop
    vertex 29.87043038072378 79.42789123927203 2.2059241652867896
    vertex 29.870565034455623 58.933852846235816 6.755610402411899
    vertex 29.87056372078069 59.58497331765573 6.7112156811731065
  endloop
endfacet
facet normal -0.9999999995619586 5.392905253258397e-10 2.9598696904994698e-05
  outer loop
    vertex 29.87043038072378 79.42789123927203 2.2059241652867896
    vertex 29.87056372078069 59.58497331765573 6.7112156811731065
    vertex 29.870567439917217 60.2253975963885 6.836856051963771
  endloop
endfacet
facet normal -0.9999999995619586 5.392905253258397e-10 2.9598696904994698e-05
  outer loop
    vertex 29.87043038072378 79.42789123927203 2.2059241652867896
    vertex 29.870567439917217 60.2253975963885 6.836856051963771
    vertex 29.870575938412216 60.811481826191 7.123969331145498
  endloop
endfacet
facet normal -0.9999999995619586 5.392905253258397e-10 2.9598696904994698e-05
  outer loop
    vertex 29.87043038072378 79.42789123927203 2.2059241652867896
    vertex 29.870575938412216 60.811481826191 7.123969331145498
    vertex 29.87058863710733 61.30328533535141 7.552989223216228
  endloop
endfacet
facet normal -0.9999999995619586 5.392905253258397e-10 2.9598696904994698e-05
  outer loop
    vertex 29.87043038072378 79.42789123927203 2.2059241652867896
    vertex 29.87058863710733 61.30328533535141 7.552989223216228
    vertex 29.870604670607364 61.6672925274648 8.094678731523567
  endloop
endfacet
facet normal -0.9999999995619586 5.392905253258397e-10 2.9598696904994698e-05
  outer loop
    vertex 29.87043038072378 79.42789123927203 2.2059241652867896
    vertex 29.870604670607364 61.6672925274648 8.094678731523567
    vertex 29.870622946255484 61.878696913938235 8.712122611259067
  endloop
endfacet
facet normal -0.9999999995619586 5.392905253258397e-10 2.9598696904994698e-05
  outer loop
    vertex 29.87043038072378 79.42789123927203 2.2059241652867896
    vertex 29.870622946255484 61.878696913938235 8.712122611259067
    vertex 29.87064221859689 61.92309163519598 9.363243082393286
  endloop
endfacet
facet normal -0.9999999995619586 5.392905253258397e-10 2.9598696904994698e-05
  outer loop
    vertex 29.87043038072378 79.42789123927203 2.2059241652867896
    vertex 29.87064221859689 61.92309163519598 9.363243082393286
    vertex 29.870696768995437 65.42805521213754 11.206179225138499
  endloop
endfacet
facet normal -0.9999999995619586 5.392905253258397e-10 2.9598696904994698e-05
  outer loop
    vertex 29.870696768995437 65.42805521213754 11.206179225138499
    vertex 29.87064221859689 61.92309163519598 9.363243082393286
    vertex 29.87081516378302 65.42812808793414 15.206179222722255
  endloop
endfacet
facet normal -0.9999999995619586 5.392905253258397e-10 2.9598696904994698e-05
  outer loop
    vertex 29.87043038072378 79.42789123927203 2.2059241652867896
    vertex 29.870696768995437 65.42805521213754 11.206179225138499
    vertex 29.870696768995888 79.42805520981386 11.205924159850193
  endloop
endfacet
facet normal -2.4044993091483677e-14 -0.999999999834035 1.8218949173168114e-05
  outer loop
    vertex 29.87069676899503 53.53027773524509 11.206395990141422
    vertex 33.870815162030574 53.53035060888481 15.206277592937411
    vertex 29.870815170198558 53.5303506149911 15.206612752730805
  endloop
endfacet
facet normal -8.856549299878098e-14 -0.999999999834035 1.8218949217160034e-05
  outer loop
    vertex 58.870696756291814 53.530277719605245 11.205537627907475
    vertex 58.87081515107888 53.53035059540194 15.205537608563851
    vertex 54.87081515283171 53.53035059755965 15.205656020302097
  endloop
endfacet
facet normal 0.9999999995619586 -5.392888472266335e-10 -2.9598696903795174e-05
  outer loop
    vertex 58.870430368019186 39.427891230271136 2.2057945610431005
    vertex 58.870696756291814 53.530277719605245 11.205537627907475
    vertex 58.87069675629139 39.42805520081314 11.205794555582862
  endloop
endfacet
facet normal 0.9999999995619586 -5.392888472266335e-10 -2.9598696903795174e-05
  outer loop
    vertex 58.870696756291814 53.530277719605245 11.205537627907475
    vertex 58.870430368019186 39.427891230271136 2.2057945610431005
    vertex 58.870582052560096 57.7747194420467 7.3301636185356625
  endloop
endfacet
facet normal 0.9999999995619586 -5.392888472266335e-10 -2.9598696903795174e-05
  outer loop
    vertex 58.870582052560096 57.7747194420467 7.3301636185356625
    vertex 58.870430368019186 39.427891230271136 2.2057945610431005
    vertex 58.87057127871365 58.31640895059101 6.966156426582991
  endloop
endfacet
facet normal 0.9999999995619586 -5.392888472266335e-10 -2.9598696903795174e-05
  outer loop
    vertex 58.87057127871365 58.31640895059101 6.966156426582991
    vertex 58.870430368019186 39.427891230271136 2.2057945610431005
    vertex 58.8705650217523 58.933852830596415 6.754752040201596
  endloop
endfacet
facet normal 0.9999999995619586 -5.392888472266335e-10 -2.9598696903795174e-05
  outer loop
    vertex 58.8705650217523 58.933852830596415 6.754752040201596
    vertex 58.870430368019186 39.427891230271136 2.2057945610431005
    vertex 58.87043036802043 79.42789122363264 2.2050658030757644
  endloop
endfacet
facet normal 0.9999999995619586 -5.392888472266335e-10 -2.9598696903795174e-05
  outer loop
    vertex 58.870696756291814 53.530277719605245 11.205537627907475
    vertex 58.870582052560096 57.7747194420467 7.3301636185356625
    vertex 58.87059660907171 57.34569954978683 7.821967127481039
  endloop
endfacet
facet normal 0.9999999995619586 -5.392888472266335e-10 -2.9598696903795174e-05
  outer loop
    vertex 58.870696756291814 53.530277719605245 11.205537627907475
    vertex 58.87059660907171 57.34569954978683 7.821967127481039
    vertex 58.870613956246366 57.05858627048021 8.408051357027533
  endloop
endfacet
facet normal 0.9999999995619586 -5.392888472266335e-10 -2.9598696903795174e-05
  outer loop
    vertex 58.870696756291814 53.530277719605245 11.205537627907475
    vertex 58.870613956246366 57.05858627048021 8.408051357027533
    vertex 58.87063291190271 56.932945899634774 9.048475635479477
  endloop
endfacet
facet normal 0.9999999995619586 -5.392888472266335e-10 -2.9598696903795174e-05
  outer loop
    vertex 58.8705650217523 58.933852830596415 6.754752040201596
    vertex 58.87043036802043 79.42789122363264 2.2050658030757644
    vertex 58.870563708077476 59.58497330201633 6.710357318962803
  endloop
endfacet
facet normal 0.9999999995619586 -5.392888472266335e-10 -2.9598696903795174e-05
  outer loop
    vertex 58.870563708077476 59.58497330201633 6.710357318962803
    vertex 58.87043036802043 79.42789122363264 2.2050658030757644
    vertex 58.87056742721414 60.225397580749096 6.8359976897534676
  endloop
endfacet
facet normal 0.9999999995619586 -5.392888472266335e-10 -2.9598696903795174e-05
  outer loop
    vertex 58.87056742721414 60.225397580749096 6.8359976897534676
    vertex 58.87043036802043 79.42789122363264 2.2050658030757644
    vertex 58.870575925709225 60.8114818105516 7.123110968935737
  endloop
endfacet
facet normal 0.9999999995619586 -5.392888472266335e-10 -2.9598696903795174e-05
  outer loop
    vertex 58.870575925709225 60.8114818105516 7.123110968935737
    vertex 58.87043036802043 79.42789122363264 2.2050658030757644
    vertex 58.87058862440414 61.30328531971201 7.552130861005924
  endloop
endfacet
facet normal 0.9999999995619586 -5.392888472266335e-10 -2.9598696903795174e-05
  outer loop
    vertex 58.87058862440414 61.30328531971201 7.552130861005924
    vertex 58.87043036802043 79.42789122363264 2.2050658030757644
    vertex 58.87060465790402 61.6672925118254 8.093820369313805
  endloop
endfacet
facet normal 0.9999999995619586 -5.392888472266335e-10 -2.9598696903795174e-05
  outer loop
    vertex 58.87060465790402 61.6672925118254 8.093820369313805
    vertex 58.87043036802043 79.42789122363264 2.2050658030757644
    vertex 58.87062293355225 61.87869689829884 8.711264249048764
  endloop
endfacet
facet normal 0.9999999995619586 -5.392888472266335e-10 -2.9598696903795174e-05
  outer loop
    vertex 58.87062293355225 61.87869689829884 8.711264249048764
    vertex 58.87043036802043 79.42789122363264 2.2050658030757644
    vertex 58.870642205893745 61.92309161955658 9.362384720183524
  endloop
endfacet
facet normal 0.9999999995619586 -5.392888472266335e-10 -2.9598696903795174e-05
  outer loop
    vertex 58.870642205893745 61.92309161955658 9.362384720183524
    vertex 58.87043036802043 79.42789122363264 2.2050658030757644
    vertex 58.870696756292155 65.42805519649787 11.205320862887048
  endloop
endfacet
facet normal 0.9999999995619586 -5.392888472266335e-10 -2.9598696903795174e-05
  outer loop
    vertex 58.870642205893745 61.92309161955658 9.362384720183524
    vertex 58.870696756292155 65.42805519649787 11.205320862887048
    vertex 58.870815151079356 65.42812807229457 15.205320843560388
  endloop
endfacet
facet normal 0.9999999995619586 -5.392888472266335e-10 -2.9598696903795174e-05
  outer loop
    vertex 58.870696756292155 65.42805519649787 11.205320862887048
    vertex 58.87043036802043 79.42789122363264 2.2050658030757644
    vertex 58.87069675629261 79.42805519417446 11.205065797597658
  endloop
endfacet
facet normal 0.9999999995619586 -5.392888472266335e-10 -2.9598696903795174e-05
  outer loop
    vertex 58.870696756291814 53.530277719605245 11.205537627907475
    vertex 58.870815151079356 65.42812807229457 15.205320843560388
    vertex 58.87081515107888 53.53035059540194 15.205537608563851
  endloop
endfacet
facet normal 0.9999999995619586 -5.392888472266335e-10 -2.9598696903795174e-05
  outer loop
    vertex 58.870815151079356 65.42812807229457 15.205320843560388
    vertex 58.870696756291814 53.530277719605245 11.205537627907475
    vertex 58.870699192087315 58.04455570863967 11.287749386727805
  endloop
endfacet
facet normal 0.9999999995619586 -5.392888472266335e-10 -2.9598696903795174e-05
  outer loop
    vertex 58.870699192087315 58.04455570863967 11.287749386727805
    vertex 58.870696756291814 53.530277719605245 11.205537627907475
    vertex 58.87068649339229 57.55275219947952 10.858729494657256
  endloop
endfacet
facet normal 0.9999999995619586 -5.392888472266335e-10 -2.9598696903795174e-05
  outer loop
    vertex 58.87068649339229 57.55275219947952 10.858729494657256
    vertex 58.870696756291814 53.530277719605245 11.205537627907475
    vertex 58.87067045989233 57.18874500736623 10.317039986349194
  endloop
endfacet
facet normal 0.9999999995619586 -5.392888472266335e-10 -2.9598696903795174e-05
  outer loop
    vertex 58.87067045989233 57.18874500736623 10.317039986349194
    vertex 58.870696756291814 53.530277719605245 11.205537627907475
    vertex 58.87065218424414 56.97734062089279 9.699596106613875
  endloop
endfacet
facet normal 0.9999999995619586 -5.392888472266335e-10 -2.9598696903795174e-05
  outer loop
    vertex 58.87065218424414 56.97734062089279 9.699596106613875
    vertex 58.870696756291814 53.530277719605245 11.205537627907475
    vertex 58.87063291190271 56.932945899634774 9.048475635479477
  endloop
endfacet
facet normal 0.9999999995619586 -5.392888472266335e-10 -2.9598696903795174e-05
  outer loop
    vertex 58.870815151079356 65.42812807229457 15.205320843560388
    vertex 58.870699192087315 58.04455570863967 11.287749386727805
    vertex 58.8707076905822 58.63063993844199 11.574862665908991
  endloop
endfacet
facet normal 0.9999999995619586 -5.392888472266335e-10 -2.9598696903795174e-05
  outer loop
    vertex 58.870815151079356 65.42812807229457 15.205320843560388
    vertex 58.8707076905822 58.63063993844199 11.574862665908991
    vertex 58.870711409718915 59.271064217175116 11.700503036699295
  endloop
endfacet
facet normal 0.9999999995619586 -5.392888472266335e-10 -2.9598696903795174e-05
  outer loop
    vertex 58.870815151079356 65.42812807229457 15.205320843560388
    vertex 58.870711409718915 59.271064217175116 11.700503036699295
    vertex 58.87071009604416 59.922184688594854 11.656108315460862
  endloop
endfacet
facet normal 0.9999999995619586 -5.392888472266335e-10 -2.9598696903795174e-05
  outer loop
    vertex 58.870815151079356 65.42812807229457 15.205320843560388
    vertex 58.87071009604416 59.922184688594854 11.656108315460862
    vertex 58.87070383908274 60.53962856860026 11.444703929080912
  endloop
endfacet
facet normal 0.9999999995619586 -5.392888472266335e-10 -2.9598696903795174e-05
  outer loop
    vertex 58.870815151079356 65.42812807229457 15.205320843560388
    vertex 58.87070383908274 60.53962856860026 11.444703929080912
    vertex 58.87069306523636 61.08131807714547 11.080696737125534
  endloop
endfacet
facet normal 0.9999999995619586 -5.392888472266335e-10 -2.9598696903795174e-05
  outer loop
    vertex 58.870815151079356 65.42812807229457 15.205320843560388
    vertex 58.87069306523636 61.08131807714547 11.080696737125534
    vertex 58.87067850872472 61.51033796940443 10.5888932281816
  endloop
endfacet
facet normal 0.9999999995619586 -5.392888472266335e-10 -2.9598696903795174e-05
  outer loop
    vertex 58.870815151079356 65.42812807229457 15.205320843560388
    vertex 58.87067850872472 61.51033796940443 10.5888932281816
    vertex 58.87066116155007 61.79745124871096 10.002808998635468
  endloop
endfacet
facet normal 0.9999999995619586 -5.392888472266335e-10 -2.9598696903795174e-05
  outer loop
    vertex 58.870815151079356 65.42812807229457 15.205320843560388
    vertex 58.87066116155007 61.79745124871096 10.002808998635468
    vertex 58.870642205893745 61.92309161955658 9.362384720183524
  endloop
endfacet
facet normal 4.0623911164090507e-14 0.999999999834035 -1.821894921990091e-05
  outer loop
    vertex 58.870696756292155 65.42805519649787 11.205320862887048
    vertex 54.87081515283203 65.4281280744519 15.205439255299536
    vertex 58.870815151079356 65.42812807229457 15.205320843560388
  endloop
endfacet
facet normal 0.7071277103163187 1.2882361198416875e-05 0.7070858513199407
  outer loop
    vertex 33.3212521744242 58.933852844374904 6.755508266569073
    vertex 33.27056653323879 39.42797505124263 6.806552284906304
    vertex 36.33047595988588 39.42791929960857 3.746461714740141
  endloop
endfacet
facet normal 0.7070858514367724 -1.2883123852997303e-05 -0.70712771019948
  outer loop
    vertex 33.43127728563665 58.3164089643104 6.966909396535833
    vertex 33.79528538236252 57.774719455569546 7.330905814641872
    vertex 33.27056653323879 39.42797505124263 6.806552284906304
  endloop
endfacet
facet normal 0.7071277103164921 1.2882361197503073e-05 0.7070858513197672
  outer loop
    vertex 33.3212521744242 58.933852844374904 6.755508266569073
    vertex 33.270566533239425 58.78580420995989 6.806199605599819
    vertex 33.27056653323879 39.42797505124263 6.806552284906304
  endloop
endfacet
facet normal 0.7070858514376812 -1.2883123868439e-05 -0.7071277101985713
  outer loop
    vertex 33.270566533239425 58.78580420995989 6.806199605599819
    vertex 33.43127728563665 58.3164089643104 6.966909396535833
    vertex 33.27056653323879 39.42797505124263 6.806552284906304
  endloop
endfacet
facet normal -2.9530173472779527e-05 -0.06802410724445575 -0.997683677305369
  outer loop
    vertex 45.37071010195772 59.9221846958756 11.656507897869705
    vertex 58.87071009604416 59.922184688594854 11.656108315460862
    vertex 45.37071141563247 59.27106422445586 11.700902619108136
  endloop
endfacet
facet normal -2.800298374880995e-05 -0.3239257787851856 -0.9460824959031026
  outer loop
    vertex 45.37071010195772 59.9221846958756 11.656507897869705
    vertex 58.87070383908274 60.53962856860026 11.444703929080912
    vertex 58.87071009604416 59.922184688594854 11.656108315460862
  endloop
endfacet
endsolid Untitled-5989f768
