# FreeCAD v0.20 build2 Arch module
# http://www.freecadweb.org
mtllib holder-30 mm.mtl
o Body003
usemtl color_cccccc
v 100.800003 135.25 0.0
v 59.200001 135.25 0.0
v 59.200001 135.25 30.0
v 100.800003 135.25 30.0
v 100.800003 104.75 0.0
v 100.800003 104.75 30.0
v 59.200001 104.75 0.0
v 59.200001 104.75 30.0
v 95.621849 130.976791 0.0
v 95.75 130.25 0.0
v 95.75 130.25 30.0
v 95.621849 130.976791 30.0
v 95.252846 131.615921 0.0
v 95.252846 131.615921 30.0
v 94.6875 132.090302 0.0
v 94.6875 132.090302 30.0
v 93.994003 132.342712 0.0
v 93.994003 132.342712 30.0
v 93.255997 132.342712 30.0
v 93.255997 132.342712 0.0
v 92.5625 132.090302 0.0
v 92.5625 132.090302 30.0
v 91.997154 131.615921 0.0
v 91.997154 131.615921 30.0
v 91.628151 130.976791 30.0
v 91.628151 130.976791 0.0
v 91.5 130.25 0.0
v 91.5 130.25 30.0
v 91.5 109.75 0.0
v 91.5 109.75 30.0
v 91.628151 109.023209 0.0
v 91.628151 109.023209 30.0
v 91.997154 108.384079 0.0
v 91.997154 108.384079 30.0
v 92.5625 107.909698 0.0
v 92.5625 107.909698 30.0
v 93.255997 107.65728 30.0
v 93.255997 107.65728 0.0
v 93.994003 107.65728 0.0
v 93.994003 107.65728 30.0
v 94.6875 107.909698 0.0
v 94.6875 107.909698 30.0
v 95.252846 108.384079 30.0
v 95.252846 108.384079 0.0
v 95.621849 109.023209 0.0
v 95.621849 109.023209 30.0
v 95.75 109.75 0.0
v 95.75 109.75 30.0
v 68.371849 130.976791 0.0
v 68.5 130.25 0.0
v 68.5 130.25 30.0
v 68.371849 130.976791 30.0
v 68.002846 131.615921 0.0
v 68.002846 131.615921 30.0
v 67.4375 132.090302 0.0
v 67.4375 132.090302 30.0
v 66.744003 132.342712 0.0
v 66.744003 132.342712 30.0
v 66.005997 132.342712 30.0
v 66.005997 132.342712 0.0
v 65.3125 132.090302 0.0
v 65.3125 132.090302 30.0
v 64.747154 131.615921 0.0
v 64.747154 131.615921 30.0
v 64.378151 130.976791 30.0
v 64.378151 130.976791 0.0
v 64.25 130.25 0.0
v 64.25 130.25 30.0
v 64.25 109.75 0.0
v 64.25 109.75 30.0
v 64.378151 109.023209 0.0
v 64.378151 109.023209 30.0
v 64.747154 108.384079 0.0
v 64.747154 108.384079 30.0
v 65.3125 107.909698 0.0
v 65.3125 107.909698 30.0
v 66.005997 107.65728 30.0
v 66.005997 107.65728 0.0
v 66.744003 107.65728 0.0
v 66.744003 107.65728 30.0
v 67.4375 107.909698 0.0
v 67.4375 107.909698 30.0
v 68.002846 108.384079 30.0
v 68.002846 108.384079 0.0
v 68.371849 109.023209 0.0
v 68.371849 109.023209 30.0
v 68.5 109.75 0.0
v 68.5 109.75 30.0
vn 0.0 1.0 0.0
vn 0.0 1.0 -0.0
vn 1.0 0.0 0.0
vn 1.0 0.0 0.0
vn 0.0 -1.0 0.0
vn 0.0 -1.0 0.0
vn -1.0 0.0 0.0
vn -1.0 0.0 0.0
vn -0.9848082065582275 -0.17364555597305298 0.0
vn -0.9848082065582275 -0.17364555597305298 0.0
vn -0.8660244345664978 -0.5000016093254089 0.0
vn -0.8660244345664978 -0.5000016093254089 0.0
vn -0.6427868604660034 -0.7660450339317322 0.0
vn -0.6427868604660034 -0.7660450339317322 0.0
vn -0.34201863408088684 -0.9396931529045105 0.0
vn 0.0 -1.0 0.0
vn -0.34201863408088684 -0.9396931529045105 0.0
vn 0.0 -1.0 0.0
vn 0.34201863408088684 -0.9396931529045105 0.0
vn 0.34201863408088684 -0.9396931529045105 0.0
vn 0.6427868604660034 -0.7660450339317322 0.0
vn 0.8660244345664978 -0.5000016093254089 0.0
vn 0.6427868604660034 -0.7660450339317322 0.0
vn 0.8660244345664978 -0.5000016093254089 0.0
vn 0.9848082065582275 -0.17364555597305298 0.0
vn 0.9848082065582275 -0.17364555597305298 0.0
vn 1.0 0.0 0.0
vn 1.0 -0.0 0.0
vn 0.9848082065582275 0.17364555597305298 0.0
vn 0.9848082065582275 0.17364555597305298 -0.0
vn 0.8660244345664978 0.5000016093254089 -0.0
vn 0.8660244345664978 0.5000016093254089 0.0
vn 0.6427868604660034 0.7660450339317322 -0.0
vn 0.3420277535915375 0.9396898746490479 -0.0
vn 0.6427868604660034 0.7660450339317322 0.0
vn 0.3420277535915375 0.9396898746490479 -0.0
vn 0.0 1.0 -0.0
vn 0.0 1.0 0.0
vn -0.3420277535915375 0.9396898746490479 0.0
vn -0.6427868604660034 0.7660450339317322 0.0
vn -0.3420277535915375 0.9396898746490479 0.0
vn -0.6427868604660034 0.7660450339317322 0.0
vn -0.8660244345664978 0.5000016093254089 0.0
vn -0.8660244345664978 0.5000016093254089 0.0
vn -0.9848082065582275 0.17364555597305298 0.0
vn -0.9848082065582275 0.17364555597305298 0.0
vn -1.0 0.0 0.0
vn -1.0 -0.0 0.0
vn -0.9848082065582275 -0.17364555597305298 0.0
vn -0.9848082065582275 -0.17364555597305298 0.0
vn -0.8660244345664978 -0.5000016093254089 0.0
vn -0.8660244345664978 -0.5000016093254089 0.0
vn -0.6427868604660034 -0.7660450339317322 0.0
vn -0.6427868604660034 -0.7660450339317322 0.0
vn -0.34201863408088684 -0.9396931529045105 0.0
vn 0.0 -1.0 0.0
vn -0.34201863408088684 -0.9396931529045105 0.0
vn 0.0 -1.0 0.0
vn 0.34201863408088684 -0.9396931529045105 0.0
vn 0.34201863408088684 -0.9396931529045105 0.0
vn 0.6427868604660034 -0.7660450339317322 0.0
vn 0.8660244345664978 -0.5000016093254089 0.0
vn 0.6427868604660034 -0.7660450339317322 0.0
vn 0.8660244345664978 -0.5000016093254089 0.0
vn 0.9848082065582275 -0.17364555597305298 0.0
vn 0.9848082065582275 -0.17364555597305298 0.0
vn 1.0 0.0 0.0
vn 1.0 -0.0 0.0
vn 0.9848082065582275 0.17364555597305298 0.0
vn 0.9848082065582275 0.17364555597305298 -0.0
vn 0.8660244345664978 0.5000016093254089 -0.0
vn 0.8660244345664978 0.5000016093254089 0.0
vn 0.6427868604660034 0.7660450339317322 -0.0
vn 0.3420277535915375 0.9396898746490479 -0.0
vn 0.6427868604660034 0.7660450339317322 0.0
vn 0.3420277535915375 0.9396898746490479 -0.0
vn 0.0 1.0 -0.0
vn 0.0 1.0 0.0
vn -0.3420277535915375 0.9396898746490479 0.0
vn -0.6427868604660034 0.7660450339317322 0.0
vn -0.3420277535915375 0.9396898746490479 0.0
vn -0.6427868604660034 0.7660450339317322 0.0
vn -0.8660244345664978 0.5000016093254089 0.0
vn -0.8660244345664978 0.5000016093254089 0.0
vn -0.9848082065582275 0.17364555597305298 0.0
vn -0.9848082065582275 0.17364555597305298 0.0
vn -1.0 0.0 0.0
vn -1.0 -0.0 0.0
vn 0.0 -0.0 -1.0
vn 0.0 0.0 -1.0
vn 0.0 -0.0 -1.0
vn 0.0 0.0 -1.0
vn 0.0 -0.0 -1.0
vn 0.0 0.0 -1.0
vn 0.0 0.0 -1.0
vn 0.0 0.0 -1.0
vn 0.0 0.0 -1.0
vn 0.0 0.0 -1.0
vn 0.0 0.0 -1.0
vn 0.0 0.0 -1.0
vn 0.0 -0.0 -1.0
vn 0.0 -0.0 -1.0
vn -0.0 -0.0 -1.0
vn 0.0 -0.0 -1.0
vn 0.0 0.0 -1.0
vn 0.0 -0.0 -1.0
vn 0.0 -0.0 -1.0
vn 0.0 0.0 -1.0
vn -0.0 -0.0 -1.0
vn 0.0 -0.0 -1.0
vn 0.0 -0.0 -1.0
vn 0.0 -0.0 -1.0
vn 0.0 -0.0 -1.0
vn 0.0 -0.0 -1.0
vn -0.0 -0.0 -1.0
vn 0.0 0.0 -1.0
vn 0.0 0.0 -1.0
vn 0.0 0.0 -1.0
vn 0.0 0.0 -1.0
vn 0.0 0.0 -1.0
vn 0.0 0.0 -1.0
vn 0.0 0.0 -1.0
vn 0.0 0.0 -1.0
vn 0.0 0.0 -1.0
vn 0.0 0.0 -1.0
vn 0.0 0.0 -1.0
vn 0.0 0.0 -1.0
vn 0.0 0.0 -1.0
vn 0.0 0.0 -1.0
vn 0.0 0.0 -1.0
vn 0.0 0.0 -1.0
vn 0.0 0.0 -1.0
vn 0.0 0.0 -1.0
vn 0.0 0.0 -1.0
vn 0.0 0.0 1.0
vn 0.0 0.0 1.0
vn 0.0 0.0 1.0
vn 0.0 0.0 1.0
vn 0.0 0.0 1.0
vn 0.0 0.0 1.0
vn 0.0 0.0 1.0
vn 0.0 0.0 1.0
vn 0.0 0.0 1.0
vn 0.0 0.0 1.0
vn 0.0 0.0 1.0
vn 0.0 0.0 1.0
vn 0.0 0.0 1.0
vn 0.0 0.0 1.0
vn 0.0 0.0 1.0
vn 0.0 0.0 1.0
vn 0.0 0.0 1.0
vn 0.0 0.0 1.0
vn 0.0 0.0 1.0
vn 0.0 0.0 1.0
vn 0.0 0.0 1.0
vn 0.0 0.0 1.0
vn 0.0 0.0 1.0
vn 0.0 0.0 1.0
vn 0.0 0.0 1.0
vn 0.0 0.0 1.0
vn 0.0 0.0 1.0
vn 0.0 0.0 1.0
vn 0.0 0.0 1.0
vn 0.0 0.0 1.0
vn 0.0 0.0 1.0
vn 0.0 0.0 1.0
vn 0.0 0.0 1.0
vn 0.0 0.0 1.0
vn 0.0 0.0 1.0
vn 0.0 0.0 1.0
vn 0.0 0.0 1.0
vn 0.0 0.0 1.0
vn 0.0 0.0 1.0
vn 0.0 0.0 1.0
vn 0.0 0.0 1.0
vn 0.0 0.0 1.0
vn 0.0 0.0 1.0
vn 0.0 0.0 1.0
vn 0.0 0.0 1.0
vn 0.0 0.0 1.0
f 1//1 2//1 3//1 
f 1//2 3//2 4//2 
f 5//3 1//3 4//3 
f 5//4 4//4 6//4 
f 7//5 5//5 6//5 
f 7//6 6//6 8//6 
f 2//7 7//7 8//7 
f 2//8 8//8 3//8 
f 9//9 10//9 11//9 
f 9//10 11//10 12//10 
f 13//11 12//11 14//11 
f 13//12 9//12 12//12 
f 15//13 14//13 16//13 
f 15//14 13//14 14//14 
f 17//15 16//15 18//15 
f 17//16 18//16 19//16 
f 17//17 15//17 16//17 
f 20//18 17//18 19//18 
f 21//19 19//19 22//19 
f 21//20 20//20 19//20 
f 23//21 22//21 24//21 
f 23//22 24//22 25//22 
f 23//23 21//23 22//23 
f 26//24 23//24 25//24 
f 27//25 25//25 28//25 
f 27//26 26//26 25//26 
f 29//27 27//27 30//27 
f 30//28 27//28 28//28 
f 31//29 29//29 30//29 
f 31//30 30//30 32//30 
f 33//31 32//31 34//31 
f 33//32 31//32 32//32 
f 35//33 34//33 36//33 
f 35//34 36//34 37//34 
f 35//35 33//35 34//35 
f 38//36 35//36 37//36 
f 39//37 37//37 40//37 
f 39//38 38//38 37//38 
f 41//39 40//39 42//39 
f 41//40 42//40 43//40 
f 41//41 39//41 40//41 
f 44//42 41//42 43//42 
f 45//43 43//43 46//43 
f 45//44 44//44 43//44 
f 47//45 46//45 48//45 
f 47//46 45//46 46//46 
f 10//47 47//47 11//47 
f 11//48 47//48 48//48 
f 49//49 50//49 51//49 
f 49//50 51//50 52//50 
f 53//51 52//51 54//51 
f 53//52 49//52 52//52 
f 55//53 54//53 56//53 
f 55//54 53//54 54//54 
f 57//55 56//55 58//55 
f 57//56 58//56 59//56 
f 57//57 55//57 56//57 
f 60//58 57//58 59//58 
f 61//59 59//59 62//59 
f 61//60 60//60 59//60 
f 63//61 62//61 64//61 
f 63//62 64//62 65//62 
f 63//63 61//63 62//63 
f 66//64 63//64 65//64 
f 67//65 65//65 68//65 
f 67//66 66//66 65//66 
f 69//67 67//67 70//67 
f 70//68 67//68 68//68 
f 71//69 69//69 70//69 
f 71//70 70//70 72//70 
f 73//71 72//71 74//71 
f 73//72 71//72 72//72 
f 75//73 74//73 76//73 
f 75//74 76//74 77//74 
f 75//75 73//75 74//75 
f 78//76 75//76 77//76 
f 79//77 77//77 80//77 
f 79//78 78//78 77//78 
f 81//79 80//79 82//79 
f 81//80 82//80 83//80 
f 81//81 79//81 80//81 
f 84//82 81//82 83//82 
f 85//83 83//83 86//83 
f 85//84 84//84 83//84 
f 87//85 86//85 88//85 
f 87//86 85//86 86//86 
f 50//87 87//87 51//87 
f 51//88 87//88 88//88 
f 73//89 75//89 7//89 
f 7//90 71//90 73//90 
f 75//91 78//91 7//91 
f 7//92 69//92 71//92 
f 78//93 79//93 7//93 
f 7//94 2//94 69//94 
f 2//95 67//95 69//95 
f 2//96 66//96 67//96 
f 2//97 63//97 66//97 
f 2//98 61//98 63//98 
f 2//99 60//99 61//99 
f 2//100 57//100 60//100 
f 81//101 35//101 79//101 
f 84//102 35//102 81//102 
f 33//103 35//103 84//103 
f 85//104 31//104 84//104 
f 84//105 31//105 33//105 
f 35//106 38//106 79//106 
f 87//107 29//107 85//107 
f 85//108 29//108 31//108 
f 39//109 5//109 38//109 
f 41//110 5//110 39//110 
f 44//111 5//111 41//111 
f 45//112 5//112 44//112 
f 47//113 5//113 45//113 
f 79//114 5//114 7//114 
f 38//115 5//115 79//115 
f 50//116 27//116 87//116 
f 87//117 27//117 29//117 
f 50//118 26//118 27//118 
f 49//119 26//119 50//119 
f 53//120 23//120 49//120 
f 49//121 23//121 26//121 
f 53//122 21//122 23//122 
f 55//123 21//123 53//123 
f 10//124 1//124 47//124 
f 47//125 1//125 5//125 
f 9//126 1//126 10//126 
f 13//127 1//127 9//127 
f 15//128 1//128 13//128 
f 17//129 1//129 15//129 
f 20//130 1//130 17//130 
f 2//131 1//131 57//131 
f 57//132 1//132 55//132 
f 55//133 1//133 20//133 
f 55//134 20//134 21//134 
f 76//135 74//135 8//135 
f 72//136 8//136 74//136 
f 77//137 76//137 8//137 
f 70//138 8//138 72//138 
f 80//139 77//139 8//139 
f 3//140 8//140 70//140 
f 68//141 3//141 70//141 
f 65//142 3//142 68//142 
f 64//143 3//143 65//143 
f 62//144 3//144 64//144 
f 59//145 3//145 62//145 
f 58//146 3//146 59//146 
f 36//147 82//147 80//147 
f 36//148 83//148 82//148 
f 36//149 34//149 83//149 
f 32//150 86//150 83//150 
f 32//151 83//151 34//151 
f 37//152 36//152 80//152 
f 30//153 88//153 86//153 
f 30//154 86//154 32//154 
f 6//155 40//155 37//155 
f 6//156 42//156 40//156 
f 6//157 43//157 42//157 
f 6//158 46//158 43//158 
f 6//159 48//159 46//159 
f 6//160 80//160 8//160 
f 6//161 37//161 80//161 
f 28//162 51//162 88//162 
f 28//163 88//163 30//163 
f 25//164 51//164 28//164 
f 25//165 52//165 51//165 
f 24//166 54//166 52//166 
f 24//167 52//167 25//167 
f 22//168 54//168 24//168 
f 22//169 56//169 54//169 
f 4//170 11//170 48//170 
f 4//171 48//171 6//171 
f 4//172 12//172 11//172 
f 4//173 14//173 12//173 
f 4//174 16//174 14//174 
f 4//175 18//175 16//175 
f 4//176 19//176 18//176 
f 4//177 3//177 58//177 
f 4//178 58//178 56//178 
f 4//179 56//179 19//179 
f 19//180 56//180 22//180 
