# FreeCAD v0.20 build2 Arch module
# http://www.freecadweb.org
mtllib holder-20 mm.mtl
o Body002
usemtl color_cccccc
v 100.800003 95.25 0.0
v 59.200001 95.25 0.0
v 59.200001 95.25 20.0
v 100.800003 95.25 20.0
v 100.800003 64.75 0.0
v 100.800003 64.75 20.0
v 59.200001 64.75 0.0
v 59.200001 64.75 20.0
v 95.75 90.25 0.0
v 95.75 90.25 20.0
v 95.621849 90.976791 20.0
v 95.621849 90.976791 0.0
v 95.252846 91.615921 0.0
v 95.252846 91.615921 20.0
v 94.6875 92.090302 0.0
v 94.6875 92.090302 20.0
v 93.994003 92.34272 0.0
v 93.994003 92.34272 20.0
v 93.255997 92.34272 0.0
v 93.255997 92.34272 20.0
v 92.5625 92.090302 0.0
v 92.5625 92.090302 20.0
v 91.997154 91.615921 20.0
v 91.997154 91.615921 0.0
v 91.628151 90.976791 0.0
v 91.628151 90.976791 20.0
v 91.5 90.25 20.0
v 91.5 90.25 0.0
v 91.5 69.75 0.0
v 91.5 69.75 20.0
v 91.628151 69.023209 20.0
v 91.628151 69.023209 0.0
v 91.997154 68.384079 0.0
v 91.997154 68.384079 20.0
v 92.5625 67.909698 0.0
v 92.5625 67.909698 20.0
v 93.255997 67.65728 0.0
v 93.255997 67.65728 20.0
v 93.994003 67.65728 20.0
v 93.994003 67.65728 0.0
v 94.6875 67.909698 0.0
v 94.6875 67.909698 20.0
v 95.252846 68.384079 0.0
v 95.252846 68.384079 20.0
v 95.621849 69.023209 0.0
v 95.621849 69.023209 20.0
v 95.75 69.75 0.0
v 95.75 69.75 20.0
v 68.5 90.25 0.0
v 68.5 90.25 20.0
v 68.371849 90.976791 20.0
v 68.371849 90.976791 0.0
v 68.002846 91.615921 0.0
v 68.002846 91.615921 20.0
v 67.4375 92.090302 0.0
v 67.4375 92.090302 20.0
v 66.744003 92.34272 0.0
v 66.744003 92.34272 20.0
v 66.005997 92.34272 0.0
v 66.005997 92.34272 20.0
v 65.3125 92.090302 0.0
v 65.3125 92.090302 20.0
v 64.747154 91.615921 20.0
v 64.747154 91.615921 0.0
v 64.378151 90.976791 0.0
v 64.378151 90.976791 20.0
v 64.25 90.25 20.0
v 64.25 90.25 0.0
v 64.25 69.75 0.0
v 64.25 69.75 20.0
v 64.378151 69.023209 20.0
v 64.378151 69.023209 0.0
v 64.747154 68.384079 0.0
v 64.747154 68.384079 20.0
v 65.3125 67.909698 0.0
v 65.3125 67.909698 20.0
v 66.005997 67.65728 0.0
v 66.005997 67.65728 20.0
v 66.744003 67.65728 20.0
v 66.744003 67.65728 0.0
v 67.4375 67.909698 0.0
v 67.4375 67.909698 20.0
v 68.002846 68.384079 0.0
v 68.002846 68.384079 20.0
v 68.371849 69.023209 0.0
v 68.371849 69.023209 20.0
v 68.5 69.75 0.0
v 68.5 69.75 20.0
vn 0.0 1.0 0.0
vn 0.0 1.0 -0.0
vn 1.0 0.0 0.0
vn 1.0 0.0 0.0
vn 0.0 -1.0 0.0
vn 0.0 -1.0 0.0
vn -1.0 0.0 0.0
vn -1.0 0.0 0.0
vn -0.9848082065582275 -0.17364555597305298 0.0
vn -0.9848082065582275 -0.17364555597305298 0.0
vn -0.8660244345664978 -0.5000016689300537 0.0
vn -0.8660244345664978 -0.5000016689300537 0.0
vn -0.6427868604660034 -0.7660450339317322 0.0
vn -0.6427868604660034 -0.7660450339317322 0.0
vn -0.3420277535915375 -0.9396898150444031 0.0
vn -0.3420277535915375 -0.9396898150444031 0.0
vn 0.0 -1.0 0.0
vn 0.0 -1.0 0.0
vn 0.3420277535915375 -0.9396898150444031 0.0
vn 0.6427868604660034 -0.7660450339317322 0.0
vn 0.3420277535915375 -0.9396898150444031 0.0
vn 0.6427868604660034 -0.7660450339317322 0.0
vn 0.8660244345664978 -0.5000016689300537 0.0
vn 0.9848082065582275 -0.17364555597305298 0.0
vn 0.8660244345664978 -0.5000016689300537 0.0
vn 0.9848082065582275 -0.17364555597305298 0.0
vn 1.0 0.0 0.0
vn 1.0 0.0 0.0
vn 0.9848082065582275 0.17364555597305298 -0.0
vn 0.9848082065582275 0.17364555597305298 -0.0
vn 0.8660244345664978 0.5000016689300537 -0.0
vn 0.8660244345664978 0.5000016689300537 0.0
vn 0.6427868604660034 0.7660450339317322 -0.0
vn 0.6427868604660034 0.7660450339317322 0.0
vn 0.3420277535915375 0.9396898150444031 -0.0
vn 0.0 1.0 0.0
vn 0.3420277535915375 0.9396898150444031 0.0
vn 0.0 1.0 -0.0
vn -0.3420277535915375 0.9396898150444031 0.0
vn -0.3420277535915375 0.9396898150444031 0.0
vn -0.6427868604660034 0.7660450339317322 0.0
vn -0.6427868604660034 0.7660450339317322 0.0
vn -0.8660244345664978 0.5000016689300537 0.0
vn -0.8660244345664978 0.5000016689300537 0.0
vn -0.9848082065582275 0.17364555597305298 0.0
vn -0.9848082065582275 0.17364555597305298 0.0
vn -1.0 0.0 0.0
vn -1.0 0.0 0.0
vn -0.9848082065582275 -0.17364555597305298 0.0
vn -0.9848082065582275 -0.17364555597305298 0.0
vn -0.8660244345664978 -0.5000016689300537 0.0
vn -0.8660244345664978 -0.5000016689300537 0.0
vn -0.6427868604660034 -0.7660450339317322 0.0
vn -0.6427868604660034 -0.7660450339317322 0.0
vn -0.3420277535915375 -0.9396898150444031 0.0
vn -0.3420277535915375 -0.9396898150444031 0.0
vn 0.0 -1.0 0.0
vn 0.0 -1.0 0.0
vn 0.3420277535915375 -0.9396898150444031 0.0
vn 0.6427868604660034 -0.7660450339317322 0.0
vn 0.3420277535915375 -0.9396898150444031 0.0
vn 0.6427868604660034 -0.7660450339317322 0.0
vn 0.8660244345664978 -0.5000016689300537 0.0
vn 0.9848082065582275 -0.17364555597305298 0.0
vn 0.8660244345664978 -0.5000016689300537 0.0
vn 0.9848082065582275 -0.17364555597305298 0.0
vn 1.0 0.0 0.0
vn 1.0 0.0 0.0
vn 0.9848082065582275 0.17364555597305298 -0.0
vn 0.9848082065582275 0.17364555597305298 -0.0
vn 0.8660244345664978 0.5000016689300537 -0.0
vn 0.8660244345664978 0.5000016689300537 0.0
vn 0.6427868604660034 0.7660450339317322 -0.0
vn 0.6427868604660034 0.7660450339317322 0.0
vn 0.3420277535915375 0.9396898150444031 -0.0
vn 0.0 1.0 0.0
vn 0.3420277535915375 0.9396898150444031 0.0
vn 0.0 1.0 -0.0
vn -0.3420277535915375 0.9396898150444031 0.0
vn -0.3420277535915375 0.9396898150444031 0.0
vn -0.6427868604660034 0.7660450339317322 0.0
vn -0.6427868604660034 0.7660450339317322 0.0
vn -0.8660244345664978 0.5000016689300537 0.0
vn -0.8660244345664978 0.5000016689300537 0.0
vn -0.9848082065582275 0.17364555597305298 0.0
vn -0.9848082065582275 0.17364555597305298 0.0
vn -1.0 0.0 0.0
vn -1.0 0.0 0.0
vn 0.0 -0.0 -1.0
vn 0.0 0.0 -1.0
vn 0.0 -0.0 -1.0
vn 0.0 0.0 -1.0
vn 0.0 -0.0 -1.0
vn 0.0 0.0 -1.0
vn 0.0 0.0 -1.0
vn 0.0 0.0 -1.0
vn 0.0 0.0 -1.0
vn 0.0 0.0 -1.0
vn 0.0 0.0 -1.0
vn 0.0 0.0 -1.0
vn 0.0 -0.0 -1.0
vn 0.0 -0.0 -1.0
vn -0.0 -0.0 -1.0
vn 0.0 -0.0 -1.0
vn 0.0 0.0 -1.0
vn 0.0 -0.0 -1.0
vn 0.0 -0.0 -1.0
vn 0.0 0.0 -1.0
vn -0.0 -0.0 -1.0
vn 0.0 -0.0 -1.0
vn 0.0 -0.0 -1.0
vn 0.0 -0.0 -1.0
vn 0.0 -0.0 -1.0
vn 0.0 -0.0 -1.0
vn -0.0 -0.0 -1.0
vn 0.0 0.0 -1.0
vn 0.0 0.0 -1.0
vn 0.0 0.0 -1.0
vn 0.0 0.0 -1.0
vn 0.0 0.0 -1.0
vn 0.0 0.0 -1.0
vn 0.0 0.0 -1.0
vn 0.0 0.0 -1.0
vn 0.0 0.0 -1.0
vn 0.0 0.0 -1.0
vn 0.0 0.0 -1.0
vn 0.0 0.0 -1.0
vn 0.0 0.0 -1.0
vn 0.0 0.0 -1.0
vn 0.0 0.0 -1.0
vn 0.0 0.0 -1.0
vn 0.0 0.0 -1.0
vn 0.0 0.0 -1.0
vn 0.0 0.0 -1.0
vn 0.0 0.0 1.0
vn 0.0 0.0 1.0
vn 0.0 0.0 1.0
vn 0.0 0.0 1.0
vn 0.0 0.0 1.0
vn 0.0 0.0 1.0
vn 0.0 0.0 1.0
vn 0.0 0.0 1.0
vn 0.0 0.0 1.0
vn 0.0 0.0 1.0
vn 0.0 0.0 1.0
vn 0.0 0.0 1.0
vn 0.0 0.0 1.0
vn 0.0 0.0 1.0
vn 0.0 0.0 1.0
vn 0.0 0.0 1.0
vn 0.0 0.0 1.0
vn 0.0 0.0 1.0
vn 0.0 0.0 1.0
vn 0.0 0.0 1.0
vn 0.0 0.0 1.0
vn 0.0 0.0 1.0
vn 0.0 0.0 1.0
vn 0.0 0.0 1.0
vn 0.0 0.0 1.0
vn 0.0 0.0 1.0
vn 0.0 0.0 1.0
vn 0.0 0.0 1.0
vn 0.0 0.0 1.0
vn 0.0 0.0 1.0
vn 0.0 0.0 1.0
vn 0.0 0.0 1.0
vn 0.0 0.0 1.0
vn 0.0 0.0 1.0
vn 0.0 0.0 1.0
vn 0.0 0.0 1.0
vn 0.0 0.0 1.0
vn 0.0 0.0 1.0
vn 0.0 0.0 1.0
vn 0.0 0.0 1.0
vn 0.0 0.0 1.0
vn 0.0 0.0 1.0
vn 0.0 0.0 1.0
vn 0.0 0.0 1.0
vn 0.0 0.0 1.0
vn 0.0 0.0 1.0
f 1//1 2//1 3//1 
f 1//2 3//2 4//2 
f 5//3 1//3 4//3 
f 5//4 4//4 6//4 
f 7//5 5//5 6//5 
f 7//6 6//6 8//6 
f 2//7 7//7 8//7 
f 2//8 8//8 3//8 
f 9//9 10//9 11//9 
f 12//10 9//10 11//10 
f 13//11 11//11 14//11 
f 13//12 12//12 11//12 
f 15//13 14//13 16//13 
f 15//14 13//14 14//14 
f 17//15 16//15 18//15 
f 17//16 15//16 16//16 
f 19//17 18//17 20//17 
f 19//18 17//18 18//18 
f 21//19 20//19 22//19 
f 21//20 22//20 23//20 
f 21//21 19//21 20//21 
f 24//22 21//22 23//22 
f 25//23 23//23 26//23 
f 25//24 26//24 27//24 
f 25//25 24//25 23//25 
f 28//26 25//26 27//26 
f 29//27 27//27 30//27 
f 29//28 28//28 27//28 
f 29//29 30//29 31//29 
f 32//30 29//30 31//30 
f 33//31 31//31 34//31 
f 33//32 32//32 31//32 
f 35//33 34//33 36//33 
f 35//34 33//34 34//34 
f 37//35 36//35 38//35 
f 37//36 38//36 39//36 
f 37//37 35//37 36//37 
f 40//38 37//38 39//38 
f 41//39 39//39 42//39 
f 41//40 40//40 39//40 
f 43//41 42//41 44//41 
f 43//42 41//42 42//42 
f 45//43 44//43 46//43 
f 45//44 43//44 44//44 
f 47//45 46//45 48//45 
f 47//46 45//46 46//46 
f 9//47 48//47 10//47 
f 9//48 47//48 48//48 
f 49//49 50//49 51//49 
f 52//50 49//50 51//50 
f 53//51 51//51 54//51 
f 53//52 52//52 51//52 
f 55//53 54//53 56//53 
f 55//54 53//54 54//54 
f 57//55 56//55 58//55 
f 57//56 55//56 56//56 
f 59//57 58//57 60//57 
f 59//58 57//58 58//58 
f 61//59 60//59 62//59 
f 61//60 62//60 63//60 
f 61//61 59//61 60//61 
f 64//62 61//62 63//62 
f 65//63 63//63 66//63 
f 65//64 66//64 67//64 
f 65//65 64//65 63//65 
f 68//66 65//66 67//66 
f 69//67 67//67 70//67 
f 69//68 68//68 67//68 
f 69//69 70//69 71//69 
f 72//70 69//70 71//70 
f 73//71 71//71 74//71 
f 73//72 72//72 71//72 
f 75//73 74//73 76//73 
f 75//74 73//74 74//74 
f 77//75 76//75 78//75 
f 77//76 78//76 79//76 
f 77//77 75//77 76//77 
f 80//78 77//78 79//78 
f 81//79 79//79 82//79 
f 81//80 80//80 79//80 
f 83//81 82//81 84//81 
f 83//82 81//82 82//82 
f 85//83 84//83 86//83 
f 85//84 83//84 84//84 
f 87//85 86//85 88//85 
f 87//86 85//86 86//86 
f 49//87 88//87 50//87 
f 49//88 87//88 88//88 
f 73//89 75//89 7//89 
f 7//90 72//90 73//90 
f 75//91 77//91 7//91 
f 7//92 69//92 72//92 
f 77//93 80//93 7//93 
f 7//94 2//94 69//94 
f 2//95 68//95 69//95 
f 2//96 65//96 68//96 
f 2//97 64//97 65//97 
f 2//98 61//98 64//98 
f 2//99 59//99 61//99 
f 2//100 57//100 59//100 
f 81//101 35//101 80//101 
f 83//102 35//102 81//102 
f 33//103 35//103 83//103 
f 85//104 32//104 83//104 
f 83//105 32//105 33//105 
f 35//106 37//106 80//106 
f 87//107 29//107 85//107 
f 85//108 29//108 32//108 
f 40//109 5//109 37//109 
f 41//110 5//110 40//110 
f 43//111 5//111 41//111 
f 45//112 5//112 43//112 
f 47//113 5//113 45//113 
f 80//114 5//114 7//114 
f 37//115 5//115 80//115 
f 49//116 28//116 87//116 
f 87//117 28//117 29//117 
f 49//118 25//118 28//118 
f 52//119 25//119 49//119 
f 53//120 24//120 52//120 
f 52//121 24//121 25//121 
f 53//122 21//122 24//122 
f 55//123 21//123 53//123 
f 9//124 1//124 47//124 
f 47//125 1//125 5//125 
f 12//126 1//126 9//126 
f 13//127 1//127 12//127 
f 15//128 1//128 13//128 
f 17//129 1//129 15//129 
f 19//130 1//130 17//130 
f 2//131 1//131 57//131 
f 57//132 1//132 55//132 
f 55//133 1//133 19//133 
f 55//134 19//134 21//134 
f 76//135 74//135 8//135 
f 71//136 8//136 74//136 
f 78//137 76//137 8//137 
f 70//138 8//138 71//138 
f 79//139 78//139 8//139 
f 3//140 8//140 70//140 
f 67//141 3//141 70//141 
f 66//142 3//142 67//142 
f 63//143 3//143 66//143 
f 62//144 3//144 63//144 
f 60//145 3//145 62//145 
f 58//146 3//146 60//146 
f 36//147 82//147 79//147 
f 36//148 84//148 82//148 
f 36//149 34//149 84//149 
f 31//150 86//150 84//150 
f 31//151 84//151 34//151 
f 38//152 36//152 79//152 
f 30//153 88//153 86//153 
f 30//154 86//154 31//154 
f 6//155 39//155 38//155 
f 6//156 42//156 39//156 
f 6//157 44//157 42//157 
f 6//158 46//158 44//158 
f 6//159 48//159 46//159 
f 6//160 79//160 8//160 
f 6//161 38//161 79//161 
f 27//162 50//162 88//162 
f 27//163 88//163 30//163 
f 26//164 50//164 27//164 
f 26//165 51//165 50//165 
f 23//166 54//166 51//166 
f 23//167 51//167 26//167 
f 22//168 54//168 23//168 
f 22//169 56//169 54//169 
f 4//170 10//170 48//170 
f 4//171 48//171 6//171 
f 4//172 11//172 10//172 
f 4//173 14//173 11//173 
f 4//174 16//174 14//174 
f 4//175 18//175 16//175 
f 4//176 20//176 18//176 
f 4//177 3//177 58//177 
f 4//178 58//178 56//178 
f 4//179 56//179 20//179 
f 20//180 56//180 22//180 
